<?xml version="1.0" encoding="UTF-8"?>
<svg width="158px" height="164px" viewBox="0 0 158 164" version="1.1" xmlns="http://www.w3.org/2000/svg" xmlns:xlink="http://www.w3.org/1999/xlink">
    <title>222B9077-41A3-4A8F-BFFB-5F2B8AD79761</title>
    <defs>
        <linearGradient x1="84.4380623%" y1="13.7877781%" x2="17.2600024%" y2="84.7950617%" id="linearGradient-1">
            <stop stop-color="#F6F7FA" offset="0%"></stop>
            <stop stop-color="#D9DDE5" offset="100%"></stop>
        </linearGradient>
        <path d="M150,75 C150,116.421 116.422,150 75.001,150 C33.579,150 0,116.421 0,75 C0,33.579 33.579,0 75.001,0 C116.422,0 150,33.579 150,75 Z" id="path-2"></path>
        <linearGradient x1="84.4380623%" y1="13.7877781%" x2="17.2600024%" y2="84.7950617%" id="linearGradient-4">
            <stop stop-color="#D5DAE3" offset="0%"></stop>
            <stop stop-color="#ECEFF3" offset="100%"></stop>
        </linearGradient>
        <linearGradient x1="84.4380623%" y1="13.7877781%" x2="17.2600024%" y2="84.7950617%" id="linearGradient-5">
            <stop stop-color="#C3C7D0" offset="0%"></stop>
            <stop stop-color="#ECEFF3" offset="100%"></stop>
        </linearGradient>
        <linearGradient x1="50%" y1="0%" x2="50%" y2="100%" id="linearGradient-6">
            <stop stop-color="#F4F7FC" offset="0%"></stop>
            <stop stop-color="#C0C6D4" offset="100%"></stop>
        </linearGradient>
    </defs>
    <g id="Page-1" stroke="none" stroke-width="1" fill="none" fill-rule="evenodd">
        <g id="page-not-found" transform="translate(-1006.000000, -341.000000)">
            <g id="Group-3" transform="translate(917.000000, 343.000000)">
                <g id="Group" transform="translate(91.000000, 0.000000)">
                    <path d="M151.531241,76.5320412 C151.531241,117.953041 117.953241,151.532041 76.5322412,151.532041 C35.1102412,151.532041 1.53124118,117.953041 1.53124118,76.5320412 C1.53124118,35.1110412 35.1102412,1.53204118 76.5322412,1.53204118 C117.953241,1.53204118 151.531241,35.1110412 151.531241,76.5320412" id="Fill-1" fill="#FFFFFF"></path>
                    <g id="Stroke-3-Copy-5" transform="translate(1.531241, 1.532041)">
                        <mask id="mask-3" fill="white">
                            <use xlink:href="#path-2"></use>
                        </mask>
                        <use id="Mask" fill="url(#linearGradient-1)" xlink:href="#path-2"></use>
                        <path d="M77,11 C77,22.0456 68.0458667,31 57.0002667,31 C45.9544,31 37,22.0456 37,11 C37,-0.0456 45.9544,-9 57.0002667,-9 C68.0458667,-9 77,-0.0456 77,11 Z" fill="url(#linearGradient-4)" mask="url(#mask-3)"></path>
                    </g>
                    <path d="M128.531241,61.5320412 C128.531241,72.5776412 119.577108,81.5320412 108.531508,81.5320412 C97.4856412,81.5320412 88.5312412,72.5776412 88.5312412,61.5320412 C88.5312412,50.4864412 97.4856412,41.5320412 108.531508,41.5320412 C119.577108,41.5320412 128.531241,50.4864412 128.531241,61.5320412 Z" id="Stroke-3" fill="url(#linearGradient-4)"></path>
                    <path d="M42.5312412,61.5320412 C42.5312412,67.0548412 38.0541745,71.5320412 32.5313745,71.5320412 C27.0084412,71.5320412 22.5312412,67.0548412 22.5312412,61.5320412 C22.5312412,56.0092412 27.0084412,51.5320412 32.5313745,51.5320412 C38.0541745,51.5320412 42.5312412,56.0092412 42.5312412,61.5320412 Z" id="Stroke-3-Copy" fill="url(#linearGradient-5)"></path>
                    <path d="M107.531241,123.532041 C107.531241,129.054841 103.054175,133.532041 97.5313745,133.532041 C92.0084412,133.532041 87.5312412,129.054841 87.5312412,123.532041 C87.5312412,118.009241 92.0084412,113.532041 97.5313745,113.532041 C103.054175,113.532041 107.531241,118.009241 107.531241,123.532041 Z" id="Stroke-3-Copy-2" fill="url(#linearGradient-5)"></path>
                    <path d="M40.5312412,108.532041 C40.5312412,111.845721 37.8450012,114.532041 34.5313212,114.532041 C31.2175612,114.532041 28.5312412,111.845721 28.5312412,108.532041 C28.5312412,105.218361 31.2175612,102.532041 34.5313212,102.532041 C37.8450012,102.532041 40.5312412,105.218361 40.5312412,108.532041 Z" id="Stroke-3-Copy-3" fill="url(#linearGradient-5)"></path>
                    <path d="M79.5312412,91.5320412 C79.5312412,94.8457212 76.8450012,97.5320412 73.5313212,97.5320412 C70.2175612,97.5320412 67.5312412,94.8457212 67.5312412,91.5320412 C67.5312412,88.2183612 70.2175612,85.5320412 73.5313212,85.5320412 C76.8450012,85.5320412 79.5312412,88.2183612 79.5312412,91.5320412 Z" id="Stroke-3-Copy-4" fill="url(#linearGradient-5)"></path>
                    <path d="M100.903841,5.57984118 C120.183841,-2.03015882 136.852841,-2.14715882 146.030841,7.03184118 C163.704841,24.7048412 146.914841,70.1478412 108.531841,108.531841 C70.1478412,146.914841 24.7048412,163.704841 7.03184118,146.031841 C-2.14715882,136.852841 -2.03015882,120.183841 5.57984118,100.902841" id="Stroke-5" stroke="url(#linearGradient-6)" stroke-width="4" stroke-linecap="round"></path>
                    <path d="M68.8105412,144.310841 C68.8105412,153.699841 61.1995412,161.310841 51.8105412,161.310841 C42.4215412,161.310841 34.8105412,153.699841 34.8105412,144.310841 C34.8105412,134.921841 42.4215412,127.310841 51.8105412,127.310841 C61.1995412,127.310841 68.8105412,134.921841 68.8105412,144.310841" id="Fill-7" fill="url(#linearGradient-1)"></path>
                </g>
            </g>
        </g>
    </g>
</svg>