<?xml version="1.0" encoding="utf-8"?>
<!-- Generator: Adobe Illustrator 24.0.0, SVG Export Plug-In . SVG Version: 6.00 Build 0)  -->
<svg version="1.1" id="Layer_1" xmlns="http://www.w3.org/2000/svg" xmlns:xlink="http://www.w3.org/1999/xlink" x="0px" y="0px"
	 viewBox="0 0 16.5 19.2" style="enable-background:new 0 0 16.5 19.2;" xml:space="preserve">
<style type="text/css">
	.st0{fill:#4D4D4D;}
</style>
<g>
	<path class="st0" d="M7.7,19.2c-0.4-0.1-0.9-0.1-1.3-0.2c-2.8-0.6-4.9-2.1-6.4-4.5c0-0.1,0-0.2,0-0.3c1.2-2.1,3-3.4,5.3-4.2
		c0.1,0,0.2,0,0.3,0.1c0.8,0.7,1.6,1.3,2.5,1.9c0.1,0.1,0.2,0.1,0.3,0c0.9-0.6,1.7-1.2,2.5-1.9c0.1-0.1,0.2-0.1,0.4-0.1
		c2.2,0.7,4,2.1,5.2,4.1c0.1,0.1,0.1,0.3,0,0.4c-1.3,2.1-3.2,3.5-5.7,4.2C10.2,19,9.6,19,9,19.1c-0.1,0-0.1,0-0.2,0
		C8.4,19.2,8.1,19.2,7.7,19.2z M10.1,15.6c0.1,0,0.3,0,0.4,0c0.2,0,0.2,0.1,0.2,0.2c0,0.3,0,0.6,0,0.9c0,0.2,0.1,0.2,0.2,0.2
		c0.3,0,0.5,0,0.8,0c0.2,0,0.2-0.1,0.2-0.2c0-0.3,0-0.6,0-0.9c0-0.2,0.1-0.3,0.3-0.3c0.3,0,0.6,0,0.9,0c0.1,0,0.2-0.1,0.2-0.2
		c0-0.2,0-0.5,0-0.7c0-0.2-0.1-0.2-0.2-0.2c-0.3,0-0.5,0-0.8,0c-0.3,0-0.3,0-0.3-0.3c0-0.3,0-0.6,0-0.9c0-0.1-0.1-0.2-0.2-0.2
		c-0.3,0-0.5,0-0.8,0c-0.1,0-0.2,0.1-0.2,0.2c0,0.3,0,0.6,0,0.9c0,0.2-0.1,0.2-0.2,0.2c-0.3,0-0.6,0-0.9,0c-0.2,0-0.2,0.1-0.2,0.2
		c0,0.2,0,0.5,0,0.7c0,0.2,0.1,0.2,0.2,0.2C9.8,15.6,10,15.6,10.1,15.6z"/>
	<path class="st0" d="M12,4.7c0,0.6,0,1.1-0.1,1.7c-0.3,2-2.3,3.3-4.3,3C5.8,9.1,4.5,7.5,4.5,5.7c0-0.7,0-1.4,0-2
		c0.1-2.1,1.9-3.7,4-3.6c1.9,0.1,3.5,1.7,3.5,3.6C12,4,12,4.4,12,4.7C12,4.7,12,4.7,12,4.7z"/>
</g>
</svg>
