<?xml version="1.0" encoding="UTF-8"?>
<svg width="14px" height="14px" viewBox="0 0 14 14" version="1.1" xmlns="http://www.w3.org/2000/svg" xmlns:xlink="http://www.w3.org/1999/xlink">
    <!-- Generator: Sketch 63.1 (92452) - https://sketch.com -->
    <title>noun_clock_3187826</title>
    <desc>Created with Sketch.</desc>
    <g id="Page-1" stroke="none" stroke-width="1" fill="none" fill-rule="evenodd">
        <g id="upload-settings" transform="translate(-751.000000, -378.000000)" fill="#000000" fill-rule="nonzero">
            <g id="Group-8" transform="translate(751.000000, 326.000000)">
                <g id="noun_clock_3187826" transform="translate(0.000000, 52.000000)">
                    <g id="Group">
                        <path d="M7,14 C3.13400675,14 -1.65793305e-15,10.8659932 -1.65793305e-15,7 C-1.65793305e-15,3.13400675 3.13400675,-1.65793305e-15 7,-1.65793305e-15 C10.8659932,-1.65793305e-15 14,3.13400675 14,7 C14,10.8659932 10.8659932,14 7,14 Z M7,0.933333333 C3.64947252,0.933333333 0.933333333,3.64947252 0.933333333,7 C0.933333333,10.3505275 3.64947252,13.0666667 7,13.0666667 C10.3505275,13.0666667 13.0666667,10.3505275 13.0666667,7 C13.0666667,5.39101996 12.4275018,3.84793956 11.2897811,2.71021886 C10.1520604,1.57249816 8.60898004,0.933333333 7,0.933333333 Z" id="Shape"></path>
                        <path d="M9.33333333,10.2666673 C9.19453162,10.2668921 9.06283303,10.2053187 8.974,10.0986667 L6.64066667,7.29866667 C6.57109546,7.21470771 6.53312029,7.10903767 6.53333244,7 L6.53333244,2.33333333 C6.53333244,2.07560045 6.74226712,1.86666667 7,1.86666667 C7.25773288,1.86666667 7.46666667,2.07560045 7.46666667,2.33333333 L7.46666667,6.832 L9.69266667,9.50133333 C9.8086298,9.64055653 9.83352241,9.83431984 9.75651591,9.99833369 C9.6795094,10.1623475 9.51452511,10.2669613 9.33333333,10.2666673 Z" id="Path"></path>
                    </g>
                </g>
            </g>
        </g>
    </g>
</svg>