<?xml version="1.0" encoding="UTF-8"?>
<svg width="16px" height="16px" viewBox="0 0 16 16" version="1.1" xmlns="http://www.w3.org/2000/svg" xmlns:xlink="http://www.w3.org/1999/xlink">
    <title>delete</title>
    <g id="Icons" stroke="none" stroke-width="1" fill="none" fill-rule="evenodd">
        <g id="delete">
            <rect id="Rectangle" x="0" y="0" width="16" height="16"></rect>
            <g id="Group-37" transform="translate(2.000000, 1.000000)" stroke="#FFFFFF" stroke-linecap="round" stroke-linejoin="round" stroke-width="1.5">
                <polyline id="Path-Copy-3" points="0 2.66666667 1.33333333 2.66666667 12 2.66666667"></polyline>
                <path d="M10.6666667,2.66666667 L10.6666667,12 C10.6666667,12.7363797 10.069713,13.3333333 9.33333333,13.3333333 L2.66666667,13.3333333 C1.930287,13.3333333 1.33333333,12.7363797 1.33333333,12 L1.33333333,2.66666667 M3.33333333,2.66666667 L3.33333333,1.33333333 C3.33333333,0.596953667 3.930287,-7.99360578e-15 4.66666667,-7.99360578e-15 L7.33333333,-7.99360578e-15 C8.069713,-7.99360578e-15 8.66666667,0.596953667 8.66666667,1.33333333 L8.66666667,2.66666667" id="Shape-Copy"></path>
                <line x1="4.66666667" y1="6" x2="4.66666667" y2="10" id="Path-Copy-4"></line>
                <line x1="7.33333333" y1="6" x2="7.33333333" y2="10" id="Path-Copy-5"></line>
            </g>
        </g>
    </g>
</svg>