<?xml version="1.0" encoding="UTF-8"?>
<svg width="16px" height="16px" viewBox="0 0 16 16" version="1.1" xmlns="http://www.w3.org/2000/svg" xmlns:xlink="http://www.w3.org/1999/xlink">
    <title>edit</title>
    <g id="Icons" stroke="none" stroke-width="1" fill="none" fill-rule="evenodd">
        <g id="edit">
            <rect id="Rectangle" x="0" y="0" width="16" height="16"></rect>
            <g id="Group-35" transform="translate(1.000000, 1.000000)" stroke="#212529" class="icon" stroke-width="1.5">
                <g id="Group-34" transform="translate(7.500000, 7.000000) rotate(45.000000) translate(-7.500000, -7.000000) translate(6.000000, 0.000000)">
                    <path d="M1,0 L2,0 C2.55228475,-1.01453063e-16 3,0.44771525 3,1 L3,10.763932 C3,10.9191771 2.96385491,11.0722902 2.89442719,11.2111456 L2.25,12.5 C2.04289322,12.9142136 1.53921356,13.0821068 1.125,12.875 C0.96272234,12.7938612 0.83113883,12.6622777 0.75,12.5 L0.105572809,11.2111456 C0.0361450918,11.0722902 3.57172572e-15,10.9191771 0,10.763932 L0,1 C-6.76353751e-17,0.44771525 0.44771525,1.01453063e-16 1,0 Z" id="Rectangle" stroke-linejoin="round"></path>
                    <line x1="0" y1="3.5" x2="3" y2="3.5" id="Path-9"></line>
                </g>
                <path d="M6,2 L1,2 C0.44771525,2 -6.76353751e-17,2.44771525 0,3 L0,13 C6.76353751e-17,13.5522847 0.44771525,14 1,14 L11,14 C11.5522847,14 12,13.5522847 12,13 L12,9 L12,9" id="Path-8" stroke-linecap="round" stroke-linejoin="round"></path>
            </g>
        </g>
    </g>
</svg>