<?xml version="1.0" encoding="UTF-8"?>
<svg width="12px" height="12px" viewBox="0 0 12 12" version="1.1" xmlns="http://www.w3.org/2000/svg" xmlns:xlink="http://www.w3.org/1999/xlink">
    <!-- Generator: Sketch 63.1 (92452) - https://sketch.com -->
    <title>noun_Full Screen_2804032</title>
    <desc>Created with Sketch.</desc>
    <g id="Page-1" stroke="none" stroke-width="1" fill="none" fill-rule="evenodd">
        <g id="processing" transform="translate(-1223.000000, -622.000000)" fill="#3D4A68" fill-rule="nonzero">
            <g id="noun_Full-Screen_2804032" transform="translate(1223.000000, 622.000000)">
                <path d="M0,0 L4.3632,0 L4.3632,1.6368 L1.6368,1.6368 L1.6368,4.3632 L0,4.3632 L0,0 Z M1.6368,7.6368 L0,7.6368 L0,12 L4.3632,12 L4.3632,10.3632 L1.6368,10.3632 L1.6368,7.6368 Z M10.3632,10.3632 L7.6368,10.3632 L7.6368,12 L12,12 L12,7.6368 L10.3632,7.6368 L10.3632,10.3632 Z M7.6368,0 L7.6368,1.6368 L10.3632,1.6368 L10.3632,4.3632 L12,4.3632 L12,0 L7.6368,0 Z" id="Path_18"></path>
            </g>
        </g>
    </g>
</svg>