<svg id="Layer_1" data-name="Layer 1" xmlns="http://www.w3.org/2000/svg" viewBox="0 0 285 285"><defs><style>.cls-1{fill:#1b4d89;}</style></defs><title>o2f icon</title><path class="cls-1" d="M215.08,123.27a6.26,6.26,0,0,0-2.62,5.82c1.49,14.9,0,32.78-5.38,66.6-5.47,34.31-16.7,50.51-23,57.18a4.49,4.49,0,0,1-7.44-1.46c-2.41-6.12-6.52-18.94-13-45.85-3.74-15.54-7.53-27-11.12-35.47-3.16-7.47-16.54-19.84-32.34-10-12.35,7.7-20.58,38.84-21.73,45.43-2.94,16.89-7.41,34.71-9.94,44.29a4.53,4.53,0,0,1-7.8,1.8c-4.76-5.43-12-16.08-19.79-36.21-12.27-31.53-10.55-78.58-10-88.85a4.46,4.46,0,0,0-1.3-3.4c-5.08-5.1-20.31-23.51-20.31-42.07,0-23.71,17.78-45.44,41.49-49.39,20.64-3.44,36.81,2.37,49.48,11,21.63,14.7,29.53,32.48,59.16,38.41,0,0-21-8.42-33.88-25.53a6.94,6.94,0,0,1,4.38-11l5.8-1c11.85-2,64.47-19.46,79.1,24.4C245.25,99.28,221.57,118.73,215.08,123.27Z"/><path class="cls-1" d="M233.35,123.27a6.26,6.26,0,0,0-2.62,5.82c1.49,14.9,0,32.78-5.38,66.6-5.47,34.32-16.69,50.51-23,57.18a4.5,4.5,0,0,1-6.49,0,.43.43,0,0,1,0-.6c6.42-7,17.17-23.22,22.49-56.6,5.38-33.82,6.87-51.7,5.38-66.6a6.26,6.26,0,0,1,2.62-5.82c6.51-4.54,30.17-24,19.74-55.29C240,49.72,227.28,42.09,213.7,39.55a.44.44,0,0,1,.11-.88c16,1.15,32.16,8,39.28,29.31C263.52,99.28,239.86,118.73,233.35,123.27Z"/></svg>