<?xml version="1.0" encoding="UTF-8"?>
<svg width="14px" height="14px" viewBox="0 0 14 14" version="1.1" xmlns="http://www.w3.org/2000/svg" xmlns:xlink="http://www.w3.org/1999/xlink">
    <!-- Generator: Sketch 63.1 (92452) - https://sketch.com -->
    <title>iconfinder_microsoft-office_3069728 copy</title>
    <desc>Created with Sketch.</desc>
    <g id="Page-1" stroke="none" stroke-width="1" fill="none" fill-rule="evenodd">
        <g id="upload-settings" transform="translate(-751.000000, -485.000000)" fill-rule="nonzero">
            <g id="iconfinder_microsoft-office_3069728-copy" transform="translate(751.000000, 485.000000)">
                <circle id="ellipse" fill="#EB3B00" cx="7" cy="7" r="7"></circle>
                <path d="M7.762,3.981 L7.751,10.281 L3.151,9.643 C3.26597799,9.5517325 3.39884754,9.48563842 3.541,9.449 C3.672,9.397 3.776,9.356 3.904,9.307 C4.155,9.207 4.414,9.083 4.652,9.018 L4.652,4.718 L7.762,3.981 Z M3.056,9.59 C3.07995631,9.61708769 3.106406,9.64186335 3.135,9.664 C3.16866109,9.68455244 3.20414444,9.70195937 3.241,9.716 C3.315,9.746 3.391,9.771 3.47,9.798 C3.628,9.853 3.762,9.907 3.923,9.967 L6.649,10.974 C7.858,11.4 7.511,11.474 8.518,11.168 L9.964,10.745 C10.223,10.669 10.338,10.688 10.364,10.565 L10.364,3.408 C10.312,3.299 10.337,3.334 10.176,3.288 L9.45,3.078 C9.131,2.988 8.814,2.892 8.487,2.797 C8.138,2.697 7.854,2.541 7.529,2.674 L3.056,4.349 L3.056,9.59 Z" id="logo" fill="#FFFFFF"></path>
            </g>
        </g>
    </g>
</svg>