<?xml version="1.0" encoding="UTF-8"?>
<svg width="14px" height="14px" viewBox="0 0 14 14" version="1.1" xmlns="http://www.w3.org/2000/svg" xmlns:xlink="http://www.w3.org/1999/xlink">
    <!-- Generator: Sketch 63.1 (92452) - https://sketch.com -->
    <title>noun_internet_3182628</title>
    <desc>Created with Sketch.</desc>
    <g id="Page-1" stroke="none" stroke-width="1" fill="none" fill-rule="evenodd">
        <g id="upload-settings" transform="translate(-751.000000, -353.000000)" fill="#000000">
            <g id="Group-8" transform="translate(751.000000, 326.000000)">
                <g id="noun_internet_3182628" transform="translate(0.000000, 27.000000)">
                    <g id="Group">
                        <path d="M7.12110968,0.11414256 C3.38919867,0.11414256 0.357923195,3.14667424 0.357923195,6.87858719 C0.357923195,10.6105003 3.38919867,13.6420882 7.12110968,13.6420882 C10.8530202,13.6420882 13.8858688,10.6105003 13.8858688,6.87858719 C13.8858688,3.14667424 10.8530202,0.11414256 7.12110968,0.11414256 Z M6.79900824,0.767152968 L6.79900824,3.97023768 C6.09043953,3.93261463 5.3994139,3.77286697 4.75473352,3.50218404 C4.87684008,3.0998932 5.01691104,2.72630868 5.17623352,2.39684772 C5.58040334,1.56107003 6.07503229,1.0111324 6.58668542,0.783195068 C6.65725414,0.777103003 6.72776875,0.770836359 6.79900824,0.767152968 Z M7.44352564,0.767152968 C7.51476659,0.770836359 7.58527717,0.777103003 7.6558483,0.783195068 C8.16794787,1.0111324 8.66338899,1.56107003 9.06755849,2.39684772 C9.22659398,2.72571489 9.3663066,3.09853377 9.48811474,3.49998231 C8.84345577,3.77138305 8.1523456,3.93169728 7.44352564,3.96992315 L7.44352564,0.767152968 Z M8.97350745,1.04364419 C9.83189182,1.31530422 10.6078682,1.7707877 11.2555835,2.36413429 C10.895464,2.69533493 10.499318,2.97899291 10.0769564,3.21279603 C9.95241413,2.81937651 9.8084546,2.45151493 9.6463345,2.11626725 C9.45044207,1.71118331 9.22437293,1.34987472 8.97350745,1.04364419 Z M5.26651002,1.04458795 C5.01657396,1.35076533 4.79155535,1.71229279 4.59619922,2.11626725 C4.43370227,2.45229442 4.28986723,2.82116917 4.16526277,3.21562698 C3.74232539,2.98200085 3.34542154,2.69790207 2.98474846,2.36665071 C3.63215044,1.77270468 4.40811469,1.31674353 5.26651002,1.04458795 Z M11.7069659,2.82432415 C12.5952862,3.82859342 13.1589353,5.12676398 13.2328584,6.55648575 L10.6010005,6.55648575 C10.5789583,5.58746743 10.4569598,4.67200265 10.2543639,3.84787699 C10.7776689,3.57345252 11.2671442,3.23123747 11.7069659,2.82432415 Z M2.53368067,2.82746963 C2.97402748,3.2343385 3.46372746,3.5765426 3.98754073,3.85070793 C3.78569571,4.67408423 3.66473454,5.58860139 3.6427917,6.55648575 L1.01093359,6.55648575 C1.08475118,5.12819459 1.6471522,3.8313229 2.53368067,2.82746963 Z M9.65451282,4.12625556 C9.82615069,4.86572041 9.93507976,5.68568372 9.95616838,6.55648575 L7.44352564,6.55648575 L7.44352564,4.61506977 C8.20854231,4.57765431 8.95521966,4.40979807 9.65451282,4.12625556 Z M4.58802091,4.12845745 C5.28750153,4.41141486 6.03403586,4.57861176 6.79900824,4.61538431 L6.79900824,6.55648575 L4.28636534,6.55648575 C4.30750502,5.68657176 4.41638239,4.8673401 4.58802091,4.12845745 Z M1.01093359,7.20100315 L3.6427917,7.20100315 C3.66477577,8.16977893 3.78597384,9.08496107 3.98816996,9.90898285 C3.46512796,10.1833662 2.97581755,10.5254666 2.53619709,10.9322212 C1.64822061,9.92822874 1.08482076,8.63060897 1.01093359,7.20100315 Z M4.28636534,7.20100315 L6.79900824,7.20100315 L6.79900824,9.14179023 C6.03418499,9.17930377 5.28776276,9.34708592 4.58864997,9.63060428 C4.41678921,8.89127519 4.30753981,8.07151771 4.28636534,7.20100315 Z M7.44352564,7.20100315 L9.95616838,7.20100315 C9.93509103,8.0705113 9.82665768,8.88941876 9.65545658,9.62808786 C8.95568944,9.34501513 8.20882608,9.17784256 7.44352564,9.141161 L7.44352564,7.20100315 Z M10.6010005,7.20100315 L13.2328584,7.20100315 C13.1590175,8.62910524 12.5964081,9.92552035 11.7097968,10.9290757 C11.2693107,10.5220801 10.7793084,10.1800447 10.2553075,9.90583737 C10.4573661,9.08262309 10.5789703,8.16855753 10.6010005,7.20100315 Z M7.44352564,9.78630762 C8.15252066,9.82384372 8.84401687,9.98349184 9.48905849,10.2543613 C9.36704808,10.6570179 9.22699258,11.0309496 9.06755849,11.3606412 C8.66355568,12.1960791 8.16835195,12.745285 7.65647737,12.9730357 C7.58570041,12.9791502 7.51497644,12.9853851 7.44352564,12.9890778 L7.44352564,9.78630762 Z M6.79900824,9.78662216 L6.79900824,12.9890778 C6.7275589,12.9853851 6.6568309,12.9791502 6.58605636,12.9730357 C6.07462837,12.745285 5.58023682,12.1960791 5.17623352,11.3606412 C5.01712427,11.0316212 4.87704606,10.658581 4.75504821,10.2568777 C5.39952873,9.98550143 6.09038026,9.82494707 6.79900824,9.78662216 Z M10.0779002,10.5409183 C10.5009952,10.7746061 10.8982561,11.0585139 11.2590436,11.3898946 C10.6110048,11.9842368 9.83406939,12.4398904 8.97476558,12.7119574 C9.22510458,12.4061725 9.45082457,12.0455166 9.6463345,11.6412218 C9.80896126,11.3049263 9.9530936,10.9357672 10.0779002,10.5409183 Z M4.16589184,10.5440638 C4.29034104,10.9377326 4.43400086,11.305812 4.59619922,11.6412218 C4.79169241,12.0454815 5.01721881,12.406189 5.26745362,12.7119574 C4.40991894,12.4403303 3.63465606,11.9854732 2.98757941,11.3927256 C3.34761151,11.061557 3.7436328,10.7778735 4.16589184,10.5440638 Z" id="Shape"></path>
                    </g>
                </g>
            </g>
        </g>
    </g>
</svg>