<?xml version="1.0" encoding="UTF-8"?>
<svg width="6px" height="7px" viewBox="0 0 6 7" version="1.1" xmlns="http://www.w3.org/2000/svg" xmlns:xlink="http://www.w3.org/1999/xlink">
    <!-- Generator: Sketch 63.1 (92452) - https://sketch.com -->
    <title>Group 8</title>
    <desc>Created with Sketch.</desc>
    <defs>
        <polygon id="path-1" points="0.0450371134 0.00544329897 3.02548454 0.00544329897 3.02548454 2.98589691 0.0450371134 2.98589691"></polygon>
    </defs>
    <g id="new" stroke="none" stroke-width="1" fill="none" fill-rule="evenodd">
        <g id="extraction" transform="translate(-228.000000, -381.000000)">
            <g id="Group-8" transform="translate(228.000000, 381.000000)">
                <g id="Group-3" transform="translate(2.969072, 0.056388)">
                    <mask id="mask-2" fill="white">
                        <use xlink:href="#path-1"></use>
                    </mask>
                    <g id="Clip-2"></g>
                    <path d="M2.71621237,2.98589691 C2.54536701,2.98589691 2.40693402,2.84740206 2.40693402,2.67661856 L2.40693402,0.624 L0.354315464,0.624 C0.183531959,0.624 0.0450371134,0.48556701 0.0450371134,0.314721649 C0.0450371134,0.143938144 0.183531959,0.00544329897 0.354315464,0.00544329897 L2.71621237,0.00544329897 C2.88705773,0.00544329897 3.02549072,0.143938144 3.02549072,0.314721649 L3.02549072,2.67661856 C3.02549072,2.84740206 2.88705773,2.98589691 2.71621237,2.98589691" id="Fill-1" fill="#2672FB" mask="url(#mask-2)"></path>
                </g>
                <path d="M2.53608247,3.82958351 C2.45696907,3.82958351 2.37773196,3.79939794 2.31742268,3.7390268 C2.19661856,3.61822268 2.19661856,3.42238763 2.31742268,3.30158351 L5.46661856,0.152449485 C5.58729897,0.0317072165 5.78325773,0.0317072165 5.90393814,0.152449485 C6.02474227,0.273191753 6.02474227,0.469026804 5.90393814,0.589830928 L2.75474227,3.7390268 C2.69443299,3.79939794 2.61519588,3.82958351 2.53608247,3.82958351" id="Fill-4" fill="#2672FB"></path>
                <path d="M4.7628866,6.05638763 L0.309278351,6.05638763 C0.13843299,6.05638763 0,5.91789278 0,5.74710928 L0,1.29350103 C0,1.12271753 0.13843299,0.98422268 0.309278351,0.98422268 L2.53608247,0.98422268 C2.70692784,0.98422268 2.84536082,1.12271753 2.84536082,1.29350103 C2.84536082,1.46428454 2.70692784,1.60277938 2.53608247,1.60277938 L0.618556701,1.60277938 L0.618556701,5.43783093 L4.45360825,5.43783093 L4.45360825,3.52030515 C4.45360825,3.34952165 4.59204124,3.2110268 4.7628866,3.2110268 C4.93373196,3.2110268 5.07216495,3.34952165 5.07216495,3.52030515 L5.07216495,5.74710928 C5.07216495,5.91789278 4.93373196,6.05638763 4.7628866,6.05638763" id="Fill-6" fill="#2672FB"></path>
            </g>
        </g>
    </g>
</svg>