<svg xmlns="http://www.w3.org/2000/svg" xmlns:xlink="http://www.w3.org/1999/xlink" viewBox="0 0 118.74 39.33"><defs><style>.cls-1{fill:#fff;}.cls-1,.cls-2,.cls-4{fill-rule:evenodd;}.cls-3{mask:url(#mask);}.cls-4{fill:#2672fb;}</style><mask id="mask" x="0" y="0" width="119.59" height="39.33" maskUnits="userSpaceOnUse"><g id="mask-2"><polygon id="path-1" class="cls-1" points="0 39.33 119.59 39.33 119.59 0 0 0 0 39.33"/></g></mask></defs><title>Asset 1</title><g id="Layer_2" data-name="Layer 2"><g id="Layer_1-2" data-name="Layer 1"><g id="Symbols"><g id="Header"><g id="Group-46"><path id="Fill-1" class="cls-2" d="M9.2,0A8.69,8.69,0,0,0,3.52,2V4.46a7.86,7.86,0,0,1,5.7-2.52,7,7,0,0,1,7,7.31V15a8.37,8.37,0,0,0,2.15-5.78A9.1,9.1,0,0,0,9.2,0"/><path id="Fill-3" class="cls-2" d="M2.18,9.09V3.31A8.34,8.34,0,0,0,0,9.09a9.09,9.09,0,0,0,9.22,9.25,8.88,8.88,0,0,0,5.7-2V13.87A8,8,0,0,1,9.2,16.4a7,7,0,0,1-7-7.31"/><path id="Fill-5" class="cls-2" d="M30.83.3H24.59V18h2.1V2.12H30.8a3.21,3.21,0,0,1,3.55,3.34c0,1.91-1.21,3.31-3.55,3.31H28v1.82h2.83c3.49,0,5.67-2.15,5.67-5.16S34.32.3,30.83.3"/><path id="Fill-7" class="cls-2" d="M51.53,4.17,53.07,3a6.53,6.53,0,0,0-5.49-3,6.36,6.36,0,0,0-1.94.3v2a5.05,5.05,0,0,1,1.89-.35,4.73,4.73,0,0,1,4,2.23"/><path id="Fill-9" class="cls-2" d="M49.14,8.44l-2-.94c-1.62-.78-2.85-1.37-2.85-3.25V.91a4.29,4.29,0,0,0-2.18,3.74c0,2.5,1.93,3.74,4,4.73l2,.95c1.75.83,3,1.47,3,3.38v3.63a4.51,4.51,0,0,0,2.18-3.95c0-2.39-1.53-3.71-4.14-5"/><path id="Fill-11" class="cls-2" d="M42.58,13.36,41,14.52a7.46,7.46,0,0,0,6.48,3.82A6.9,6.9,0,0,0,49.78,18V16a7.1,7.1,0,0,1-2.25.4,5.9,5.9,0,0,1-5-3"/><polygon id="Fill-13" class="cls-2" points="57.37 0.33 64.12 18.37 64.87 18.37 65.63 16.54 59.68 0.33 57.37 0.33"/><polygon id="Fill-15" class="cls-2" points="77.08 11.99 78.21 14.76 83.59 0.33 81.3 0.33 77.08 11.99"/><polygon id="Fill-17" class="cls-2" points="70.12 0.03 65.36 11.94 66.35 14.68 70.49 4.3 76.11 18.37 76.89 18.37 77.51 16.65 70.87 0.03 70.12 0.03"/><polygon id="Fill-19" class="cls-2" points="89.99 12.59 92.81 6.03 91.71 3.42 85.47 18.07 87.68 18.07 89.18 14.47 96.44 14.47 95.64 12.59 89.99 12.59"/><polygon id="Fill-21" class="cls-2" points="93.16 0.03 92.41 1.72 99.4 18.07 101.63 18.07 93.94 0.03 93.16 0.03"/><g class="cls-3"><polygon id="Fill-23" class="cls-2" points="102.74 2.21 117.34 2.21 117.34 0.33 102.74 0.33 102.74 2.21"/></g><g class="cls-3"><polygon id="Fill-25" class="cls-2" points="108.97 18.07 111.07 18.07 111.07 3.52 108.97 3.52 108.97 18.07"/></g><g class="cls-3"><path id="Fill-26" class="cls-2" d="M117.38,16.62h-.24V17h.24a.18.18,0,0,0,.19-.18.19.19,0,0,0-.19-.2"/></g><g class="cls-3"><path id="Fill-27" class="cls-2" d="M117.7,17.76l-.36-.48h-.2v.48h-.33V16.33h.57a.48.48,0,0,1,.53.48.44.44,0,0,1-.24.4l.4.55Zm-.34-2.13a1.42,1.42,0,0,0,0,2.83,1.42,1.42,0,0,0,0-2.83Z"/></g><g class="cls-3"><polygon id="Fill-28" class="cls-4" points="8.2 27.77 9.21 27.77 9.21 36.92 8.21 36.92 8.21 29.89 6.03 34.47 5.09 34.47 2.9 29.89 2.9 36.92 1.91 36.92 1.91 27.77 2.92 27.77 5.56 33.31 8.2 27.77"/></g><g class="cls-3"><path id="Fill-29" class="cls-4" d="M15.27,33.61a8.22,8.22,0,0,0-2.77.45,1,1,0,0,0-.59,1c0,.61.47,1.08,1.47,1.08s1.89-.56,1.89-1.62ZM12,32.24H11A2.42,2.42,0,0,1,13.61,30a2.44,2.44,0,0,1,2.64,2.64v4.29h-1v-.69a2.55,2.55,0,0,1-2.1.82,2,2,0,0,1-2.24-2,1.9,1.9,0,0,1,1.47-1.93,14.94,14.94,0,0,1,2.87-.38v-.12a1.59,1.59,0,0,0-1.66-1.69A1.56,1.56,0,0,0,12,32.24Z"/></g><g class="cls-3"><path id="Fill-30" class="cls-4" d="M19.08,35.39c0,.44.16.59.63.59h.21v.94h-.21c-1.26,0-1.61-.45-1.61-1.61V27.77h1Z"/></g><g class="cls-3"><polygon id="Fill-31" class="cls-4" points="26.91 35.43 28.22 30.18 29.24 30.18 27.46 36.92 26.44 36.92 24.94 31.63 23.43 36.92 22.41 36.92 20.64 30.18 21.66 30.18 22.96 35.43 24.45 30.18 25.42 30.18 26.91 35.43"/></g><g class="cls-3"><path id="Fill-32" class="cls-4" d="M34.39,33.61a8.16,8.16,0,0,0-2.77.45A1,1,0,0,0,31,35c0,.61.47,1.08,1.47,1.08s1.89-.56,1.89-1.62Zm-3.28-1.37h-1A2.41,2.41,0,0,1,32.73,30a2.44,2.44,0,0,1,2.64,2.64v4.29h-1v-.69a2.55,2.55,0,0,1-2.1.82,2,2,0,0,1-2.24-2,1.9,1.9,0,0,1,1.47-1.93,14.83,14.83,0,0,1,2.87-.38v-.12a1.59,1.59,0,0,0-1.66-1.69,1.56,1.56,0,0,0-1.62,1.31Z"/></g><g class="cls-3"><path id="Fill-33" class="cls-4" d="M38.22,30.88a2,2,0,0,1,1.66-.82h.44V31h-.44a1.59,1.59,0,0,0-1.66,1.69v4.23h-1V30.18h1Z"/></g><g class="cls-3"><path id="Fill-34" class="cls-4" d="M45.61,32.62a1.66,1.66,0,1,0-3.32,0v.25h3.32Zm0,2.18h1A2.41,2.41,0,0,1,44,37.05a2.44,2.44,0,0,1-2.64-2.64V32.63a2.64,2.64,0,1,1,5.28,0v1.14h-4.3v.66A1.58,1.58,0,0,0,44,36.11a1.55,1.55,0,0,0,1.62-1.31Z"/></g><g class="cls-3"><path id="Fill-35" class="cls-4" d="M54,29.17l-1.36,4.25h2.72Zm1.66,5.18H52.31l-.84,2.57h-1l2.94-9.15h1.15l3,9.15h-1Z"/></g><g class="cls-3"><path id="Fill-36" class="cls-4" d="M63.93,32.63v4.29H63v-4.3a1.66,1.66,0,1,0-3.32,0v4.3h-1V30.18h1v.64A2,2,0,0,1,61.29,30a2.44,2.44,0,0,1,2.64,2.64"/></g><g class="cls-3"><path id="Fill-37" class="cls-4" d="M69.84,33.61a8.22,8.22,0,0,0-2.77.45,1,1,0,0,0-.59,1c0,.61.47,1.08,1.47,1.08s1.89-.56,1.89-1.62Zm-3.28-1.37h-1A2.42,2.42,0,0,1,68.18,30a2.44,2.44,0,0,1,2.64,2.64v4.29h-1v-.69a2.55,2.55,0,0,1-2.1.82,2,2,0,0,1-2.24-2A1.9,1.9,0,0,1,67,33.12a14.94,14.94,0,0,1,2.87-.38v-.12a1.59,1.59,0,0,0-1.66-1.69,1.56,1.56,0,0,0-1.62,1.31Z"/></g><g class="cls-3"><path id="Fill-38" class="cls-4" d="M73.65,35.39c0,.44.16.59.63.59h.21v.94h-.21c-1.26,0-1.61-.45-1.61-1.61V27.77h1Z"/></g><g class="cls-3"><path id="Fill-39" class="cls-4" d="M78,38.64c-.19.52-.64.68-1.49.69h-.38v-.94h.49c.42,0,.51-.16.59-.39l.35-1-2.47-6.85h1l1.93,5.48L80,30.18h1Z"/></g><g class="cls-3"><path id="Fill-40" class="cls-4" d="M85.57,32.15a1.35,1.35,0,0,0-1.47-1.22c-.74,0-1.27.37-1.27,1s.38.82.93.95l1.26.31a1.91,1.91,0,0,1,1.73,2c0,1.33-1,1.88-2.38,1.88a2.38,2.38,0,0,1-2.7-2.28h1c.09.95.8,1.34,1.7,1.34s1.37-.38,1.39-1-.2-.82-.94-1l-1.32-.33A1.9,1.9,0,0,1,81.84,32a2,2,0,0,1,2.27-2,2.2,2.2,0,0,1,2.47,2.16Z"/></g><g class="cls-3"><path id="Fill-41" class="cls-4" d="M88.3,36.92h1V30.18h-1Zm0-7.88h1V27.77h-1Z"/></g><g class="cls-3"><path id="Fill-42" class="cls-4" d="M94.68,32.15a1.36,1.36,0,0,0-1.48-1.22c-.73,0-1.27.37-1.27,1s.38.82.93.95l1.27.31a1.9,1.9,0,0,1,1.72,2c0,1.33-1,1.88-2.38,1.88a2.38,2.38,0,0,1-2.7-2.28h1c.09.95.8,1.34,1.7,1.34s1.38-.38,1.39-1-.2-.82-.94-1l-1.32-.33A1.9,1.9,0,0,1,90.94,32a2,2,0,0,1,2.27-2,2.2,2.2,0,0,1,2.47,2.16Z"/></g></g></g></g></g></g></svg>