<svg xmlns="http://www.w3.org/2000/svg" viewBox="0 0 60.5 60.5"><defs><style>.cls-1{fill:none;stroke:#1b4d89;stroke-miterlimit:10;stroke-width:0.5px;}.cls-2{fill:#1b4d89;}.cls-3{fill:#fff;}</style></defs><g id="Layer_2" data-name="Layer 2"><g id="Layer_1-2" data-name="Layer 1"><circle class="cls-1" cx="30.25" cy="30.25" r="30"/><circle class="cls-2" cx="30.25" cy="30.25" r="22.87"/><path class="cls-3" d="M17.35,21.86a6.52,6.52,0,0,1,2.75-5.2,9.64,9.64,0,0,1,2.3-1.54,3.91,3.91,0,0,1,.87-.25,1.07,1.07,0,0,1,1.11.46,14.32,14.32,0,0,1,1.1,1.79c.77,1.61,1.48,3.25,2.24,4.87a.77.77,0,0,1-.17,1c-.58.51-1.18,1-1.79,1.48-.3.24-.64.41-1,.63a6.5,6.5,0,0,0-.84.65,1.27,1.27,0,0,0-.29,1.59,20.54,20.54,0,0,0,1,1.84,33.54,33.54,0,0,0,6.16,7.38,19.7,19.7,0,0,0,2.22,1.62A1.28,1.28,0,0,0,35,37.93c.62-.64,1.2-1.31,1.82-1.94a7.29,7.29,0,0,1,1-.74.54.54,0,0,1,.6,0,45,45,0,0,1,5.68,3.7c.2.16.39.35.58.52A1.24,1.24,0,0,1,45,40.94a3.8,3.8,0,0,1-.48.86,11.31,11.31,0,0,1-3.32,3,6.59,6.59,0,0,1-4.31.73A15.29,15.29,0,0,1,30.61,43a32.52,32.52,0,0,1-6.82-6.11A27.86,27.86,0,0,1,21,33.24a30,30,0,0,1-3.18-7.52A13.85,13.85,0,0,1,17.35,21.86Z"/></g></g></svg>