<svg xmlns="http://www.w3.org/2000/svg" viewBox="0 0 10.77 16.76"><defs><style>.cls-1{fill:#4d4d4d;}</style></defs><g id="Layer_2" data-name="Layer 2"><g id="Layer_1-2" data-name="Layer 1"><path class="cls-1" d="M5.39,0A5.31,5.31,0,0,0,0,5.23c0,2.88,5.39,9.23,5.39,9.23s5.38-6.35,5.38-9.23A5.31,5.31,0,0,0,5.39,0Zm0,8.45A3.37,3.37,0,0,1,1.94,5.13,3.37,3.37,0,0,1,5.36,1.81,3.37,3.37,0,0,1,8.78,5.13,3.37,3.37,0,0,1,5.36,8.45Z"/><path class="cls-1" d="M8.73,13.58,5.51,16.71a.2.2,0,0,1-.25,0L2,13.58l.47-.45a.18.18,0,0,1,.25,0l2.5,2.43a.18.18,0,0,0,.25,0L8,13.13a.18.18,0,0,1,.25,0Z"/><path class="cls-1" d="M8.6,13.13l-3.09,3a.18.18,0,0,1-.25,0l-3.09-3a.16.16,0,0,1,0-.24l1.3-1.27-.85,1.17a.17.17,0,0,0,0,.22l2.62,2.55a.18.18,0,0,0,.25,0L8.13,13a.17.17,0,0,0,0-.22L7.3,11.62l1.3,1.27A.16.16,0,0,1,8.6,13.13Z"/></g></g></svg>