<svg xmlns="http://www.w3.org/2000/svg" viewBox="0 0 4207.69 286.68"><defs><style>.cls-1{opacity:0.4;}.cls-2{fill:#1b4d89;}</style></defs><g id="Layer_2" data-name="Layer 2"><g id="Layer_1-2" data-name="Layer 1"><g class="cls-1"><path class="cls-2" d="M4207.69,36.84v213c-12.78-4.25-248-80-526.23.18-286.14,82.47-525.69,0-525.69,0s-240.64-82.47-526.79,0c-278.24,80.19-512.43,4.43-525.13.19,0,0-248-80.38-526.24-.19-286.14,82.47-525.69,0-525.69,0s-240.64-82.47-526.78,0C246.9,330.22,12.71,254.46,0,250.22V36.47c12.78-4.24,248-80,526.23.18,286.15,82.47,525.69,0,525.69,0s240.65-82.47,526.79,0c278.24,80.19,512.43,4.43,525.14.19,0,0,248-80.38,526.23-.19,286.14,82.47,525.69,0,525.69,0s240.64-82.47,526.79,0C3960.8,116.84,4195,41.08,4207.69,36.84Z"/></g></g></g></svg>