<svg xmlns="http://www.w3.org/2000/svg" xmlns:xlink="http://www.w3.org/1999/xlink" viewBox="0 0 4207.69 288.56"><defs><style>.cls-1{opacity:0.32;}.cls-2{fill:url(#linear-gradient);}</style><linearGradient id="linear-gradient" x1="2103.85" y1="8.51" x2="2103.85" y2="277.49" gradientUnits="userSpaceOnUse"><stop offset="0" stop-color="#1b4d89" stop-opacity="0"/><stop offset="0.49" stop-color="#1b4d89" stop-opacity="0.7"/><stop offset="1" stop-color="#1b4d89" stop-opacity="0"/></linearGradient></defs><g id="Layer_2" data-name="Layer 2"><g id="Layer_1-2" data-name="Layer 1"><g class="cls-1"><path class="cls-2" d="M4207.69,37.08V251.49c-12.78-4.28-248-80.54-526.23.18-286.14,83-525.69,0-525.69,0s-240.64-83-526.79,0c-278.24,80.71-512.43,4.46-525.13.19,0,0-248-80.91-526.24-.19-286.14,83-525.69,0-525.69,0s-240.64-83-526.78,0C246.9,332.38,12.71,256.13,0,251.86V36.71c12.78-4.27,248-80.53,526.23.18,286.15,83,525.69,0,525.69,0s240.65-83,526.79,0c278.24,80.72,512.43,4.46,525.14.19,0,0,248-80.9,526.23-.19,286.14,83,525.69,0,525.69,0s240.64-83,526.79,0C3960.8,117.61,4195,41.35,4207.69,37.08Z"/></g></g></g></svg>