<svg xmlns="http://www.w3.org/2000/svg" viewBox="0 0 4207.69 270.99"><defs><style>.cls-1{opacity:0.2;}.cls-2{fill:#1b4d89;}</style></defs><g id="Layer_2" data-name="Layer 2"><g id="Layer_1-2" data-name="Layer 1"><g class="cls-1"><path class="cls-2" d="M4207.69,34.82V236.17c-12.78-4-248-75.63-526.23.17-286.14,78-525.69,0-525.69,0s-240.64-78-526.79,0c-278.24,75.8-512.43,4.19-525.13.18v-.35c-12.78-4-248-75.63-526.24.17-286.14,78-525.69,0-525.69,0s-240.64-78-526.78,0C246.9,312.14,12.71,240.53,0,236.52v-202c12.78-4,248-75.63,526.23.18,286.15,77.95,525.69,0,525.69,0s240.65-78,526.79,0c278.24,75.79,512.43,4.18,525.14.17,0,0,248-76,526.23-.17,286.14,77.95,525.69,0,525.69,0s240.64-78,526.79,0C3960.8,110.44,4195,38.83,4207.69,34.82Z"/></g></g></g></svg>