<?xml version="1.0" standalone="no"?>
<!DOCTYPE svg PUBLIC "-//W3C//DTD SVG 1.1//EN" "http://www.w3.org/Graphics/SVG/1.1/DTD/svg11.dtd" >
<svg xmlns="http://www.w3.org/2000/svg" xmlns:xlink="http://www.w3.org/1999/xlink" version="1.1">
<metadata>
Created by FontForge 20161003 at Fri Aug  9 10:47:48 2019
 By www-data
Copyright \(c\) 2011 Swiss Typefaces. All rights reserved.
</metadata>
<defs>
<font id="SimplonNorm-Bold" horiz-adv-x="558" >
  <font-face 
    font-family="Simplon Norm"
    font-weight="700"
    font-stretch="normal"
    units-per-em="1000"
    panose-1="2 11 8 0 3 0 0 0 0 0"
    ascent="800"
    descent="-200"
    x-height="516"
    cap-height="700"
    bbox="-200 -304 1174 884"
    underline-thickness="100"
    underline-position="-100"
    unicode-range="U+0020-FB04"
  />
<missing-glyph horiz-adv-x="500" 
d="M443 0h-387v700h387v-700zM249 408l106 238h-212zM388 96v507l-113 -253zM111 98l112 252l-112 251v-503zM143 54h212l-106 237z" />
    <glyph glyph-name=".notdef" horiz-adv-x="500" 
d="M443 0h-387v700h387v-700zM249 408l106 238h-212zM388 96v507l-113 -253zM111 98l112 252l-112 251v-503zM143 54h212l-106 237z" />
    <glyph glyph-name="NULL" horiz-adv-x="0" 
 />
    <glyph glyph-name="CR" horiz-adv-x="0" 
 />
    <glyph glyph-name="space" unicode=" " horiz-adv-x="210" 
 />
    <glyph glyph-name="exclam" unicode="!" horiz-adv-x="300" 
d="M216 700v-490h-132v490h132zM70 0v160h160v-160h-160z" />
    <glyph glyph-name="quotedbl" unicode="&#x22;" horiz-adv-x="493" 
d="M197 476h-132v224h132v-224zM428 476h-132v224h132v-224z" />
    <glyph glyph-name="numbersign" unicode="#" horiz-adv-x="700" 
d="M327 0l44 179h-129l-44 -179h-127l44 179h-62v120h92l26 102h-93v120h123l45 179h127l-45 -179h129l45 179h127l-45 -179h63v-120h-93l-26 -102h94v-120h-124l-44 -179h-127zM298 401l-26 -102h129l26 102h-129z" />
    <glyph glyph-name="dollar" unicode="$" horiz-adv-x="527" 
d="M243 -100v91c-132 9 -210 95 -217 230h132c3 -52 30 -99 85 -110v177l-40 14c-105 35 -168 105 -168 209c0 123 93 190 208 198v91h43v-91c115 -9 184 -85 199 -200h-132c-7 44 -32 71 -67 79v-172l43 -15c121 -43 166 -116 166 -215c0 -112 -80 -187 -209 -195v-91h-43z
M289 273l-3 1v-164c47 7 77 33 77 76c0 44 -26 71 -74 87zM167 511c0 -41 35 -66 72 -79l4 -2v160c-47 -7 -76 -32 -76 -79z" />
    <glyph glyph-name="percent" unicode="%" horiz-adv-x="885" 
d="M630 700h106l-481 -700h-106zM195 371c35 0 48 22 48 50v152c0 28 -13 50 -48 50c-36 0 -49 -22 -49 -50v-152c0 -28 13 -50 49 -50zM195 288c-101 0 -142 68 -142 148v122c0 80 41 148 142 148c100 0 141 -68 141 -148v-122c0 -80 -41 -148 -141 -148zM691 77
c35 0 48 22 48 50v152c0 28 -13 50 -48 50c-36 0 -49 -22 -49 -50v-152c0 -28 13 -50 49 -50zM691 -6c-101 0 -142 68 -142 148v122c0 80 41 148 142 148c100 0 141 -68 141 -148v-122c0 -80 -41 -148 -141 -148z" />
    <glyph glyph-name="ampersand" unicode="&#x26;" horiz-adv-x="612" 
d="M366 581h-97c-60 0 -98 -26 -98 -86s38 -87 98 -87h97v80h132v-80h121v-119h-121v-289h-232c-143 0 -227 74 -227 197c0 67 27 121 74 150c-51 32 -74 101 -74 153c0 116 77 200 221 200h106v-119zM265 119h101v170h-101c-57 0 -94 -29 -94 -85s37 -85 94 -85z" />
    <glyph glyph-name="quotesingle" unicode="'" horiz-adv-x="262" 
d="M197 476h-132v224h132v-224z" />
    <glyph glyph-name="parenleft" unicode="(" horiz-adv-x="298" 
d="M203 537v-546c0 -24 6 -41 38 -41h36v-122h-64c-92 0 -132 48 -132 132v608c0 84 40 132 132 132h64v-122h-36c-32 0 -38 -17 -38 -41z" />
    <glyph glyph-name="parenright" unicode=")" horiz-adv-x="298" 
d="M95 -9v546c0 24 -6 41 -38 41h-36v122h64c92 0 132 -48 132 -132v-608c0 -84 -40 -132 -132 -132h-64v122h36c32 0 38 17 38 41z" />
    <glyph glyph-name="asterisk" unicode="*" horiz-adv-x="536" 
d="M90 614l118 -38v124h120v-124l118 38l38 -114l-118 -38l72 -101l-97 -71l-72 101l-74 -101l-97 71l72 101l-118 38z" />
    <glyph glyph-name="plus" unicode="+" 
d="M339 505v-170h170v-120h-170v-170h-120v170h-170v120h170v170h120z" />
    <glyph glyph-name="comma" unicode="," horiz-adv-x="300" 
d="M70 0v160h160v-160l-43 -114h-94l43 114h-66z" />
    <glyph glyph-name="hyphen" unicode="-" horiz-adv-x="370" 
d="M40 335h290v-120h-290v120z" />
    <glyph glyph-name="period" unicode="." horiz-adv-x="300" 
d="M70 0v160h160v-160h-160z" />
    <glyph glyph-name="slash" unicode="/" horiz-adv-x="377" 
d="M-20 0l283 700h134l-283 -700h-134z" />
    <glyph glyph-name="zero" unicode="0" 
d="M49 227v246c0 143 82 237 230 237s230 -94 230 -237v-246c0 -143 -82 -237 -230 -237s-230 94 -230 237zM377 210v280c0 61 -34 101 -98 101s-98 -40 -98 -101v-280c0 -61 34 -101 98 -101s98 40 98 101z" />
    <glyph glyph-name="one" unicode="1" horiz-adv-x="368" 
d="M166 700h132v-700h-132v540l-134 -116v160z" />
    <glyph glyph-name="two" unicode="2" horiz-adv-x="531" 
d="M165 480h-132v2c3 139 87 228 231 228c141 0 229 -86 229 -208c0 -92 -41 -157 -110 -224l-163 -159h273v-119h-460v119l264 257c43 41 65 83 65 124c0 51 -34 91 -98 91s-99 -40 -99 -101v-10z" />
    <glyph glyph-name="three" unicode="3" horiz-adv-x="537" 
d="M360 196c0 57 -42 93 -103 93h-58v119h58c64 0 103 30 103 82c0 61 -34 101 -98 101c-60 0 -95 -35 -99 -90v-1h-131v1c11 129 89 209 230 209c144 0 230 -95 230 -215c0 -52 -23 -112 -74 -148c46 -30 74 -102 74 -158c0 -127 -84 -199 -227 -199
c-141 0 -222 80 -233 209v1h131v-1c4 -55 43 -90 103 -90c57 0 94 31 94 87z" />
    <glyph glyph-name="four" unicode="4" horiz-adv-x="520" 
d="M507 159h-73v-159h-132v159h-302v117l302 424h132v-424h73v-117zM153 276h149v209z" />
    <glyph glyph-name="five" unicode="5" horiz-adv-x="538" 
d="M190 285h-132v415h424v-119h-292v-146c19 12 60 23 99 23c141 0 220 -94 220 -237v-32c0 -124 -93 -199 -224 -199c-152 0 -227 82 -236 209v1h131v-1c4 -53 42 -90 99 -90c67 0 98 38 98 91v38c0 61 -34 101 -98 101c-45 0 -74 -18 -89 -54z" />
    <glyph glyph-name="six" unicode="6" horiz-adv-x="552" 
d="M49 221v252c0 143 82 237 230 237c141 0 218 -80 229 -209v-1h-131v1c-4 55 -38 90 -98 90c-64 0 -98 -40 -98 -101v-70c17 15 57 31 104 31c141 0 224 -93 224 -229v-2c0 -139 -84 -230 -230 -230s-230 91 -230 231zM181 235v-25c0 -61 34 -101 98 -101s98 40 98 101v21
c0 61 -34 101 -98 101c-63 0 -97 -37 -98 -97z" />
    <glyph glyph-name="seven" unicode="7" horiz-adv-x="466" 
d="M457 581l-218 -581h-139l218 581h-315v119h454v-119z" />
    <glyph glyph-name="eight" unicode="8" horiz-adv-x="550" 
d="M275 -10c-131 0 -230 81 -230 213c0 60 24 115 68 150c-43 39 -61 87 -61 147c0 128 89 210 223 210c133 0 223 -82 223 -210c0 -60 -18 -108 -61 -147c44 -35 68 -90 68 -150c0 -132 -99 -213 -230 -213zM275 591c-57 0 -91 -43 -91 -91s34 -91 91 -91s91 43 91 91
s-34 91 -91 91zM275 297c-57 0 -98 -38 -98 -94s41 -94 98 -94s98 38 98 94s-41 94 -98 94z" />
    <glyph glyph-name="nine" unicode="9" horiz-adv-x="552" 
d="M503 479v-252c0 -143 -82 -237 -230 -237c-141 0 -218 80 -229 209v1h131v-1c4 -55 38 -90 98 -90c64 0 98 40 98 101v70c-17 -15 -57 -31 -104 -31c-141 0 -224 93 -224 229v2c0 139 84 230 230 230s230 -91 230 -231zM371 465v25c0 61 -34 101 -98 101
s-98 -40 -98 -101v-21c0 -61 34 -101 98 -101c63 0 97 37 98 97z" />
    <glyph glyph-name="colon" unicode=":" horiz-adv-x="300" 
d="M70 356v160h160v-160h-160zM70 0v160h160v-160h-160z" />
    <glyph glyph-name="semicolon" unicode=";" horiz-adv-x="300" 
d="M70 356v160h160v-160h-160zM70 0v160h160v-160l-43 -114h-94l43 114h-66z" />
    <glyph glyph-name="less" unicode="&#x3c;" 
d="M198 259l311 -133v-131l-460 197v134l460 197v-131z" />
    <glyph glyph-name="equal" unicode="=" 
d="M509 335h-460v120h460v-120zM49 215h460v-120h-460v120z" />
    <glyph glyph-name="greater" unicode="&#x3e;" 
d="M49 126l311 133l-311 133v131l460 -197v-134l-460 -197v131z" />
    <glyph glyph-name="question" unicode="?" horiz-adv-x="527" 
d="M158 500h-131v2c11 129 89 208 229 208c145 0 230 -89 230 -228c0 -71 -38 -126 -77 -161l-52 -48c-27 -25 -35 -38 -35 -59v-4h-132v22c0 54 14 75 63 121l52 48c21 19 49 44 49 89c0 61 -34 101 -98 101c-59 0 -93 -34 -98 -89v-2zM176 0v160h160v-160h-160z" />
    <glyph glyph-name="at" unicode="@" horiz-adv-x="936" 
d="M234 143c0 76 26 119 98 154c50 23 154 33 232 38c-9 47 -41 76 -96 76c-47 0 -78 -22 -91 -57h-133c21 108 96 176 224 176c148 0 230 -94 230 -237v-148c0 -25 13 -34 30 -34s31 9 31 34v163c0 180 -102 281 -291 281s-291 -101 -291 -281v-100
c0 -180 102 -281 291 -281c72 0 132 15 179 45l60 -110c-68 -39 -150 -56 -239 -56c-227 0 -413 112 -413 405v94c0 293 186 405 413 405c226 0 413 -112 413 -405v-179c0 -77 -61 -136 -153 -136c-84 0 -131 23 -162 59c-27 -37 -77 -59 -141 -59c-123 0 -191 57 -191 153z
M394 202c-23 -11 -28 -21 -28 -44c0 -25 19 -52 78 -52c68 0 122 38 122 103v17c-76 -5 -147 -11 -172 -24z" />
    <glyph glyph-name="A" unicode="A" horiz-adv-x="626" 
d="M391 268l-78 227l-78 -227h156zM437 141h-248l-50 -141h-140l250 700h128l250 -700h-140z" />
    <glyph glyph-name="B" unicode="B" horiz-adv-x="625" 
d="M65 0v700h290c144 0 221 -78 221 -201c0 -59 -20 -109 -63 -141c49 -37 80 -90 80 -153c0 -125 -77 -205 -222 -205h-306zM199 133h176c56 0 84 28 84 77c0 51 -33 77 -84 77h-176v-154zM442 494c0 49 -33 73 -84 73h-159v-147h159c51 0 84 26 84 74z" />
    <glyph glyph-name="C" unicode="C" horiz-adv-x="606" 
d="M437 234h135c-5 -147 -101 -244 -264 -244c-168 0 -264 103 -264 259v202c0 156 96 259 264 259c163 0 259 -97 264 -244h-135c-7 72 -61 111 -129 111c-73 0 -130 -45 -130 -126v-202c0 -81 57 -126 130 -126c68 0 122 39 129 111z" />
    <glyph glyph-name="D" unicode="D" horiz-adv-x="637" 
d="M329 0h-264v700h264c168 0 264 -103 264 -259v-182c0 -156 -96 -259 -264 -259zM459 259v182c0 81 -57 126 -130 126h-130v-434h130c73 0 130 45 130 126z" />
    <glyph glyph-name="E" unicode="E" horiz-adv-x="540" 
d="M199 567v-147h292v-133h-292v-154h292v-133h-426v700h426v-133h-292z" />
    <glyph glyph-name="F" unicode="F" horiz-adv-x="530" 
d="M199 567v-147h292v-133h-292v-287h-134v700h426v-133h-292z" />
    <glyph glyph-name="G" unicode="G" horiz-adv-x="614" 
d="M308 267v133h264v-151c0 -156 -96 -259 -264 -259s-264 103 -264 259v202c0 156 96 259 264 259c157 0 252 -92 263 -231h-135c-12 64 -64 98 -128 98c-73 0 -130 -45 -130 -126v-202c0 -81 57 -126 130 -126s130 45 130 126v18h-130z" />
    <glyph glyph-name="H" unicode="H" horiz-adv-x="658" 
d="M459 420v280h134v-700h-134v287h-260v-287h-134v700h134v-280h260z" />
    <glyph glyph-name="I" unicode="I" horiz-adv-x="264" 
d="M199 700v-700h-134v700h134z" />
    <glyph glyph-name="J" unicode="J" horiz-adv-x="471" 
d="M281 204v496h134v-500c0 -141 -75 -210 -208 -210s-208 69 -208 210h135c4 -51 28 -77 73 -77c52 0 74 34 74 81z" />
    <glyph glyph-name="K" unicode="K" horiz-adv-x="645" 
d="M201 198v-198h-136v700h136v-302l257 302h171l-246 -289l271 -411h-164l-199 303z" />
    <glyph glyph-name="L" unicode="L" horiz-adv-x="491" 
d="M199 700v-567h292v-133h-426v700h134z" />
    <glyph glyph-name="M" unicode="M" horiz-adv-x="744" 
d="M425 188h-106l-121 252v-440h-133v700h134l173 -360l173 360h134v-700h-133v440z" />
    <glyph glyph-name="N" unicode="N" horiz-adv-x="658" 
d="M593 700v-700h-134l-260 451v-451h-134v700h134l260 -451v451h134z" />
    <glyph glyph-name="O" unicode="O" horiz-adv-x="616" 
d="M572 451v-202c0 -156 -96 -259 -264 -259s-264 103 -264 259v202c0 156 96 259 264 259s264 -103 264 -259zM438 249v202c0 81 -57 126 -130 126s-130 -45 -130 -126v-202c0 -81 57 -126 130 -126s130 45 130 126z" />
    <glyph glyph-name="P" unicode="P" horiz-adv-x="607" 
d="M199 348h152c74 0 108 56 108 110c0 53 -34 109 -108 109h-152v-219zM199 215v-215h-134v700h286c165 0 242 -114 242 -242c0 -127 -77 -243 -242 -243h-152z" />
    <glyph glyph-name="Q" unicode="Q" horiz-adv-x="627" 
d="M572 451v-202c0 -59 -13 -109 -39 -150l54 -55l-91 -89l-59 61c-37 -17 -80 -26 -129 -26c-168 0 -264 103 -264 259v202c0 156 96 259 264 259s264 -103 264 -259zM364 274l67 -69c4 13 7 28 7 44v202c0 81 -57 126 -130 126s-130 -45 -130 -126v-202
c0 -81 57 -126 130 -126c8 0 16 -1 24 2l-59 60z" />
    <glyph glyph-name="R" unicode="R" horiz-adv-x="618" 
d="M281 288h-82v-288h-134v700h295c144 0 221 -78 221 -206c0 -104 -52 -176 -151 -199l174 -295h-154zM447 492c0 49 -33 75 -84 75h-164v-149h164c51 0 84 26 84 74z" />
    <glyph glyph-name="S" unicode="S" horiz-adv-x="541" 
d="M280 -10c-155 0 -251 92 -259 231h138c8 -60 53 -98 121 -98c60 0 100 22 100 70c0 39 -23 61 -72 74l-118 32c-108 29 -160 103 -160 207c0 139 109 204 232 204c140 0 226 -81 242 -201h-138c-12 47 -61 68 -106 68c-56 0 -96 -22 -96 -71c0 -41 31 -58 70 -69l114 -31
c108 -29 166 -93 166 -213c0 -128 -79 -203 -234 -203z" />
    <glyph glyph-name="T" unicode="T" horiz-adv-x="526" 
d="M527 567h-195v-567h-138v567h-195v133h528v-133z" />
    <glyph glyph-name="U" unicode="U" horiz-adv-x="640" 
d="M450 700h134v-451c0 -156 -96 -259 -264 -259s-264 103 -264 259v451h134v-451c0 -81 57 -126 130 -126s130 45 130 126v451z" />
    <glyph glyph-name="V" unicode="V" horiz-adv-x="628" 
d="M314 213l174 487h141l-250 -700h-130l-250 700h141z" />
    <glyph glyph-name="W" unicode="W" horiz-adv-x="752" 
d="M466 0l-90 406l-90 -406h-145l-129 700h135l81 -474l83 374h130l83 -374l81 474h135l-129 -700h-145z" />
    <glyph glyph-name="X" unicode="X" horiz-adv-x="622" 
d="M466 0l-155 246l-155 -246h-153l232 362l-217 338h153l140 -220l140 220h153l-217 -338l232 -362h-153z" />
    <glyph glyph-name="Y" unicode="Y" horiz-adv-x="606" 
d="M370 255v-255h-134v255l-248 445h152l163 -292l163 292h152z" />
    <glyph glyph-name="Z" unicode="Z" horiz-adv-x="583" 
d="M557 0h-533v133l350 434h-345v133h523v-133l-350 -434h355v-133z" />
    <glyph glyph-name="bracketleft" unicode="[" horiz-adv-x="301" 
d="M203 578v-628h74v-122h-196v872h196v-122h-74z" />
    <glyph glyph-name="backslash" unicode="\" horiz-adv-x="377" 
d="M114 700l283 -700h-134l-283 700h134z" />
    <glyph glyph-name="bracketright" unicode="]" horiz-adv-x="301" 
d="M98 -50v628h-74v122h196v-872h-196v122h74z" />
    <glyph glyph-name="asciicircum" unicode="^" horiz-adv-x="626" 
d="M376 700l200 -400h-138l-125 250l-125 -250h-138l200 400h126z" />
    <glyph glyph-name="underscore" unicode="_" horiz-adv-x="430" 
d="M-15 -34h460v-120h-460v120z" />
    <glyph glyph-name="grave" unicode="`" horiz-adv-x="321" 
d="M38 700h172l60 -129h-114z" />
    <glyph glyph-name="a" unicode="a" 
d="M371 335v1c-9 47 -41 75 -96 75c-47 0 -78 -22 -91 -57h-133c21 108 96 176 224 176c148 0 230 -94 230 -237v-293h-132v59c-24 -39 -64 -69 -144 -69c-120 0 -188 57 -188 153c0 76 26 119 98 154c50 23 154 33 232 38zM201 202c-23 -11 -28 -21 -28 -44
c0 -25 19 -52 78 -52c68 0 122 38 122 103v17c-76 -5 -147 -11 -172 -24z" />
    <glyph glyph-name="b" unicode="b" horiz-adv-x="564" 
d="M192 49v-49h-132v700h132v-229c24 35 74 59 121 59c105 0 207 -72 207 -224v-92c0 -152 -102 -224 -207 -224c-47 0 -97 24 -121 59zM388 219v82c0 69 -48 100 -98 100s-98 -31 -98 -100v-82c0 -69 48 -100 98 -100s98 31 98 100z" />
    <glyph glyph-name="c" unicode="c" horiz-adv-x="538" 
d="M370 188h132c-15 -123 -92 -198 -228 -198c-148 0 -230 94 -230 237v66c0 143 82 237 230 237c136 0 213 -75 228 -198h-132c-8 48 -40 79 -96 79c-64 0 -98 -40 -98 -101v-100c0 -61 34 -101 98 -101c56 0 89 30 96 79z" />
    <glyph glyph-name="d" unicode="d" horiz-adv-x="564" 
d="M372 0v49c-24 -35 -74 -59 -121 -59c-105 0 -207 72 -207 224v92c0 152 102 224 207 224c47 0 97 -24 121 -59v229h132v-700h-132zM176 301v-82c0 -69 48 -100 98 -100s98 31 98 100v82c0 69 -48 100 -98 100s-98 -31 -98 -100z" />
    <glyph glyph-name="e" unicode="e" horiz-adv-x="547" 
d="M504 213h-328v-3c0 -61 34 -101 98 -101c47 0 78 22 91 57h134c-21 -108 -97 -176 -225 -176c-148 0 -230 94 -230 237v66c0 143 82 237 230 237s230 -94 230 -237v-80zM274 411c-60 0 -93 -35 -98 -88v-1h195v1c-4 55 -37 88 -97 88z" />
    <glyph glyph-name="f" unicode="f" horiz-adv-x="344" 
d="M345 581h-89c-32 0 -38 -17 -38 -41v-24h127v-119h-127v-397h-132v397h-73v119h73v52c0 84 40 132 132 132h127v-119z" />
    <glyph glyph-name="g" unicode="g" horiz-adv-x="563" 
d="M46 -3h132c11 -45 42 -72 95 -72c64 0 98 40 98 101v60c-24 -35 -74 -59 -121 -59c-105 0 -207 72 -207 224v55c0 152 102 224 207 224c47 0 97 -24 121 -59v45h132v-473c0 -143 -82 -237 -230 -237c-133 0 -211 72 -227 191zM175 301v-45c0 -69 48 -100 98 -100
s98 31 98 100v45c0 69 -48 100 -98 100s-98 -31 -98 -100z" />
    <glyph glyph-name="h" unicode="h" horiz-adv-x="573" 
d="M520 306v-306h-132v301c0 69 -48 100 -98 100s-98 -31 -98 -100v-301h-132v700h132v-229c24 35 74 59 121 59c105 0 207 -72 207 -224z" />
    <glyph glyph-name="i" unicode="i" horiz-adv-x="252" 
d="M192 700v-117h-132v117h132zM192 516v-516h-132v516h132z" />
    <glyph glyph-name="j" unicode="j" horiz-adv-x="252" 
d="M-4 -65h26c32 0 38 17 38 41v540h132v-568c0 -84 -40 -132 -132 -132h-64v119zM192 700v-117h-132v117h132z" />
    <glyph glyph-name="k" unicode="k" horiz-adv-x="539" 
d="M192 700v-364l165 180h160l-187 -203l214 -313h-155l-148 216l-49 -54v-162h-132v700h132z" />
    <glyph glyph-name="l" unicode="l" horiz-adv-x="281" 
d="M228 119h26v-119h-64c-92 0 -132 48 -132 132v568h132v-540c0 -24 6 -41 38 -41z" />
    <glyph glyph-name="m" unicode="m" horiz-adv-x="889" 
d="M514 301v-301h-132v301c0 69 -47 100 -95 100s-95 -31 -95 -100v-301h-132v516h132v-43c25 35 72 57 117 57c55 0 103 -20 139 -68c37 45 91 68 161 68c131 0 227 -72 227 -224v-306h-132v301c0 69 -47 100 -95 100s-95 -31 -95 -100z" />
    <glyph glyph-name="n" unicode="n" horiz-adv-x="573" 
d="M520 306v-306h-132v301c0 69 -48 100 -98 100s-98 -31 -98 -100v-301h-132v516h132v-45c24 35 74 59 121 59c105 0 207 -72 207 -224z" />
    <glyph glyph-name="o" unicode="o" horiz-adv-x="548" 
d="M44 227v66c0 143 82 237 230 237s230 -94 230 -237v-66c0 -143 -82 -237 -230 -237s-230 94 -230 237zM372 210v100c0 61 -34 101 -98 101s-98 -40 -98 -101v-100c0 -61 34 -101 98 -101s98 40 98 101z" />
    <glyph glyph-name="p" unicode="p" horiz-adv-x="564" 
d="M192 49v-233h-132v700h132v-45c24 35 74 59 121 59c105 0 207 -72 207 -224v-92c0 -152 -102 -224 -207 -224c-47 0 -97 24 -121 59zM388 219v82c0 69 -48 100 -98 100s-98 -31 -98 -100v-82c0 -69 48 -100 98 -100s98 31 98 100z" />
    <glyph glyph-name="q" unicode="q" horiz-adv-x="564" 
d="M372 -184v233c-24 -35 -74 -59 -121 -59c-105 0 -207 72 -207 224v92c0 152 102 224 207 224c47 0 97 -24 121 -59v45h132v-700h-132zM176 301v-82c0 -69 48 -100 98 -100s98 31 98 100v82c0 69 -48 100 -98 100s-98 -31 -98 -100z" />
    <glyph glyph-name="r" unicode="r" horiz-adv-x="364" 
d="M192 296v-296h-132v516h132v-56c15 35 59 65 120 65h40v-129h-62c-50 0 -98 -31 -98 -100z" />
    <glyph glyph-name="s" unicode="s" horiz-adv-x="477" 
d="M248 -10c-108 0 -219 54 -224 177h132c5 -40 54 -58 96 -58c26 0 65 6 65 40c0 20 -15 33 -46 40l-108 24c-56 13 -127 57 -127 158s91 159 197 159c104 0 192 -50 200 -167h-135c-7 33 -36 48 -69 48c-39 0 -60 -15 -61 -39c0 -23 17 -33 40 -38l116 -26
c56 -13 125 -52 125 -159c0 -116 -94 -159 -201 -159z" />
    <glyph glyph-name="t" unicode="t" horiz-adv-x="368" 
d="M254 119h89v-119h-127c-92 0 -132 48 -132 132v265h-73v119h73v117h132v-117h127v-119h-127v-237c0 -24 6 -41 38 -41z" />
    <glyph glyph-name="u" unicode="u" horiz-adv-x="567" 
d="M280 119c48 0 95 31 95 100v297h132v-516h-132v56c-23 -35 -61 -66 -125 -66c-96 0 -197 68 -197 224v302h132v-297c0 -69 47 -100 95 -100z" />
    <glyph glyph-name="v" unicode="v" horiz-adv-x="490" 
d="M245 187l115 329h139l-186 -516h-136l-186 516h139z" />
    <glyph glyph-name="w" unicode="w" horiz-adv-x="704" 
d="M436 0l-84 367l-84 -367h-134l-136 516h137l77 -327l75 327h130l75 -327l77 327h137l-136 -516h-134z" />
    <glyph glyph-name="x" unicode="x" horiz-adv-x="506" 
d="M253 370l95 146h150l-167 -251l175 -265h-151l-102 158l-102 -158h-151l175 265l-167 251h150z" />
    <glyph glyph-name="y" unicode="y" horiz-adv-x="490" 
d="M499 516l-203 -565c-30 -78 -35 -135 -128 -135h-98v119h55c24 0 31 12 35 23l15 42l-184 516h139l115 -329l115 329h139z" />
    <glyph glyph-name="z" unicode="z" horiz-adv-x="442" 
d="M412 397l-222 -278h229v-119h-395v119l222 278h-215v119h381v-119z" />
    <glyph glyph-name="braceleft" unicode="{" horiz-adv-x="333" 
d="M75 203h-36v122h36c32 0 38 17 38 41v202c0 84 40 132 132 132h64v-122h-36c-32 0 -38 -17 -38 -41v-202c0 -28 -4 -52 -24 -71c20 -20 24 -44 24 -71v-202c0 -24 6 -41 38 -41h36v-122h-64c-92 0 -132 48 -132 132v202c0 24 -6 41 -38 41z" />
    <glyph glyph-name="bar" unicode="|" horiz-adv-x="252" 
d="M187 700v-800h-122v800h122z" />
    <glyph glyph-name="braceright" unicode="}" horiz-adv-x="333" 
d="M294 203h-36c-32 0 -38 -17 -38 -41v-202c0 -84 -40 -132 -132 -132h-64v122h36c32 0 38 17 38 41v202c0 27 4 51 24 71c-20 19 -24 43 -24 71v202c0 24 -6 41 -38 41h-36v122h64c92 0 132 -48 132 -132v-202c0 -24 6 -41 38 -41h36v-122z" />
    <glyph glyph-name="asciitilde" unicode="~" horiz-adv-x="550" 
d="M122 192l-77 85c56 61 111 81 158 81c62 0 95 -46 138 -46c29 0 52 13 87 46l77 -85c-56 -61 -111 -81 -158 -81c-62 0 -95 46 -138 46c-29 0 -52 -13 -87 -46z" />
    <glyph glyph-name="uni00A0" unicode="&#xa0;" horiz-adv-x="210" 
 />
    <glyph glyph-name="exclamdown" unicode="&#xa1;" horiz-adv-x="270" 
d="M201 306v-490h-132v490h132zM55 356v160h160v-160h-160z" />
    <glyph glyph-name="cent" unicode="&#xa2;" horiz-adv-x="550" 
d="M377 188h132c-15 -117 -84 -190 -208 -197v-91h-43v91c-136 9 -207 97 -207 236v66c0 137 71 227 207 236v91h43v-91c124 -7 193 -80 208 -197h-132c-7 45 -32 70 -76 77v-299c45 7 70 33 76 78zM183 310v-100c0 -53 26 -91 75 -99v298c-49 -9 -75 -46 -75 -99z" />
    <glyph glyph-name="sterling" unicode="&#xa3;" horiz-adv-x="614" 
d="M50 119h30c28 0 34 18 34 41v151h-64v80h64v82c0 143 82 237 230 237c144 0 227 -91 230 -229h-132v9c0 61 -34 101 -98 101s-98 -40 -98 -101v-99h196v-80h-196v-164c0 -15 -2 -24 -6 -28h334v-119h-524v119z" />
    <glyph glyph-name="currency" unicode="&#xa4;" horiz-adv-x="704" 
d="M598 37l-85 85c-45 -33 -100 -52 -160 -52c-61 0 -116 20 -161 53l-86 -86l-56 56l86 86c-35 46 -53 100 -53 161s18 114 53 160l-86 87l56 56l86 -87c45 35 100 54 161 54c60 0 115 -20 160 -53l85 86l56 -56l-85 -86c35 -45 54 -101 54 -161c0 -61 -19 -117 -54 -162
l85 -85zM202 340c0 -83 68 -151 151 -151s151 68 151 151s-68 151 -151 151s-151 -68 -151 -151z" />
    <glyph glyph-name="yen" unicode="&#xa5;" horiz-adv-x="648" 
d="M553 128h-163v-128h-132v128h-164v80h164v47h-164v80h119l-204 365h148l167 -300l167 300h148l-204 -365h118v-80h-163v-47h163v-80z" />
    <glyph glyph-name="brokenbar" unicode="&#xa6;" horiz-adv-x="252" 
d="M65 -100v339h122v-339h-122zM65 361v339h122v-339h-122z" />
    <glyph glyph-name="section" unicode="&#xa7;" horiz-adv-x="526" 
d="M271 44l-85 30c-66 24 -139 68 -139 191c0 63 24 112 73 146c-28 29 -47 70 -47 127c0 96 71 172 191 172c104 0 173 -53 192 -168h-125c-9 32 -36 49 -67 49c-37 0 -69 -17 -69 -56c0 -29 20 -50 43 -59l101 -36c67 -24 140 -67 140 -191c0 -63 -25 -112 -74 -146
c32 -32 48 -74 48 -127c0 -115 -73 -170 -189 -170c-113 0 -191 68 -202 177h127c4 -35 36 -58 75 -58s67 16 68 53c0 31 -20 50 -61 66zM304 324l-48 17c-56 -7 -88 -39 -88 -78c0 -31 19 -61 54 -73l47 -17c56 7 88 39 89 78c0 31 -19 61 -54 73z" />
    <glyph glyph-name="dieresis" unicode="&#xa8;" horiz-adv-x="432" 
d="M184 694v-117h-132v117h132zM380 694v-117h-132v117h132z" />
    <glyph glyph-name="copyright" unicode="&#xa9;" horiz-adv-x="780" 
d="M30 350c0 200 160 360 360 360s360 -160 360 -360s-160 -360 -360 -360s-360 160 -360 360zM138 350c0 -138 113 -251 252 -251s250 113 250 251s-111 251 -250 251s-252 -113 -252 -251zM390 168c-97 0 -146 57 -146 137v86c0 80 49 136 146 136c96 0 144 -53 147 -133
h-94c-3 24 -24 41 -53 41c-31 0 -53 -17 -53 -44v-86c0 -27 22 -45 53 -45c29 0 50 16 53 41h94c-3 -80 -51 -133 -147 -133z" />
    <glyph glyph-name="ordfeminine" unicode="&#xaa;" horiz-adv-x="335" 
d="M124 395c-68 0 -104 37 -104 89c0 39 14 62 37 78c39 28 98 32 154 35c-7 16 -19 29 -47 29c-23 0 -35 -10 -43 -21h-93c13 57 53 103 136 103c101 0 142 -67 142 -147v-160h-93v36c-12 -21 -37 -42 -89 -42zM149 475c35 0 64 21 64 49c-33 -3 -78 -6 -88 -11
c-8 -3 -12 -9 -12 -17s5 -21 36 -21z" />
    <glyph glyph-name="guillemotleft" unicode="&#xab;" horiz-adv-x="486" 
d="M219 61l-177 155v114l177 155v-162l-57 -50l57 -50v-162zM436 61l-177 155v114l177 155v-162l-57 -50l57 -50v-162z" />
    <glyph glyph-name="logicalnot" unicode="&#xac;" 
d="M49 335h460v-290h-120v170h-340v120z" />
    <glyph glyph-name="uni00AD" unicode="&#xad;" horiz-adv-x="370" 
d="M40 335h290v-120h-290v120z" />
    <glyph glyph-name="registered" unicode="&#xae;" horiz-adv-x="780" 
d="M30 350c0 200 160 360 360 360s360 -160 360 -360s-160 -360 -360 -360s-360 160 -360 360zM138 350c0 -138 113 -251 252 -251s250 113 250 251s-111 251 -250 251s-252 -113 -252 -251zM548 173h-107l-76 130h-21v-130h-93v349h166c80 0 120 -40 120 -109
c0 -55 -23 -89 -70 -103zM344 430v-36h75c17 0 25 6 25 18s-8 18 -25 18h-75z" />
    <glyph glyph-name="overscore" unicode="&#xaf;" horiz-adv-x="439" 
d="M49 688h341v-104h-341v104z" />
    <glyph glyph-name="degree" unicode="&#xb0;" horiz-adv-x="384" 
d="M36 549c0 85 71 156 156 156s156 -71 156 -156s-71 -156 -156 -156s-156 71 -156 156zM133 549c0 -33 26 -60 59 -60s59 27 59 60s-26 60 -59 60s-59 -27 -59 -60z" />
    <glyph glyph-name="plusminus" unicode="&#xb1;" 
d="M219 280h-170v120h170v116h120v-116h170v-120h-170v-116h-120v116zM49 120h460v-120h-460v120z" />
    <glyph glyph-name="twosuperior" unicode="&#xb2;" horiz-adv-x="322" 
d="M18 401v83l161 144c28 25 30 36 30 51c0 29 -13 51 -49 51c-35 0 -49 -22 -49 -49v-4h-93c3 72 44 136 142 136c96 0 141 -60 141 -132c0 -53 -15 -85 -62 -124l-87 -73h149v-83h-283z" />
    <glyph glyph-name="threesuperior" unicode="&#xb3;" horiz-adv-x="325" 
d="M160 395c-91 0 -135 57 -143 122h92c4 -20 21 -39 52 -39c28 0 46 15 46 40c0 31 -23 43 -54 43h-36v82h36c36 0 54 12 54 35c0 31 -13 52 -48 52c-32 0 -46 -19 -50 -39h-92c8 65 50 122 142 122c96 0 141 -66 141 -130c0 -23 -8 -58 -39 -82c26 -18 39 -65 39 -90
c0 -68 -44 -116 -140 -116z" />
    <glyph glyph-name="acute" unicode="&#xb4;" horiz-adv-x="321" 
d="M111 700h172l-118 -129h-114z" />
    <glyph glyph-name="mu" unicode="&#xb5;" horiz-adv-x="574" 
d="M192 35v-219h-132v700h132v-297c0 -69 47 -100 95 -100s95 31 95 100v297h132v-516h-132v35c-21 -29 -59 -45 -95 -45s-74 16 -95 45z" />
    <glyph glyph-name="mu" unicode="&#x3bc;" horiz-adv-x="574" 
d="M192 35v-219h-132v700h132v-297c0 -69 47 -100 95 -100s95 31 95 100v297h132v-516h-132v35c-21 -29 -59 -45 -95 -45s-74 16 -95 45z" />
    <glyph glyph-name="paragraph" unicode="&#xb6;" horiz-adv-x="651" 
d="M581 700v-787h-122v665h-110v-665h-122v387h-10c-110 0 -199 91 -199 200s89 200 199 200h364z" />
    <glyph glyph-name="middot" unicode="&#xb7;" horiz-adv-x="310" 
d="M75 205v160h160v-160h-160z" />
    <glyph glyph-name="cedilla" unicode="&#xb8;" horiz-adv-x="270" 
d="M40 -158l57 158h111l-38 -158h-130z" />
    <glyph glyph-name="onesuperior" unicode="&#xb9;" horiz-adv-x="227" 
d="M95 401v283l-78 -67v122l78 68h93v-406h-93z" />
    <glyph glyph-name="ordmasculine" unicode="&#xba;" horiz-adv-x="334" 
d="M167 478c35 0 48 22 48 50v47c0 28 -13 51 -48 51c-36 0 -49 -23 -49 -51v-47c0 -28 13 -50 49 -50zM167 395c-101 0 -142 68 -142 148v18c0 80 41 147 142 147c100 0 141 -67 141 -147v-18c0 -80 -41 -148 -141 -148z" />
    <glyph glyph-name="guillemotright" unicode="&#xbb;" horiz-adv-x="486" 
d="M223 216l-177 -155v162l57 50l-57 50v162l177 -155v-114zM440 216l-177 -155v162l57 50l-57 50v162l177 -155v-114z" />
    <glyph glyph-name="onequarter" unicode="&#xbc;" horiz-adv-x="774" 
d="M115 294v283l-78 -67v122l78 68h93v-406h-93zM548 700h106l-481 -700h-106zM612 0v84h-169v82l169 240h93v-240h43v-82h-43v-84h-93zM553 166h59v86z" />
    <glyph glyph-name="onehalf" unicode="&#xbd;" horiz-adv-x="821" 
d="M115 294v283l-78 -67v122l78 68h93v-406h-93zM548 700h106l-481 -700h-106zM492 0v83l161 144c28 25 30 36 30 51c0 29 -13 51 -49 51c-35 0 -49 -22 -49 -49v-4h-93c3 72 44 136 142 136c96 0 141 -60 141 -132c0 -53 -15 -85 -62 -124l-87 -73h149v-83h-283z" />
    <glyph glyph-name="threequarters" unicode="&#xbe;" horiz-adv-x="872" 
d="M180 288c-91 0 -135 57 -143 122h92c4 -20 21 -39 52 -39c28 0 46 15 46 40c0 31 -23 43 -54 43h-36v82h36c36 0 54 12 54 35c0 31 -13 52 -48 52c-32 0 -46 -19 -50 -39h-92c8 65 50 122 142 122c96 0 141 -66 141 -130c0 -23 -8 -58 -39 -82c26 -18 39 -65 39 -90
c0 -68 -44 -116 -140 -116zM646 700h106l-481 -700h-106zM710 0v84h-169v82l169 240h93v-240h43v-82h-43v-84h-93zM651 166h59v86z" />
    <glyph glyph-name="questiondown" unicode="&#xbf;" horiz-adv-x="509" 
d="M361 16h131c-11 -131 -88 -210 -229 -210c-145 0 -230 89 -230 228c0 71 38 126 77 161l52 48c27 25 35 38 35 59v4h132v-22c0 -54 -14 -75 -63 -121l-52 -48c-21 -19 -49 -44 -49 -89c0 -61 34 -101 98 -101c60 0 94 35 98 91zM183 356v160h160v-160h-160z" />
    <glyph glyph-name="Agrave" unicode="&#xc0;" horiz-adv-x="626" 
d="M391 268l-78 227l-78 -227h156zM437 141h-248l-50 -141h-140l250 700h128l250 -700h-140zM147 854h174l75 -109h-121z" />
    <glyph glyph-name="Aacute" unicode="&#xc1;" horiz-adv-x="626" 
d="M391 268l-78 227l-78 -227h156zM437 141h-248l-50 -141h-140l250 700h128l250 -700h-140zM305 854h174l-128 -109h-121z" />
    <glyph glyph-name="Acircumflex" unicode="&#xc2;" horiz-adv-x="626" 
d="M391 268l-78 227l-78 -227h156zM437 141h-248l-50 -141h-140l250 700h128l250 -700h-140zM357 745l-44 35l-44 -35h-142l131 109h110l131 -109h-142z" />
    <glyph glyph-name="Atilde" unicode="&#xc3;" horiz-adv-x="626" 
d="M391 268l-78 227l-78 -227h156zM437 141h-248l-50 -141h-140l250 700h128l250 -700h-140zM390 864h104c-13 -69 -51 -130 -119 -130c-24 0 -38 3 -61 14l-27 13c-6 3 -12 4 -18 4c-14 0 -25 -10 -32 -29h-104c13 69 51 130 119 130c24 0 38 -3 61 -14l27 -13
c6 -3 12 -4 18 -4c14 0 25 10 32 29z" />
    <glyph glyph-name="Adieresis" unicode="&#xc4;" horiz-adv-x="626" 
d="M391 268l-78 227l-78 -227h156zM437 141h-248l-50 -141h-140l250 700h128l250 -700h-140zM282 858v-117h-134v117h134zM478 858v-117h-134v117h134z" />
    <glyph glyph-name="Aring" unicode="&#xc5;" horiz-adv-x="626" 
d="M391 268l-78 227l-78 -227h156zM437 141h-248l-50 -141h-140l250 700h128l250 -700h-140zM239 799c0 41 33 75 74 75s75 -34 75 -75s-34 -74 -75 -74s-74 33 -74 74zM295 799c0 -12 6 -18 18 -18s18 6 18 18s-6 18 -18 18s-18 -6 -18 -18z" />
    <glyph glyph-name="AE" unicode="&#xc6;" horiz-adv-x="878" 
d="M314 700h515v-133h-292v-147h292v-133h-292v-154h292v-133h-426v158h-191l-72 -158h-148zM272 286h131v286z" />
    <glyph glyph-name="Ccedilla" unicode="&#xc7;" horiz-adv-x="606" 
d="M437 234h135c-5 -147 -101 -244 -264 -244c-168 0 -264 103 -264 259v202c0 156 96 259 264 259c163 0 259 -97 264 -244h-135c-7 72 -61 111 -129 111c-73 0 -130 -45 -130 -126v-202c0 -81 57 -126 130 -126c68 0 122 39 129 111zM194 -158l52 158h118l-38 -158h-132z
" />
    <glyph glyph-name="Egrave" unicode="&#xc8;" horiz-adv-x="540" 
d="M199 567v-147h292v-133h-292v-154h292v-133h-426v700h426v-133h-292zM112 854h174l75 -109h-121z" />
    <glyph glyph-name="Eacute" unicode="&#xc9;" horiz-adv-x="540" 
d="M199 567v-147h292v-133h-292v-154h292v-133h-426v700h426v-133h-292zM270 854h174l-128 -109h-121z" />
    <glyph glyph-name="Ecircumflex" unicode="&#xca;" horiz-adv-x="540" 
d="M199 567v-147h292v-133h-292v-154h292v-133h-426v700h426v-133h-292zM322 745l-44 35l-44 -35h-142l131 109h110l131 -109h-142z" />
    <glyph glyph-name="Edieresis" unicode="&#xcb;" horiz-adv-x="540" 
d="M199 567v-147h292v-133h-292v-154h292v-133h-426v700h426v-133h-292zM247 858v-117h-134v117h134zM443 858v-117h-134v117h134z" />
    <glyph glyph-name="Igrave" unicode="&#xcc;" horiz-adv-x="263" 
d="M199 700v-700h-134v700h134zM-34 854h174l75 -109h-121z" />
    <glyph glyph-name="Iacute" unicode="&#xcd;" horiz-adv-x="264" 
d="M199 700v-700h-134v700h134zM125 854h174l-128 -109h-121z" />
    <glyph glyph-name="Icircumflex" unicode="&#xce;" horiz-adv-x="264" 
d="M199 700v-700h-134v700h134zM177 745l-44 35l-44 -35h-142l131 109h110l131 -109h-142z" />
    <glyph glyph-name="Idieresis" unicode="&#xcf;" horiz-adv-x="264" 
d="M199 700v-700h-134v700h134zM102 858v-117h-134v117h134zM298 858v-117h-134v117h134z" />
    <glyph glyph-name="Eth" unicode="&#xd0;" horiz-adv-x="648" 
d="M340 0h-264v303h-70v90h70v307h264c168 0 264 -103 264 -259v-182c0 -156 -96 -259 -264 -259zM470 259v182c0 81 -57 126 -130 126h-130v-174h130v-90h-130v-170h130c73 0 130 45 130 126z" />
    <glyph glyph-name="Ntilde" unicode="&#xd1;" horiz-adv-x="658" 
d="M593 700v-700h-134l-260 451v-451h-134v700h134l260 -451v451h134zM406 864h104c-13 -69 -51 -130 -119 -130c-24 0 -38 3 -61 14l-27 13c-6 3 -12 4 -18 4c-14 0 -25 -10 -32 -29h-104c13 69 51 130 119 130c24 0 38 -3 61 -14l27 -13c6 -3 12 -4 18 -4
c14 0 25 10 32 29z" />
    <glyph glyph-name="Ograve" unicode="&#xd2;" horiz-adv-x="616" 
d="M572 451v-202c0 -156 -96 -259 -264 -259s-264 103 -264 259v202c0 156 96 259 264 259s264 -103 264 -259zM438 249v202c0 81 -57 126 -130 126s-130 -45 -130 -126v-202c0 -81 57 -126 130 -126s130 45 130 126zM142 854h174l75 -109h-121z" />
    <glyph glyph-name="Oacute" unicode="&#xd3;" horiz-adv-x="616" 
d="M572 451v-202c0 -156 -96 -259 -264 -259s-264 103 -264 259v202c0 156 96 259 264 259s264 -103 264 -259zM438 249v202c0 81 -57 126 -130 126s-130 -45 -130 -126v-202c0 -81 57 -126 130 -126s130 45 130 126zM300 854h174l-128 -109h-121z" />
    <glyph glyph-name="Ocircumflex" unicode="&#xd4;" horiz-adv-x="616" 
d="M572 451v-202c0 -156 -96 -259 -264 -259s-264 103 -264 259v202c0 156 96 259 264 259s264 -103 264 -259zM438 249v202c0 81 -57 126 -130 126s-130 -45 -130 -126v-202c0 -81 57 -126 130 -126s130 45 130 126zM352 745l-44 35l-44 -35h-142l131 109h110l131 -109
h-142z" />
    <glyph glyph-name="Otilde" unicode="&#xd5;" horiz-adv-x="616" 
d="M572 451v-202c0 -156 -96 -259 -264 -259s-264 103 -264 259v202c0 156 96 259 264 259s264 -103 264 -259zM438 249v202c0 81 -57 126 -130 126s-130 -45 -130 -126v-202c0 -81 57 -126 130 -126s130 45 130 126zM385 864h104c-13 -69 -51 -130 -119 -130
c-24 0 -38 3 -61 14l-27 13c-6 3 -12 4 -18 4c-14 0 -25 -10 -32 -29h-104c13 69 51 130 119 130c24 0 38 -3 61 -14l27 -13c6 -3 12 -4 18 -4c14 0 25 10 32 29z" />
    <glyph glyph-name="Odieresis" unicode="&#xd6;" horiz-adv-x="616" 
d="M572 451v-202c0 -156 -96 -259 -264 -259s-264 103 -264 259v202c0 156 96 259 264 259s264 -103 264 -259zM438 249v202c0 81 -57 126 -130 126s-130 -45 -130 -126v-202c0 -81 57 -126 130 -126s130 45 130 126zM277 858v-117h-134v117h134zM473 858v-117h-134v117h134
z" />
    <glyph glyph-name="multiply" unicode="&#xd7;" 
d="M508 424l-144 -144l144 -143l-85 -85l-144 143l-143 -143l-85 85l143 143l-143 144l85 85l143 -144l144 144z" />
    <glyph glyph-name="Oslash" unicode="&#xd8;" horiz-adv-x="622" 
d="M575 451v-202c0 -156 -96 -259 -264 -259c-57 0 -106 12 -147 35l-41 -67l-76 48l48 79c-32 43 -48 97 -48 164v202c0 156 96 259 264 259c57 0 106 -12 147 -35l42 68l75 -49l-49 -79c33 -44 49 -99 49 -164zM181 451v-202c0 -8 0 -16 1 -23l204 331
c-21 13 -46 20 -75 20c-73 0 -130 -45 -130 -126zM441 249v202c0 8 -1 15 -2 22l-203 -331c21 -13 46 -19 75 -19c73 0 130 45 130 126z" />
    <glyph glyph-name="Ugrave" unicode="&#xd9;" horiz-adv-x="640" 
d="M450 700h134v-451c0 -156 -96 -259 -264 -259s-264 103 -264 259v451h134v-451c0 -81 57 -126 130 -126s130 45 130 126v451zM154 854h174l75 -109h-121z" />
    <glyph glyph-name="Uacute" unicode="&#xda;" horiz-adv-x="640" 
d="M450 700h134v-451c0 -156 -96 -259 -264 -259s-264 103 -264 259v451h134v-451c0 -81 57 -126 130 -126s130 45 130 126v451zM312 854h174l-128 -109h-121z" />
    <glyph glyph-name="Ucircumflex" unicode="&#xdb;" horiz-adv-x="640" 
d="M450 700h134v-451c0 -156 -96 -259 -264 -259s-264 103 -264 259v451h134v-451c0 -81 57 -126 130 -126s130 45 130 126v451zM364 745l-44 35l-44 -35h-142l131 109h110l131 -109h-142z" />
    <glyph glyph-name="Udieresis" unicode="&#xdc;" horiz-adv-x="640" 
d="M450 700h134v-451c0 -156 -96 -259 -264 -259s-264 103 -264 259v451h134v-451c0 -81 57 -126 130 -126s130 45 130 126v451zM289 858v-117h-134v117h134zM485 858v-117h-134v117h134z" />
    <glyph glyph-name="Yacute" unicode="&#xdd;" horiz-adv-x="606" 
d="M370 255v-255h-134v255l-248 445h152l163 -292l163 292h152zM295 854h174l-128 -109h-121z" />
    <glyph glyph-name="Thorn" unicode="&#xde;" horiz-adv-x="597" 
d="M199 241h152c74 0 108 56 108 110c0 53 -34 109 -108 109h-152v-219zM199 108v-108h-134v700h134v-107h152c165 0 242 -114 242 -242c0 -127 -77 -243 -242 -243h-152z" />
    <glyph glyph-name="germandbls" unicode="&#xdf;" horiz-adv-x="553" 
d="M277 320h-37v109h25c45 0 73 37 73 81s-28 81 -73 81s-73 -30 -73 -74v-517h-132v510c0 109 61 200 205 200c135 0 205 -86 205 -187c0 -60 -20 -102 -47 -131c71 -47 97 -118 97 -187c0 -110 -68 -215 -223 -215c-20 0 -38 2 -57 5v130c15 -11 34 -16 57 -16
c56 0 91 42 91 106s-46 105 -111 105z" />
    <glyph glyph-name="agrave" unicode="&#xe0;" 
d="M371 336v-1c-78 -5 -182 -15 -232 -38c-72 -35 -98 -78 -98 -154c0 -96 68 -153 188 -153c80 0 120 30 144 69v-59h132v293c0 143 -82 237 -230 237c-128 0 -203 -68 -224 -176h133c13 35 44 57 91 57c55 0 87 -28 96 -75zM201 202c25 13 96 19 172 24v-17
c0 -65 -54 -103 -122 -103c-59 0 -78 27 -78 52c0 23 5 33 28 44zM128 700h172l60 -129h-114z" />
    <glyph glyph-name="aacute" unicode="&#xe1;" 
d="M371 335v1c-9 47 -41 75 -96 75c-47 0 -78 -22 -91 -57h-133c21 108 96 176 224 176c148 0 230 -94 230 -237v-293h-132v59c-24 -39 -64 -69 -144 -69c-120 0 -188 57 -188 153c0 76 26 119 98 154c50 23 154 33 232 38zM201 202c-23 -11 -28 -21 -28 -44
c0 -25 19 -52 78 -52c68 0 122 38 122 103v17c-76 -5 -147 -11 -172 -24zM256 700h172l-118 -129h-114z" />
    <glyph glyph-name="acircumflex" unicode="&#xe2;" 
d="M371 335v1c-9 47 -41 75 -96 75c-47 0 -78 -22 -91 -57h-133c21 108 96 176 224 176c148 0 230 -94 230 -237v-293h-132v59c-24 -39 -64 -69 -144 -69c-120 0 -188 57 -188 153c0 76 26 119 98 154c50 23 154 33 232 38zM201 202c-23 -11 -28 -21 -28 -44
c0 -25 19 -52 78 -52c68 0 122 38 122 103v17c-76 -5 -147 -11 -172 -24zM343 700l126 -129h-138l-48 45l-49 -45h-137l126 129h120z" />
    <glyph glyph-name="atilde" unicode="&#xe3;" 
d="M371 335v1c-9 47 -41 75 -96 75c-47 0 -78 -22 -91 -57h-133c21 108 96 176 224 176c148 0 230 -94 230 -237v-293h-132v59c-24 -39 -64 -69 -144 -69c-120 0 -188 57 -188 153c0 76 26 119 98 154c50 23 154 33 232 38zM201 202c-23 -11 -28 -21 -28 -44
c0 -25 19 -52 78 -52c68 0 122 38 122 103v17c-76 -5 -147 -11 -172 -24zM200 572h-97c13 69 51 130 119 130c24 0 38 -4 61 -15l27 -13c7 -3 13 -5 24 -5s25 8 32 31h98c-13 -69 -51 -130 -119 -130c-24 0 -38 4 -61 15l-27 13c-7 3 -13 5 -24 5s-25 -8 -33 -31z" />
    <glyph glyph-name="adieresis" unicode="&#xe4;" 
d="M371 335v1c-9 47 -41 75 -96 75c-47 0 -78 -22 -91 -57h-133c21 108 96 176 224 176c148 0 230 -94 230 -237v-293h-132v59c-24 -39 -64 -69 -144 -69c-120 0 -188 57 -188 153c0 76 26 119 98 154c50 23 154 33 232 38zM201 202c-23 -11 -28 -21 -28 -44
c0 -25 19 -52 78 -52c68 0 122 38 122 103v17c-76 -5 -147 -11 -172 -24zM251 694v-117h-132v117h132zM447 694v-117h-132v117h132z" />
    <glyph glyph-name="aring" unicode="&#xe5;" 
d="M371 335v1c-9 47 -41 75 -96 75c-47 0 -78 -22 -91 -57h-133c21 108 96 176 224 176c148 0 230 -94 230 -237v-293h-132v59c-24 -39 -64 -69 -144 -69c-120 0 -188 57 -188 153c0 76 26 119 98 154c50 23 154 33 232 38zM201 202c-23 -11 -28 -21 -28 -44
c0 -25 19 -52 78 -52c68 0 122 38 122 103v17c-76 -5 -147 -11 -172 -24zM209 635c0 41 33 75 74 75s75 -34 75 -75s-34 -74 -75 -74s-74 33 -74 74zM263 635c0 -11 9 -20 20 -20s20 9 20 20s-9 20 -20 20s-20 -9 -20 -20z" />
    <glyph glyph-name="ae" unicode="&#xe6;" horiz-adv-x="876" 
d="M603 411c-60 0 -93 -34 -98 -89h195c-4 55 -37 89 -97 89zM41 143c0 76 26 119 98 154c50 23 154 33 232 38c-9 47 -41 76 -96 76c-47 0 -78 -22 -91 -57h-133c21 108 96 176 224 176c69 0 123 -23 164 -69c41 46 95 69 164 69c148 0 230 -94 230 -237v-80h-328v-3
c0 -61 34 -101 98 -101c47 0 78 22 91 57h134c-21 -108 -97 -176 -225 -176c-100 0 -168 41 -203 112c-21 -72 -79 -112 -168 -112c-123 0 -191 57 -191 153zM201 202c-23 -11 -28 -21 -28 -44c0 -25 19 -52 78 -52c68 0 122 38 122 103v17c-76 -5 -147 -11 -172 -24z" />
    <glyph glyph-name="ccedilla" unicode="&#xe7;" horiz-adv-x="538" 
d="M370 188h132c-15 -123 -92 -198 -228 -198c-148 0 -230 94 -230 237v66c0 143 82 237 230 237c136 0 213 -75 228 -198h-132c-8 48 -40 79 -96 79c-64 0 -98 -40 -98 -101v-100c0 -61 34 -101 98 -101c56 0 89 30 96 79zM161 -158l57 158h111l-38 -158h-130z" />
    <glyph glyph-name="egrave" unicode="&#xe8;" horiz-adv-x="547" 
d="M176 213h328v80c0 143 -82 237 -230 237s-230 -94 -230 -237v-66c0 -143 82 -237 230 -237c128 0 204 68 225 176h-134c-13 -35 -44 -57 -91 -57c-64 0 -98 40 -98 101v3zM274 411c60 0 93 -33 97 -88v-1h-195v1c5 53 38 88 98 88zM129 700h172l60 -129h-114z" />
    <glyph glyph-name="eacute" unicode="&#xe9;" horiz-adv-x="547" 
d="M504 213h-328v-3c0 -61 34 -101 98 -101c47 0 78 22 91 57h134c-21 -108 -97 -176 -225 -176c-148 0 -230 94 -230 237v66c0 143 82 237 230 237s230 -94 230 -237v-80zM274 411c-60 0 -93 -35 -98 -88v-1h195v1c-4 55 -37 88 -97 88zM257 700h172l-118 -129h-114z" />
    <glyph glyph-name="ecircumflex" unicode="&#xea;" horiz-adv-x="547" 
d="M504 213h-328v-3c0 -61 34 -101 98 -101c47 0 78 22 91 57h134c-21 -108 -97 -176 -225 -176c-148 0 -230 94 -230 237v66c0 143 82 237 230 237s230 -94 230 -237v-80zM274 411c-60 0 -93 -35 -98 -88v-1h195v1c-4 55 -37 88 -97 88zM334 700l126 -129h-138l-48 45
l-49 -45h-137l126 129h120z" />
    <glyph glyph-name="edieresis" unicode="&#xeb;" horiz-adv-x="547" 
d="M504 213h-328v-3c0 -61 34 -101 98 -101c47 0 78 22 91 57h134c-21 -108 -97 -176 -225 -176c-148 0 -230 94 -230 237v66c0 143 82 237 230 237s230 -94 230 -237v-80zM274 411c-60 0 -93 -35 -98 -88v-1h195v1c-4 55 -37 88 -97 88zM242 694v-117h-132v117h132z
M438 694v-117h-132v117h132z" />
    <glyph glyph-name="igrave" unicode="&#xec;" horiz-adv-x="252" 
d="M192 0v516h-132v-516h132zM-19 700h172l60 -129h-114z" />
    <glyph glyph-name="iacute" unicode="&#xed;" horiz-adv-x="252" 
d="M192 516v-516h-132v516h132zM110 700h172l-118 -129h-114z" />
    <glyph glyph-name="icircumflex" unicode="&#xee;" horiz-adv-x="312" 
d="M222 516v-516h-132v516h132zM217 700l126 -129h-138l-48 45l-49 -45h-137l126 129h120z" />
    <glyph glyph-name="idieresis" unicode="&#xef;" horiz-adv-x="292" 
d="M212 516v-516h-132v516h132zM115 694v-117h-132v117h132zM311 694v-117h-132v117h132z" />
    <glyph glyph-name="eth" unicode="&#xf0;" horiz-adv-x="548" 
d="M316 645h108v-80h-50l83 -115l1 -1c31 -41 46 -93 46 -156v-66c0 -143 -82 -237 -230 -237s-230 94 -230 237v66c0 135 68 222 196 235l-26 37h-125v80h67l-39 55h160zM372 210v100c0 61 -34 101 -98 101s-98 -40 -98 -101v-100c0 -61 34 -101 98 -101s98 40 98 101z" />
    <glyph glyph-name="ntilde" unicode="&#xf1;" horiz-adv-x="573" 
d="M520 306v-306h-132v301c0 69 -48 100 -98 100s-98 -31 -98 -100v-301h-132v516h132v-45c24 35 74 59 121 59c105 0 207 -72 207 -224zM207 572h-97c13 69 51 130 119 130c24 0 38 -4 61 -15l27 -13c7 -3 13 -5 24 -5s25 8 32 31h98c-13 -69 -51 -130 -119 -130
c-24 0 -38 4 -61 15l-27 13c-7 3 -13 5 -24 5s-25 -8 -33 -31z" />
    <glyph glyph-name="ograve" unicode="&#xf2;" horiz-adv-x="548" 
d="M44 293v-66c0 -143 82 -237 230 -237s230 94 230 237v66c0 143 -82 237 -230 237s-230 -94 -230 -237zM372 310v-100c0 -61 -34 -101 -98 -101s-98 40 -98 101v100c0 61 34 101 98 101s98 -40 98 -101zM129 700h172l60 -129h-114z" />
    <glyph glyph-name="oacute" unicode="&#xf3;" horiz-adv-x="548" 
d="M44 227v66c0 143 82 237 230 237s230 -94 230 -237v-66c0 -143 -82 -237 -230 -237s-230 94 -230 237zM372 210v100c0 61 -34 101 -98 101s-98 -40 -98 -101v-100c0 -61 34 -101 98 -101s98 40 98 101zM257 700h172l-118 -129h-114z" />
    <glyph glyph-name="ocircumflex" unicode="&#xf4;" horiz-adv-x="548" 
d="M44 227v66c0 143 82 237 230 237s230 -94 230 -237v-66c0 -143 -82 -237 -230 -237s-230 94 -230 237zM372 210v100c0 61 -34 101 -98 101s-98 -40 -98 -101v-100c0 -61 34 -101 98 -101s98 40 98 101zM334 700l126 -129h-138l-48 45l-49 -45h-137l126 129h120z" />
    <glyph glyph-name="otilde" unicode="&#xf5;" horiz-adv-x="548" 
d="M44 227v66c0 143 82 237 230 237s230 -94 230 -237v-66c0 -143 -82 -237 -230 -237s-230 94 -230 237zM372 210v100c0 61 -34 101 -98 101s-98 -40 -98 -101v-100c0 -61 34 -101 98 -101s98 40 98 101zM191 572h-97c13 69 51 130 119 130c24 0 38 -4 61 -15l27 -13
c7 -3 13 -5 24 -5s25 8 32 31h98c-13 -69 -51 -130 -119 -130c-24 0 -38 4 -61 15l-27 13c-7 3 -13 5 -24 5s-25 -8 -33 -31z" />
    <glyph glyph-name="odieresis" unicode="&#xf6;" horiz-adv-x="548" 
d="M44 227v66c0 143 82 237 230 237s230 -94 230 -237v-66c0 -143 -82 -237 -230 -237s-230 94 -230 237zM372 210v100c0 61 -34 101 -98 101s-98 -40 -98 -101v-100c0 -61 34 -101 98 -101s98 40 98 101zM242 694v-117h-132v117h132zM438 694v-117h-132v117h132z" />
    <glyph glyph-name="divide" unicode="&#xf7;" 
d="M206 449c0 40 33 72 73 72s72 -32 72 -72s-32 -73 -72 -73s-73 33 -73 73zM206 102c0 40 33 72 73 72s72 -32 72 -72s-32 -73 -72 -73s-73 33 -73 73zM49 335h460v-120h-460v120z" />
    <glyph glyph-name="oslash" unicode="&#xf8;" horiz-adv-x="554" 
d="M47 227v66c0 143 82 237 230 237c47 0 88 -9 122 -28l43 60l65 -46l-47 -66c31 -41 47 -93 47 -157v-66c0 -143 -82 -237 -230 -237c-47 0 -87 9 -122 27l-42 -59l-66 46l46 66c-31 41 -46 93 -46 157zM179 310v-100c0 -7 0 -13 1 -18l147 208c-15 7 -31 11 -50 11
c-64 0 -98 -40 -98 -101zM375 210v100c0 7 -1 12 -1 17l-147 -208c13 -7 30 -10 50 -10c64 0 98 40 98 101z" />
    <glyph glyph-name="ugrave" unicode="&#xf9;" horiz-adv-x="567" 
d="M280 119c-48 0 -95 31 -95 100v297h-132v-302c0 -156 101 -224 197 -224c64 0 102 31 125 66v-56h132v516h-132v-297c0 -69 -47 -100 -95 -100zM135 700h172l60 -129h-114z" />
    <glyph glyph-name="uacute" unicode="&#xfa;" horiz-adv-x="567" 
d="M280 119c48 0 95 31 95 100v297h132v-516h-132v56c-23 -35 -61 -66 -125 -66c-96 0 -197 68 -197 224v302h132v-297c0 -69 47 -100 95 -100zM263 700h172l-118 -129h-114z" />
    <glyph glyph-name="ucircumflex" unicode="&#xfb;" horiz-adv-x="567" 
d="M280 119c48 0 95 31 95 100v297h132v-516h-132v56c-23 -35 -61 -66 -125 -66c-96 0 -197 68 -197 224v302h132v-297c0 -69 47 -100 95 -100zM340 700l126 -129h-138l-48 45l-49 -45h-137l126 129h120z" />
    <glyph glyph-name="udieresis" unicode="&#xfc;" horiz-adv-x="567" 
d="M280 119c48 0 95 31 95 100v297h132v-516h-132v56c-23 -35 -61 -66 -125 -66c-96 0 -197 68 -197 224v302h132v-297c0 -69 47 -100 95 -100zM248 694v-117h-132v117h132zM444 694v-117h-132v117h132z" />
    <glyph glyph-name="yacute" unicode="&#xfd;" horiz-adv-x="490" 
d="M499 516l-203 -565c-30 -78 -35 -135 -128 -135h-98v119h55c24 0 31 12 35 23l15 42l-184 516h139l115 -329l115 329h139zM228 700h172l-118 -129h-114z" />
    <glyph glyph-name="thorn" unicode="&#xfe;" horiz-adv-x="564" 
d="M192 49v-233h-132v884h132v-229c24 35 74 59 121 59c105 0 207 -72 207 -224v-92c0 -152 -102 -224 -207 -224c-47 0 -97 24 -121 59zM388 219v82c0 69 -48 100 -98 100s-98 -31 -98 -100v-82c0 -69 48 -100 98 -100s98 31 98 100z" />
    <glyph glyph-name="ydieresis" unicode="&#xff;" horiz-adv-x="490" 
d="M499 516l-203 -565c-30 -78 -35 -135 -128 -135h-98v119h55c24 0 31 12 35 23l15 42l-184 516h139l115 -329l115 329h139zM213 694v-117h-132v117h132zM409 694v-117h-132v117h132z" />
    <glyph glyph-name="Abreve" unicode="&#x102;" horiz-adv-x="626" 
d="M391 268l-78 227l-78 -227h156zM437 141h-248l-50 -141h-140l250 700h128l250 -700h-140zM256 830h114c13 0 24 11 24 24h95c0 -61 -49 -109 -110 -109h-132c-61 0 -110 48 -110 109h95c0 -13 11 -24 24 -24z" />
    <glyph glyph-name="Amacron" unicode="&#x100;" horiz-adv-x="626" 
d="M391 268l-78 227l-78 -227h156zM437 141h-248l-50 -141h-140l250 700h128l250 -700h-140zM143 853h341v-106h-341v106z" />
    <glyph glyph-name="Aogonek" unicode="&#x104;" horiz-adv-x="626" 
d="M437 141h-248l-50 -141h-140l250 700h128l250 -700c-41 -29 -82 -51 -82 -75c0 -16 11 -19 24 -19c20 0 46 10 58 17v-94c-23 -9 -56 -18 -91 -18c-61 0 -125 23 -125 86c0 48 31 80 76 103zM391 268l-78 227l-78 -227h156z" />
    <glyph glyph-name="Cacute" unicode="&#x106;" horiz-adv-x="606" 
d="M437 234h135c-5 -147 -101 -244 -264 -244c-168 0 -264 103 -264 259v202c0 156 96 259 264 259c163 0 259 -97 264 -244h-135c-7 72 -61 111 -129 111c-73 0 -130 -45 -130 -126v-202c0 -81 57 -126 130 -126c68 0 122 39 129 111zM300 854h174l-128 -109h-121z" />
    <glyph glyph-name="Ccaron" unicode="&#x10c;" horiz-adv-x="606" 
d="M437 234h135c-5 -147 -101 -244 -264 -244c-168 0 -264 103 -264 259v202c0 156 96 259 264 259c163 0 259 -97 264 -244h-135c-7 72 -61 111 -129 111c-73 0 -130 -45 -130 -126v-202c0 -81 57 -126 130 -126c68 0 122 39 129 111zM308 819l44 35h142l-131 -109h-110
l-131 109h142z" />
    <glyph glyph-name="Ccircumflex" unicode="&#x108;" horiz-adv-x="606" 
d="M437 234h135c-5 -147 -101 -244 -264 -244c-168 0 -264 103 -264 259v202c0 156 96 259 264 259c163 0 259 -97 264 -244h-135c-7 72 -61 111 -129 111c-73 0 -130 -45 -130 -126v-202c0 -81 57 -126 130 -126c68 0 122 39 129 111zM352 745l-44 35l-44 -35h-142l131 109
h110l131 -109h-142z" />
    <glyph glyph-name="Cdotaccent" unicode="&#x10a;" horiz-adv-x="606" 
d="M437 234h135c-5 -147 -101 -244 -264 -244c-168 0 -264 103 -264 259v202c0 156 96 259 264 259c163 0 259 -97 264 -244h-135c-7 72 -61 111 -129 111c-73 0 -130 -45 -130 -126v-202c0 -81 57 -126 130 -126c68 0 122 39 129 111zM375 858v-117h-134v117h134z" />
    <glyph glyph-name="Dcaron" unicode="&#x10e;" horiz-adv-x="637" 
d="M329 0h-264v700h264c168 0 264 -103 264 -259v-182c0 -156 -96 -259 -264 -259zM459 259v182c0 81 -57 126 -130 126h-130v-434h130c73 0 130 45 130 126zM309 819l44 35h142l-131 -109h-110l-131 109h142z" />
    <glyph glyph-name="Dcroat" unicode="&#x110;" horiz-adv-x="648" 
d="M340 0h-264v303h-70v90h70v307h264c168 0 264 -103 264 -259v-182c0 -156 -96 -259 -264 -259zM470 259v182c0 81 -57 126 -130 126h-130v-174h130v-90h-130v-170h130c73 0 130 45 130 126z" />
    <glyph glyph-name="Ebreve" unicode="&#x114;" horiz-adv-x="540" 
d="M199 567v-147h292v-133h-292v-154h292v-133h-426v700h426v-133h-292zM221 830h114c13 0 24 11 24 24h95c0 -61 -49 -109 -110 -109h-132c-61 0 -110 48 -110 109h95c0 -13 11 -24 24 -24z" />
    <glyph glyph-name="Ecaron" unicode="&#x11a;" horiz-adv-x="540" 
d="M199 567v-147h292v-133h-292v-154h292v-133h-426v700h426v-133h-292zM465 884l-126 -129h-120l-126 129h137l49 -45l48 45h138z" />
    <glyph glyph-name="Emacron" unicode="&#x112;" horiz-adv-x="540" 
d="M199 567v-147h292v-133h-292v-154h292v-133h-426v700h426v-133h-292zM108 853h341v-106h-341v106z" />
    <glyph glyph-name="Eogonek" unicode="&#x118;" horiz-adv-x="540" 
d="M199 567v-147h292v-133h-292v-154h292v-133h-426v700h426v-133h-292zM357 0h134c-41 -29 -82 -51 -82 -75c0 -16 11 -19 24 -19c20 0 46 10 58 17v-94c-23 -9 -56 -18 -91 -18c-61 0 -125 23 -125 86c0 48 37 80 82 103z" />
    <glyph glyph-name="Edotaccent" unicode="&#x116;" horiz-adv-x="540" 
d="M199 567v-147h292v-133h-292v-154h292v-133h-426v700h426v-133h-292zM345 858v-117h-134v117h134z" />
    <glyph glyph-name="Gbreve" unicode="&#x11e;" horiz-adv-x="614" 
d="M308 267v133h264v-151c0 -156 -96 -259 -264 -259s-264 103 -264 259v202c0 156 96 259 264 259c157 0 252 -92 263 -231h-135c-12 64 -64 98 -128 98c-73 0 -130 -45 -130 -126v-202c0 -81 57 -126 130 -126s130 45 130 126v18h-130zM251 830h114c13 0 24 11 24 24h95
c0 -61 -49 -109 -110 -109h-132c-61 0 -110 48 -110 109h95c0 -13 11 -24 24 -24z" />
    <glyph glyph-name="Gcircumflex" unicode="&#x11c;" horiz-adv-x="614" 
d="M308 267v133h264v-151c0 -156 -96 -259 -264 -259s-264 103 -264 259v202c0 156 96 259 264 259c157 0 252 -92 263 -231h-135c-12 64 -64 98 -128 98c-73 0 -130 -45 -130 -126v-202c0 -81 57 -126 130 -126s130 45 130 126v18h-130zM352 745l-44 35l-44 -35h-142
l131 109h110l131 -109h-142z" />
    <glyph glyph-name="uni0122" unicode="&#x122;" horiz-adv-x="614" 
d="M308 267v133h264v-151c0 -156 -96 -259 -264 -259s-264 103 -264 259v202c0 156 96 259 264 259c157 0 252 -92 263 -231h-135c-12 64 -64 98 -128 98c-73 0 -130 -45 -130 -126v-202c0 -81 57 -126 130 -126s130 45 130 126v18h-130zM233 -200v150h150v-150l-33 -104
h-94l33 104h-56z" />
    <glyph glyph-name="Gdotaccent" unicode="&#x120;" horiz-adv-x="614" 
d="M308 267v133h264v-151c0 -156 -96 -259 -264 -259s-264 103 -264 259v202c0 156 96 259 264 259c157 0 252 -92 263 -231h-135c-12 64 -64 98 -128 98c-73 0 -130 -45 -130 -126v-202c0 -81 57 -126 130 -126s130 45 130 126v18h-130zM375 858v-117h-134v117h134z" />
    <glyph glyph-name="Hbar" unicode="&#x126;" horiz-adv-x="658" 
d="M199 700v-95h260v95h134v-700h-134v287h-260v-287h-134v700h134zM459 420v95h-260v-95h260z" />
    <glyph glyph-name="Hcircumflex" unicode="&#x124;" horiz-adv-x="658" 
d="M459 420v280h134v-700h-134v287h-260v-287h-134v700h134v-280h260zM373 745l-44 35l-44 -35h-142l131 109h110l131 -109h-142z" />
    <glyph glyph-name="Ibreve" unicode="&#x12c;" horiz-adv-x="264" 
d="M199 700v-700h-134v700h134zM76 830h114c13 0 24 11 24 24h95c0 -61 -49 -109 -110 -109h-132c-61 0 -110 48 -110 109h95c0 -13 11 -24 24 -24z" />
    <glyph glyph-name="Idot" unicode="&#x130;" horiz-adv-x="264" 
d="M199 700v-700h-134v700h134zM199 858v-117h-134v117h134z" />
    <glyph glyph-name="Imacron" unicode="&#x12a;" horiz-adv-x="264" 
d="M199 700v-700h-134v700h134zM-37 872h341v-104h-341v104z" />
    <glyph glyph-name="Iogonek" unicode="&#x12e;" horiz-adv-x="264" 
d="M199 700v-700h-134v700h134zM66 0h134c-41 -29 -82 -51 -82 -75c0 -16 11 -19 24 -19c20 0 46 10 58 17v-94c-23 -9 -56 -18 -91 -18c-61 0 -125 23 -125 86c0 48 37 80 82 103z" />
    <glyph glyph-name="Itilde" unicode="&#x128;" horiz-adv-x="264" 
d="M199 700v-700h-134v700h134zM210 864h104c-13 -69 -51 -130 -119 -130c-24 0 -38 3 -61 14l-27 13c-6 3 -12 4 -18 4c-14 0 -25 -10 -32 -29h-104c13 69 51 130 119 130c24 0 38 -3 61 -14l27 -13c6 -3 12 -4 18 -4c14 0 25 10 32 29z" />
    <glyph glyph-name="uni1ECA" unicode="&#x1eca;" horiz-adv-x="264" 
d="M199 700v-700h-134v700h134zM199 -49v-117h-134v117h134z" />
    <glyph glyph-name="Jcircumflex" unicode="&#x134;" horiz-adv-x="471" 
d="M281 204v496h134v-500c0 -141 -75 -210 -208 -210s-208 69 -208 210h135c4 -51 28 -77 73 -77c52 0 74 34 74 81zM392 745l-44 35l-44 -35h-142l131 109h110l131 -109h-142z" />
    <glyph glyph-name="uni0136" unicode="&#x136;" horiz-adv-x="645" 
d="M201 198v-198h-136v700h136v-302l257 302h171l-246 -289l271 -411h-164l-199 303zM260 -200v150h150v-150l-33 -104h-94l33 104h-56z" />
    <glyph glyph-name="Lacute" unicode="&#x139;" horiz-adv-x="491" 
d="M199 700v-567h292v-133h-426v700h134zM125 854h174l-128 -109h-121z" />
    <glyph glyph-name="Lcaron" unicode="&#x13d;" horiz-adv-x="491" 
d="M473 700l-81 -158h-111l28 158h164zM199 700v-567h292v-133h-426v700h134z" />
    <glyph glyph-name="uni013B" unicode="&#x13b;" horiz-adv-x="491" 
d="M199 700v-567h292v-133h-426v700h134zM203 -200v150h150v-150l-33 -104h-94l33 104h-56z" />
    <glyph glyph-name="Ldot" unicode="&#x13f;" horiz-adv-x="491" 
d="M199 700v-567h292v-133h-426v700h134zM444 476v-117h-134v117h134z" />
    <glyph glyph-name="Lslash" unicode="&#x141;" horiz-adv-x="502" 
d="M210 700v-269l130 73v-104l-130 -73v-194h292v-133h-426v252l-70 -39v104l70 39v344h134z" />
    <glyph glyph-name="Eng" unicode="&#x14a;" horiz-adv-x="658" 
d="M593 700v-674c0 -141 -75 -210 -208 -210h-56v133h56c41 0 64 23 71 55l-257 447v-451h-134v700h134l260 -451v451h134z" />
    <glyph glyph-name="Nacute" unicode="&#x143;" horiz-adv-x="658" 
d="M593 700v-700h-134l-260 451v-451h-134v700h134l260 -451v451h134zM321 854h174l-128 -109h-121z" />
    <glyph glyph-name="Ncaron" unicode="&#x147;" horiz-adv-x="658" 
d="M593 700v-700h-134l-260 451v-451h-134v700h134l260 -451v451h134zM329 819l44 35h142l-131 -109h-110l-131 109h142z" />
    <glyph glyph-name="uni0145" unicode="&#x145;" horiz-adv-x="658" 
d="M593 700v-700h-134l-260 451v-451h-134v700h134l260 -451v451h134zM254 -200v150h150v-150l-33 -104h-94l33 104h-56z" />
    <glyph glyph-name="OE" unicode="&#x152;" horiz-adv-x="913" 
d="M438 0v31c-28 -24 -70 -41 -130 -41c-168 0 -264 103 -264 259v202c0 156 96 259 264 259c60 0 102 -17 130 -41v31h426v-133h-292v-147h292v-133h-292v-154h292v-133h-426zM438 249v202c0 81 -57 126 -130 126s-130 -45 -130 -126v-202c0 -81 57 -126 130 -126
s130 45 130 126z" />
    <glyph glyph-name="Obreve" unicode="&#x14e;" horiz-adv-x="616" 
d="M572 451v-202c0 -156 -96 -259 -264 -259s-264 103 -264 259v202c0 156 96 259 264 259s264 -103 264 -259zM438 249v202c0 81 -57 126 -130 126s-130 -45 -130 -126v-202c0 -81 57 -126 130 -126s130 45 130 126zM251 830h114c13 0 24 11 24 24h95
c0 -61 -49 -109 -110 -109h-132c-61 0 -110 48 -110 109h95c0 -13 11 -24 24 -24z" />
    <glyph glyph-name="Ohungarumlaut" unicode="&#x150;" horiz-adv-x="616" 
d="M572 451v-202c0 -156 -96 -259 -264 -259s-264 103 -264 259v202c0 156 96 259 264 259s264 -103 264 -259zM438 249v202c0 81 -57 126 -130 126s-130 -45 -130 -126v-202c0 -81 57 -126 130 -126s130 45 130 126zM211 854h169l-118 -109h-116zM403 854h169l-118 -109
h-116z" />
    <glyph glyph-name="Omacron" unicode="&#x14c;" horiz-adv-x="616" 
d="M572 451v-202c0 -156 -96 -259 -264 -259s-264 103 -264 259v202c0 156 96 259 264 259s264 -103 264 -259zM438 249v202c0 81 -57 126 -130 126s-130 -45 -130 -126v-202c0 -81 57 -126 130 -126s130 45 130 126zM138 853h341v-106h-341v106z" />
    <glyph glyph-name="uni1ECC" unicode="&#x1ecc;" horiz-adv-x="616" 
d="M572 451v-202c0 -156 -96 -259 -264 -259s-264 103 -264 259v202c0 156 96 259 264 259s264 -103 264 -259zM438 249v202c0 81 -57 126 -130 126s-130 -45 -130 -126v-202c0 -81 57 -126 130 -126s130 45 130 126zM375 -49v-117h-134v117h134z" />
    <glyph glyph-name="Racute" unicode="&#x154;" horiz-adv-x="618" 
d="M281 288h-82v-288h-134v700h295c144 0 221 -78 221 -206c0 -104 -52 -176 -151 -199l174 -295h-154zM447 492c0 49 -33 75 -84 75h-164v-149h164c51 0 84 26 84 74zM287 854h174l-128 -109h-121z" />
    <glyph glyph-name="Rcaron" unicode="&#x158;" horiz-adv-x="618" 
d="M281 288h-82v-288h-134v700h295c144 0 221 -78 221 -206c0 -104 -52 -176 -151 -199l174 -295h-154zM447 492c0 49 -33 75 -84 75h-164v-149h164c51 0 84 26 84 74zM304 819l44 35h142l-131 -109h-110l-131 109h142z" />
    <glyph glyph-name="uni0156" unicode="&#x156;" horiz-adv-x="618" 
d="M281 288h-82v-288h-134v700h295c144 0 221 -78 221 -206c0 -104 -52 -176 -151 -199l174 -295h-154zM447 492c0 49 -33 75 -84 75h-164v-149h164c51 0 84 26 84 74zM239 -200v150h150v-150l-33 -104h-94l33 104h-56z" />
    <glyph glyph-name="Sacute" unicode="&#x15a;" horiz-adv-x="541" 
d="M280 -10c-155 0 -251 92 -259 231h138c8 -60 53 -98 121 -98c60 0 100 22 100 70c0 39 -23 61 -72 74l-118 32c-108 29 -160 103 -160 207c0 139 109 204 232 204c140 0 226 -81 242 -201h-138c-12 47 -61 68 -106 68c-56 0 -96 -22 -96 -71c0 -41 31 -58 70 -69l114 -31
c108 -29 166 -93 166 -213c0 -128 -79 -203 -234 -203zM259 854h174l-128 -109h-121z" />
    <glyph glyph-name="Scaron" unicode="&#x160;" horiz-adv-x="541" 
d="M280 -10c-155 0 -251 92 -259 231h138c8 -60 53 -98 121 -98c60 0 100 22 100 70c0 39 -23 61 -72 74l-118 32c-108 29 -160 103 -160 207c0 139 109 204 232 204c140 0 226 -81 242 -201h-138c-12 47 -61 68 -106 68c-56 0 -96 -22 -96 -71c0 -41 31 -58 70 -69l114 -31
c108 -29 166 -93 166 -213c0 -128 -79 -203 -234 -203zM267 819l44 35h142l-131 -109h-110l-131 109h142z" />
    <glyph glyph-name="Scedilla" unicode="&#x15e;" horiz-adv-x="541" 
d="M280 -10c-155 0 -251 92 -259 231h138c8 -60 53 -98 121 -98c60 0 100 22 100 70c0 39 -23 61 -72 74l-118 32c-108 29 -160 103 -160 207c0 139 109 204 232 204c140 0 226 -81 242 -201h-138c-12 47 -61 68 -106 68c-56 0 -96 -22 -96 -71c0 -41 31 -58 70 -69l114 -31
c108 -29 166 -93 166 -213c0 -128 -79 -203 -234 -203zM173 -158l52 158h118l-38 -158h-132z" />
    <glyph glyph-name="Scircumflex" unicode="&#x15c;" horiz-adv-x="541" 
d="M280 -10c-155 0 -251 92 -259 231h138c8 -60 53 -98 121 -98c60 0 100 22 100 70c0 39 -23 61 -72 74l-118 32c-108 29 -160 103 -160 207c0 139 109 204 232 204c140 0 226 -81 242 -201h-138c-12 47 -61 68 -106 68c-56 0 -96 -22 -96 -71c0 -41 31 -58 70 -69l114 -31
c108 -29 166 -93 166 -213c0 -128 -79 -203 -234 -203zM311 745l-44 35l-44 -35h-142l131 109h110l131 -109h-142z" />
    <glyph glyph-name="uni0218" unicode="&#x218;" horiz-adv-x="541" 
d="M280 -10c-155 0 -251 92 -259 231h138c8 -60 53 -98 121 -98c60 0 100 22 100 70c0 39 -23 61 -72 74l-118 32c-108 29 -160 103 -160 207c0 139 109 204 232 204c140 0 226 -81 242 -201h-138c-12 47 -61 68 -106 68c-56 0 -96 -22 -96 -71c0 -41 31 -58 70 -69l114 -31
c108 -29 166 -93 166 -213c0 -128 -79 -203 -234 -203zM192 -200v150h150v-150l-33 -104h-94l33 104h-56z" />
    <glyph glyph-name="Tbar" unicode="&#x166;" horiz-adv-x="526" 
d="M527 567h-195v-174h125v-90h-125v-303h-138v303h-125v90h125v174h-195v133h528v-133z" />
    <glyph glyph-name="Tcaron" unicode="&#x164;" horiz-adv-x="526" 
d="M527 567h-195v-567h-138v567h-195v133h528v-133zM263 819l44 35h142l-131 -109h-110l-131 109h142z" />
    <glyph glyph-name="uni0162" unicode="&#x162;" horiz-adv-x="526" 
d="M527 567h-195v-567h-138v567h-195v133h528v-133zM188 -200v150h150v-150l-33 -104h-94l33 104h-56z" />
    <glyph glyph-name="uni021A" unicode="&#x21a;" horiz-adv-x="526" 
d="M527 567h-195v-567h-138v567h-195v133h528v-133zM188 -200v150h150v-150l-33 -104h-94l33 104h-56z" />
    <glyph glyph-name="Ubreve" unicode="&#x16c;" horiz-adv-x="640" 
d="M450 700h134v-451c0 -156 -96 -259 -264 -259s-264 103 -264 259v451h134v-451c0 -81 57 -126 130 -126s130 45 130 126v451zM263 830h114c13 0 24 11 24 24h95c0 -61 -49 -109 -110 -109h-132c-61 0 -110 48 -110 109h95c0 -13 11 -24 24 -24z" />
    <glyph glyph-name="Uhungarumlaut" unicode="&#x170;" horiz-adv-x="640" 
d="M450 700h134v-451c0 -156 -96 -259 -264 -259s-264 103 -264 259v451h134v-451c0 -81 57 -126 130 -126s130 45 130 126v451zM212 854h169l-118 -109h-116zM404 854h169l-118 -109h-116z" />
    <glyph glyph-name="Umacron" unicode="&#x16a;" horiz-adv-x="640" 
d="M450 700h134v-451c0 -156 -96 -259 -264 -259s-264 103 -264 259v451h134v-451c0 -81 57 -126 130 -126s130 45 130 126v451zM150 853h341v-106h-341v106z" />
    <glyph glyph-name="Uogonek" unicode="&#x172;" horiz-adv-x="640" 
d="M450 700h134v-451c0 -103 -38 -177 -115 -223c-48 -29 -119 -72 -119 -101c0 -16 11 -19 24 -19c20 0 46 10 58 17v-94c-23 -9 -56 -18 -91 -18c-61 0 -125 23 -125 86c0 43 27 72 66 95c-147 15 -226 112 -226 257v451h134v-451c0 -81 57 -126 130 -126s130 45 130 126
v451z" />
    <glyph glyph-name="Uring" unicode="&#x16e;" horiz-adv-x="640" 
d="M450 700h134v-451c0 -156 -96 -259 -264 -259s-264 103 -264 259v451h134v-451c0 -81 57 -126 130 -126s130 45 130 126v451zM246 799c0 41 33 75 74 75s75 -34 75 -75s-34 -74 -75 -74s-74 33 -74 74zM302 799c0 -12 6 -18 18 -18s18 6 18 18s-6 18 -18 18
s-18 -6 -18 -18z" />
    <glyph glyph-name="Utilde" unicode="&#x168;" horiz-adv-x="640" 
d="M450 700h134v-451c0 -156 -96 -259 -264 -259s-264 103 -264 259v451h134v-451c0 -81 57 -126 130 -126s130 45 130 126v451zM397 864h104c-13 -69 -51 -130 -119 -130c-24 0 -38 3 -61 14l-27 13c-6 3 -12 4 -18 4c-14 0 -25 -10 -32 -29h-104c13 69 51 130 119 130
c24 0 38 -3 61 -14l27 -13c6 -3 12 -4 18 -4c14 0 25 10 32 29z" />
    <glyph glyph-name="uni1EE4" unicode="&#x1ee4;" horiz-adv-x="640" 
d="M450 700h134v-451c0 -156 -96 -259 -264 -259s-264 103 -264 259v451h134v-451c0 -81 57 -126 130 -126s130 45 130 126v451zM387 -49v-117h-134v117h134z" />
    <glyph glyph-name="Wacute" unicode="&#x1e82;" horiz-adv-x="752" 
d="M466 0l-90 406l-90 -406h-145l-129 700h135l81 -474l83 374h130l83 -374l81 474h135l-129 -700h-145zM368 854h174l-128 -109h-121z" />
    <glyph glyph-name="Wcircumflex" unicode="&#x174;" horiz-adv-x="752" 
d="M466 0l-90 406l-90 -406h-145l-129 700h135l81 -474l83 374h130l83 -374l81 474h135l-129 -700h-145zM420 745l-44 35l-44 -35h-142l131 109h110l131 -109h-142z" />
    <glyph glyph-name="Wdieresis" unicode="&#x1e84;" horiz-adv-x="752" 
d="M466 0l-90 406l-90 -406h-145l-129 700h135l81 -474l83 374h130l83 -374l81 474h135l-129 -700h-145zM345 858v-117h-134v117h134zM541 858v-117h-134v117h134z" />
    <glyph glyph-name="Wgrave" unicode="&#x1e80;" horiz-adv-x="752" 
d="M466 0l-90 406l-90 -406h-145l-129 700h135l81 -474l83 374h130l83 -374l81 474h135l-129 -700h-145zM210 854h174l75 -109h-121z" />
    <glyph glyph-name="Ycircumflex" unicode="&#x176;" horiz-adv-x="606" 
d="M370 255v-255h-134v255l-248 445h152l163 -292l163 292h152zM347 745l-44 35l-44 -35h-142l131 109h110l131 -109h-142z" />
    <glyph glyph-name="Ydieresis" unicode="&#x178;" horiz-adv-x="606" 
d="M370 255v-255h-134v255l-248 445h152l163 -292l163 292h152zM272 858v-117h-134v117h134zM468 858v-117h-134v117h134z" />
    <glyph glyph-name="Ygrave" unicode="&#x1ef2;" horiz-adv-x="606" 
d="M370 255v-255h-134v255l-248 445h152l163 -292l163 292h152zM137 854h174l75 -109h-121z" />
    <glyph glyph-name="uni0232" unicode="&#x232;" horiz-adv-x="606" 
d="M370 255v-255h-134v255l-248 445h152l163 -292l163 292h152zM133 853h341v-106h-341v106z" />
    <glyph glyph-name="Zacute" unicode="&#x179;" horiz-adv-x="583" 
d="M557 0h-533v133l350 434h-345v133h523v-133l-350 -434h355v-133zM282 854h174l-128 -109h-121z" />
    <glyph glyph-name="Zcaron" unicode="&#x17d;" horiz-adv-x="583" 
d="M557 0h-533v133l350 434h-345v133h523v-133l-350 -434h355v-133zM290 819l44 35h142l-131 -109h-110l-131 109h142z" />
    <glyph glyph-name="Zdotaccent" unicode="&#x17b;" horiz-adv-x="583" 
d="M557 0h-533v133l350 434h-345v133h523v-133l-350 -434h355v-133zM357 858v-117h-134v117h134z" />
    <glyph glyph-name="abreve" unicode="&#x103;" 
d="M371 335v1c-9 47 -41 75 -96 75c-47 0 -78 -22 -91 -57h-133c21 108 96 176 224 176c148 0 230 -94 230 -237v-293h-132v59c-24 -39 -64 -69 -144 -69c-120 0 -188 57 -188 153c0 76 26 119 98 154c50 23 154 33 232 38zM201 202c-23 -11 -28 -21 -28 -44
c0 -25 19 -52 78 -52c68 0 122 38 122 103v17c-76 -5 -147 -11 -172 -24zM330 571h-94c-72 0 -129 57 -129 129h93c0 -20 16 -36 36 -36h94c20 0 36 16 36 36h93c0 -72 -57 -129 -129 -129z" />
    <glyph glyph-name="amacron" unicode="&#x101;" 
d="M371 335v1c-9 47 -41 75 -96 75c-47 0 -78 -22 -91 -57h-133c21 108 96 176 224 176c148 0 230 -94 230 -237v-293h-132v59c-24 -39 -64 -69 -144 -69c-120 0 -188 57 -188 153c0 76 26 119 98 154c50 23 154 33 232 38zM201 202c-23 -11 -28 -21 -28 -44
c0 -25 19 -52 78 -52c68 0 122 38 122 103v17c-76 -5 -147 -11 -172 -24zM113 688h341v-104h-341v104z" />
    <glyph glyph-name="aogonek" unicode="&#x105;" 
d="M371 335v1c-9 47 -41 75 -96 75c-47 0 -78 -22 -91 -57h-133c21 108 96 176 224 176c148 0 230 -94 230 -237v-293h-132v59c-24 -39 -64 -69 -144 -69c-120 0 -188 57 -188 153c0 76 26 119 98 154c50 23 154 33 232 38zM201 202c-23 -11 -28 -21 -28 -44
c0 -25 19 -52 78 -52c68 0 122 38 122 103v17c-76 -5 -147 -11 -172 -24zM373 0h132c-41 -29 -82 -51 -82 -75c0 -16 11 -21 24 -21c20 0 46 10 58 17v-92c-23 -9 -56 -18 -91 -18c-61 0 -123 23 -123 86c0 48 37 80 82 103z" />
    <glyph glyph-name="cacute" unicode="&#x107;" horiz-adv-x="538" 
d="M370 188h132c-15 -123 -92 -198 -228 -198c-148 0 -230 94 -230 237v66c0 143 82 237 230 237c136 0 213 -75 228 -198h-132c-8 48 -40 79 -96 79c-64 0 -98 -40 -98 -101v-100c0 -61 34 -101 98 -101c56 0 89 30 96 79zM256 700h172l-118 -129h-114z" />
    <glyph glyph-name="ccaron" unicode="&#x10d;" horiz-adv-x="538" 
d="M370 188h132c-15 -123 -92 -198 -228 -198c-148 0 -230 94 -230 237v66c0 143 82 237 230 237c136 0 213 -75 228 -198h-132c-8 48 -40 79 -96 79c-64 0 -98 -40 -98 -101v-100c0 -61 34 -101 98 -101c56 0 89 30 96 79zM459 700l-126 -129h-120l-126 129h137l49 -45
l48 45h138z" />
    <glyph glyph-name="ccircumflex" unicode="&#x109;" horiz-adv-x="538" 
d="M370 188h132c-15 -123 -92 -198 -228 -198c-148 0 -230 94 -230 237v66c0 143 82 237 230 237c136 0 213 -75 228 -198h-132c-8 48 -40 79 -96 79c-64 0 -98 -40 -98 -101v-100c0 -61 34 -101 98 -101c56 0 89 30 96 79zM333 700l126 -129h-138l-48 45l-49 -45h-137
l126 129h120z" />
    <glyph glyph-name="cdotaccent" unicode="&#x10b;" horiz-adv-x="538" 
d="M370 188h132c-15 -123 -92 -198 -228 -198c-148 0 -230 94 -230 237v66c0 143 82 237 230 237c136 0 213 -75 228 -198h-132c-8 48 -40 79 -96 79c-64 0 -98 -40 -98 -101v-100c0 -61 34 -101 98 -101c56 0 89 30 96 79zM339 694v-117h-132v117h132z" />
    <glyph glyph-name="dcaron" unicode="&#x10f;" horiz-adv-x="564" 
d="M724 700l-86 -158h-104l28 158h162zM372 0v49c-24 -35 -74 -59 -121 -59c-105 0 -207 72 -207 224v92c0 152 102 224 207 224c47 0 97 -24 121 -59v229h132v-700h-132zM176 301v-82c0 -69 48 -100 98 -100s98 31 98 100v82c0 69 -48 100 -98 100s-98 -31 -98 -100z" />
    <glyph glyph-name="dslash" unicode="&#x111;" horiz-adv-x="565" 
d="M372 0v49c-24 -35 -74 -59 -121 -59c-105 0 -207 72 -207 224v92c0 152 102 224 207 224c47 0 97 -24 121 -59v99h-121v80h121v50h132v-50h70v-80h-70v-570h-132zM176 301v-82c0 -69 48 -100 98 -100s98 31 98 100v82c0 69 -48 100 -98 100s-98 -31 -98 -100z" />
    <glyph glyph-name="ebreve" unicode="&#x115;" horiz-adv-x="547" 
d="M504 213h-328v-3c0 -61 34 -101 98 -101c47 0 78 22 91 57h134c-21 -108 -97 -176 -225 -176c-148 0 -230 94 -230 237v66c0 143 82 237 230 237s230 -94 230 -237v-80zM274 411c-60 0 -93 -35 -98 -88v-1h195v1c-4 55 -37 88 -97 88zM321 571h-94
c-72 0 -129 57 -129 129h93c0 -20 16 -36 36 -36h94c20 0 36 16 36 36h93c0 -72 -57 -129 -129 -129z" />
    <glyph glyph-name="ecaron" unicode="&#x11b;" horiz-adv-x="547" 
d="M504 213h-328v-3c0 -61 34 -101 98 -101c47 0 78 22 91 57h134c-21 -108 -97 -176 -225 -176c-148 0 -230 94 -230 237v66c0 143 82 237 230 237s230 -94 230 -237v-80zM274 411c-60 0 -93 -35 -98 -88v-1h195v1c-4 55 -37 88 -97 88zM460 700l-126 -129h-120l-126 129
h137l49 -45l48 45h138z" />
    <glyph glyph-name="emacron" unicode="&#x113;" horiz-adv-x="547" 
d="M504 213h-328v-3c0 -61 34 -101 98 -101c47 0 78 22 91 57h134c-21 -108 -97 -176 -225 -176c-148 0 -230 94 -230 237v66c0 143 82 237 230 237s230 -94 230 -237v-80zM274 411c-60 0 -93 -35 -98 -88v-1h195v1c-4 55 -37 88 -97 88zM104 688h341v-104h-341v104z" />
    <glyph glyph-name="eogonek" unicode="&#x119;" horiz-adv-x="547" 
d="M504 213h-328v-3c0 -61 34 -101 98 -101c47 0 78 22 91 57h134c-12 -59 -40 -105 -83 -136c-41 -30 -126 -70 -126 -105c0 -16 11 -21 24 -21c20 0 46 10 58 17v-92c-23 -9 -56 -18 -91 -18c-61 0 -123 23 -123 86c0 44 30 74 69 97c-120 17 -183 102 -183 233v66
c0 143 82 237 230 237s230 -94 230 -237v-80zM274 411c-60 0 -93 -35 -98 -88v-1h195v1c-4 55 -37 88 -97 88z" />
    <glyph glyph-name="edotaccent" unicode="&#x117;" horiz-adv-x="547" 
d="M504 213h-328v-3c0 -61 34 -101 98 -101c47 0 78 22 91 57h134c-21 -108 -97 -176 -225 -176c-148 0 -230 94 -230 237v66c0 143 82 237 230 237s230 -94 230 -237v-80zM274 411c-60 0 -93 -35 -98 -88v-1h195v1c-4 55 -37 88 -97 88zM340 694v-117h-132v117h132z" />
    <glyph glyph-name="gbreve" unicode="&#x11f;" horiz-adv-x="563" 
d="M46 -3h132c11 -45 42 -72 95 -72c64 0 98 40 98 101v60c-24 -35 -74 -59 -121 -59c-105 0 -207 72 -207 224v55c0 152 102 224 207 224c47 0 97 -24 121 -59v45h132v-473c0 -143 -82 -237 -230 -237c-133 0 -211 72 -227 191zM175 301v-45c0 -69 48 -100 98 -100
s98 31 98 100v45c0 69 -48 100 -98 100s-98 -31 -98 -100zM320 571h-94c-72 0 -129 57 -129 129h93c0 -20 16 -36 36 -36h94c20 0 36 16 36 36h93c0 -72 -57 -129 -129 -129z" />
    <glyph glyph-name="gcircumflex" unicode="&#x11d;" horiz-adv-x="563" 
d="M46 -3h132c11 -45 42 -72 95 -72c64 0 98 40 98 101v60c-24 -35 -74 -59 -121 -59c-105 0 -207 72 -207 224v55c0 152 102 224 207 224c47 0 97 -24 121 -59v45h132v-473c0 -143 -82 -237 -230 -237c-133 0 -211 72 -227 191zM175 301v-45c0 -69 48 -100 98 -100
s98 31 98 100v45c0 69 -48 100 -98 100s-98 -31 -98 -100zM333 700l126 -129h-138l-48 45l-49 -45h-137l126 129h120z" />
    <glyph glyph-name="uni0123" unicode="&#x123;" horiz-adv-x="563" 
d="M46 -3h132c11 -45 42 -72 95 -72c64 0 98 40 98 101v60c-24 -35 -74 -59 -121 -59c-105 0 -207 72 -207 224v55c0 152 102 224 207 224c47 0 97 -24 121 -59v45h132v-473c0 -143 -82 -237 -230 -237c-133 0 -211 72 -227 191zM175 301v-45c0 -69 48 -100 98 -100
s98 31 98 100v45c0 69 -48 100 -98 100s-98 -31 -98 -100zM348 721v-150h-150v150l33 104h94l-33 -104h56z" />
    <glyph glyph-name="gdotaccent" unicode="&#x121;" horiz-adv-x="563" 
d="M46 -3h132c11 -45 42 -72 95 -72c64 0 98 40 98 101v60c-24 -35 -74 -59 -121 -59c-105 0 -207 72 -207 224v55c0 152 102 224 207 224c47 0 97 -24 121 -59v45h132v-473c0 -143 -82 -237 -230 -237c-133 0 -211 72 -227 191zM175 301v-45c0 -69 48 -100 98 -100
s98 31 98 100v45c0 69 -48 100 -98 100s-98 -31 -98 -100zM339 694v-117h-132v117h132z" />
    <glyph glyph-name="hbar" unicode="&#x127;" horiz-adv-x="574" 
d="M521 306v-306h-132v301c0 69 -48 100 -98 100s-98 -31 -98 -100v-301h-132v570h-70v80h70v50h132v-50h121v-80h-121v-99c24 35 74 59 121 59c105 0 207 -72 207 -224z" />
    <glyph glyph-name="hcircumflex" unicode="&#x125;" horiz-adv-x="573" 
d="M520 306v-306h-132v301c0 69 -48 100 -98 100s-98 -31 -98 -100v-301h-132v700h132v-229c24 35 74 59 121 59c105 0 207 -72 207 -224zM350 874l126 -129h-138l-48 45l-49 -45h-137l126 129h120z" />
    <glyph glyph-name="dotlessi" unicode="&#x131;" horiz-adv-x="252" 
d="M192 516v-516h-132v516h132z" />
    <glyph glyph-name="ibreve" unicode="&#x12d;" horiz-adv-x="292" 
d="M212 516v-516h-132v516h132zM194 571h-94c-72 0 -129 57 -129 129h93c0 -20 16 -36 36 -36h94c20 0 36 16 36 36h93c0 -72 -57 -129 -129 -129z" />
    <glyph glyph-name="imacron" unicode="&#x12b;" horiz-adv-x="292" 
d="M212 516v-516h-132v516h132zM-23 688h341v-104h-341v104z" />
    <glyph glyph-name="iogonek" unicode="&#x12f;" horiz-adv-x="252" 
d="M192 700v-117h-132v117h132zM192 516v-516h-132v516h132zM61 0h132c-41 -29 -82 -51 -82 -75c0 -16 11 -21 24 -21c20 0 46 10 58 17v-92c-23 -9 -56 -18 -91 -18c-61 0 -123 23 -123 86c0 48 37 80 82 103z" />
    <glyph glyph-name="itilde" unicode="&#x129;" horiz-adv-x="292" 
d="M212 516v-516h-132v516h132zM64 572h-97c13 69 51 130 119 130c24 0 38 -4 61 -15l27 -13c7 -3 13 -5 24 -5s25 8 32 31h98c-13 -69 -51 -130 -119 -130c-24 0 -38 4 -61 15l-27 13c-7 3 -13 5 -24 5s-25 -8 -33 -31z" />
    <glyph glyph-name="uni1ECB" unicode="&#x1ecb;" horiz-adv-x="252" 
d="M192 700v-117h-132v117h132zM192 516v-516h-132v516h132zM192 -49v-117h-132v117h132z" />
    <glyph glyph-name="uni0237" unicode="&#x237;" horiz-adv-x="252" 
d="M-4 -65h26c32 0 38 17 38 41v540h132v-568c0 -84 -40 -132 -132 -132h-64v119z" />
    <glyph glyph-name="jcircumflex" unicode="&#x135;" horiz-adv-x="312" 
d="M26 -65h26c32 0 38 17 38 41v540h132v-568c0 -84 -40 -132 -132 -132h-64v119zM216 700l126 -129h-138l-48 45l-49 -45h-137l126 129h120z" />
    <glyph glyph-name="uni0137" unicode="&#x137;" horiz-adv-x="539" 
d="M192 700v-364l165 180h160l-187 -203l214 -313h-155l-148 216l-49 -54v-162h-132v700h132zM205 -200v150h150v-150l-33 -104h-94l33 104h-56z" />
    <glyph glyph-name="lacute" unicode="&#x13a;" horiz-adv-x="280" 
d="M228 119h26v-119h-64c-92 0 -132 48 -132 132v568h132v-540c0 -24 6 -41 38 -41zM107 874h172l-118 -129h-114z" />
    <glyph glyph-name="lcaron" unicode="&#x13e;" horiz-adv-x="281" 
d="M410 700l-86 -158h-104l28 158h162zM228 119h26v-119h-64c-92 0 -132 48 -132 132v568h132v-540c0 -24 6 -41 38 -41z" />
    <glyph glyph-name="uni013C" unicode="&#x13c;" horiz-adv-x="281" 
d="M228 119h26v-119h-64c-92 0 -132 48 -132 132v568h132v-540c0 -24 6 -41 38 -41zM81 -200v150h150v-150l-33 -104h-94l33 104h-56z" />
    <glyph glyph-name="ldot" unicode="&#x140;" horiz-adv-x="362" 
d="M228 119h26v-119h-64c-92 0 -132 48 -132 132v568h132v-540c0 -24 6 -41 38 -41zM372 469v-117h-132v117h132z" />
    <glyph glyph-name="lslash" unicode="&#x142;" horiz-adv-x="301" 
d="M238 119h26v-119h-64c-92 0 -132 48 -132 132v164l-64 -36v92l64 36v312h132v-238l64 36v-92l-64 -36v-210c0 -24 6 -41 38 -41z" />
    <glyph glyph-name="eng" unicode="&#x14b;" horiz-adv-x="573" 
d="M388 -24v325c0 69 -48 100 -98 100s-98 -31 -98 -100v-301h-132v516h132v-45c24 35 74 59 121 59c105 0 207 -72 207 -224v-358c0 -84 -40 -132 -132 -132h-64v119h26c32 0 38 17 38 41z" />
    <glyph glyph-name="nacute" unicode="&#x144;" horiz-adv-x="573" 
d="M520 306v-306h-132v301c0 69 -48 100 -98 100s-98 -31 -98 -100v-301h-132v516h132v-45c24 35 74 59 121 59c105 0 207 -72 207 -224zM273 700h172l-118 -129h-114z" />
    <glyph glyph-name="ncaron" unicode="&#x148;" horiz-adv-x="573" 
d="M520 306v-306h-132v301c0 69 -48 100 -98 100s-98 -31 -98 -100v-301h-132v516h132v-45c24 35 74 59 121 59c105 0 207 -72 207 -224zM476 700l-126 -129h-120l-126 129h137l49 -45l48 45h138z" />
    <glyph glyph-name="uni0146" unicode="&#x146;" horiz-adv-x="573" 
d="M520 306v-306h-132v301c0 69 -48 100 -98 100s-98 -31 -98 -100v-301h-132v516h132v-45c24 35 74 59 121 59c105 0 207 -72 207 -224zM215 -200v150h150v-150l-33 -104h-94l33 104h-56z" />
    <glyph glyph-name="oe" unicode="&#x153;" horiz-adv-x="875" 
d="M274 -10c-148 0 -230 94 -230 237v66c0 143 82 237 230 237c71 0 125 -26 164 -69c39 43 93 69 164 69c148 0 230 -94 230 -237v-80h-328v-3c0 -61 34 -101 98 -101c47 0 78 22 91 57h134c-21 -108 -97 -176 -225 -176c-71 0 -125 26 -164 69c-39 -43 -93 -69 -164 -69z
M372 210v100c0 61 -34 101 -98 101s-98 -40 -98 -101v-100c0 -61 34 -101 98 -101s98 40 98 101zM602 411c-60 0 -93 -34 -98 -89h195c-4 55 -37 89 -97 89z" />
    <glyph glyph-name="obreve" unicode="&#x14f;" horiz-adv-x="548" 
d="M44 227v66c0 143 82 237 230 237s230 -94 230 -237v-66c0 -143 -82 -237 -230 -237s-230 94 -230 237zM372 210v100c0 61 -34 101 -98 101s-98 -40 -98 -101v-100c0 -61 34 -101 98 -101s98 40 98 101zM321 571h-94c-72 0 -129 57 -129 129h93c0 -20 16 -36 36 -36h94
c20 0 36 16 36 36h93c0 -72 -57 -129 -129 -129z" />
    <glyph glyph-name="ohungarumlaut" unicode="&#x151;" horiz-adv-x="548" 
d="M44 227v66c0 143 82 237 230 237s230 -94 230 -237v-66c0 -143 -82 -237 -230 -237s-230 94 -230 237zM372 210v100c0 61 -34 101 -98 101s-98 -40 -98 -101v-100c0 -61 34 -101 98 -101s98 40 98 101zM145 700h167l-108 -129h-109zM337 700h167l-108 -129h-109z" />
    <glyph glyph-name="omacron" unicode="&#x14d;" horiz-adv-x="548" 
d="M44 227v66c0 143 82 237 230 237s230 -94 230 -237v-66c0 -143 -82 -237 -230 -237s-230 94 -230 237zM372 210v100c0 61 -34 101 -98 101s-98 -40 -98 -101v-100c0 -61 34 -101 98 -101s98 40 98 101zM104 688h341v-104h-341v104z" />
    <glyph glyph-name="uni1ECD" unicode="&#x1ecd;" horiz-adv-x="548" 
d="M44 227v66c0 143 82 237 230 237s230 -94 230 -237v-66c0 -143 -82 -237 -230 -237s-230 94 -230 237zM372 210v100c0 61 -34 101 -98 101s-98 -40 -98 -101v-100c0 -61 34 -101 98 -101s98 40 98 101zM340 -49v-117h-132v117h132z" />
    <glyph glyph-name="racute" unicode="&#x155;" horiz-adv-x="364" 
d="M192 296v-296h-132v516h132v-56c15 35 59 65 120 65h40v-129h-62c-50 0 -98 -31 -98 -100zM189 700h172l-118 -129h-114z" />
    <glyph glyph-name="rcaron" unicode="&#x159;" horiz-adv-x="364" 
d="M192 296v-296h-132v516h132v-56c15 35 59 65 120 65h40v-129h-62c-50 0 -98 -31 -98 -100zM393 700l-126 -129h-120l-126 129h137l49 -45l48 45h138z" />
    <glyph glyph-name="uni0157" unicode="&#x157;" horiz-adv-x="364" 
d="M192 296v-296h-132v516h132v-56c15 35 59 65 120 65h40v-129h-62c-50 0 -98 -31 -98 -100zM52 -200v150h150v-150l-33 -104h-94l33 104h-56z" />
    <glyph glyph-name="sacute" unicode="&#x15b;" horiz-adv-x="477" 
d="M248 -10c-108 0 -219 54 -224 177h132c5 -40 54 -58 96 -58c26 0 65 6 65 40c0 20 -15 33 -46 40l-108 24c-56 13 -127 57 -127 158s91 159 197 159c104 0 192 -50 200 -167h-135c-7 33 -36 48 -69 48c-39 0 -60 -15 -61 -39c0 -23 17 -33 40 -38l116 -26
c56 -13 125 -52 125 -159c0 -116 -94 -159 -201 -159zM219 700h172l-118 -129h-114z" />
    <glyph glyph-name="scaron" unicode="&#x161;" horiz-adv-x="477" 
d="M248 -10c-108 0 -219 54 -224 177h132c5 -40 54 -58 96 -58c26 0 65 6 65 40c0 20 -15 33 -46 40l-108 24c-56 13 -127 57 -127 158s91 159 197 159c104 0 192 -50 200 -167h-135c-7 33 -36 48 -69 48c-39 0 -60 -15 -61 -39c0 -23 17 -33 40 -38l116 -26
c56 -13 125 -52 125 -159c0 -116 -94 -159 -201 -159zM422 700l-126 -129h-120l-126 129h137l49 -45l48 45h138z" />
    <glyph glyph-name="scedilla" unicode="&#x15f;" horiz-adv-x="477" 
d="M248 -10c-108 0 -219 54 -224 177h132c5 -40 54 -58 96 -58c26 0 65 6 65 40c0 20 -15 33 -46 40l-108 24c-56 13 -127 57 -127 158s91 159 197 159c104 0 192 -50 200 -167h-135c-7 33 -36 48 -69 48c-39 0 -60 -15 -61 -39c0 -23 17 -33 40 -38l116 -26
c56 -13 125 -52 125 -159c0 -116 -94 -159 -201 -159zM129 -158l57 158h111l-38 -158h-130z" />
    <glyph glyph-name="scircumflex" unicode="&#x15d;" horiz-adv-x="477" 
d="M248 -10c-108 0 -219 54 -224 177h132c5 -40 54 -58 96 -58c26 0 65 6 65 40c0 20 -15 33 -46 40l-108 24c-56 13 -127 57 -127 158s91 159 197 159c104 0 192 -50 200 -167h-135c-7 33 -36 48 -69 48c-39 0 -60 -15 -61 -39c0 -23 17 -33 40 -38l116 -26
c56 -13 125 -52 125 -159c0 -116 -94 -159 -201 -159zM296 700l126 -129h-138l-48 45l-49 -45h-137l126 129h120z" />
    <glyph glyph-name="uni0219" unicode="&#x219;" horiz-adv-x="477" 
d="M248 -10c-108 0 -219 54 -224 177h132c5 -40 54 -58 96 -58c26 0 65 6 65 40c0 20 -15 33 -46 40l-108 24c-56 13 -127 57 -127 158s91 159 197 159c104 0 192 -50 200 -167h-135c-7 33 -36 48 -69 48c-39 0 -60 -15 -61 -39c0 -23 17 -33 40 -38l116 -26
c56 -13 125 -52 125 -159c0 -116 -94 -159 -201 -159zM161 -200v150h150v-150l-33 -104h-94l33 104h-56z" />
    <glyph glyph-name="tbar" unicode="&#x167;" horiz-adv-x="368" 
d="M254 119h89v-119h-127c-92 0 -132 48 -132 132v105h-73v80h73v80h-73v119h73v117h132v-117h127v-119h-127v-80h127v-80h-127v-77c0 -24 6 -41 38 -41z" />
    <glyph glyph-name="tcaron" unicode="&#x165;" horiz-adv-x="368" 
d="M454 700l-75 -129h-104l17 129h162zM254 119h89v-119h-127c-92 0 -132 48 -132 132v265h-73v119h73v117h132v-117h127v-119h-127v-237c0 -24 6 -41 38 -41z" />
    <glyph glyph-name="uni0163" unicode="&#x163;" horiz-adv-x="368" 
d="M254 119h89v-119h-127c-92 0 -132 48 -132 132v265h-73v119h73v117h132v-117h127v-119h-127v-237c0 -24 6 -41 38 -41zM138 -200v150h150v-150l-33 -104h-94l33 104h-56z" />
    <glyph glyph-name="uni021B" unicode="&#x21b;" horiz-adv-x="368" 
d="M254 119h89v-119h-127c-92 0 -132 48 -132 132v265h-73v119h73v117h132v-117h127v-119h-127v-237c0 -24 6 -41 38 -41zM138 -200v150h150v-150l-33 -104h-94l33 104h-56z" />
    <glyph glyph-name="ubreve" unicode="&#x16d;" horiz-adv-x="567" 
d="M280 119c48 0 95 31 95 100v297h132v-516h-132v56c-23 -35 -61 -66 -125 -66c-96 0 -197 68 -197 224v302h132v-297c0 -69 47 -100 95 -100zM327 571h-94c-72 0 -129 57 -129 129h93c0 -20 16 -36 36 -36h94c20 0 36 16 36 36h93c0 -72 -57 -129 -129 -129z" />
    <glyph glyph-name="uhungarumlaut" unicode="&#x171;" horiz-adv-x="567" 
d="M280 119c48 0 95 31 95 100v297h132v-516h-132v56c-23 -35 -61 -66 -125 -66c-96 0 -197 68 -197 224v302h132v-297c0 -69 47 -100 95 -100zM148 700h167l-108 -129h-109zM340 700h167l-108 -129h-109z" />
    <glyph glyph-name="umacron" unicode="&#x16b;" horiz-adv-x="567" 
d="M280 119c48 0 95 31 95 100v297h132v-516h-132v56c-23 -35 -61 -66 -125 -66c-96 0 -197 68 -197 224v302h132v-297c0 -69 47 -100 95 -100zM110 688h341v-104h-341v104z" />
    <glyph glyph-name="uogonek" unicode="&#x173;" horiz-adv-x="567" 
d="M280 119c48 0 95 31 95 100v297h132v-516h-132v56c-23 -35 -61 -66 -125 -66c-96 0 -197 68 -197 224v302h132v-297c0 -69 47 -100 95 -100zM375 0h132c-41 -29 -82 -51 -82 -75c0 -16 11 -21 24 -21c20 0 46 10 58 17v-92c-23 -9 -56 -18 -91 -18c-61 0 -123 23 -123 86
c0 48 37 80 82 103z" />
    <glyph glyph-name="uring" unicode="&#x16f;" horiz-adv-x="567" 
d="M280 119c48 0 95 31 95 100v297h132v-516h-132v56c-23 -35 -61 -66 -125 -66c-96 0 -197 68 -197 224v302h132v-297c0 -69 47 -100 95 -100zM206 635c0 41 33 75 74 75s75 -34 75 -75s-34 -74 -75 -74s-74 33 -74 74zM260 635c0 -11 9 -20 20 -20s20 9 20 20
s-9 20 -20 20s-20 -9 -20 -20z" />
    <glyph glyph-name="utilde" unicode="&#x169;" horiz-adv-x="567" 
d="M280 119c48 0 95 31 95 100v297h132v-516h-132v56c-23 -35 -61 -66 -125 -66c-96 0 -197 68 -197 224v302h132v-297c0 -69 47 -100 95 -100zM197 572h-97c13 69 51 130 119 130c24 0 38 -4 61 -15l27 -13c7 -3 13 -5 24 -5s25 8 32 31h98c-13 -69 -51 -130 -119 -130
c-24 0 -38 4 -61 15l-27 13c-7 3 -13 5 -24 5s-25 -8 -33 -31z" />
    <glyph glyph-name="uni1EE5" unicode="&#x1ee5;" horiz-adv-x="567" 
d="M280 119c48 0 95 31 95 100v297h132v-516h-132v56c-23 -35 -61 -66 -125 -66c-96 0 -197 68 -197 224v302h132v-297c0 -69 47 -100 95 -100zM346 -49v-117h-132v117h132z" />
    <glyph glyph-name="wacute" unicode="&#x1e83;" horiz-adv-x="704" 
d="M436 0l-84 367l-84 -367h-134l-136 516h137l77 -327l75 327h130l75 -327l77 327h137l-136 -516h-134zM335 700h172l-118 -129h-114z" />
    <glyph glyph-name="wcircumflex" unicode="&#x175;" horiz-adv-x="704" 
d="M436 0l-84 367l-84 -367h-134l-136 516h137l77 -327l75 327h130l75 -327l77 327h137l-136 -516h-134zM412 700l126 -129h-138l-48 45l-49 -45h-137l126 129h120z" />
    <glyph glyph-name="wdieresis" unicode="&#x1e85;" horiz-adv-x="704" 
d="M436 0l-84 367l-84 -367h-134l-136 516h137l77 -327l75 327h130l75 -327l77 327h137l-136 -516h-134zM320 694v-117h-132v117h132zM516 694v-117h-132v117h132z" />
    <glyph glyph-name="wgrave" unicode="&#x1e81;" horiz-adv-x="704" 
d="M436 0l-84 367l-84 -367h-134l-136 516h137l77 -327l75 327h130l75 -327l77 327h137l-136 -516h-134zM197 700h172l60 -129h-114z" />
    <glyph glyph-name="ycircumflex" unicode="&#x177;" horiz-adv-x="490" 
d="M499 516l-203 -565c-30 -78 -35 -135 -128 -135h-98v119h55c24 0 31 12 35 23l15 42l-184 516h139l115 -329l115 329h139zM305 700l126 -129h-138l-48 45l-49 -45h-137l126 129h120z" />
    <glyph glyph-name="ygrave" unicode="&#x1ef3;" horiz-adv-x="490" 
d="M499 516l-203 -565c-30 -78 -35 -135 -128 -135h-98v119h55c24 0 31 12 35 23l15 42l-184 516h139l115 -329l115 329h139zM90 700h172l60 -129h-114z" />
    <glyph glyph-name="uni0233" unicode="&#x233;" horiz-adv-x="490" 
d="M499 516l-203 -565c-30 -78 -35 -135 -128 -135h-98v119h55c24 0 31 12 35 23l15 42l-184 516h139l115 -329l115 329h139zM75 688h341v-104h-341v104z" />
    <glyph glyph-name="zacute" unicode="&#x17a;" horiz-adv-x="442" 
d="M412 397l-222 -278h229v-119h-395v119l222 278h-215v119h381v-119zM204 700h172l-118 -129h-114z" />
    <glyph glyph-name="zcaron" unicode="&#x17e;" horiz-adv-x="442" 
d="M412 397l-222 -278h229v-119h-395v119l222 278h-215v119h381v-119zM408 700l-126 -129h-120l-126 129h137l49 -45l48 45h138z" />
    <glyph glyph-name="zdotaccent" unicode="&#x17c;" horiz-adv-x="442" 
d="M412 397l-222 -278h229v-119h-395v119l222 278h-215v119h381v-119zM287 694v-117h-132v117h132z" />
    <glyph glyph-name="ellipsis" unicode="&#x2026;" horiz-adv-x="858" 
d="M349 0v160h160v-160h-160zM635 0v160h160v-160h-160zM64 0v160h160v-160h-160z" />
    <glyph glyph-name="endash" unicode="&#x2013;" horiz-adv-x="540" 
d="M40 335h460v-120h-460v120z" />
    <glyph glyph-name="emdash" unicode="&#x2014;" horiz-adv-x="856" 
d="M40 335h776v-120h-776v120z" />
    <glyph glyph-name="guilsinglleft" unicode="&#x2039;" horiz-adv-x="269" 
d="M219 61l-177 155v114l177 155v-162l-57 -50l57 -50v-162z" />
    <glyph glyph-name="guilsinglright" unicode="&#x203a;" horiz-adv-x="269" 
d="M227 216l-177 -155v162l57 50l-57 50v162l177 -155v-114z" />
    <glyph glyph-name="quoteleft" unicode="&#x2018;" horiz-adv-x="266" 
d="M213 586v-160h-160v160l43 114h94l-43 -114h66z" />
    <glyph glyph-name="quoteright" unicode="&#x2019;" horiz-adv-x="266" 
d="M53 540v160h160v-160l-43 -114h-94l43 114h-66z" />
    <glyph glyph-name="quotedblleft" unicode="&#x201c;" horiz-adv-x="506" 
d="M213 586v-160h-160v160l43 114h94l-43 -114h66zM453 586v-160h-160v160l43 114h94l-43 -114h66z" />
    <glyph glyph-name="quotedblright" unicode="&#x201d;" horiz-adv-x="506" 
d="M293 540v160h160v-160l-43 -114h-94l43 114h-66zM53 540v160h160v-160l-43 -114h-94l43 114h-66z" />
    <glyph glyph-name="quotesinglbase" unicode="&#x201a;" horiz-adv-x="266" 
d="M53 0v160h160v-160l-43 -114h-94l43 114h-66z" />
    <glyph glyph-name="quotedblbase" unicode="&#x201e;" horiz-adv-x="506" 
d="M293 0v160h160v-160l-43 -114h-94l43 114h-66zM53 0v160h160v-160l-43 -114h-94l43 114h-66z" />
    <glyph glyph-name="bullet" unicode="&#x2022;" horiz-adv-x="800" 
d="M232 288c0 93 75 168 168 168s168 -75 168 -168s-75 -168 -168 -168s-168 75 -168 168z" />
    <glyph glyph-name="dagger" unicode="&#x2020;" horiz-adv-x="610" 
d="M75 516h169v184h122v-184h169v-120h-169v-483h-122v483h-169v120z" />
    <glyph glyph-name="daggerdbl" unicode="&#x2021;" horiz-adv-x="610" 
d="M75 516h169v184h122v-184h169v-120h-169v-179h169v-120h-169v-184h-122v184h-169v120h169v179h-169v120z" />
    <glyph glyph-name="perthousand" unicode="&#x2030;" horiz-adv-x="1227" 
d="M1033 77c35 0 48 22 48 50v152c0 28 -13 50 -48 50c-36 0 -49 -22 -49 -50v-152c0 -28 13 -50 49 -50zM1033 -6c-101 0 -142 68 -142 148v122c0 80 41 148 142 148c100 0 141 -68 141 -148v-122c0 -80 -41 -148 -141 -148zM630 700h106l-481 -700h-106zM195 371
c35 0 48 22 48 50v152c0 28 -13 50 -48 50c-36 0 -49 -22 -49 -50v-152c0 -28 13 -50 49 -50zM195 288c-101 0 -142 68 -142 148v122c0 80 41 148 142 148c100 0 141 -68 141 -148v-122c0 -80 -41 -148 -141 -148zM691 77c35 0 48 22 48 50v152c0 28 -13 50 -48 50
c-36 0 -49 -22 -49 -50v-152c0 -28 13 -50 49 -50zM691 -6c-101 0 -142 68 -142 148v122c0 80 41 148 142 148c100 0 141 -68 141 -148v-122c0 -80 -41 -148 -141 -148z" />
    <glyph glyph-name="uni2117" unicode="&#x2117;" horiz-adv-x="780" 
d="M266 173v349h162c101 0 134 -71 134 -133c0 -61 -33 -135 -134 -135h-69v-81h-93zM359 347h69c35 0 41 29 41 42c0 11 -6 41 -41 41h-69v-83zM30 350c0 200 160 360 360 360s360 -160 360 -360s-160 -360 -360 -360s-360 160 -360 360zM138 350c0 -138 113 -251 252 -251
s250 113 250 251s-111 251 -250 251s-252 -113 -252 -251z" />
    <glyph glyph-name="trademark" unicode="&#x2122;" horiz-adv-x="764" 
d="M114 294v317h-115v89h323v-89h-115v-317h-93zM359 294v406h89l95 -195l94 195h90v-406h-90v234l-60 -125h-69l-60 125v-234h-89z" />
    <glyph glyph-name="lozenge" unicode="&#x25ca;" horiz-adv-x="568" 
d="M538 350l-203 -350h-102l-203 350l203 350h102zM171 350l113 -195l113 195l-113 195z" />
    <glyph glyph-name="uni2113" unicode="&#x2113;" horiz-adv-x="356" 
d="M61 138v13l-48 -38l-22 28l70 56v353c0 111 66 160 142 160c88 0 132 -50 132 -150c0 -96 -56 -226 -142 -302v-126c0 -68 26 -88 70 -88c19 0 40 4 63 9l9 -31c-35 -19 -79 -32 -120 -32c-80 0 -154 44 -154 148zM193 521v-214c58 63 106 164 106 222
c0 31 -10 73 -51 73c-32 0 -55 -18 -55 -81z" />
    <glyph glyph-name="uni2116" unicode="&#x2116;" horiz-adv-x="962" 
d="M593 700v-700h-134l-260 451v-451h-134v700h134l260 -451v451h134zM653 365h283v-90h-283v90zM795 478c35 0 48 22 48 50v47c0 28 -13 51 -48 51c-36 0 -49 -23 -49 -51v-47c0 -28 13 -50 49 -50zM795 395c-101 0 -142 68 -142 148v18c0 80 41 147 142 147
c100 0 141 -67 141 -147v-18c0 -80 -41 -148 -141 -148z" />
    <glyph glyph-name="apple" horiz-adv-x="598" 
d="M149 0v26c-37 8 -49 31 -49 78v256c-18 0 -30 8 -37 24c-16 7 -24 19 -24 37c0 11 4 21 11 28c-24 11 -36 31 -36 59c0 25 13 48 36 59c-7 7 -11 17 -11 28c0 20 13 37 32 40c8 27 32 48 63 48c16 0 31 -6 44 -17c9 25 33 44 61 44c23 0 43 -12 55 -31c9 5 19 7 29 7
c25 0 48 -14 59 -37c8 8 17 12 28 12c17 0 30 -8 37 -24c29 -7 51 -33 51 -64c0 -25 -14 -46 -34 -57v-38h4c63 0 80 -23 80 -80v-215c0 -57 -17 -80 -80 -80h-4c0 -47 -12 -69 -49 -77v-26h-266zM415 104v406c-11 3 -21 8 -29 17h-83c-13 -13 -28 -19 -46 -19
c-23 0 -40 9 -53 27c-5 -2 -11 -3 -16 -3c-12 0 -22 4 -29 11c-3 -5 -6 -10 -10 -15v-424c0 -25 8 -34 32 -34h202c24 0 32 9 32 34zM79 462v-19c-13 0 -21 -11 -21 -22c0 -12 9 -21 21 -21c0 -12 9 -21 21 -21v147c25 0 44 18 47 42v4h19c0 -13 10 -21 22 -21s21 9 21 21
h19c0 -10 -3 -19 -9 -26c9 -13 21 -19 38 -19c27 0 47 19 47 46h82c0 -27 19 -46 46 -46s47 19 47 46s-20 47 -47 47c0 12 -10 22 -22 22c-11 0 -21 -7 -21 -22h-19c0 27 -20 47 -47 47c-20 0 -36 -13 -43 -30c16 -5 28 -19 28 -38h-19c0 12 -10 21 -22 21s-21 -9 -21 -21
h-19c0 20 14 36 33 39c4 13 10 23 19 30c-8 15 -24 23 -40 23c-25 0 -45 -20 -46 -45c5 -11 7 -20 7 -29h-19c0 27 -20 47 -47 47c-21 0 -36 -10 -43 -30c17 -5 29 -20 29 -39h-19c0 12 -10 22 -22 22s-21 -10 -21 -22c0 -13 6 -20 17 -21h4v-19h-4c-24 -3 -42 -22 -42 -47
s18 -45 42 -46h4zM499 183v215c0 25 -8 34 -31 34h-4v-283h4c23 0 31 9 31 34zM190 103v375h15v-375h-15zM358 103v375h15v-375h-15zM302 103v375h15v-375h-15zM246 103v375h15v-375h-15z" />
    <glyph glyph-name="estimated" unicode="&#x212e;" horiz-adv-x="784" 
d="M162 290v-173c0 -10 4 -18 12 -25c23 -19 49 -35 78 -46c43 -16 89 -22 140 -22s97 6 140 22c38 15 71 37 98 64h50c-36 -43 -80 -75 -131 -95c-48 -19 -101 -25 -157 -25s-109 6 -157 25c-117 48 -205 157 -205 302s88 254 205 302c48 19 101 25 157 25s109 -6 157 -25
c117 -48 205 -157 205 -302v-17h-582c-7 0 -10 -3 -10 -10zM622 344v173c0 10 -4 18 -12 25c-23 19 -49 35 -78 46c-43 16 -89 22 -140 22s-97 -6 -140 -22c-29 -11 -55 -27 -78 -46c-8 -7 -12 -15 -12 -25v-173c0 -7 3 -10 10 -10h440c7 0 10 3 10 10z" />
    <glyph glyph-name="minus" unicode="&#x2212;" 
d="M49 335h460v-120h-460v120z" />
    <glyph glyph-name="lessequal" unicode="&#x2264;" 
d="M509 151l-460 119v134l460 119v-125l-237 -61l237 -61v-125zM49 120h460v-120h-460v120z" />
    <glyph glyph-name="greaterequal" unicode="&#x2265;" 
d="M509 270l-460 -119v125l237 61l-237 61v125l460 -119v-134zM49 120h460v-120h-460v120z" />
    <glyph glyph-name="notequal" unicode="&#x2260;" 
d="M49 215h122l76 120h-198v120h274l87 136l99 -63l-47 -73h47v-120h-123l-76 -120h199v-120h-275l-86 -135l-99 63l46 72h-46v120z" />
    <glyph glyph-name="approxequal" unicode="&#x2248;" 
d="M126 312l-77 85c56 61 111 81 158 81c62 0 95 -46 138 -46c29 0 52 13 87 46l77 -85c-56 -61 -111 -81 -158 -81c-62 0 -95 46 -138 46c-29 0 -52 -13 -87 -46zM126 73l-77 85c56 61 111 81 158 81c62 0 95 -46 138 -46c29 0 52 13 87 46l77 -85
c-56 -61 -111 -81 -158 -81c-62 0 -95 46 -138 46c-29 0 -52 -13 -87 -46z" />
    <glyph glyph-name="partialdiff" unicode="&#x2202;" horiz-adv-x="588" 
d="M362 200c3 8 9 41 9 48c0 52 -35 81 -88 81c-67 0 -101 -32 -120 -88c-3 -8 -9 -41 -9 -48c0 -52 35 -81 88 -81c67 0 101 32 120 88zM406 412l14 69c2 9 3 17 3 26c0 52 -35 81 -88 81c-65 0 -105 -29 -120 -88h-126c35 131 106 210 262 210c122 0 196 -85 196 -191
c0 -19 -3 -38 -7 -61l-52 -258c-27 -136 -106 -210 -262 -210c-122 0 -196 85 -196 191c0 19 3 39 7 60c27 136 106 210 262 210c44 0 84 -16 107 -39z" />
    <glyph glyph-name="product" unicode="&#x220f;" horiz-adv-x="643" 
d="M65 0v700h513v-700h-135v566h-243v-566h-135z" />
    <glyph glyph-name="radical" unicode="&#x221a;" horiz-adv-x="571" 
d="M541 700l-209 -700h-180l-54 178h-68v122h157l55 -184l174 584h125z" />
    <glyph glyph-name="summation" unicode="&#x2211;" horiz-adv-x="692" 
d="M486 258l-255 -320h381v-122h-542v122l255 320l-255 320v122h542v-122h-381z" />
    <glyph glyph-name="integral" unicode="&#x222b;" horiz-adv-x="288" 
d="M205 537v-589c0 -84 -40 -132 -132 -132h-28v122c32 0 38 17 38 41v589c0 84 40 132 132 132h28v-122c-32 0 -38 -17 -38 -41z" />
    <glyph glyph-name="infinity" unicode="&#x221e;" 
d="M57 336c0 69 55 126 125 126c39 0 74 -18 97 -45c23 27 57 45 96 45c69 0 126 -57 126 -126c0 -70 -57 -125 -126 -125c-39 0 -73 17 -96 44c-23 -27 -58 -44 -97 -44c-70 0 -125 55 -125 125zM145 336c0 -20 17 -37 37 -37s38 16 38 37s-17 38 -38 38s-37 -18 -37 -38z
M338 336c0 -20 17 -37 37 -37s38 16 38 37s-17 38 -38 38s-37 -18 -37 -38z" />
    <glyph glyph-name="uni0394" unicode="&#x394;" horiz-adv-x="628" 
d="M629 0h-630l250 700h130zM314 487l-127 -354h253z" />
    <glyph glyph-name="uni0394" unicode="&#x2206;" horiz-adv-x="628" 
d="M629 0h-630l250 700h130zM314 487l-127 -354h253z" />
    <glyph glyph-name="uni03A9" unicode="&#x3a9;" horiz-adv-x="608" 
d="M45 133h75c-52 43 -80 111 -80 195v123c0 156 96 259 264 259s264 -103 264 -259v-123c0 -83 -27 -148 -80 -195h75v-133h-209v210c47 16 80 57 80 118v123c0 81 -57 126 -130 126s-130 -45 -130 -126v-123c0 -61 33 -102 80 -118v-210h-209v133z" />
    <glyph glyph-name="uni03A9" unicode="&#x2126;" horiz-adv-x="608" 
d="M45 133h75c-52 43 -80 111 -80 195v123c0 156 96 259 264 259s264 -103 264 -259v-123c0 -83 -27 -148 -80 -195h75v-133h-209v210c47 16 80 57 80 118v123c0 81 -57 126 -130 126s-130 -45 -130 -126v-123c0 -61 33 -102 80 -118v-210h-209v133z" />
    <glyph glyph-name="pi" unicode="&#x3c0;" horiz-adv-x="632" 
d="M86 397h-73v119h606v-119h-73v-397h-132v397h-196v-397h-132v397z" />
    <glyph glyph-name="Euro" unicode="&#x20ac;" horiz-adv-x="615" 
d="M429 238h-186c3 -87 61 -129 132 -129c43 0 80 15 104 46l95 -90c-45 -48 -112 -75 -199 -75c-163 0 -261 100 -264 248h-80l21 80h59v65h-82l21 80h61c5 148 100 247 264 247c87 0 154 -27 199 -75l-95 -90c-24 31 -61 46 -104 46c-71 0 -129 -43 -132 -128h245l-21 -80
h-224v-65h207z" />
    <glyph glyph-name="fi" unicode="&#xfb01;" horiz-adv-x="596" 
d="M345 581h-89c-32 0 -38 -17 -38 -41v-24h127v-119h-127v-397h-132v397h-73v119h73v52c0 84 40 132 132 132h127v-119zM536 700v-117h-132v117h132zM536 516v-516h-132v516h132z" />
    <glyph glyph-name="fl" unicode="&#xfb02;" horiz-adv-x="624" 
d="M345 581h-89c-32 0 -38 -17 -38 -41v-24h127v-119h-127v-397h-132v397h-73v119h73v52c0 84 40 132 132 132h127v-119zM571 119h26v-119h-64c-92 0 -132 48 -132 132v568h132v-540c0 -24 6 -41 38 -41z" />
    <glyph glyph-name="f_f" unicode="&#xfb00;" horiz-adv-x="672" 
d="M414 397h-196v-397h-132v397h-73v119h73v52c0 84 40 132 132 132h127v-119h-89c-32 0 -38 -17 -38 -41v-24h196v52c0 84 40 132 132 132h127v-119h-89c-32 0 -38 -17 -38 -41v-24h127v-119h-127v-397h-132v397z" />
    <glyph glyph-name="f_f_i" unicode="&#xfb03;" horiz-adv-x="924" 
d="M864 700v-117h-132v117h132zM864 516v-516h-132v516h132zM414 397h-196v-397h-132v397h-73v119h73v52c0 84 40 132 132 132h127v-119h-89c-32 0 -38 -17 -38 -41v-24h196v52c0 84 40 132 132 132h127v-119h-89c-32 0 -38 -17 -38 -41v-24h127v-119h-127v-397h-132v397z
" />
    <glyph glyph-name="f_f_l" unicode="&#xfb04;" horiz-adv-x="953" 
d="M900 119h26v-119h-64c-92 0 -132 48 -132 132v568h132v-540c0 -24 6 -41 38 -41zM414 397h-196v-397h-132v397h-73v119h73v52c0 84 40 132 132 132h127v-119h-89c-32 0 -38 -17 -38 -41v-24h196v52c0 84 40 132 132 132h127v-119h-89c-32 0 -38 -17 -38 -41v-24h127v-119
h-127v-397h-132v397z" />
    <glyph glyph-name="breve" unicode="&#x2d8;" horiz-adv-x="420" 
d="M257 571h-94c-72 0 -129 57 -129 129h93c0 -20 16 -36 36 -36h94c20 0 36 16 36 36h93c0 -72 -57 -129 -129 -129z" />
    <glyph glyph-name="caron" unicode="&#x2c7;" horiz-adv-x="458" 
d="M415 700l-126 -129h-120l-126 129h137l49 -45l48 45h138z" />
    <glyph glyph-name="circumflex" unicode="&#x2c6;" horiz-adv-x="458" 
d="M289 700l126 -129h-138l-48 45l-49 -45h-137l126 129h120z" />
    <glyph glyph-name="dotaccent" unicode="&#x2d9;" horiz-adv-x="210" 
d="M171 694v-117h-132v117h132z" />
    <glyph glyph-name="hungarumlaut" unicode="&#x2dd;" horiz-adv-x="499" 
d="M102 700h167l-108 -129h-109zM294 700h167l-108 -129h-109z" />
    <glyph glyph-name="commaaccent" horiz-adv-x="290" 
d="M70 -200v150h150v-150l-33 -104h-94l33 104h-56z" />
    <glyph glyph-name="ogonek" unicode="&#x2db;" horiz-adv-x="269" 
d="M112 0h132c-41 -29 -82 -51 -82 -75c0 -16 11 -21 24 -21c20 0 46 10 58 17v-92c-23 -9 -56 -18 -91 -18c-61 0 -123 23 -123 86c0 48 37 80 82 103z" />
    <glyph glyph-name="ring" unicode="&#x2da;" horiz-adv-x="215" 
d="M33 635c0 41 33 75 74 75s75 -34 75 -75s-34 -74 -75 -74s-74 33 -74 74zM87 635c0 -11 9 -20 20 -20s20 9 20 20s-9 20 -20 20s-20 -9 -20 -20z" />
    <glyph glyph-name="tilde" unicode="&#x2dc;" horiz-adv-x="453" 
d="M143 572h-97c13 69 51 130 119 130c24 0 38 -4 61 -15l27 -13c7 -3 13 -5 24 -5s25 8 32 31h98c-13 -69 -51 -130 -119 -130c-24 0 -38 4 -61 15l-27 13c-7 3 -13 5 -24 5s-25 -8 -33 -31z" />
    <glyph glyph-name="uni032C" unicode="&#x32c;" horiz-adv-x="458" 
d="M415 0l-126 -129h-120l-126 129h137l49 -45l48 45h138z" />
    <glyph glyph-name="zero.slashed" 
d="M49 227v246c0 143 82 237 230 237s230 -94 230 -237v-246c0 -143 -82 -237 -230 -237s-230 94 -230 237zM377 210v182l-196 -196c5 -53 38 -87 98 -87c64 0 98 40 98 101zM181 490v-181l195 195c-5 53 -38 87 -97 87c-64 0 -98 -40 -98 -101z" />
    <glyph glyph-name="one.tlf" 
d="M235 119v421l-134 -116v160l134 116h132v-581h164v-119h-460v119h164z" />
    <glyph glyph-name="two.tlf" 
d="M179 480h-132v2c3 139 87 228 231 228c141 0 229 -86 229 -208c0 -92 -41 -157 -110 -224l-163 -159h273v-119h-460v119l264 257c43 41 65 83 65 124c0 51 -34 91 -98 91s-99 -40 -99 -101v-10z" />
    <glyph glyph-name="three.tlf" 
d="M371 196c0 57 -42 93 -103 93h-58v119h58c64 0 103 30 103 82c0 61 -34 101 -98 101c-60 0 -95 -35 -99 -90v-1h-131v1c11 129 89 209 230 209c144 0 230 -95 230 -215c0 -52 -23 -112 -74 -148c46 -30 74 -102 74 -158c0 -127 -84 -199 -227 -199
c-141 0 -222 80 -233 209v1h131v-1c4 -55 43 -90 103 -90c57 0 94 31 94 87z" />
    <glyph glyph-name="four.tlf" 
d="M521 159h-73v-159h-132v159h-302v117l302 424h132v-424h73v-117zM167 276h149v209z" />
    <glyph glyph-name="five.tlf" 
d="M204 285h-132v415h424v-119h-292v-146c19 12 60 23 99 23c141 0 220 -94 220 -237v-32c0 -124 -93 -199 -224 -199c-152 0 -227 82 -236 209v1h131v-1c4 -53 42 -90 99 -90c67 0 98 38 98 91v38c0 61 -34 101 -98 101c-45 0 -74 -18 -89 -54z" />
    <glyph glyph-name="six.tlf" 
d="M52 221v252c0 143 82 237 230 237c141 0 218 -80 229 -209v-1h-131v1c-4 55 -38 90 -98 90c-64 0 -98 -40 -98 -101v-70c17 15 57 31 104 31c141 0 224 -93 224 -229v-2c0 -139 -84 -230 -230 -230s-230 91 -230 231zM184 235v-25c0 -61 34 -101 98 -101s98 40 98 101v21
c0 61 -34 101 -98 101c-63 0 -97 -37 -98 -97z" />
    <glyph glyph-name="seven.tlf" 
d="M498 581l-218 -581h-139l218 581h-315v119h454v-119z" />
    <glyph glyph-name="eight.tlf" 
d="M279 -10c-131 0 -230 81 -230 213c0 60 24 115 68 150c-43 39 -61 87 -61 147c0 128 89 210 223 210c133 0 223 -82 223 -210c0 -60 -18 -108 -61 -147c44 -35 68 -90 68 -150c0 -132 -99 -213 -230 -213zM279 591c-57 0 -91 -43 -91 -91s34 -91 91 -91s91 43 91 91
s-34 91 -91 91zM279 297c-57 0 -98 -38 -98 -94s41 -94 98 -94s98 38 98 94s-41 94 -98 94z" />
    <glyph glyph-name="nine.tlf" 
d="M506 479v-252c0 -143 -82 -237 -230 -237c-141 0 -218 80 -229 209v1h131v-1c4 -55 38 -90 98 -90c64 0 98 40 98 101v70c-17 -15 -57 -31 -104 -31c-141 0 -224 93 -224 229v2c0 139 84 230 230 230s230 -91 230 -231zM374 465v25c0 61 -34 101 -98 101
s-98 -40 -98 -101v-21c0 -61 34 -101 98 -101c63 0 97 37 98 97z" />
    <glyph glyph-name="zero.tlf" 
d="M49 227v246c0 143 82 237 230 237s230 -94 230 -237v-246c0 -143 -82 -237 -230 -237s-230 94 -230 237zM377 210v280c0 61 -34 101 -98 101s-98 -40 -98 -101v-280c0 -61 34 -101 98 -101s98 40 98 101z" />
    <glyph glyph-name="zero.slashed.tlf" 
d="M49 227v246c0 143 82 237 230 237s230 -94 230 -237v-246c0 -143 -82 -237 -230 -237s-230 94 -230 237zM206 136c17 -18 41 -27 73 -27c64 0 98 40 98 101v182l-196 -196c3 -24 11 -44 25 -60zM352 563c-17 19 -41 28 -73 28c-64 0 -98 -40 -98 -101v-181l195 195
c-2 24 -10 44 -24 59z" />
    <glyph glyph-name="one.case" horiz-adv-x="381" 
d="M171 0v504l-134 -117v197l134 116h135v-700h-135z" />
    <glyph glyph-name="two.case" horiz-adv-x="544" 
d="M38 0v133l261 246c44 41 68 72 68 111c0 48 -33 87 -96 87c-64 0 -98 -38 -98 -93v-7h-135c5 131 86 233 233 233c141 0 229 -96 229 -217c0 -87 -41 -148 -104 -207l-162 -153h266v-133h-462z" />
    <glyph glyph-name="three.case" horiz-adv-x="550" 
d="M271 -10c-140 0 -223 92 -234 210h133c5 -43 43 -77 102 -77c57 0 93 28 93 76c0 55 -41 82 -102 82h-58v133h58c64 0 102 25 102 69c0 56 -33 94 -97 94c-59 0 -93 -34 -98 -77h-133c11 118 91 210 231 210c147 0 231 -106 231 -221c0 -44 -22 -104 -73 -143
c45 -29 73 -111 73 -156c0 -119 -85 -200 -228 -200z" />
    <glyph glyph-name="four.case" horiz-adv-x="532" 
d="M307 0v150h-302v133l302 417h134v-417h73v-133h-73v-150h-134zM164 283h143v197z" />
    <glyph glyph-name="five.case" horiz-adv-x="551" 
d="M292 -10c-154 0 -227 92 -238 210h133c5 -43 42 -77 98 -77c67 0 97 36 97 80v34c0 53 -33 92 -97 92c-45 0 -74 -16 -87 -47h-135v418h426v-133h-291v-123c19 8 59 18 98 18c141 0 220 -107 220 -247v-27c0 -116 -92 -198 -224 -198z" />
    <glyph glyph-name="six.case" horiz-adv-x="565" 
d="M285 -10c-147 0 -231 104 -231 240v233c0 140 82 247 231 247c141 0 219 -92 230 -210h-133c-4 43 -37 77 -97 77c-63 0 -96 -38 -96 -93v-54c16 9 56 25 103 25c142 0 224 -106 224 -237c-5 -130 -86 -228 -231 -228zM285 123c64 0 97 38 97 93v14c0 53 -33 92 -97 92
c-61 0 -95 -36 -96 -87v-19c0 -55 33 -93 96 -93z" />
    <glyph glyph-name="seven.case" horiz-adv-x="479" 
d="M106 0l217 567h-315v133h456v-133l-217 -567h-141z" />
    <glyph glyph-name="eight.case" horiz-adv-x="563" 
d="M281 -10c-132 0 -231 86 -231 217c0 56 24 113 68 146c-43 40 -61 88 -61 143c0 124 89 214 224 214c136 0 224 -90 224 -214c0 -55 -17 -103 -60 -143c44 -33 67 -90 67 -146c0 -131 -99 -217 -231 -217zM281 123c57 0 97 36 97 84c0 51 -40 84 -97 84
c-56 0 -96 -33 -96 -84c0 -48 40 -84 96 -84zM281 415c57 0 90 44 90 81c0 41 -33 81 -90 81c-56 0 -89 -40 -89 -81c0 -37 33 -81 89 -81z" />
    <glyph glyph-name="nine.case" horiz-adv-x="565" 
d="M279 -10c-139 0 -219 92 -230 210h134c4 -43 37 -77 96 -77c64 0 97 38 97 93v54c-16 -9 -56 -25 -103 -25c-142 0 -225 106 -225 237c3 130 87 228 231 228c148 0 231 -104 231 -240v-233c0 -140 -82 -247 -231 -247zM279 378c63 0 96 36 97 87v19c0 55 -33 93 -97 93
c-63 0 -96 -38 -96 -93v-14c0 -53 33 -92 96 -92z" />
    <glyph glyph-name="zero.case" horiz-adv-x="571" 
d="M285 123c64 0 97 38 97 93v268c0 55 -33 93 -97 93c-63 0 -96 -38 -96 -93v-268c0 -55 33 -93 96 -93zM285 -10c-149 0 -231 107 -231 247v226c0 140 82 247 231 247s231 -107 231 -247v-226c0 -140 -82 -247 -231 -247z" />
    <glyph glyph-name="zero.slashed.case" horiz-adv-x="571" 
d="M285 -10c-149 0 -231 107 -231 247v226c0 140 82 247 231 247s231 -107 231 -247v-226c0 -140 -82 -247 -231 -247zM285 123c64 0 97 38 97 93v169l-191 -191c8 -43 41 -71 94 -71zM189 484v-167l190 190c-8 43 -41 70 -94 70c-63 0 -96 -38 -96 -93z" />
    <glyph glyph-name="uni21B2" unicode="&#x21b2;" horiz-adv-x="800" 
d="M755 700v-463h-481l161 -161l-84 -86l-306 306l306 306l84 -86l-160 -160h361v344h119z" />
    <glyph glyph-name="uni21B3" unicode="&#x21b3;" horiz-adv-x="800" 
d="M45 237v463h119v-344h361l-160 160l84 86l306 -306l-306 -306l-84 86l161 161h-481z" />
    <glyph glyph-name="uni21B0" unicode="&#x21b0;" horiz-adv-x="800" 
d="M274 237l161 -161l-84 -86l-306 306l306 306l84 -86l-160 -160h480v-540h-119v421h-362z" />
    <glyph glyph-name="uni21B1" unicode="&#x21b1;" horiz-adv-x="800" 
d="M365 76l161 161h-362v-421h-119v540h480l-160 160l84 86l306 -306l-306 -306z" />
    <glyph glyph-name="arrowleft" unicode="&#x2190;" horiz-adv-x="800" 
d="M274 237l161 -161l-84 -86l-306 306l306 306l84 -86l-160 -160h480v-119h-481z" />
    <glyph glyph-name="arrowup" unicode="&#x2191;" horiz-adv-x="800" 
d="M341 481l-161 -161l-86 84l306 306l306 -306l-86 -84l-160 160v-480h-119v481z" />
    <glyph glyph-name="arrowright" unicode="&#x2192;" horiz-adv-x="800" 
d="M365 76l161 161h-481v119h480l-160 160l84 86l306 -306l-306 -306z" />
    <glyph glyph-name="arrowdown" unicode="&#x2193;" horiz-adv-x="800" 
d="M180 380l161 -161v481h119v-480l160 160l86 -84l-306 -306l-306 306z" />
    <glyph glyph-name="uni2196" unicode="&#x2196;" horiz-adv-x="800" 
d="M251 368v-229h-120v433h433v-121h-228l373 -372l-84 -84z" />
    <glyph glyph-name="uni2197" unicode="&#x2197;" horiz-adv-x="800" 
d="M549 139v229l-374 -373l-84 84l373 372h-228v121h433v-433h-120z" />
    <glyph glyph-name="uni2198" unicode="&#x2198;" horiz-adv-x="800" 
d="M549 204v229h120v-433h-433v121h228l-373 372l84 84z" />
    <glyph glyph-name="uni2199" unicode="&#x2199;" horiz-adv-x="800" 
d="M251 433v-229l374 373l84 -84l-373 -372h228v-121h-433v433h120z" />
    <glyph glyph-name="filledbox" unicode="&#x25a0;" horiz-adv-x="800" 
d="M142 0v516h516v-516h-516z" />
    <glyph glyph-name="H22073" unicode="&#x25a1;" horiz-adv-x="800" 
d="M142 0v516h516v-516h-516zM261 397v-278h278v278h-278z" />
    <glyph glyph-name="circle" unicode="&#x25cb;" horiz-adv-x="800" 
d="M130 260c0 149 121 270 270 270s270 -121 270 -270s-121 -270 -270 -270s-270 121 -270 270zM249 260c0 -83 68 -151 151 -151s151 68 151 151s-68 151 -151 151s-151 -68 -151 -151z" />
    <glyph glyph-name="H18533" unicode="&#x25cf;" horiz-adv-x="800" 
d="M130 260c0 149 121 270 270 270s270 -121 270 -270s-121 -270 -270 -270s-270 121 -270 270z" />
    <glyph glyph-name="onethird" unicode="&#x2153;" horiz-adv-x="819" 
d="M115 294v283l-78 -67v122l78 68h93v-406h-93zM548 700h106l-481 -700h-106zM634 -6c-91 0 -135 57 -143 122h92c4 -20 21 -39 52 -39c28 0 46 15 46 40c0 31 -23 43 -54 43h-36v82h36c36 0 54 12 54 35c0 31 -13 52 -48 52c-32 0 -46 -19 -50 -39h-92
c8 65 50 122 142 122c96 0 141 -66 141 -130c0 -23 -8 -58 -39 -82c26 -18 39 -65 39 -90c0 -68 -44 -116 -140 -116z" />
    <glyph glyph-name="uni2155" unicode="&#x2155;" horiz-adv-x="817" 
d="M115 294v283l-78 -67v122l78 68h93v-406h-93zM548 700h106l-481 -700h-106zM648 -6c-105 0 -139 57 -147 122h92c4 -19 19 -39 50 -39c39 0 48 19 48 42v18c0 28 -13 50 -48 50c-23 0 -37 -8 -44 -25h-93v244h262v-83h-169v-62c8 3 31 9 52 9c95 0 133 -68 133 -148v-13
c0 -64 -49 -115 -136 -115z" />
    <glyph glyph-name="uni2159" unicode="&#x2159;" horiz-adv-x="816" 
d="M115 294v283l-78 -67v122l78 68h93v-406h-93zM548 700h106l-481 -700h-106zM637 -6c-100 0 -142 66 -142 143v127c0 80 41 148 142 148c93 0 132 -57 140 -122h-92c-3 20 -17 39 -48 39c-36 0 -49 -22 -49 -50v-26c7 4 27 13 54 13c92 0 133 -64 136 -136
c-3 -74 -45 -136 -141 -136zM637 77c35 0 48 22 48 50v6c0 28 -13 50 -48 50s-48 -20 -49 -47v-9c0 -28 13 -50 49 -50z" />
    <glyph glyph-name="oneeighth" unicode="&#x215b;" horiz-adv-x="797" 
d="M115 294v283l-78 -67v122l78 68h93v-406h-93zM548 700h106l-481 -700h-106zM625 -6c-84 0 -141 53 -141 128c0 31 12 64 35 83c-24 24 -31 52 -31 81c0 72 49 126 137 126s138 -54 138 -126c0 -29 -7 -57 -32 -81c23 -19 36 -52 36 -83c0 -75 -58 -128 -142 -128zM625 77
c31 0 49 20 49 45c0 27 -18 44 -49 44s-48 -17 -48 -44c0 -25 17 -45 48 -45zM625 243c31 0 45 26 45 43c0 21 -17 43 -45 43c-27 0 -44 -22 -44 -43c0 -17 13 -43 44 -43z" />
    <glyph glyph-name="twothirds" unicode="&#x2154;" horiz-adv-x="919" 
d="M38 294v83l161 144c28 25 30 36 30 51c0 29 -13 51 -49 51c-35 0 -49 -22 -49 -49v-4h-93c3 72 44 136 142 136c96 0 141 -60 141 -132c0 -53 -15 -85 -62 -124l-87 -73h149v-83h-283zM648 700h106l-481 -700h-106zM734 -6c-91 0 -135 57 -143 122h92
c4 -20 21 -39 52 -39c28 0 46 15 46 40c0 31 -23 43 -54 43h-36v82h36c36 0 54 12 54 35c0 31 -13 52 -48 52c-32 0 -46 -19 -50 -39h-92c8 65 50 122 142 122c96 0 141 -66 141 -130c0 -23 -8 -58 -39 -82c26 -18 39 -65 39 -90c0 -68 -44 -116 -140 -116z" />
    <glyph glyph-name="uni2156" unicode="&#x2156;" horiz-adv-x="917" 
d="M38 294v83l161 144c28 25 30 36 30 51c0 29 -13 51 -49 51c-35 0 -49 -22 -49 -49v-4h-93c3 72 44 136 142 136c96 0 141 -60 141 -132c0 -53 -15 -85 -62 -124l-87 -73h149v-83h-283zM648 700h106l-481 -700h-106zM748 -6c-105 0 -139 57 -147 122h92
c4 -19 19 -39 50 -39c39 0 48 19 48 42v18c0 28 -13 50 -48 50c-23 0 -37 -8 -44 -25h-93v244h262v-83h-169v-62c8 3 31 9 52 9c95 0 133 -68 133 -148v-13c0 -64 -49 -115 -136 -115z" />
    <glyph glyph-name="uni2157" unicode="&#x2157;" horiz-adv-x="915" 
d="M180 288c-91 0 -135 57 -143 122h92c4 -20 21 -39 52 -39c28 0 46 15 46 40c0 31 -23 43 -54 43h-36v82h36c36 0 54 12 54 35c0 31 -13 52 -48 52c-32 0 -46 -19 -50 -39h-92c8 65 50 122 142 122c96 0 141 -66 141 -130c0 -23 -8 -58 -39 -82c26 -18 39 -65 39 -90
c0 -68 -44 -116 -140 -116zM646 700h106l-481 -700h-106zM746 -6c-105 0 -139 57 -147 122h92c4 -19 19 -39 50 -39c39 0 48 19 48 42v18c0 28 -13 50 -48 50c-23 0 -37 -8 -44 -25h-93v244h262v-83h-169v-62c8 3 31 9 52 9c95 0 133 -68 133 -148v-13
c0 -64 -49 -115 -136 -115z" />
    <glyph glyph-name="threeeighths" unicode="&#x215c;" horiz-adv-x="895" 
d="M180 288c-91 0 -135 57 -143 122h92c4 -20 21 -39 52 -39c28 0 46 15 46 40c0 31 -23 43 -54 43h-36v82h36c36 0 54 12 54 35c0 31 -13 52 -48 52c-32 0 -46 -19 -50 -39h-92c8 65 50 122 142 122c96 0 141 -66 141 -130c0 -23 -8 -58 -39 -82c26 -18 39 -65 39 -90
c0 -68 -44 -116 -140 -116zM646 700h106l-481 -700h-106zM723 -6c-84 0 -141 53 -141 128c0 31 12 64 35 83c-24 24 -31 52 -31 81c0 72 49 126 137 126s138 -54 138 -126c0 -29 -7 -57 -32 -81c23 -19 36 -52 36 -83c0 -75 -58 -128 -142 -128zM723 77c31 0 49 20 49 45
c0 27 -18 44 -49 44s-48 -17 -48 -44c0 -25 17 -45 48 -45zM723 243c31 0 45 26 45 43c0 21 -17 43 -45 43c-27 0 -44 -22 -44 -43c0 -17 13 -43 44 -43z" />
    <glyph glyph-name="uni2158" unicode="&#x2158;" horiz-adv-x="870" 
d="M158 294v84h-169v82l169 240h93v-240h43v-82h-43v-84h-93zM99 460h59v86zM601 700h106l-481 -700h-106zM701 -6c-105 0 -139 57 -147 122h92c4 -19 19 -39 50 -39c39 0 48 19 48 42v18c0 28 -13 50 -48 50c-23 0 -37 -8 -44 -25h-93v244h262v-83h-169v-62c8 3 31 9 52 9
c95 0 133 -68 133 -148v-13c0 -64 -49 -115 -136 -115z" />
    <glyph glyph-name="uni215A" unicode="&#x215a;" horiz-adv-x="912" 
d="M194 288c-105 0 -139 57 -147 122h92c4 -19 19 -39 50 -39c39 0 48 19 48 42v18c0 28 -13 50 -48 50c-23 0 -37 -8 -44 -25h-93v244h262v-83h-169v-62c8 3 31 9 52 9c95 0 133 -68 133 -148v-13c0 -64 -49 -115 -136 -115zM644 700h106l-481 -700h-106zM733 -6
c-100 0 -142 66 -142 143v127c0 80 41 148 142 148c93 0 132 -57 140 -122h-92c-3 20 -17 39 -48 39c-36 0 -49 -22 -49 -50v-26c7 4 27 13 54 13c92 0 133 -64 136 -136c-3 -74 -45 -136 -141 -136zM733 77c35 0 48 22 48 50v6c0 28 -13 50 -48 50s-48 -20 -49 -47v-9
c0 -28 13 -50 49 -50z" />
    <glyph glyph-name="fiveeighths" unicode="&#x215d;" horiz-adv-x="893" 
d="M194 288c-105 0 -139 57 -147 122h92c4 -19 19 -39 50 -39c39 0 48 19 48 42v18c0 28 -13 50 -48 50c-23 0 -37 -8 -44 -25h-93v244h262v-83h-169v-62c8 3 31 9 52 9c95 0 133 -68 133 -148v-13c0 -64 -49 -115 -136 -115zM644 700h106l-481 -700h-106zM721 -6
c-84 0 -141 53 -141 128c0 31 12 64 35 83c-24 24 -31 52 -31 81c0 72 49 126 137 126s138 -54 138 -126c0 -29 -7 -57 -32 -81c23 -19 36 -52 36 -83c0 -75 -58 -128 -142 -128zM721 77c31 0 49 20 49 45c0 27 -18 44 -49 44s-48 -17 -48 -44c0 -25 17 -45 48 -45zM721 243
c31 0 45 26 45 43c0 21 -17 43 -45 43c-27 0 -44 -22 -44 -43c0 -17 13 -43 44 -43z" />
    <glyph glyph-name="seveneighths" unicode="&#x215e;" horiz-adv-x="824" 
d="M78 294l126 323h-184v83h280v-83l-126 -323h-96zM575 700h106l-481 -700h-106zM652 -6c-84 0 -141 53 -141 128c0 31 12 64 35 83c-24 24 -31 52 -31 81c0 72 49 126 137 126s138 -54 138 -126c0 -29 -7 -57 -32 -81c23 -19 36 -52 36 -83c0 -75 -58 -128 -142 -128z
M652 77c31 0 49 20 49 45c0 27 -18 44 -49 44s-48 -17 -48 -44c0 -25 17 -45 48 -45zM652 243c31 0 45 26 45 43c0 21 -17 43 -45 43c-27 0 -44 -22 -44 -43c0 -17 13 -43 44 -43z" />
    <glyph glyph-name="uni215F" unicode="&#x215f;" horiz-adv-x="454" 
d="M115 294v283l-78 -67v122l78 68h93v-406h-93zM548 700h106l-481 -700h-106z" />
    <glyph glyph-name="fraction" unicode="&#x2044;" horiz-adv-x="187" 
d="M281 700h106l-481 -700h-106z" />
    <glyph glyph-name="a.superior" horiz-adv-x="335" 
d="M124 395c-68 0 -104 37 -104 89c0 39 14 62 37 78c39 28 98 32 154 35c-7 16 -19 29 -47 29c-23 0 -35 -10 -43 -21h-93c13 57 53 103 136 103c101 0 142 -67 142 -147v-160h-93v36c-12 -21 -37 -42 -89 -42zM149 475c35 0 64 21 64 49c-33 -3 -78 -6 -88 -11
c-8 -3 -12 -9 -12 -17s5 -21 36 -21z" />
    <glyph glyph-name="b.superior" horiz-adv-x="342" 
d="M195 395c-27 0 -56 14 -68 33v-27h-94v406h94v-132c12 19 41 33 68 33c63 0 121 -48 121 -136v-40c0 -89 -58 -137 -121 -137zM175 487c24 0 48 13 48 49v31c0 36 -24 50 -48 50s-48 -14 -48 -50v-31c0 -36 24 -49 48 -49z" />
    <glyph glyph-name="c.superior" horiz-adv-x="326" 
d="M167 395c-101 0 -142 68 -142 148v18c0 80 41 147 142 147c89 0 132 -54 140 -121h-93c-4 23 -16 39 -47 39c-36 0 -49 -23 -49 -51v-47c0 -28 13 -50 49 -50c31 0 44 15 47 38h93c-8 -67 -51 -121 -140 -121z" />
    <glyph glyph-name="d.superior" horiz-adv-x="342" 
d="M147 395c-64 0 -122 48 -122 137v40c0 88 58 136 122 136c27 0 56 -14 68 -33v132h93v-406h-93v27c-12 -19 -41 -33 -68 -33zM167 487c24 0 48 13 48 49v31c0 36 -24 50 -48 50s-49 -14 -49 -50v-31c0 -36 25 -49 49 -49z" />
    <glyph glyph-name="e.superior" horiz-adv-x="331" 
d="M167 395c-101 0 -142 68 -142 148v18c0 80 41 147 142 147c100 0 141 -67 141 -147v-45h-190c0 -16 13 -38 49 -38c23 0 35 9 43 20h94c-13 -56 -54 -103 -137 -103zM118 591h96c-3 19 -15 35 -47 35s-44 -18 -49 -35z" />
    <glyph glyph-name="f.superior" horiz-adv-x="213" 
d="M49 401v217h-43v82h43v28c0 47 27 79 79 79h87v-83h-54c-19 0 -19 -11 -19 -20v-4h73v-82h-73v-217h-93z" />
    <glyph glyph-name="g.superior" horiz-adv-x="341" 
d="M166 288c-87 0 -128 52 -139 115h93c7 -19 18 -32 46 -32c36 0 49 22 49 51v33c-13 -19 -42 -33 -69 -33c-63 0 -121 48 -121 136v14c0 88 58 136 121 136c27 0 56 -14 69 -33v25h93v-264c0 -80 -41 -148 -142 -148zM166 513c24 0 49 14 49 50v4c0 36 -25 50 -49 50
s-48 -14 -48 -50v-4c0 -36 24 -50 48 -50z" />
    <glyph glyph-name="h.superior" horiz-adv-x="346" 
d="M33 401v406h94v-132c12 19 41 33 68 33c63 0 121 -48 121 -136v-171h-93v166c0 36 -24 50 -48 50s-48 -14 -48 -50v-166h-94z" />
    <glyph glyph-name="i.superior" horiz-adv-x="160" 
d="M33 401v299h94v-299h-94zM33 733v74h94v-74h-94z" />
    <glyph glyph-name="j.superior" horiz-adv-x="160" 
d="M-4 294v83h18c19 0 19 11 19 23v300h94v-327c0 -47 -27 -79 -80 -79h-51zM33 733v74h94v-74h-94z" />
    <glyph glyph-name="k.superior" horiz-adv-x="328" 
d="M127 807v-193l78 86h112l-109 -118l125 -181h-110l-77 113l-19 -22v-91h-94v406h94z" />
    <glyph glyph-name="l.superior" horiz-adv-x="177" 
d="M163 401h-52c-52 0 -79 32 -79 79v327h93v-301c0 -11 1 -22 20 -22h18v-83z" />
    <glyph glyph-name="m.superior" horiz-adv-x="534" 
d="M33 401v299h94v-23c15 19 38 31 67 31c31 0 54 -10 75 -35c23 23 50 35 95 35c88 0 141 -47 141 -136v-171h-93v165c0 37 -25 51 -49 51c-23 0 -47 -14 -47 -50v-166h-93v165c0 37 -25 51 -49 51c-23 0 -47 -14 -47 -50v-166h-94z" />
    <glyph glyph-name="uni207F" unicode="&#x207f;" horiz-adv-x="346" 
d="M33 401v299h94v-25c12 19 41 33 68 33c63 0 121 -48 121 -136v-171h-93v166c0 36 -24 50 -48 50s-48 -14 -48 -50v-166h-94z" />
    <glyph glyph-name="o.superior" horiz-adv-x="334" 
d="M167 478c35 0 48 22 48 50v47c0 28 -13 51 -48 51c-36 0 -49 -23 -49 -51v-47c0 -28 13 -50 49 -50zM167 395c-101 0 -142 68 -142 148v18c0 80 41 147 142 147c100 0 141 -67 141 -147v-18c0 -80 -41 -148 -141 -148z" />
    <glyph glyph-name="p.superior" horiz-adv-x="342" 
d="M33 294v406h94v-25c12 19 41 33 68 33c63 0 121 -48 121 -136v-40c0 -89 -58 -137 -121 -137c-27 0 -56 14 -68 33v-134h-94zM175 487c24 0 48 13 48 49v31c0 36 -24 50 -48 50s-48 -14 -48 -50v-31c0 -36 24 -49 48 -49z" />
    <glyph glyph-name="q.superior" horiz-adv-x="342" 
d="M215 294v134c-12 -19 -41 -33 -68 -33c-64 0 -122 48 -122 137v40c0 88 58 136 122 136c27 0 56 -14 68 -33v25h93v-406h-93zM167 487c24 0 48 13 48 49v31c0 36 -24 50 -48 50s-49 -14 -49 -50v-31c0 -36 25 -49 49 -49z" />
    <glyph glyph-name="r.superior" horiz-adv-x="228" 
d="M33 401v299h94v-33c5 19 28 39 67 39h25v-92h-44c-24 0 -48 -13 -48 -49v-164h-94z" />
    <glyph glyph-name="s.superior" horiz-adv-x="284" 
d="M147 395c-61 0 -131 34 -134 103h92c3 -13 29 -20 46 -20c2 0 26 0 26 13c0 9 -8 10 -19 13l-65 14c-33 8 -74 33 -74 96c0 59 57 94 121 94c61 0 114 -29 119 -97h-95c-3 11 -16 15 -27 15c-15 0 -24 -4 -25 -12c0 -7 7 -10 14 -13l73 -15c26 -5 71 -30 71 -94
c0 -72 -59 -97 -123 -97z" />
    <glyph glyph-name="t.superior" horiz-adv-x="227" 
d="M214 401h-87c-53 0 -80 32 -80 79v138h-42v82h42v68h93v-68h74v-82h-74v-112c0 -11 1 -22 20 -22h54v-83z" />
    <glyph glyph-name="u.superior" horiz-adv-x="342" 
d="M143 395c-59 0 -114 46 -114 137v168h93v-165c0 -33 23 -48 47 -48s47 14 47 49v164h93v-299h-93v33c-12 -19 -30 -39 -73 -39z" />
    <glyph glyph-name="v.superior" horiz-adv-x="297" 
d="M101 401l-108 299h99l56 -164l57 164h98l-108 -299h-94z" />
    <glyph glyph-name="w.superior" horiz-adv-x="420" 
d="M76 401l-79 299h98l37 -167l32 167h92l32 -167l37 167h98l-79 -299h-94l-40 202l-40 -202h-94z" />
    <glyph glyph-name="x.superior" horiz-adv-x="309" 
d="M-1 401l101 154l-97 145h106l45 -71l46 71h105l-96 -145l101 -154h-107l-49 76l-49 -76h-106z" />
    <glyph glyph-name="y.superior" horiz-adv-x="297" 
d="M39 294v83h37c12 0 16 7 17 11l6 15l-106 297h99l56 -164l57 164h98l-109 -304c-21 -56 -17 -102 -78 -102h-77z" />
    <glyph glyph-name="z.superior" horiz-adv-x="255" 
d="M239 618l-108 -134h112v-83h-230v83l108 134h-104v82h222v-82z" />
    <glyph glyph-name="uni2074" unicode="&#x2074;" horiz-adv-x="310" 
d="M168 401v84h-169v82l169 240h93v-240h43v-82h-43v-84h-93zM109 567h59v86z" />
    <glyph glyph-name="uni2075" unicode="&#x2075;" horiz-adv-x="326" 
d="M174 395c-105 0 -139 57 -147 122h92c4 -19 19 -39 50 -39c39 0 48 19 48 42v18c0 28 -13 50 -48 50c-23 0 -37 -8 -44 -25h-93v244h262v-83h-169v-62c8 3 31 9 52 9c95 0 133 -68 133 -148v-13c0 -64 -49 -115 -136 -115z" />
    <glyph glyph-name="uni2076" unicode="&#x2076;" horiz-adv-x="334" 
d="M169 395c-100 0 -142 66 -142 143v127c0 80 41 148 142 148c93 0 132 -57 140 -122h-92c-3 20 -17 39 -48 39c-36 0 -49 -22 -49 -50v-26c7 4 27 13 54 13c92 0 133 -64 136 -136c-3 -74 -45 -136 -141 -136zM169 478c35 0 48 22 48 50v6c0 28 -13 50 -48 50
s-48 -20 -49 -47v-9c0 -28 13 -50 49 -50z" />
    <glyph glyph-name="uni2077" unicode="&#x2077;" horiz-adv-x="284" 
d="M58 401l126 323h-184v83h280v-83l-126 -323h-96z" />
    <glyph glyph-name="uni2078" unicode="&#x2078;" horiz-adv-x="333" 
d="M166 395c-84 0 -141 53 -141 128c0 31 12 64 35 83c-24 24 -31 52 -31 81c0 72 49 126 137 126s138 -54 138 -126c0 -29 -7 -57 -32 -81c23 -19 36 -52 36 -83c0 -75 -58 -128 -142 -128zM166 478c31 0 49 20 49 45c0 27 -18 44 -49 44s-48 -17 -48 -44
c0 -25 17 -45 48 -45zM166 644c31 0 45 26 45 43c0 21 -17 43 -45 43c-27 0 -44 -22 -44 -43c0 -17 13 -43 44 -43z" />
    <glyph glyph-name="uni2079" unicode="&#x2079;" horiz-adv-x="334" 
d="M165 395c-92 0 -133 57 -141 122h93c3 -20 16 -39 48 -39c35 0 49 22 49 50v26c-8 -3 -27 -13 -54 -13c-94 0 -133 63 -136 135v-5c0 76 42 142 141 142s142 -66 142 -143v-127c0 -80 -41 -148 -142 -148zM165 624c35 0 48 20 49 47v9c0 28 -14 50 -49 50
s-48 -22 -48 -50v-6c0 -28 13 -50 48 -50z" />
    <glyph glyph-name="uni2070" unicode="&#x2070;" horiz-adv-x="337" 
d="M169 478c35 0 48 22 48 50v152c0 28 -13 50 -48 50c-36 0 -49 -22 -49 -50v-152c0 -28 13 -50 49 -50zM169 395c-101 0 -142 68 -142 148v122c0 80 41 148 142 148c100 0 141 -68 141 -148v-122c0 -80 -41 -148 -141 -148z" />
    <glyph glyph-name="zero.slashed.superior" horiz-adv-x="337" 
d="M169 395c-101 0 -142 68 -142 148v122c0 80 41 148 142 148c100 0 141 -68 141 -148v-122c0 -80 -41 -148 -141 -148zM169 478c35 0 48 22 48 50v87l-97 -97c3 -23 17 -40 49 -40zM120 680v-86l96 96c-3 23 -16 40 -47 40c-36 0 -49 -22 -49 -50z" />
    <glyph glyph-name="period.superior" horiz-adv-x="187" 
d="M39 401v109h109v-109h-109z" />
    <glyph glyph-name="hyphen.superior" horiz-adv-x="212" 
d="M22 516v86h168v-86h-168z" />
    <glyph glyph-name="comma.superior" horiz-adv-x="187" 
d="M39 401v109h109v-109l-27 -72h-63l27 72h-46z" />
    <glyph glyph-name="uni207C" unicode="&#x207c;" horiz-adv-x="330" 
d="M23 443v86h283v-86h-283zM23 592v86h283v-86h-283z" />
    <glyph glyph-name="uni207A" unicode="&#x207a;" horiz-adv-x="330" 
d="M23 516v86h98v99h86v-99h99v-86h-99v-98h-86v98h-98z" />
    <glyph glyph-name="uni207B" unicode="&#x207b;" horiz-adv-x="330" 
d="M23 516v86h283v-86h-283z" />
    <glyph glyph-name="uni207D" unicode="&#x207d;" horiz-adv-x="186" 
d="M176 284h-51c-52 0 -79 33 -79 80v364c0 47 27 79 79 79h51v-88h-25c-16 0 -18 -9 -18 -20v-306c0 -11 2 -21 18 -21h25v-88z" />
    <glyph glyph-name="uni207E" unicode="&#x207e;" horiz-adv-x="186" 
d="M10 284v88h25c16 0 18 10 18 21v306c0 11 -2 20 -18 20h-25v88h51c52 0 79 -32 79 -79v-364c0 -47 -27 -80 -79 -80h-51z" />
    <glyph glyph-name="a.inferior" horiz-adv-x="335" 
d="M124 -102c-68 0 -104 37 -104 89c0 39 14 62 37 78c39 28 98 32 154 35c-7 16 -19 29 -47 29c-23 0 -35 -10 -43 -21h-93c13 57 53 103 136 103c101 0 142 -67 142 -147v-160h-93v36c-12 -21 -37 -42 -89 -42zM149 -22c35 0 64 21 64 49c-33 -3 -78 -6 -88 -11
c-8 -3 -12 -9 -12 -17s5 -21 36 -21z" />
    <glyph glyph-name="b.inferior" horiz-adv-x="342" 
d="M195 -102c-27 0 -56 14 -68 33v-27h-94v406h94v-132c12 19 41 33 68 33c63 0 121 -48 121 -136v-40c0 -89 -58 -137 -121 -137zM175 -10c24 0 48 13 48 49v31c0 36 -24 50 -48 50s-48 -14 -48 -50v-31c0 -36 24 -49 48 -49z" />
    <glyph glyph-name="c.inferior" horiz-adv-x="326" 
d="M167 -102c-101 0 -142 68 -142 148v18c0 80 41 147 142 147c89 0 132 -54 140 -121h-93c-4 23 -16 39 -47 39c-36 0 -49 -23 -49 -51v-47c0 -28 13 -50 49 -50c31 0 44 15 47 38h93c-8 -67 -51 -121 -140 -121z" />
    <glyph glyph-name="d.inferior" horiz-adv-x="342" 
d="M147 -102c-64 0 -122 48 -122 137v40c0 88 58 136 122 136c27 0 56 -14 68 -33v132h93v-406h-93v27c-12 -19 -41 -33 -68 -33zM167 -10c24 0 48 13 48 49v31c0 36 -24 50 -48 50s-49 -14 -49 -50v-31c0 -36 25 -49 49 -49z" />
    <glyph glyph-name="e.inferior" horiz-adv-x="331" 
d="M167 -102c-101 0 -142 68 -142 148v18c0 80 41 147 142 147c100 0 141 -67 141 -147v-45h-190c0 -16 13 -38 49 -38c23 0 35 9 43 20h94c-13 -56 -54 -103 -137 -103zM118 94h96c-3 19 -15 35 -47 35s-44 -18 -49 -35z" />
    <glyph glyph-name="f.inferior" horiz-adv-x="213" 
d="M49 -96v217h-43v82h43v28c0 47 27 79 79 79h87v-83h-54c-19 0 -19 -11 -19 -20v-4h73v-82h-73v-217h-93z" />
    <glyph glyph-name="g.inferior" horiz-adv-x="341" 
d="M166 -209c-87 0 -128 52 -139 115h93c7 -19 18 -32 46 -32c36 0 49 22 49 51v33c-13 -19 -42 -33 -69 -33c-63 0 -121 48 -121 136v14c0 88 58 136 121 136c27 0 56 -14 69 -33v25h93v-264c0 -80 -41 -148 -142 -148zM166 16c24 0 49 14 49 50v4c0 36 -25 50 -49 50
s-48 -14 -48 -50v-4c0 -36 24 -50 48 -50z" />
    <glyph glyph-name="h.inferior" horiz-adv-x="346" 
d="M33 -96v406h94v-132c12 19 41 33 68 33c63 0 121 -48 121 -136v-171h-93v166c0 36 -24 50 -48 50s-48 -14 -48 -50v-166h-94z" />
    <glyph glyph-name="i.inferior" horiz-adv-x="160" 
d="M33 -96v299h94v-299h-94zM33 236v74h94v-74h-94z" />
    <glyph glyph-name="j.inferior" horiz-adv-x="160" 
d="M-4 -203v83h18c19 0 19 11 19 23v300h94v-327c0 -47 -27 -79 -80 -79h-51zM33 236v74h94v-74h-94z" />
    <glyph glyph-name="k.inferior" horiz-adv-x="328" 
d="M127 310v-193l78 86h112l-109 -118l125 -181h-110l-77 113l-19 -22v-91h-94v406h94z" />
    <glyph glyph-name="l.inferior" horiz-adv-x="177" 
d="M163 -96h-52c-52 0 -79 32 -79 79v327h93v-301c0 -11 1 -22 20 -22h18v-83z" />
    <glyph glyph-name="m.inferior" horiz-adv-x="534" 
d="M33 -96v299h94v-23c15 19 38 31 67 31c31 0 54 -10 75 -35c23 23 50 35 95 35c88 0 141 -47 141 -136v-171h-93v165c0 37 -25 51 -49 51c-23 0 -47 -14 -47 -50v-166h-93v165c0 37 -25 51 -49 51c-23 0 -47 -14 -47 -50v-166h-94z" />
    <glyph glyph-name="n.inferior" horiz-adv-x="346" 
d="M33 -96v299h94v-25c12 19 41 33 68 33c63 0 121 -48 121 -136v-171h-93v166c0 36 -24 50 -48 50s-48 -14 -48 -50v-166h-94z" />
    <glyph glyph-name="o.inferior" horiz-adv-x="334" 
d="M167 -19c35 0 48 22 48 50v47c0 28 -13 51 -48 51c-36 0 -49 -23 -49 -51v-47c0 -28 13 -50 49 -50zM167 -102c-101 0 -142 68 -142 148v18c0 80 41 147 142 147c100 0 141 -67 141 -147v-18c0 -80 -41 -148 -141 -148z" />
    <glyph glyph-name="p.inferior" horiz-adv-x="342" 
d="M33 -203v406h94v-25c12 19 41 33 68 33c63 0 121 -48 121 -136v-40c0 -89 -58 -137 -121 -137c-27 0 -56 14 -68 33v-134h-94zM175 -10c24 0 48 13 48 49v31c0 36 -24 50 -48 50s-48 -14 -48 -50v-31c0 -36 24 -49 48 -49z" />
    <glyph glyph-name="q.inferior" horiz-adv-x="342" 
d="M215 -203v134c-12 -19 -41 -33 -68 -33c-64 0 -122 48 -122 137v40c0 88 58 136 122 136c27 0 56 -14 68 -33v25h93v-406h-93zM167 -10c24 0 48 13 48 49v31c0 36 -24 50 -48 50s-49 -14 -49 -50v-31c0 -36 25 -49 49 -49z" />
    <glyph glyph-name="r.inferior" horiz-adv-x="228" 
d="M33 -96v299h94v-33c5 19 28 39 67 39h25v-92h-44c-24 0 -48 -13 -48 -49v-164h-94z" />
    <glyph glyph-name="s.inferior" horiz-adv-x="284" 
d="M147 -102c-61 0 -131 34 -134 103h92c3 -13 29 -20 46 -20c2 0 26 0 26 13c0 9 -8 10 -19 13l-65 14c-33 8 -74 33 -74 96c0 59 57 94 121 94c61 0 114 -29 119 -97h-95c-3 11 -16 15 -27 15c-15 0 -24 -4 -25 -12c0 -7 7 -10 14 -13l73 -15c26 -5 71 -30 71 -94
c0 -72 -59 -97 -123 -97z" />
    <glyph glyph-name="t.inferior" horiz-adv-x="227" 
d="M214 -96h-87c-53 0 -80 32 -80 79v138h-42v82h42v68h93v-68h74v-82h-74v-112c0 -11 1 -22 20 -22h54v-83z" />
    <glyph glyph-name="u.inferior" horiz-adv-x="342" 
d="M143 -102c-59 0 -114 46 -114 137v168h93v-165c0 -33 23 -48 47 -48s47 14 47 49v164h93v-299h-93v33c-12 -19 -30 -39 -73 -39z" />
    <glyph glyph-name="v.inferior" horiz-adv-x="297" 
d="M101 -96l-108 299h99l56 -164l57 164h98l-108 -299h-94z" />
    <glyph glyph-name="w.inferior" horiz-adv-x="420" 
d="M76 -96l-79 299h98l37 -167l32 167h92l32 -167l37 167h98l-79 -299h-94l-40 202l-40 -202h-94z" />
    <glyph glyph-name="x.inferior" horiz-adv-x="309" 
d="M-1 -96l101 154l-97 145h106l45 -71l46 71h105l-96 -145l101 -154h-107l-49 76l-49 -76h-106z" />
    <glyph glyph-name="y.inferior" horiz-adv-x="297" 
d="M39 -203v83h37c12 0 16 7 17 11l6 15l-106 297h99l56 -164l57 164h98l-109 -304c-21 -56 -17 -102 -78 -102h-77z" />
    <glyph glyph-name="z.inferior" horiz-adv-x="255" 
d="M239 121l-108 -134h112v-83h-230v83l108 134h-104v82h222v-82z" />
    <glyph glyph-name="uni2081" unicode="&#x2081;" horiz-adv-x="227" 
d="M95 -96v283l-78 -67v122l78 68h93v-406h-93z" />
    <glyph glyph-name="uni2082" unicode="&#x2082;" horiz-adv-x="322" 
d="M18 -96v83l161 144c28 25 30 36 30 51c0 29 -13 51 -49 51c-35 0 -49 -22 -49 -49v-4h-93c3 72 44 136 142 136c96 0 141 -60 141 -132c0 -53 -15 -85 -62 -124l-87 -73h149v-83h-283z" />
    <glyph glyph-name="uni2083" unicode="&#x2083;" horiz-adv-x="325" 
d="M160 -102c-91 0 -135 57 -143 122h92c4 -20 21 -39 52 -39c28 0 46 15 46 40c0 31 -23 43 -54 43h-36v82h36c36 0 54 12 54 35c0 31 -13 52 -48 52c-32 0 -46 -19 -50 -39h-92c8 65 50 122 142 122c96 0 141 -66 141 -130c0 -23 -8 -58 -39 -82c26 -18 39 -65 39 -90
c0 -68 -44 -116 -140 -116z" />
    <glyph glyph-name="uni2084" unicode="&#x2084;" horiz-adv-x="310" 
d="M168 -96v84h-169v82l169 240h93v-240h43v-82h-43v-84h-93zM109 70h59v86z" />
    <glyph glyph-name="uni2085" unicode="&#x2085;" horiz-adv-x="326" 
d="M174 -102c-105 0 -139 57 -147 122h92c4 -19 19 -39 50 -39c39 0 48 19 48 42v18c0 28 -13 50 -48 50c-23 0 -37 -8 -44 -25h-93v244h262v-83h-169v-62c8 3 31 9 52 9c95 0 133 -68 133 -148v-13c0 -64 -49 -115 -136 -115z" />
    <glyph glyph-name="uni2086" unicode="&#x2086;" horiz-adv-x="334" 
d="M169 -102c-100 0 -142 66 -142 143v127c0 80 41 148 142 148c93 0 132 -57 140 -122h-92c-3 20 -17 39 -48 39c-36 0 -49 -22 -49 -50v-26c7 4 27 13 54 13c92 0 133 -64 136 -136c-3 -74 -45 -136 -141 -136zM169 -19c35 0 48 22 48 50v6c0 28 -13 50 -48 50
s-48 -20 -49 -47v-9c0 -28 13 -50 49 -50z" />
    <glyph glyph-name="uni2087" unicode="&#x2087;" horiz-adv-x="284" 
d="M58 -96l126 323h-184v83h280v-83l-126 -323h-96z" />
    <glyph glyph-name="uni2088" unicode="&#x2088;" horiz-adv-x="333" 
d="M166 -102c-84 0 -141 53 -141 128c0 31 12 64 35 83c-24 24 -31 52 -31 81c0 72 49 126 137 126s138 -54 138 -126c0 -29 -7 -57 -32 -81c23 -19 36 -52 36 -83c0 -75 -58 -128 -142 -128zM166 -19c31 0 49 20 49 45c0 27 -18 44 -49 44s-48 -17 -48 -44
c0 -25 17 -45 48 -45zM166 147c31 0 45 26 45 43c0 21 -17 43 -45 43c-27 0 -44 -22 -44 -43c0 -17 13 -43 44 -43z" />
    <glyph glyph-name="uni2089" unicode="&#x2089;" horiz-adv-x="334" 
d="M165 -102c-92 0 -133 57 -141 122h93c3 -20 16 -39 48 -39c35 0 49 22 49 50v26c-8 -3 -27 -13 -54 -13c-94 0 -133 63 -136 135v-5c0 76 42 142 141 142s142 -66 142 -143v-127c0 -80 -41 -148 -142 -148zM165 127c35 0 48 20 49 47v9c0 28 -14 50 -49 50
s-48 -22 -48 -50v-6c0 -28 13 -50 48 -50z" />
    <glyph glyph-name="uni2080" unicode="&#x2080;" horiz-adv-x="337" 
d="M169 -19c35 0 48 22 48 50v152c0 28 -13 50 -48 50c-36 0 -49 -22 -49 -50v-152c0 -28 13 -50 49 -50zM169 -102c-101 0 -142 68 -142 148v122c0 80 41 148 142 148c100 0 141 -68 141 -148v-122c0 -80 -41 -148 -141 -148z" />
    <glyph glyph-name="zero.slashed.inferior" horiz-adv-x="337" 
d="M169 -103c-101 0 -142 68 -142 148v122c0 80 41 148 142 148c100 0 141 -68 141 -148v-122c0 -80 -41 -148 -141 -148zM169 -20c35 0 48 22 48 50v87l-97 -97c3 -23 17 -40 49 -40zM120 182v-86l96 96c-3 23 -16 40 -47 40c-36 0 -49 -22 -49 -50z" />
    <glyph glyph-name="period.inferior" horiz-adv-x="187" 
d="M39 -96v109h109v-109h-109z" />
    <glyph glyph-name="hyphen.inferior" horiz-adv-x="212" 
d="M22 19v86h168v-86h-168z" />
    <glyph glyph-name="comma.inferior" horiz-adv-x="187" 
d="M39 -96v109h109v-109l-27 -72h-63l27 72h-46z" />
    <glyph glyph-name="equal.inferior" horiz-adv-x="330" 
d="M23 -54v86h283v-86h-283zM23 95v86h283v-86h-283z" />
    <glyph glyph-name="plus.inferior" horiz-adv-x="330" 
d="M23 19v86h98v99h86v-99h99v-86h-99v-98h-86v98h-98z" />
    <glyph glyph-name="minus.inferior" horiz-adv-x="330" 
d="M23 19v86h283v-86h-283z" />
    <glyph glyph-name="uni208D" unicode="&#x208d;" horiz-adv-x="186" 
d="M176 -213h-51c-52 0 -79 33 -79 80v364c0 47 27 79 79 79h51v-88h-25c-16 0 -18 -9 -18 -20v-306c0 -11 2 -21 18 -21h25v-88z" />
    <glyph glyph-name="uni208E" unicode="&#x208e;" horiz-adv-x="186" 
d="M10 -213v88h25c16 0 18 10 18 21v306c0 11 -2 20 -18 20h-25v88h51c52 0 79 -32 79 -79v-364c0 -47 -27 -80 -79 -80h-51z" />
    <glyph glyph-name="one.numerator" horiz-adv-x="267" 
d="M115 294v283l-78 -67v122l78 68h93v-406h-93z" />
    <glyph glyph-name="two.numerator" horiz-adv-x="367" 
d="M38 294v83l161 144c28 25 30 36 30 51c0 29 -13 51 -49 51c-35 0 -49 -22 -49 -49v-4h-93c3 72 44 136 142 136c96 0 141 -60 141 -132c0 -53 -15 -85 -62 -124l-87 -73h149v-83h-283z" />
    <glyph glyph-name="three.numerator" horiz-adv-x="365" 
d="M180 288c-91 0 -135 57 -143 122h92c4 -20 21 -39 52 -39c28 0 46 15 46 40c0 31 -23 43 -54 43h-36v82h36c36 0 54 12 54 35c0 31 -13 52 -48 52c-32 0 -46 -19 -50 -39h-92c8 65 50 122 142 122c96 0 141 -66 141 -130c0 -23 -8 -58 -39 -82c26 -18 39 -65 39 -90
c0 -68 -44 -116 -140 -116z" />
    <glyph glyph-name="four.numerator" horiz-adv-x="320" 
d="M158 294v84h-169v82l169 240h93v-240h43v-82h-43v-84h-93zM99 460h59v86z" />
    <glyph glyph-name="five.numerator" horiz-adv-x="363" 
d="M194 288c-105 0 -139 57 -147 122h92c4 -19 19 -39 50 -39c39 0 48 19 48 42v18c0 28 -13 50 -48 50c-23 0 -37 -8 -44 -25h-93v244h262v-83h-169v-62c8 3 31 9 52 9c95 0 133 -68 133 -148v-13c0 -64 -49 -115 -136 -115z" />
    <glyph glyph-name="six.numerator" horiz-adv-x="362" 
d="M183 288c-100 0 -142 66 -142 143v127c0 80 41 148 142 148c93 0 132 -57 140 -122h-92c-3 20 -17 39 -48 39c-36 0 -49 -22 -49 -50v-26c7 4 27 13 54 13c92 0 133 -64 136 -136c-3 -74 -45 -136 -141 -136zM183 371c35 0 48 22 48 50v6c0 28 -13 50 -48 50
s-48 -20 -49 -47v-9c0 -28 13 -50 49 -50z" />
    <glyph glyph-name="seven.numerator" horiz-adv-x="294" 
d="M78 294l126 323h-184v83h280v-83l-126 -323h-96z" />
    <glyph glyph-name="eight.numerator" horiz-adv-x="343" 
d="M171 288c-84 0 -141 53 -141 128c0 31 12 64 35 83c-24 24 -31 52 -31 81c0 72 49 126 137 126s138 -54 138 -126c0 -29 -7 -57 -32 -81c23 -19 36 -52 36 -83c0 -75 -58 -128 -142 -128zM171 371c31 0 49 20 49 45c0 27 -18 44 -49 44s-48 -17 -48 -44
c0 -25 17 -45 48 -45zM171 537c31 0 45 26 45 43c0 21 -17 43 -45 43c-27 0 -44 -22 -44 -43c0 -17 13 -43 44 -43z" />
    <glyph glyph-name="nine.numerator" horiz-adv-x="362" 
d="M179 288c-92 0 -133 57 -141 122h93c3 -20 16 -39 48 -39c35 0 49 22 49 50v26c-8 -3 -27 -13 -54 -13c-94 0 -133 63 -136 135v-5c0 76 42 142 141 142s142 -66 142 -143v-127c0 -80 -41 -148 -142 -148zM179 517c35 0 48 20 49 47v9c0 28 -14 50 -49 50
s-48 -22 -48 -50v-6c0 -28 13 -50 48 -50z" />
    <glyph glyph-name="zero.numerator" horiz-adv-x="365" 
d="M183 371c35 0 48 22 48 50v152c0 28 -13 50 -48 50c-36 0 -49 -22 -49 -50v-152c0 -28 13 -50 49 -50zM183 288c-101 0 -142 68 -142 148v122c0 80 41 148 142 148c100 0 141 -68 141 -148v-122c0 -80 -41 -148 -141 -148z" />
    <glyph glyph-name="zero.slashed.numerator" horiz-adv-x="365" 
d="M183 288c-101 0 -142 68 -142 148v122c0 80 41 148 142 148c100 0 141 -68 141 -148v-122c0 -80 -41 -148 -141 -148zM183 371c35 0 48 22 48 50v87l-97 -97c3 -23 17 -40 49 -40zM134 573v-86l96 96c-3 23 -16 40 -47 40c-36 0 -49 -22 -49 -50z" />
    <glyph glyph-name="one.denominator" horiz-adv-x="267" 
d="M115 0v283l-78 -67v122l78 68h93v-406h-93z" />
    <glyph glyph-name="two.denominator" horiz-adv-x="367" 
d="M38 0v83l161 144c28 25 30 36 30 51c0 29 -13 51 -49 51c-35 0 -49 -22 -49 -49v-4h-93c3 72 44 136 142 136c96 0 141 -60 141 -132c0 -53 -15 -85 -62 -124l-87 -73h149v-83h-283z" />
    <glyph glyph-name="three.denominator" horiz-adv-x="365" 
d="M180 -6c-91 0 -135 57 -143 122h92c4 -20 21 -39 52 -39c28 0 46 15 46 40c0 31 -23 43 -54 43h-36v82h36c36 0 54 12 54 35c0 31 -13 52 -48 52c-32 0 -46 -19 -50 -39h-92c8 65 50 122 142 122c96 0 141 -66 141 -130c0 -23 -8 -58 -39 -82c26 -18 39 -65 39 -90
c0 -68 -44 -116 -140 -116z" />
    <glyph glyph-name="four.denominator" horiz-adv-x="320" 
d="M158 0v84h-169v82l169 240h93v-240h43v-82h-43v-84h-93zM99 166h59v86z" />
    <glyph glyph-name="five.denominator" horiz-adv-x="363" 
d="M194 -6c-105 0 -139 57 -147 122h92c4 -19 19 -39 50 -39c39 0 48 19 48 42v18c0 28 -13 50 -48 50c-23 0 -37 -8 -44 -25h-93v244h262v-83h-169v-62c8 3 31 9 52 9c95 0 133 -68 133 -148v-13c0 -64 -49 -115 -136 -115z" />
    <glyph glyph-name="six.denominator" horiz-adv-x="362" 
d="M183 -6c-100 0 -142 66 -142 143v127c0 80 41 148 142 148c93 0 132 -57 140 -122h-92c-3 20 -17 39 -48 39c-36 0 -49 -22 -49 -50v-26c7 4 27 13 54 13c92 0 133 -64 136 -136c-3 -74 -45 -136 -141 -136zM183 77c35 0 48 22 48 50v6c0 28 -13 50 -48 50
s-48 -20 -49 -47v-9c0 -28 13 -50 49 -50z" />
    <glyph glyph-name="seven.denominator" horiz-adv-x="294" 
d="M78 0l126 323h-184v83h280v-83l-126 -323h-96z" />
    <glyph glyph-name="eight.denominator" horiz-adv-x="343" 
d="M171 -6c-84 0 -141 53 -141 128c0 31 12 64 35 83c-24 24 -31 52 -31 81c0 72 49 126 137 126s138 -54 138 -126c0 -29 -7 -57 -32 -81c23 -19 36 -52 36 -83c0 -75 -58 -128 -142 -128zM171 77c31 0 49 20 49 45c0 27 -18 44 -49 44s-48 -17 -48 -44
c0 -25 17 -45 48 -45zM171 243c31 0 45 26 45 43c0 21 -17 43 -45 43c-27 0 -44 -22 -44 -43c0 -17 13 -43 44 -43z" />
    <glyph glyph-name="nine.denominator" horiz-adv-x="362" 
d="M179 -6c-92 0 -133 57 -141 122h93c3 -20 16 -39 48 -39c35 0 49 22 49 50v26c-8 -3 -27 -13 -54 -13c-94 0 -133 63 -136 135v-5c0 76 42 142 141 142s142 -66 142 -143v-127c0 -80 -41 -148 -142 -148zM179 223c35 0 48 20 49 47v9c0 28 -14 50 -49 50s-48 -22 -48 -50
v-6c0 -28 13 -50 48 -50z" />
    <glyph glyph-name="zero.denominator" horiz-adv-x="365" 
d="M183 77c35 0 48 22 48 50v152c0 28 -13 50 -48 50c-36 0 -49 -22 -49 -50v-152c0 -28 13 -50 49 -50zM183 -6c-101 0 -142 68 -142 148v122c0 80 41 148 142 148c100 0 141 -68 141 -148v-122c0 -80 -41 -148 -141 -148z" />
    <glyph glyph-name="zero.slashed.denominator" horiz-adv-x="365" 
d="M183 -6c-101 0 -142 68 -142 148v122c0 80 41 148 142 148c100 0 141 -68 141 -148v-122c0 -80 -41 -148 -141 -148zM183 77c35 0 48 22 48 50v87l-97 -97c3 -23 17 -40 49 -40zM134 279v-86l96 96c-3 23 -16 40 -47 40c-36 0 -49 -22 -49 -50z" />
    <glyph glyph-name="ampersand.case" horiz-adv-x="624" 
d="M505 0h-232c-144 0 -229 82 -229 198c0 64 27 117 74 148c-51 35 -74 104 -74 152c0 109 78 202 222 202h105v-133h-95c-60 0 -97 -21 -97 -76s37 -77 97 -77h95v80h134v-80h121v-133h-121v-281zM272 133h99v148h-99c-57 0 -93 -25 -93 -74s36 -74 93 -74z" />
    <glyph glyph-name="hyphen.case" horiz-adv-x="380" 
d="M45 392h290v-120h-290v120z" />
    <glyph glyph-name="endash.case" horiz-adv-x="550" 
d="M45 392h460v-120h-460v120z" />
    <glyph glyph-name="emdash.case" horiz-adv-x="866" 
d="M45 392h776v-120h-776v120z" />
    <glyph glyph-name="question.case" horiz-adv-x="540" 
d="M195 210v22c0 54 15 79 64 122l51 46c21 19 49 39 49 84c0 55 -33 93 -97 93c-43 0 -89 -20 -97 -77h-133c11 120 91 210 230 210c147 0 231 -102 231 -236c0 -71 -40 -133 -77 -164l-52 -46c-27 -25 -35 -37 -35 -54h-134zM182 0v160h160v-160h-160z" />
    <glyph glyph-name="questiondown.case" horiz-adv-x="540" 
d="M345 490v-22c0 -53 -17 -81 -64 -122l-51 -46c-21 -19 -49 -39 -49 -84c0 -55 33 -93 97 -93c43 0 89 20 97 77h133c-13 -120 -90 -210 -230 -210c-147 0 -231 102 -231 236c0 71 40 133 77 164l52 46c27 25 35 37 35 54h134zM358 700v-160h-160v160h160z" />
    <glyph glyph-name="exclam.case" horiz-adv-x="310" 
d="M222 700v-490h-134v490h134zM75 0v160h160v-160h-160z" />
    <glyph glyph-name="exclamdown.case" horiz-adv-x="310" 
d="M222 490v-490h-134v490h134zM75 540v160h160v-160h-160z" />
    <glyph glyph-name="guilsinglleft.case" horiz-adv-x="279" 
d="M224 118l-177 155v114l177 155v-162l-57 -50l57 -50v-162z" />
    <glyph glyph-name="guilsinglright.case" horiz-adv-x="279" 
d="M232 273l-177 -155v162l57 50l-57 50v162l177 -155v-114z" />
    <glyph glyph-name="guillemotleft.case" horiz-adv-x="496" 
d="M224 118l-177 155v114l177 155v-162l-57 -50l57 -50v-162zM441 118l-177 155v114l177 155v-162l-57 -50l57 -50v-162z" />
    <glyph glyph-name="guillemotright.case" horiz-adv-x="496" 
d="M228 273l-177 -155v162l57 50l-57 50v162l177 -155v-114zM445 273l-177 -155v162l57 50l-57 50v162l177 -155v-114z" />
    <glyph glyph-name="parenleft.case" horiz-adv-x="308" 
d="M208 537v-374c0 -24 6 -41 38 -41h36v-122h-64c-92 0 -132 48 -132 132v436c0 84 40 132 132 132h64v-122h-36c-32 0 -38 -17 -38 -41z" />
    <glyph glyph-name="parenright.case" horiz-adv-x="308" 
d="M100 163v374c0 24 -6 41 -38 41h-36v122h64c92 0 132 -48 132 -132v-436c0 -84 -40 -132 -132 -132h-64v122h36c32 0 38 17 38 41z" />
    <glyph glyph-name="bracketleft.case" horiz-adv-x="311" 
d="M208 578v-456h74v-122h-196v700h196v-122h-74z" />
    <glyph glyph-name="bracketright.case" horiz-adv-x="311" 
d="M103 122v456h-74v122h196v-700h-196v122h74z" />
    <glyph glyph-name="braceleft.case" horiz-adv-x="343" 
d="M80 289h-36v122h36c32 0 38 17 38 41v116c0 84 40 132 132 132h64v-122h-36c-32 0 -38 -17 -38 -41v-116c0 -28 -4 -52 -24 -71c20 -20 24 -44 24 -71v-116c0 -24 6 -41 38 -41h36v-122h-64c-92 0 -132 48 -132 132v116c0 24 -6 41 -38 41z" />
    <glyph glyph-name="braceright.case" horiz-adv-x="343" 
d="M299 289h-36c-32 0 -38 -17 -38 -41v-116c0 -84 -40 -132 -132 -132h-64v122h36c32 0 38 17 38 41v116c0 27 4 51 24 71c-20 19 -24 43 -24 71v116c0 24 -6 41 -38 41h-36v122h64c92 0 132 -48 132 -132v-116c0 -24 6 -41 38 -41h36v-122z" />
    <glyph glyph-name="bar.case" horiz-adv-x="262" 
d="M192 700v-700h-122v700h122z" />
    <glyph glyph-name="brokenbar.case" horiz-adv-x="262" 
d="M70 0v289h122v-289h-122zM70 411v289h122v-289h-122z" />
    <glyph glyph-name="periodcentered.case" horiz-adv-x="320" 
d="M80 262v160h160v-160h-160z" />
    <glyph glyph-name="at.case" horiz-adv-x="946" 
d="M239 235c0 76 26 119 98 154c50 23 154 33 232 38c-9 47 -41 76 -96 76c-47 0 -78 -22 -91 -57h-133c21 108 96 176 224 176c148 0 230 -94 230 -237v-148c0 -25 13 -34 30 -34s31 9 31 34v163c0 180 -102 281 -291 281s-291 -101 -291 -281v-100
c0 -180 102 -281 291 -281c72 0 132 15 179 45l60 -110c-68 -39 -150 -56 -239 -56c-227 0 -413 112 -413 405v94c0 293 186 405 413 405c226 0 413 -112 413 -405v-179c0 -77 -61 -136 -153 -136c-84 0 -131 23 -162 59c-27 -37 -77 -59 -141 -59c-123 0 -191 57 -191 153z
M399 294c-23 -11 -28 -21 -28 -44c0 -25 19 -52 78 -52c68 0 122 38 122 103v17c-76 -5 -147 -11 -172 -24z" />
    <glyph glyph-name="plus.case" 
d="M339 562v-170h170v-120h-170v-170h-120v170h-170v120h170v170h120z" />
    <glyph glyph-name="minus.case" 
d="M49 392h460v-120h-460v120z" />
    <glyph glyph-name="divide.case" 
d="M206 506c0 40 33 72 73 72s72 -32 72 -72s-32 -73 -72 -73s-73 33 -73 73zM206 159c0 40 33 72 73 72s72 -32 72 -72s-32 -73 -72 -73s-73 33 -73 73zM49 392h460v-120h-460v120z" />
    <glyph glyph-name="multiply.case" 
d="M508 481l-144 -144l144 -143l-85 -85l-144 143l-143 -143l-85 85l143 143l-143 144l85 85l143 -144l144 144z" />
    <glyph glyph-name="equal.case" 
d="M509 392h-460v120h460v-120zM49 272h460v-120h-460v120z" />
    <glyph glyph-name="plusminus.case" 
d="M219 337h-170v120h170v116h120v-116h170v-120h-170v-116h-120v116zM49 177h460v-120h-460v120z" />
    <glyph glyph-name="less.case" 
d="M198 316l311 -133v-131l-460 197v134l460 197v-131z" />
    <glyph glyph-name="greater.case" 
d="M49 183l311 133l-311 133v131l460 -197v-134l-460 -197v131z" />
    <glyph glyph-name="lessequal.case" 
d="M509 208l-460 119v134l460 119v-125l-237 -61l237 -61v-125zM49 177h460v-120h-460v120z" />
    <glyph glyph-name="greaterequal.case" 
d="M509 327l-460 -119v125l237 61l-237 61v125l460 -119v-134zM49 177h460v-120h-460v120z" />
    <glyph glyph-name="notequal.case" 
d="M49 272h122l76 120h-198v120h274l87 136l99 -63l-47 -73h47v-120h-123l-76 -120h199v-120h-275l-86 -135l-99 63l46 72h-46v120z" />
    <glyph glyph-name="acute.case" horiz-adv-x="338" 
d="M126 854h174l-128 -109h-121z" />
    <glyph glyph-name="breve.case" horiz-adv-x="420" 
d="M153 830h114c13 0 24 11 24 24h95c0 -61 -49 -109 -110 -109h-132c-61 0 -110 48 -110 109h95c0 -13 11 -24 24 -24z" />
    <glyph glyph-name="caron.case" horiz-adv-x="458" 
d="M229 819l44 35h142l-131 -109h-110l-131 109h142z" />
    <glyph glyph-name="cedilla.case" horiz-adv-x="272" 
d="M40 -158l52 158h118l-38 -158h-132z" />
    <glyph glyph-name="circumflex.case" horiz-adv-x="458" 
d="M273 745l-44 35l-44 -35h-142l131 109h110l131 -109h-142z" />
    <glyph glyph-name="dieresis.case" horiz-adv-x="434" 
d="M186 858v-117h-134v117h134zM382 858v-117h-134v117h134z" />
    <glyph glyph-name="dotaccent.case" horiz-adv-x="212" 
d="M173 858v-117h-134v117h134z" />
    <glyph glyph-name="grave.case" horiz-adv-x="338" 
d="M38 854h174l75 -109h-121z" />
    <glyph glyph-name="hungarumlaut.case" horiz-adv-x="516" 
d="M117 854h169l-118 -109h-116zM309 854h169l-118 -109h-116z" />
    <glyph glyph-name="macron.case" horiz-adv-x="439" 
d="M49 853h341v-106h-341v106z" />
    <glyph glyph-name="ogonek.case" horiz-adv-x="271" 
d="M112 0h134c-41 -29 -82 -51 -82 -75c0 -16 11 -19 24 -19c20 0 46 10 58 17v-94c-23 -9 -56 -18 -91 -18c-61 0 -125 23 -125 86c0 48 37 80 82 103z" />
    <glyph glyph-name="ring.case" horiz-adv-x="215" 
d="M33 799c0 41 33 75 74 75s75 -34 75 -75s-34 -74 -75 -74s-74 33 -74 74zM89 799c0 -12 6 -18 18 -18s18 6 18 18s-6 18 -18 18s-18 -6 -18 -18z" />
    <glyph glyph-name="tilde.case" horiz-adv-x="453" 
d="M303 864h104c-13 -69 -51 -130 -119 -130c-24 0 -38 3 -61 14l-27 13c-6 3 -12 4 -18 4c-14 0 -25 -10 -32 -29h-104c13 69 51 130 119 130c24 0 38 -3 61 -14l27 -13c6 -3 12 -4 18 -4c14 0 25 10 32 29z" />
    <glyph glyph-name="at.case.ss01" horiz-adv-x="946" 
d="M683 608v-371c0 -25 23 -34 40 -34s41 9 41 34v163c0 180 -102 281 -291 281s-291 -101 -291 -281v-100c0 -180 102 -281 291 -281c72 0 132 15 179 45l60 -110c-68 -39 -150 -56 -239 -56c-227 0 -413 112 -413 405v94c0 293 186 405 413 405c226 0 413 -112 413 -405
v-179c0 -77 -70 -136 -163 -136c-84 0 -141 23 -172 59c-24 -35 -74 -59 -121 -59c-105 0 -207 72 -207 224v92c0 152 102 224 207 224c47 0 97 -24 121 -59v45h132zM355 393v-82c0 -69 48 -100 98 -100s98 31 98 100v82c0 69 -48 100 -98 100s-98 -31 -98 -100z" />
    <glyph glyph-name="a.ss01" horiz-adv-x="564" 
d="M372 0v49c-24 -35 -74 -59 -121 -59c-105 0 -207 72 -207 224v92c0 152 102 224 207 224c47 0 97 -24 121 -59v45h132v-516h-132zM176 301v-82c0 -69 48 -100 98 -100s98 31 98 100v82c0 69 -48 100 -98 100s-98 -31 -98 -100z" />
    <glyph glyph-name="aacute.ss01" horiz-adv-x="564" 
d="M372 0v49c-24 -35 -74 -59 -121 -59c-105 0 -207 72 -207 224v92c0 152 102 224 207 224c47 0 97 -24 121 -59v45h132v-516h-132zM176 301v-82c0 -69 48 -100 98 -100s98 31 98 100v82c0 69 -48 100 -98 100s-98 -31 -98 -100zM257 700h172l-118 -129h-114z" />
    <glyph glyph-name="abreve.ss01" horiz-adv-x="564" 
d="M372 0v49c-24 -35 -74 -59 -121 -59c-105 0 -207 72 -207 224v92c0 152 102 224 207 224c47 0 97 -24 121 -59v45h132v-516h-132zM176 301v-82c0 -69 48 -100 98 -100s98 31 98 100v82c0 69 -48 100 -98 100s-98 -31 -98 -100zM336 571h-94c-72 0 -129 57 -129 129h93
c0 -20 16 -36 36 -36h94c20 0 36 16 36 36h93c0 -72 -57 -129 -129 -129z" />
    <glyph glyph-name="acircumflex.ss01" horiz-adv-x="564" 
d="M372 0v49c-24 -35 -74 -59 -121 -59c-105 0 -207 72 -207 224v92c0 152 102 224 207 224c47 0 97 -24 121 -59v45h132v-516h-132zM176 301v-82c0 -69 48 -100 98 -100s98 31 98 100v82c0 69 -48 100 -98 100s-98 -31 -98 -100zM334 700l126 -129h-138l-48 45l-49 -45
h-137l126 129h120z" />
    <glyph glyph-name="adieresis.ss01" horiz-adv-x="564" 
d="M372 0v49c-24 -35 -74 -59 -121 -59c-105 0 -207 72 -207 224v92c0 152 102 224 207 224c47 0 97 -24 121 -59v45h132v-516h-132zM176 301v-82c0 -69 48 -100 98 -100s98 31 98 100v82c0 69 -48 100 -98 100s-98 -31 -98 -100zM242 694v-117h-132v117h132zM438 694v-117
h-132v117h132z" />
    <glyph glyph-name="agrave.ss01" horiz-adv-x="564" 
d="M372 0v49c-24 -35 -74 -59 -121 -59c-105 0 -207 72 -207 224v92c0 152 102 224 207 224c47 0 97 -24 121 -59v45h132v-516h-132zM176 301v-82c0 -69 48 -100 98 -100s98 31 98 100v82c0 69 -48 100 -98 100s-98 -31 -98 -100zM119 700h172l60 -129h-114z" />
    <glyph glyph-name="amacron.ss01" horiz-adv-x="564" 
d="M372 0v49c-24 -35 -74 -59 -121 -59c-105 0 -207 72 -207 224v92c0 152 102 224 207 224c47 0 97 -24 121 -59v45h132v-516h-132zM176 301v-82c0 -69 48 -100 98 -100s98 31 98 100v82c0 69 -48 100 -98 100s-98 -31 -98 -100zM119 688h341v-104h-341v104z" />
    <glyph glyph-name="aogonek.ss01" horiz-adv-x="564" 
d="M372 0v49c-24 -35 -74 -59 -121 -59c-105 0 -207 72 -207 224v92c0 152 102 224 207 224c47 0 97 -24 121 -59v45h132v-516h-132zM176 301v-82c0 -69 48 -100 98 -100s98 31 98 100v82c0 69 -48 100 -98 100s-98 -31 -98 -100zM372 0h132c-41 -29 -82 -51 -82 -75
c0 -16 11 -21 24 -21c20 0 46 10 58 17v-92c-23 -9 -56 -18 -91 -18c-61 0 -123 23 -123 86c0 48 37 80 82 103z" />
    <glyph glyph-name="aring.ss01" horiz-adv-x="564" 
d="M372 0v49c-24 -35 -74 -59 -121 -59c-105 0 -207 72 -207 224v92c0 152 102 224 207 224c47 0 97 -24 121 -59v45h132v-516h-132zM176 301v-82c0 -69 48 -100 98 -100s98 31 98 100v82c0 69 -48 100 -98 100s-98 -31 -98 -100zM200 635c0 41 33 75 74 75s75 -34 75 -75
s-34 -74 -75 -74s-74 33 -74 74zM254 635c0 -11 9 -20 20 -20s20 9 20 20s-9 20 -20 20s-20 -9 -20 -20z" />
    <glyph glyph-name="atilde.ss01" horiz-adv-x="564" 
d="M372 0v49c-24 -35 -74 -59 -121 -59c-105 0 -207 72 -207 224v92c0 152 102 224 207 224c47 0 97 -24 121 -59v45h132v-516h-132zM176 301v-82c0 -69 48 -100 98 -100s98 31 98 100v82c0 69 -48 100 -98 100s-98 -31 -98 -100zM191 572h-97c13 69 51 130 119 130
c24 0 38 -4 61 -15l27 -13c7 -3 13 -5 24 -5s25 8 32 31h98c-13 -69 -51 -130 -119 -130c-24 0 -38 4 -61 15l-27 13c-7 3 -13 5 -24 5s-25 -8 -33 -31z" />
    <glyph glyph-name="at.ss01" horiz-adv-x="936" 
d="M678 516v-371c0 -25 23 -34 40 -34s41 9 41 34v163c0 180 -102 281 -291 281s-291 -101 -291 -281v-100c0 -180 102 -281 291 -281c72 0 132 15 179 45l60 -110c-68 -39 -150 -56 -239 -56c-227 0 -413 112 -413 405v94c0 293 186 405 413 405c226 0 413 -112 413 -405
v-179c0 -77 -70 -136 -163 -136c-84 0 -141 23 -172 59c-24 -35 -74 -59 -121 -59c-105 0 -207 72 -207 224v92c0 152 102 224 207 224c47 0 97 -24 121 -59v45h132zM350 301v-82c0 -69 48 -100 98 -100s98 31 98 100v82c0 69 -48 100 -98 100s-98 -31 -98 -100z" />
    <glyph glyph-name="l.ss02" horiz-adv-x="252" 
d="M192 0h-132v700h132v-700z" />
    <glyph glyph-name="lacute.ss02" horiz-adv-x="252" 
d="M192 0h-132v700h132v-700zM110 874h172l-118 -129h-114z" />
    <glyph glyph-name="lcaron.ss02" horiz-adv-x="252" 
d="M412 700l-86 -158h-104l28 158h162zM192 0h-132v700h132v-700z" />
    <glyph glyph-name="lcommaaccent.ss02" horiz-adv-x="252" 
d="M192 0h-132v700h132v-700zM52 -200v150h150v-150l-33 -104h-94l33 104h-56z" />
    <glyph glyph-name="ldot.ss02" horiz-adv-x="364" 
d="M192 0h-132v700h132v-700zM374 411v-117h-132v117h132z" />
    <glyph glyph-name="lslash.ss02" horiz-adv-x="268" 
d="M200 0h-132v296l-64 -36v92l64 36v312h132v-238l64 36v-92l-64 -36v-370z" />
    <glyph glyph-name="fl.ss02" horiz-adv-x="596" 
d="M345 581h-89c-32 0 -38 -17 -38 -41v-24h127v-119h-127v-397h-132v397h-73v119h73v52c0 84 40 132 132 132h127v-119zM536 0h-132v700h132v-700z" />
    <glyph glyph-name="uniFB04.ss02" horiz-adv-x="924" 
d="M864 0h-132v700h132v-700zM414 397h-196v-397h-132v397h-73v119h73v52c0 84 40 132 132 132h127v-119h-89c-32 0 -38 -17 -38 -41v-24h196v52c0 84 40 132 132 132h127v-119h-89c-32 0 -38 -17 -38 -41v-24h127v-119h-127v-397h-132v397z" />
    </font>
</defs>
</svg>
