<?xml version="1.0" standalone="no"?>
<!DOCTYPE svg PUBLIC "-//W3C//DTD SVG 1.1//EN" "http://www.w3.org/Graphics/SVG/1.1/DTD/svg11.dtd" >
<svg xmlns="http://www.w3.org/2000/svg" xmlns:xlink="http://www.w3.org/1999/xlink" version="1.1">
<metadata>
Created by FontForge 20161003 at Fri Aug  9 10:48:07 2019
 By www-data
Copyright \(c\) 2011 Swiss Typefaces. All rights reserved.
</metadata>
<defs>
<font id="SimplonNorm-MediumItalic" horiz-adv-x="558" >
  <font-face 
    font-family="Simplon Norm"
    font-weight="500"
    font-style="italic"
    font-stretch="normal"
    units-per-em="1000"
    panose-1="2 11 6 0 3 0 0 0 0 0"
    ascent="800"
    descent="-200"
    x-height="516"
    cap-height="700"
    bbox="-211 -268 1144 874"
    underline-thickness="80"
    underline-position="-100"
    slope="-12"
    unicode-range="U+0020-FB04"
  />
<missing-glyph horiz-adv-x="500" 
d="M388 0h-387l148 700h387zM221 646l56 -242l160 242h-216zM76 98l168 256l-59 256zM351 88l110 515l-170 -258zM99 54h215l-56 241z" />
    <glyph glyph-name=".notdef" horiz-adv-x="500" 
d="M388 0h-387l148 700h387zM221 646l56 -242l160 242h-216zM76 98l168 256l-59 256zM351 88l110 515l-170 -258zM99 54h215l-56 241z" />
    <glyph glyph-name="NULL" horiz-adv-x="0" 
 />
    <glyph glyph-name="CR" horiz-adv-x="0" 
 />
    <glyph glyph-name="space" unicode=" " horiz-adv-x="219" 
 />
    <glyph glyph-name="exclam" unicode="!" horiz-adv-x="292" 
d="M292 700l-104 -490h-105l104 490h105zM24 0l29 134h134l-29 -134h-134z" />
    <glyph glyph-name="quotedbl" unicode="&#x22;" horiz-adv-x="462" 
d="M248 476h-105v224h105v-224zM458 476h-105v224h105v-224z" />
    <glyph glyph-name="numbersign" unicode="#" horiz-adv-x="700" 
d="M118 507h112l48 193h100l-48 -193h156l48 193h100l-48 -193h66v-91h-89l-33 -132h90v-91h-112l-48 -193h-100l48 193h-156l-48 -193h-100l48 193h-66v91h88l33 132h-89v91zM307 416l-33 -132h156l33 132h-156z" />
    <glyph glyph-name="dollar" unicode="$" horiz-adv-x="517" 
d="M163 -100l20 97c-97 22 -159 100 -159 193c0 9 1 18 2 27h100v-12c0 -51 30 -92 79 -108l45 213l-30 17c-68 37 -124 87 -124 178c0 135 78 205 229 205h10l19 90h43l-20 -95c95 -21 143 -96 143 -176c0 -5 0 -7 -1 -15h-101v8c0 37 -24 70 -63 83l-44 -208l30 -15
c80 -40 132 -93 132 -173c0 -132 -74 -219 -230 -219c-7 0 -11 0 -18 1l-19 -91h-43zM371 192c0 49 -35 71 -83 98l-42 -201h9c55 0 116 37 116 103zM198 515c0 -47 35 -78 68 -95l7 -4l41 195c-68 -1 -116 -35 -116 -96z" />
    <glyph glyph-name="percent" unicode="%" horiz-adv-x="877" 
d="M651 700h95l-481 -700h-95zM227 361c32 0 52 17 60 52c13 67 36 163 36 181c0 17 -7 39 -48 39c-32 0 -52 -17 -60 -52c-13 -68 -36 -163 -36 -181c0 -17 5 -39 48 -39zM222 288c-75 0 -125 48 -125 107c0 32 28 165 33 181c21 88 61 130 150 130c75 0 125 -48 125 -107
c0 -32 -30 -165 -33 -181c-21 -88 -61 -130 -150 -130zM639 67c32 0 52 17 60 52c13 67 36 163 36 181c0 17 -7 39 -48 39c-32 0 -52 -17 -60 -52c-13 -68 -36 -163 -36 -181c0 -17 5 -39 48 -39zM634 -6c-75 0 -125 48 -125 107c0 32 28 165 33 181c21 88 61 130 150 130
c75 0 125 -48 125 -107c0 -32 -30 -165 -33 -181c-21 -88 -61 -130 -150 -130z" />
    <glyph glyph-name="ampersand" unicode="&#x26;" horiz-adv-x="603" 
d="M610 301h-123l-64 -301h-219c-84 0 -173 59 -173 175c0 91 36 161 119 196c-32 24 -54 73 -54 120c0 144 94 209 261 209h110l-22 -98h-110c-77 0 -137 -34 -137 -105c0 -50 32 -98 91 -98h114l17 81h105l-17 -81h123zM226 98h113l43 203h-118c-68 0 -131 -35 -131 -112
c0 -49 37 -91 93 -91z" />
    <glyph glyph-name="quotesingle" unicode="'" horiz-adv-x="252" 
d="M248 476h-105v224h105v-224z" />
    <glyph glyph-name="parenleft" unicode="(" horiz-adv-x="293" 
d="M159 577c16 80 53 123 149 123h46l-20 -92h-24c-40 0 -53 -16 -61 -53c-104 -492 -119 -556 -119 -571c0 -24 13 -36 38 -36h27l-20 -92h-16c-62 0 -123 37 -123 116c0 26 7 76 123 605z" />
    <glyph glyph-name="parenright" unicode=")" horiz-adv-x="293" 
d="M143 -21c-16 -80 -53 -123 -149 -123h-46l20 92h24c40 0 53 16 61 53c104 492 119 556 119 571c0 24 -13 36 -38 36h-27l20 92h16c61 0 123 -37 123 -116c0 -26 -7 -76 -123 -605z" />
    <glyph glyph-name="asterisk" unicode="*" horiz-adv-x="505" 
d="M154 614l110 -38l26 124h91l-26 -124l126 38l11 -90l-126 -37l50 -98l-75 -48l-50 96l-91 -96l-67 58l91 97l-113 38z" />
    <glyph glyph-name="plus" unicode="+" 
d="M330 495v-169h169v-91h-169v-170h-91v170h-170v91h170v169h91z" />
    <glyph glyph-name="comma" unicode="," horiz-adv-x="292" 
d="M24 0l29 134h134l-29 -134l-61 -104h-79l61 104h-55z" />
    <glyph glyph-name="hyphen" unicode="-" horiz-adv-x="388" 
d="M64 326h290l-19 -91h-290z" />
    <glyph glyph-name="period" unicode="." horiz-adv-x="292" 
d="M24 0l29 134h134l-29 -134h-134z" />
    <glyph glyph-name="slash" unicode="/" horiz-adv-x="365" 
d="M-11 0l283 700h104l-283 -700h-104z" />
    <glyph glyph-name="zero" unicode="0" horiz-adv-x="542" 
d="M214 504c-12 -53 -66 -305 -66 -329c0 -60 50 -86 98 -86c68 0 105 47 120 107c12 53 66 305 66 329c0 60 -50 86 -98 86c-68 0 -105 -47 -120 -107zM472 199c-27 -128 -85 -209 -240 -209c-115 0 -187 73 -187 180c0 19 12 86 27 155s31 143 36 176
c27 128 85 209 240 209c115 0 187 -73 187 -180c0 -38 -50 -265 -63 -331z" />
    <glyph glyph-name="one" unicode="1" horiz-adv-x="359" 
d="M269 700h105l-149 -700h-105l119 559l-158 -115l29 141z" />
    <glyph glyph-name="two" unicode="2" horiz-adv-x="519" 
d="M198 485h-105c19 143 91 225 243 225c115 0 187 -73 187 -180c0 -93 -44 -160 -131 -235l-229 -197h273l-22 -98h-429l22 98l305 263c69 60 108 101 108 164c0 60 -50 86 -98 86c-80 0 -113 -65 -124 -126z" />
    <glyph glyph-name="three" unicode="3" horiz-adv-x="516" 
d="M29 200h103c-3 -8 -3 -22 -3 -25c0 -60 53 -86 101 -86c75 0 119 50 119 125c0 53 -38 89 -93 89h-58l21 94h58c83 0 136 60 136 128c0 60 -50 86 -98 86c-64 0 -110 -44 -121 -111h-105c24 128 86 210 240 210c115 0 187 -73 187 -180c0 -76 -48 -161 -115 -193
c31 -24 53 -70 53 -118c0 -88 -45 -229 -238 -229c-115 0 -190 73 -190 180c0 7 0 21 3 30z" />
    <glyph glyph-name="four" unicode="4" horiz-adv-x="519" 
d="M479 174h-73l-37 -174h-105l37 174h-310l20 95l402 431h105l-92 -431h73zM150 269h171l51 238z" />
    <glyph glyph-name="five" unicode="5" horiz-adv-x="526" 
d="M243 601l-38 -181c16 15 53 31 97 31c107 0 182 -73 182 -180c0 -23 -1 -32 -9 -72c-27 -128 -85 -209 -240 -209c-115 0 -187 73 -187 180c0 7 0 19 3 30h103c-2 -13 -3 -22 -3 -25c0 -60 50 -86 98 -86c68 0 105 47 120 107c8 35 12 54 12 70c0 60 -50 86 -98 86
c-51 0 -87 -25 -104 -64h-107l88 412h394l-22 -99h-289z" />
    <glyph glyph-name="six" unicode="6" horiz-adv-x="532" 
d="M193 408c20 19 59 36 104 36c109 0 182 -73 182 -180c0 -9 0 -32 -7 -65c-24 -129 -85 -209 -240 -209c-115 0 -187 73 -187 180c0 19 12 86 27 155s31 143 36 176c27 128 85 209 240 209c115 0 187 -73 187 -180c0 -6 -1 -16 -3 -30h-103c2 13 3 21 3 25
c0 60 -50 86 -98 86c-68 0 -105 -47 -120 -107c-4 -16 -12 -52 -21 -96zM278 345c-68 0 -105 -47 -120 -107c-8 -33 -10 -52 -10 -63c0 -60 50 -86 98 -86c68 0 105 47 120 107c8 33 10 52 10 63c0 60 -50 86 -98 86z" />
    <glyph glyph-name="seven" unicode="7" horiz-adv-x="454" 
d="M506 601l-343 -601h-119l343 601h-305l22 99h424z" />
    <glyph glyph-name="eight" unicode="8" horiz-adv-x="532" 
d="M469 213c0 -145 -94 -223 -235 -223c-124 0 -199 78 -199 185c0 97 40 163 112 198c-28 32 -42 72 -42 120c0 72 38 217 229 217c115 0 196 -74 196 -185c0 -53 -20 -144 -105 -189c28 -32 44 -75 44 -123zM138 192c0 -55 34 -103 111 -103c63 0 117 50 117 116
c0 53 -34 103 -111 103c-63 0 -117 -50 -117 -116zM427 509c0 69 -47 102 -107 102c-64 0 -112 -51 -112 -112c0 -69 47 -102 107 -102c64 0 112 51 112 112z" />
    <glyph glyph-name="nine" unicode="9" horiz-adv-x="532" 
d="M377 292c-20 -19 -59 -36 -104 -36c-109 0 -182 73 -182 180c0 9 0 32 7 65c24 129 85 209 240 209c115 0 187 -73 187 -180c0 -38 -50 -265 -63 -331c-27 -128 -85 -209 -240 -209c-115 0 -187 73 -187 180c0 6 1 16 3 30h103c-2 -13 -3 -22 -3 -25c0 -60 50 -86 98 -86
c68 0 105 47 120 107c4 16 12 52 21 96zM292 355c68 0 105 47 120 107c8 33 10 52 10 63c0 60 -50 86 -98 86c-68 0 -105 -47 -120 -107c-8 -33 -10 -52 -10 -63c0 -60 50 -86 98 -86z" />
    <glyph glyph-name="colon" unicode=":" horiz-adv-x="292" 
d="M105 382l29 134h134l-29 -134h-134zM24 0l29 134h134l-29 -134h-134z" />
    <glyph glyph-name="semicolon" unicode=";" horiz-adv-x="292" 
d="M106 382l29 134h134l-29 -134h-134zM24 0l29 134h134l-29 -134l-61 -104h-79l61 104h-55z" />
    <glyph glyph-name="less" unicode="&#x3c;" 
d="M167 259l332 -162v-102l-430 210v108l430 210v-102z" />
    <glyph glyph-name="equal" unicode="=" 
d="M499 340h-430v91h430v-91zM69 210h430v-91h-430v91z" />
    <glyph glyph-name="greater" unicode="&#x3e;" 
d="M69 97l332 162l-332 162v102l430 -210v-108l-430 -210v102z" />
    <glyph glyph-name="question" unicode="?" horiz-adv-x="516" 
d="M193 500h-105c24 128 86 210 240 210c115 0 187 -73 187 -180c0 -76 -33 -137 -108 -194l-55 -42c-29 -23 -60 -49 -64 -72l-2 -12h-105l4 22c11 46 23 77 93 131l55 42c31 23 79 64 79 120c0 60 -50 86 -98 86c-68 0 -108 -47 -121 -111zM122 0l29 134h134l-29 -134
h-134z" />
    <glyph glyph-name="at" unicode="@" horiz-adv-x="916" 
d="M567 328c-5 68 -48 101 -109 101c-52 0 -90 -24 -105 -73h-107c19 137 129 174 212 174c90 0 215 -43 215 -214v-187c0 -31 19 -45 42 -45s42 14 42 45v189c0 238 -174 298 -299 298c-126 0 -299 -60 -299 -298v-120c0 -238 173 -298 299 -298c61 0 131 14 190 55l50 -83
c-75 -49 -164 -66 -240 -66c-166 0 -394 82 -394 395v114c0 313 228 395 394 395s394 -82 394 -395v-189c0 -79 -42 -136 -135 -136c-73 0 -121 24 -149 59c-33 -40 -86 -59 -154 -59c-93 0 -176 46 -176 153c0 58 27 128 112 155c63 19 129 23 217 30zM431 91
c60 0 137 19 137 115v29c-92 -7 -161 -12 -200 -35c-13 -8 -25 -21 -25 -48c0 -43 32 -61 88 -61z" />
    <glyph glyph-name="A" unicode="A" horiz-adv-x="615" 
d="M449 0l-23 170h-261l-95 -170h-117l393 700h110l96 -700h-103zM219 266h194l-38 278z" />
    <glyph glyph-name="B" unicode="B" horiz-adv-x="616" 
d="M19 0l148 700h260c109 0 187 -67 187 -179c0 -83 -34 -141 -102 -175c35 -28 56 -68 56 -119c0 -128 -77 -227 -260 -227h-289zM404 597h-152l-41 -192h170c66 0 129 48 129 108s-34 84 -106 84zM369 302h-180l-42 -199h180c73 0 137 41 137 118c0 47 -34 81 -95 81z" />
    <glyph glyph-name="C" unicode="C" horiz-adv-x="596" 
d="M599 483h-103v9c0 79 -58 115 -131 115c-69 0 -138 -39 -160 -139c-45 -204 -54 -236 -54 -260c0 -79 58 -115 131 -115c64 0 132 36 156 124h108c-39 -159 -129 -227 -277 -227c-125 0 -222 81 -222 202c0 51 11 97 51 276c36 168 127 242 280 242
c125 0 222 -81 222 -202c0 -8 0 -12 -1 -25z" />
    <glyph glyph-name="D" unicode="D" horiz-adv-x="628" 
d="M147 103h157c68 0 139 39 160 139c43 203 50 218 50 240c0 79 -58 115 -131 115h-131zM291 0h-272l148 700h229c125 0 222 -81 222 -202c0 -51 -7 -78 -47 -256c-36 -168 -127 -242 -280 -242z" />
    <glyph glyph-name="E" unicode="E" horiz-adv-x="544" 
d="M252 597l-41 -192h306l-22 -103h-306l-42 -199h306l-22 -103h-412l148 700h412l-22 -103h-305z" />
    <glyph glyph-name="F" unicode="F" horiz-adv-x="534" 
d="M252 597l-41 -192h306l-22 -103h-306l-64 -302h-106l148 700h412l-22 -103h-305z" />
    <glyph glyph-name="G" unicode="G" horiz-adv-x="603" 
d="M599 486h-103v6c0 79 -58 115 -131 115c-69 0 -138 -39 -160 -139c-45 -204 -54 -236 -54 -260c0 -79 58 -115 131 -115c69 0 139 39 160 139l11 52h-144l22 100h251l-33 -152c-36 -168 -127 -242 -280 -242c-125 0 -222 81 -222 202c0 51 11 97 51 276
c36 168 127 242 280 242c125 0 222 -81 222 -202c0 -7 0 -13 -1 -22z" />
    <glyph glyph-name="H" unicode="H" horiz-adv-x="649" 
d="M499 405l62 295h107l-148 -700h-107l64 302h-288l-63 -302h-107l148 700h107l-63 -295h288z" />
    <glyph glyph-name="I" unicode="I" horiz-adv-x="255" 
d="M274 700l-148 -700h-107l148 700h107z" />
    <glyph glyph-name="J" unicode="J" horiz-adv-x="475" 
d="M-3 200h104c-2 -10 -3 -18 -3 -25c0 -47 29 -82 90 -82c64 0 86 28 101 99l108 508h107l-108 -508c-32 -143 -83 -202 -216 -202c-88 0 -186 55 -186 172c0 12 1 25 3 38z" />
    <glyph glyph-name="K" unicode="K" horiz-adv-x="630" 
d="M168 203l-43 -203h-106l148 700h107l-70 -327l347 327h146l-306 -288l184 -412h-116l-150 336z" />
    <glyph glyph-name="L" unicode="L" horiz-adv-x="496" 
d="M19 0l148 700h107l-126 -597h306l-23 -103h-412z" />
    <glyph glyph-name="M" unicode="M" horiz-adv-x="735" 
d="M374 313l274 387h107l-149 -700h-106l101 476l-204 -288h-85l-81 316l-107 -504h-105l148 700h107z" />
    <glyph glyph-name="N" unicode="N" horiz-adv-x="649" 
d="M669 700l-149 -700h-107l-178 515l-110 -515h-106l148 700h107l178 -514l110 514h107z" />
    <glyph glyph-name="O" unicode="O" horiz-adv-x="608" 
d="M205 468c-45 -204 -54 -236 -54 -260c0 -79 58 -115 131 -115c68 0 139 39 160 139c43 203 54 237 54 260c0 79 -58 115 -131 115c-69 0 -138 -39 -160 -139zM549 232c-36 -168 -127 -242 -280 -242c-125 0 -222 81 -222 202c0 51 11 97 51 276c36 168 127 242 280 242
c125 0 222 -81 222 -202c0 -51 -11 -97 -51 -276z" />
    <glyph glyph-name="P" unicode="P" horiz-adv-x="599" 
d="M406 599h-153l-54 -252h165c89 0 157 48 157 139c0 53 -34 113 -115 113zM177 244l-52 -244h-106l148 700h260c120 0 198 -96 198 -200c0 -169 -95 -256 -283 -256h-165z" />
    <glyph glyph-name="Q" unicode="Q" horiz-adv-x="619" 
d="M549 232c-14 -65 -37 -117 -70 -156l44 -57l-79 -64l-46 60c-39 -17 -82 -25 -129 -25c-125 0 -222 81 -222 202c0 51 11 97 51 276c36 168 127 242 280 242c125 0 222 -81 222 -202c0 -51 -11 -97 -51 -276zM205 468c-45 -204 -54 -236 -54 -260c0 -79 58 -115 131 -115
c17 0 35 2 51 7l-51 68l79 64l53 -70c12 19 21 42 28 70c43 203 54 237 54 260c0 79 -58 115 -131 115c-69 0 -138 -39 -160 -139z" />
    <glyph glyph-name="R" unicode="R" horiz-adv-x="609" 
d="M308 302h-118l-64 -302h-107l148 700h265c127 0 187 -83 187 -183c0 -120 -83 -196 -202 -212l114 -305h-110zM515 509c0 55 -23 88 -106 88h-157l-41 -195h168c84 0 136 53 136 107z" />
    <glyph glyph-name="S" unicode="S" horiz-adv-x="555" 
d="M256 -10c-141 0 -240 84 -240 200c0 9 1 18 2 27h102v-12c0 -72 59 -112 146 -112c72 0 134 29 134 98c0 49 -19 77 -86 100l-102 34c-75 24 -124 90 -124 170c0 139 83 215 244 215c136 0 214 -99 214 -189c0 -5 0 -7 -1 -15h-103v8c0 55 -51 93 -118 93
c-66 0 -132 -27 -132 -94c0 -56 26 -80 78 -97l102 -34c85 -28 132 -94 132 -174c0 -141 -83 -218 -248 -218z" />
    <glyph glyph-name="T" unicode="T" horiz-adv-x="517" 
d="M582 597h-198l-126 -597h-107l126 597h-196l22 103h501z" />
    <glyph glyph-name="U" unicode="U" horiz-adv-x="630" 
d="M161 208c0 -79 58 -115 131 -115c69 0 139 39 160 139l100 468h107l-100 -468c-35 -168 -127 -242 -280 -242c-125 0 -222 81 -222 202c0 66 61 329 101 508h107c-43 -204 -104 -463 -104 -492z" />
    <glyph glyph-name="V" unicode="V" horiz-adv-x="616" 
d="M702 700l-394 -700h-110l-96 700h105l73 -541l303 541h119z" />
    <glyph glyph-name="W" unicode="W" horiz-adv-x="743" 
d="M438 0l-20 445l-222 -445h-101l20 700h103l-14 -481l191 381h100l17 -388l193 488h112l-278 -700h-101z" />
    <glyph glyph-name="X" unicode="X" horiz-adv-x="611" 
d="M423 0l-111 274l-224 -274h-132l300 364l-137 336h110l104 -257l210 257h134l-288 -348l144 -352h-110z" />
    <glyph glyph-name="Y" unicode="Y" horiz-adv-x="594" 
d="M691 700l-339 -433l-57 -267h-107l57 267l-154 433h107l113 -322l252 322h128z" />
    <glyph glyph-name="Z" unicode="Z" horiz-adv-x="585" 
d="M491 0h-506l22 103l466 494h-357l22 103h497l-22 -103l-466 -494h366z" />
    <glyph glyph-name="bracketleft" unicode="[" horiz-adv-x="292" 
d="M5 -144l179 844h169l-20 -92h-74l-139 -660h74l-20 -92h-169z" />
    <glyph glyph-name="backslash" unicode="\" horiz-adv-x="444" 
d="M152 700l283 -700h-104l-283 700h104z" />
    <glyph glyph-name="bracketright" unicode="]" horiz-adv-x="292" 
d="M296 700l-179 -844h-168l20 92h73l139 660h-74l20 92h169z" />
    <glyph glyph-name="asciicircum" unicode="^" horiz-adv-x="624" 
d="M483 300l-146 288l-146 -288h-107l203 400h100l203 -400h-107z" />
    <glyph glyph-name="underscore" unicode="_" horiz-adv-x="418" 
d="M-73 -47h430l-19 -91h-429z" />
    <glyph glyph-name="grave" unicode="`" horiz-adv-x="309" 
d="M145 700h130l40 -129h-79z" />
    <glyph glyph-name="a" unicode="a" horiz-adv-x="545" 
d="M181 356h-107c32 112 95 174 234 174c103 0 188 -60 188 -168c0 -55 -13 -106 -28 -170l-41 -192h-105l13 59c-24 -36 -77 -69 -145 -69c-108 0 -171 60 -171 147c0 85 35 134 140 163c67 17 144 21 232 24c3 9 3 20 3 23c0 51 -35 84 -99 84c-55 0 -95 -30 -114 -75z
M204 89c60 0 141 21 162 117l5 25c-93 -5 -141 -7 -189 -20c-36 -11 -61 -27 -61 -63c0 -41 34 -59 83 -59z" />
    <glyph glyph-name="b" unicode="b" horiz-adv-x="554" 
d="M189 331c-8 -38 -32 -140 -32 -158c0 -51 35 -84 99 -84s107 40 122 100c8 38 32 140 32 158c0 51 -35 84 -99 84s-107 -40 -122 -100zM263 -10c-78 0 -114 41 -130 77l-14 -67h-105l149 700h105l-50 -233c21 35 70 63 126 63c77 0 168 -60 168 -168
c0 -55 -13 -106 -28 -170c-29 -133 -102 -202 -221 -202z" />
    <glyph glyph-name="c" unicode="c" horiz-adv-x="529" 
d="M499 362v-18h-102v4c0 51 -35 83 -99 83s-107 -40 -122 -100c-8 -38 -32 -140 -32 -158c0 -51 35 -84 99 -84c59 0 101 35 118 87h106c-30 -121 -94 -186 -237 -186c-103 0 -188 60 -188 168c0 55 13 106 28 170c27 132 93 202 241 202c103 0 188 -60 188 -168z" />
    <glyph glyph-name="d" unicode="d" horiz-adv-x="553" 
d="M365 189c8 38 32 140 32 158c0 51 -35 84 -99 84s-107 -40 -122 -100c-8 -38 -32 -140 -32 -158c0 -51 35 -84 99 -84s107 40 122 100zM291 530c77 0 114 -41 130 -77l52 247h105l-149 -700h-105l12 53c-21 -35 -70 -63 -126 -63c-77 0 -168 60 -168 168
c0 55 13 106 28 170c29 133 102 202 221 202z" />
    <glyph glyph-name="e" unicode="e" horiz-adv-x="539" 
d="M357 164h107c-31 -113 -97 -174 -234 -174c-103 0 -188 60 -188 168c0 55 13 106 28 170c27 132 93 202 241 202c103 0 188 -60 188 -168c0 -45 -9 -87 -21 -138h-326c-5 -25 -8 -42 -8 -51c0 -51 35 -84 99 -84c55 0 95 30 114 75zM172 315h220c3 17 5 27 5 32
c0 51 -35 84 -99 84c-75 0 -118 -55 -126 -116z" />
    <glyph glyph-name="f" unicode="f" horiz-adv-x="335" 
d="M399 601h-79c-40 0 -50 -12 -58 -51l-7 -34h127l-21 -97h-127l-89 -419h-105l89 419h-73l21 97h73l12 57c17 81 57 127 156 127h103z" />
    <glyph glyph-name="g" unicode="g" horiz-adv-x="551" 
d="M101 -10v-4c0 -47 35 -81 99 -81s111 40 124 100l17 78c-21 -35 -70 -63 -126 -63c-77 0 -168 60 -168 168c0 54 8 76 21 140c29 133 102 202 221 202c77 0 114 -41 130 -77l13 63h105l-109 -508c-30 -132 -92 -202 -241 -202c-103 0 -188 60 -188 168v16h102zM370 219
c8 40 25 108 25 128c0 51 -35 84 -99 84s-107 -40 -122 -100c-8 -40 -25 -108 -25 -128c0 -51 35 -84 99 -84s107 40 122 100z" />
    <glyph glyph-name="h" unicode="h" horiz-adv-x="562" 
d="M340 530c92 0 173 -63 173 -168c0 -55 -13 -106 -28 -170l-41 -192h-105l40 189c8 38 32 140 32 158c0 51 -35 84 -99 84s-109 -40 -122 -100l-71 -331h-105l149 700h105l-50 -233c20 32 66 63 122 63z" />
    <glyph glyph-name="i" unicode="i" horiz-adv-x="243" 
d="M268 700l-23 -107h-105l23 107h105zM229 516l-110 -516h-105l110 516h105z" />
    <glyph glyph-name="j" unicode="j" horiz-adv-x="243" 
d="M268 700l-23 -107h-105l23 107h105zM229 516l-122 -573c-17 -81 -57 -127 -156 -127h-39l22 99h15c40 0 50 12 58 51l117 550h105z" />
    <glyph glyph-name="k" unicode="k" horiz-adv-x="526" 
d="M268 700l-81 -380l222 196h140l-229 -202l147 -314h-112l-114 244l-86 -76l-36 -168h-105l149 700h105z" />
    <glyph glyph-name="l" unicode="l" horiz-adv-x="272" 
d="M161 700h105c-116 -539 -120 -562 -120 -570c0 -21 14 -31 41 -31h16l-22 -99h-15c-88 0 -124 59 -124 107c0 47 15 105 119 593z" />
    <glyph glyph-name="m" unicode="m" horiz-adv-x="867" 
d="M329 0l40 189c8 38 32 140 32 158c0 49 -37 84 -93 84c-60 0 -106 -43 -118 -100l-71 -331h-105l110 516h105l-11 -49c19 35 71 63 119 63c56 0 104 -26 129 -66c40 48 116 66 166 66c109 0 186 -63 186 -168c0 -55 -13 -106 -28 -170l-41 -192h-105l40 189
c8 38 32 140 32 158c0 49 -37 84 -93 84c-60 0 -106 -43 -118 -100l-71 -331h-105z" />
    <glyph glyph-name="n" unicode="n" horiz-adv-x="562" 
d="M340 530c92 0 173 -63 173 -168c0 -55 -13 -106 -28 -170l-41 -192h-105l40 189c8 38 32 140 32 158c0 51 -35 84 -99 84s-109 -40 -122 -100l-71 -331h-105l110 516h105l-11 -49c20 32 66 63 122 63z" />
    <glyph glyph-name="o" unicode="o" horiz-adv-x="541" 
d="M176 331c-8 -38 -32 -140 -32 -158c0 -51 35 -84 99 -84s107 40 122 100c8 38 32 140 32 158c0 51 -35 84 -99 84s-107 -40 -122 -100zM471 192c-30 -132 -92 -202 -241 -202c-103 0 -188 60 -188 168c0 55 13 106 28 170c27 132 93 202 241 202c103 0 188 -60 188 -168
c0 -55 -13 -106 -28 -170z" />
    <glyph glyph-name="p" unicode="p" horiz-adv-x="554" 
d="M189 331c-8 -38 -32 -140 -32 -158c0 -51 35 -84 99 -84s107 40 122 100c8 38 32 140 32 158c0 51 -35 84 -99 84s-107 -40 -122 -100zM263 -10c-78 0 -114 41 -130 77l-53 -251h-105l149 700h105l-11 -49c21 35 70 63 126 63c77 0 168 -60 168 -168
c0 -55 -13 -106 -28 -170c-29 -133 -102 -202 -221 -202z" />
    <glyph glyph-name="q" unicode="q" horiz-adv-x="553" 
d="M365 189c8 38 32 140 32 158c0 51 -35 84 -99 84s-107 -40 -122 -100c-8 -38 -32 -140 -32 -158c0 -51 35 -84 99 -84s107 40 122 100zM291 530c77 0 114 -41 130 -77l13 63h105l-150 -700h-105l52 237c-21 -35 -70 -63 -126 -63c-77 0 -168 60 -168 168
c0 55 13 106 28 170c29 133 102 202 221 202z" />
    <glyph glyph-name="r" unicode="r" horiz-adv-x="345" 
d="M369 423h-59c-64 0 -108 -37 -121 -97l-70 -326h-105l110 516h105l-12 -54c20 32 66 63 122 63h52z" />
    <glyph glyph-name="s" unicode="s" horiz-adv-x="482" 
d="M221 -10c-118 0 -207 60 -207 158v17h102v-4c0 -48 58 -72 113 -72c46 0 94 16 94 56c0 28 -17 43 -53 54l-100 31c-56 17 -103 58 -103 134c0 108 73 166 200 166c116 0 187 -69 187 -155v-10h-104v4c0 41 -44 62 -92 62c-49 0 -87 -19 -87 -54c0 -31 13 -43 44 -52
l100 -31c71 -23 112 -66 112 -130c0 -116 -83 -174 -206 -174z" />
    <glyph glyph-name="t" unicode="t" horiz-adv-x="359" 
d="M359 419h-127c-56 -267 -59 -281 -59 -289c0 -21 14 -31 41 -31h78l-22 -99h-77c-88 0 -124 59 -124 107c0 35 7 80 58 312h-73l21 97h73l25 117h105l-25 -117h127z" />
    <glyph glyph-name="u" unicode="u" horiz-adv-x="557" 
d="M213 -10c-77 0 -163 62 -163 168c0 55 13 106 28 170l40 188h105l-39 -185c-8 -38 -32 -139 -32 -158c0 -52 40 -84 92 -84c68 0 111 41 124 100l70 327h105l-110 -516h-105l12 53c-16 -32 -68 -63 -127 -63z" />
    <glyph glyph-name="v" unicode="v" horiz-adv-x="476" 
d="M207 146l208 370h116l-295 -516h-104l-77 516h102z" />
    <glyph glyph-name="w" unicode="w" horiz-adv-x="688" 
d="M451 516l13 -353l159 353h113l-245 -516h-105l-14 377l-173 -377h-110l-27 516h103l12 -355l163 355h111z" />
    <glyph glyph-name="x" unicode="x" horiz-adv-x="492" 
d="M314 0l-77 175l-151 -175h-129l230 265l-114 251h107l74 -169l149 169h128l-226 -257l116 -259h-107z" />
    <glyph glyph-name="y" unicode="y" horiz-adv-x="476" 
d="M129 19l-74 497h104l50 -362l204 362h118l-360 -628c-24 -43 -65 -72 -132 -72h-54l22 99h21c47 0 55 22 79 66z" />
    <glyph glyph-name="z" unicode="z" horiz-adv-x="450" 
d="M444 419l-304 -322h244l-21 -97h-384l21 97l304 322h-231l21 97h371z" />
    <glyph glyph-name="braceleft" unicode="{" horiz-adv-x="324" 
d="M109 202c0 19 -9 29 -34 29h-32l19 94h32c33 0 46 16 53 51l43 201c16 80 53 123 149 123h46l-20 -92h-24c-40 0 -53 -16 -61 -53l-42 -201c-7 -31 -19 -61 -48 -76c15 -9 20 -26 20 -38c0 -27 -49 -234 -49 -256c0 -24 13 -36 38 -36h27l-20 -92h-16
c-62 0 -123 37 -123 116c0 40 42 209 42 230z" />
    <glyph glyph-name="bar" unicode="|" horiz-adv-x="243" 
d="M169 700v-800h-95v800h95z" />
    <glyph glyph-name="braceright" unicode="}" horiz-adv-x="324" 
d="M224 354c0 -19 9 -29 34 -29h32l-19 -94h-32c-33 0 -46 -16 -53 -51l-43 -201c-16 -80 -53 -123 -149 -123h-46l20 92h24c40 0 53 16 61 53l42 201c7 31 19 61 48 76c-15 9 -20 26 -20 38c0 27 49 234 49 256c0 24 -13 36 -38 36h-27l20 92h16c61 0 123 -37 123 -116
c0 -40 -42 -211 -42 -230z" />
    <glyph glyph-name="asciitilde" unicode="~" horiz-adv-x="537" 
d="M117 212l-58 64c51 52 93 73 137 73c61 0 112 -46 152 -46c28 0 48 10 83 46l58 -64c-51 -52 -93 -73 -137 -73c-61 0 -112 46 -152 46c-28 0 -48 -10 -83 -46z" />
    <glyph glyph-name="uni00A0" unicode="&#xa0;" horiz-adv-x="219" 
 />
    <glyph glyph-name="exclamdown" unicode="&#xa1;" horiz-adv-x="262" 
d="M-15 -184l104 490h105l-104 -490h-105zM253 516l-29 -134h-134l29 134h134z" />
    <glyph glyph-name="cent" unicode="&#xa2;" horiz-adv-x="539" 
d="M505 362v-18h-102v4c0 41 -25 72 -70 80l-72 -339c52 5 90 38 106 87h106c-29 -119 -94 -186 -233 -186l-19 -90h-43l20 93c-85 13 -150 70 -150 165c0 55 13 106 28 170c27 129 89 199 236 202l19 90h43l-20 -93c85 -13 151 -71 151 -165zM150 173c0 -43 25 -72 69 -81
l72 338c-56 -5 -96 -43 -109 -99c-8 -38 -32 -140 -32 -158z" />
    <glyph glyph-name="sterling" unicode="&#xa3;" horiz-adv-x="602" 
d="M597 494h-103c3 16 4 26 4 31c0 60 -50 86 -98 86c-68 0 -107 -47 -120 -107l-25 -120h220l-14 -66h-220l-38 -179c-5 -23 -9 -29 -17 -40h334l-22 -99h-493l21 99h24c35 1 43 16 50 51l35 168h-63l14 66h63l25 117c27 128 85 209 240 209c115 0 187 -73 187 -180
c0 -9 -1 -21 -4 -36z" />
    <glyph glyph-name="currency" unicode="&#xa4;" horiz-adv-x="713" 
d="M75 89l85 85c-36 47 -57 102 -57 166c0 63 21 119 57 166l-85 85l46 47l85 -86c47 36 103 58 167 58c63 0 119 -21 166 -57l85 85l46 -47l-85 -85c36 -47 58 -102 58 -166s-22 -120 -58 -167l85 -84l-46 -47l-85 85c-47 -36 -103 -57 -166 -57c-64 0 -120 21 -167 57
l-85 -85zM204 340c0 -92 77 -169 169 -169s169 77 169 169s-77 169 -169 169s-169 -77 -169 -169z" />
    <glyph glyph-name="yen" unicode="&#xa5;" horiz-adv-x="636" 
d="M334 376l253 324h125l-288 -367h124l-14 -66h-162l-15 -67h163l-14 -66h-163l-28 -134h-105l28 134h-161l14 66h161l15 67h-162l14 66h124l-131 367h107z" />
    <glyph glyph-name="brokenbar" unicode="&#xa6;" horiz-adv-x="243" 
d="M74 -100v339h95v-339h-95zM74 361v339h95v-339h-95z" />
    <glyph glyph-name="section" unicode="&#xa7;" horiz-adv-x="538" 
d="M20 -19h96v-9c0 -48 40 -73 95 -73c45 0 91 27 91 83c0 32 -13 60 -44 72l-93 37c-72 28 -112 74 -112 154c0 95 47 149 119 178c-19 28 -32 65 -32 104c0 115 69 183 201 183c107 0 178 -68 181 -149c0 -7 0 -9 -1 -17h-97c0 48 -40 73 -95 73c-45 0 -91 -27 -91 -83
c0 -32 13 -60 44 -72l93 -37c72 -28 112 -74 112 -154c0 -95 -47 -150 -120 -178c20 -29 33 -65 33 -104c0 -115 -69 -183 -201 -183c-107 0 -178 68 -181 149c0 7 -1 18 2 26zM335 332l-58 22c-60 -3 -125 -28 -125 -101c0 -31 18 -54 53 -69l57 -23c59 3 126 30 126 102
c0 31 -18 54 -53 69z" />
    <glyph glyph-name="dieresis" unicode="&#xa8;" horiz-adv-x="420" 
d="M257 689l-23 -107h-105l23 107h105zM450 689l-23 -107h-105l23 107h105z" />
    <glyph glyph-name="copyright" unicode="&#xa9;" horiz-adv-x="798" 
d="M58 350c0 200 160 360 360 360s360 -160 360 -360s-160 -360 -360 -360s-360 160 -360 360zM153 350c0 -147 117 -266 265 -266s265 119 265 266s-117 266 -265 266s-265 -119 -265 -266zM418 153c-100 0 -150 59 -150 147v100c0 87 50 147 150 147
c99 0 148 -57 151 -141h-86c-3 33 -26 56 -65 56c-41 0 -65 -25 -65 -62v-100c0 -37 24 -63 65 -63c39 0 62 21 65 56h86c-3 -84 -52 -140 -151 -140z" />
    <glyph glyph-name="ordfeminine" unicode="&#xaa;" horiz-adv-x="331" 
d="M198 465c43 0 67 30 74 58l1 5c-38 -3 -88 -4 -99 -12c-12 -7 -15 -14 -15 -26c0 -7 4 -25 39 -25zM177 395c-59 0 -99 41 -99 86c0 47 27 80 58 92c45 17 91 20 151 23c0 8 -7 40 -49 40c-23 0 -40 -10 -51 -30h-85c23 68 61 102 141 102c79 0 125 -50 125 -121
c0 -9 -7 -46 -10 -59l-27 -127h-86l7 29c-17 -24 -39 -35 -75 -35z" />
    <glyph glyph-name="guillemotleft" unicode="&#xab;" horiz-adv-x="486" 
d="M179 75l-139 151l19 94l205 151l-29 -135l-100 -74l68 -74zM383 75l-139 151l19 94l205 151l-29 -135l-100 -74l68 -74z" />
    <glyph glyph-name="logicalnot" unicode="&#xac;" 
d="M69 326h430v-261h-91v170h-339v91z" />
    <glyph glyph-name="uni00AD" unicode="&#xad;" horiz-adv-x="388" 
d="M64 326h290l-19 -91h-290z" />
    <glyph glyph-name="registered" unicode="&#xae;" horiz-adv-x="798" 
d="M58 350c0 200 160 360 360 360s360 -160 360 -360s-160 -360 -360 -360s-360 160 -360 360zM153 350c0 -147 117 -266 265 -266s265 119 265 266s-117 266 -265 266s-265 -119 -265 -266zM586 158h-99l-89 152h-33v-152h-85v383h170c80 0 124 -43 124 -115
c0 -57 -29 -96 -80 -111zM365 457v-64h88c24 0 36 10 36 31c0 22 -12 33 -36 33h-88z" />
    <glyph glyph-name="overscore" unicode="&#xaf;" horiz-adv-x="438" 
d="M147 678h322l-19 -85h-322z" />
    <glyph glyph-name="degree" unicode="&#xb0;" horiz-adv-x="402" 
d="M101 549c0 85 71 156 156 156s156 -71 156 -156s-71 -156 -156 -156s-156 71 -156 156zM183 549c0 -41 33 -75 74 -75s74 34 74 75s-33 75 -74 75s-74 -34 -74 -75z" />
    <glyph glyph-name="plusminus" unicode="&#xb1;" 
d="M239 294h-170v91h170v131h91v-131h169v-91h-169v-131h-91v131zM69 91h430v-91h-430v91z" />
    <glyph glyph-name="twosuperior" unicode="&#xb2;" horiz-adv-x="317" 
d="M48 401l15 73l189 150c23 19 48 45 48 77c0 17 -7 39 -48 39s-58 -30 -62 -62h-84c20 88 58 135 150 135c74 0 126 -48 126 -107c0 -64 -34 -112 -82 -149l-106 -83h144l-14 -73h-276z" />
    <glyph glyph-name="threesuperior" unicode="&#xb3;" horiz-adv-x="323" 
d="M202 395c-80 0 -125 47 -125 107c0 4 1 12 1 15h82c0 -3 -1 -7 -1 -10c0 -17 6 -39 47 -39c37 0 62 35 62 58s-16 40 -47 40h-34l16 74h33c39 0 68 22 68 61c0 17 -7 39 -48 39c-32 0 -52 -16 -60 -49h-84c23 83 63 122 148 122c74 0 126 -48 126 -107
c0 -57 -29 -94 -70 -110c19 -15 28 -39 28 -66c0 -101 -68 -135 -142 -135z" />
    <glyph glyph-name="acute" unicode="&#xb4;" horiz-adv-x="309" 
d="M207 700h135l-118 -129h-84z" />
    <glyph glyph-name="mu" unicode="&#xb5;" horiz-adv-x="562" 
d="M234 -10c-51 0 -90 26 -103 67l-51 -241h-104l148 700h105l-40 -185c-8 -38 -32 -139 -32 -158c0 -52 40 -84 92 -84c68 0 111 41 124 100l70 327h105l-110 -516h-105l12 53c-16 -31 -51 -63 -111 -63z" />
    <glyph glyph-name="mu" unicode="&#x3bc;" horiz-adv-x="562" 
d="M234 -10c-51 0 -90 26 -103 67l-51 -241h-104l148 700h105l-40 -185c-8 -38 -32 -139 -32 -158c0 -52 40 -84 92 -84c68 0 111 41 124 100l70 327h105l-110 -516h-105l12 53c-16 -31 -51 -63 -111 -63z" />
    <glyph glyph-name="paragraph" unicode="&#xb6;" horiz-adv-x="615" 
d="M245 300h-10c-95 0 -161 83 -161 176c0 131 100 224 246 224h310l-167 -787h-95l147 693h-110l-147 -693h-95z" />
    <glyph glyph-name="middot" unicode="&#xb7;" horiz-adv-x="302" 
d="M77 223l29 134h134l-29 -134h-134z" />
    <glyph glyph-name="cedilla" unicode="&#xb8;" horiz-adv-x="271" 
d="M-36 -158l65 158h86l-38 -158h-113z" />
    <glyph glyph-name="onesuperior" unicode="&#xb9;" horiz-adv-x="220" 
d="M125 401l63 298l-92 -67l23 107l91 68h85l-85 -406h-85z" />
    <glyph glyph-name="ordmasculine" unicode="&#xba;" horiz-adv-x="327" 
d="M213 468c32 0 52 18 59 54c5 24 13 59 13 70c0 23 -11 44 -47 44c-31 0 -51 -18 -59 -55c-7 -23 -13 -58 -13 -69c0 -23 11 -44 47 -44zM208 395c-79 0 -125 51 -125 122c0 8 5 47 10 59c21 88 59 132 150 132c79 0 125 -50 125 -121c0 -9 -7 -46 -10 -59
c-21 -88 -59 -133 -150 -133z" />
    <glyph glyph-name="guillemotright" unicode="&#xbb;" horiz-adv-x="486" 
d="M105 471l139 -151l-19 -94l-205 -151l29 135l100 74l-68 74zM309 471l139 -151l-19 -94l-205 -151l29 135l100 74l-68 74z" />
    <glyph glyph-name="onequarter" unicode="&#xbc;" horiz-adv-x="730" 
d="M143 294l63 298l-92 -67l23 107l91 68h85l-85 -406h-85zM569 700h95l-481 -700h-95zM520 0l19 88h-173l15 72l225 246h85l-53 -246h42l-15 -72h-41l-19 -88h-85zM486 160h67l23 98z" />
    <glyph glyph-name="onehalf" unicode="&#xbd;" horiz-adv-x="776" 
d="M143 294l63 298l-92 -67l23 107l91 68h85l-85 -406h-85zM569 700h95l-481 -700h-95zM397 0l15 73l189 150c23 19 48 45 48 77c0 17 -7 39 -48 39s-58 -30 -62 -62h-84c20 88 58 135 150 135c74 0 126 -48 126 -107c0 -64 -34 -112 -82 -149l-106 -83h144l-14 -73h-276z
" />
    <glyph glyph-name="threequarters" unicode="&#xbe;" horiz-adv-x="794" 
d="M200 288c-80 0 -125 47 -125 107c0 4 1 12 1 15h82c0 -3 -1 -7 -1 -10c0 -17 6 -39 47 -39c37 0 62 35 62 58s-16 40 -47 40h-34l16 74h33c39 0 68 22 68 61c0 17 -7 39 -48 39c-32 0 -52 -16 -60 -49h-84c23 83 63 122 148 122c74 0 126 -48 126 -107
c0 -57 -29 -94 -70 -110c19 -15 28 -39 28 -66c0 -101 -68 -135 -142 -135zM633 700h95l-481 -700h-95zM584 0l19 88h-173l15 72l225 246h85l-53 -246h42l-15 -72h-41l-19 -88h-85zM550 160h67l23 98z" />
    <glyph glyph-name="questiondown" unicode="&#xbf;" horiz-adv-x="501" 
d="M314 16h105c-24 -128 -86 -210 -240 -210c-115 0 -187 73 -187 180c0 76 33 137 108 194l55 42c29 23 60 49 64 72l2 12h105l-4 -22c-11 -46 -23 -77 -93 -131l-55 -42c-31 -23 -79 -64 -79 -120c0 -60 50 -86 98 -86c68 0 108 47 121 111zM385 516l-29 -134h-134l29 134
h134z" />
    <glyph glyph-name="Agrave" unicode="&#xc0;" horiz-adv-x="615" 
d="M449 0l-23 170h-261l-95 -170h-117l393 700h110l96 -700h-103zM219 266h194l-38 278zM286 854h132l59 -109h-86z" />
    <glyph glyph-name="Aacute" unicode="&#xc1;" horiz-adv-x="615" 
d="M449 0l-23 170h-261l-95 -170h-117l393 700h110l96 -700h-103zM219 266h194l-38 278zM419 854h137l-128 -109h-91z" />
    <glyph glyph-name="Acircumflex" unicode="&#xc2;" horiz-adv-x="615" 
d="M449 0l-23 170h-261l-95 -170h-117l393 700h110l96 -700h-103zM219 266h194l-38 278zM464 745l-36 36l-52 -36h-140l155 109h84l109 -109h-120z" />
    <glyph glyph-name="Atilde" unicode="&#xc3;" horiz-adv-x="615" 
d="M449 0l-23 170h-261l-95 -170h-117l393 700h110l96 -700h-103zM219 266h194l-38 278zM362 859c17 0 33 0 52 -8l38 -16c7 -3 13 -6 20 -6c13 0 23 9 30 28h91c-16 -100 -79 -116 -111 -116c-17 0 -33 0 -52 8l-38 16c-7 3 -13 6 -20 6c-13 0 -23 -9 -30 -28h-91
c16 100 79 116 111 116z" />
    <glyph glyph-name="Adieresis" unicode="&#xc4;" horiz-adv-x="615" 
d="M449 0l-23 170h-261l-95 -170h-117l393 700h110l96 -700h-103zM219 266h194l-38 278zM391 853l-23 -107h-107l23 107h107zM582 853l-23 -107h-107l23 107h107z" />
    <glyph glyph-name="Aring" unicode="&#xc5;" horiz-adv-x="615" 
d="M449 0l-23 170h-261l-95 -170h-117l393 700h110l96 -700h-103zM219 266h194l-38 278zM348 799c0 41 33 75 74 75s75 -34 75 -75s-34 -74 -75 -74s-74 33 -74 74zM401 799c0 -12 9 -21 21 -21s21 9 21 21s-9 21 -21 21s-21 -9 -21 -21z" />
    <glyph glyph-name="AE" unicode="&#xc6;" horiz-adv-x="858" 
d="M248 266h141l66 309zM745 0h-412l36 170h-186l-114 -170h-123l470 700h477l-22 -103h-305l-41 -192h306l-22 -103h-306l-42 -199h306z" />
    <glyph glyph-name="Ccedilla" unicode="&#xc7;" horiz-adv-x="596" 
d="M599 483h-103v9c0 79 -58 115 -131 115c-69 0 -138 -39 -160 -139c-45 -204 -54 -236 -54 -260c0 -79 58 -115 131 -115c64 0 132 36 156 124h108c-39 -159 -129 -227 -277 -227c-125 0 -222 81 -222 202c0 51 11 97 51 276c36 168 127 242 280 242
c125 0 222 -81 222 -202c0 -8 0 -12 -1 -25zM162 -158l60 158h93l-38 -158h-115z" />
    <glyph glyph-name="Egrave" unicode="&#xc8;" horiz-adv-x="544" 
d="M252 597l-41 -192h306l-22 -103h-306l-42 -199h306l-22 -103h-412l148 700h412l-22 -103h-305zM241 854h132l59 -109h-86z" />
    <glyph glyph-name="Eacute" unicode="&#xc9;" horiz-adv-x="544" 
d="M252 597l-41 -192h306l-22 -103h-306l-42 -199h306l-22 -103h-412l148 700h412l-22 -103h-305zM391 854h137l-128 -109h-91z" />
    <glyph glyph-name="Ecircumflex" unicode="&#xca;" horiz-adv-x="544" 
d="M252 597l-41 -192h306l-22 -103h-306l-42 -199h306l-22 -103h-412l148 700h412l-22 -103h-305zM436 745l-36 36l-52 -36h-140l155 109h84l109 -109h-120z" />
    <glyph glyph-name="Edieresis" unicode="&#xcb;" horiz-adv-x="544" 
d="M252 597l-41 -192h306l-22 -103h-306l-42 -199h306l-22 -103h-412l148 700h412l-22 -103h-305zM363 853l-23 -107h-107l23 107h107zM554 853l-23 -107h-107l23 107h107z" />
    <glyph glyph-name="Igrave" unicode="&#xcc;" horiz-adv-x="255" 
d="M274 700l-148 -700h-107l148 700h107zM88 854h132l59 -109h-86z" />
    <glyph glyph-name="Iacute" unicode="&#xcd;" horiz-adv-x="255" 
d="M274 700l-148 -700h-107l148 700h107zM239 854h137l-128 -109h-91z" />
    <glyph glyph-name="Icircumflex" unicode="&#xce;" horiz-adv-x="255" 
d="M274 700l-148 -700h-107l148 700h107zM284 745l-36 36l-52 -36h-140l155 109h84l109 -109h-120z" />
    <glyph glyph-name="Idieresis" unicode="&#xcf;" horiz-adv-x="255" 
d="M274 700l-148 -700h-107l148 700h107zM211 853l-23 -107h-107l23 107h107zM402 853l-23 -107h-107l23 107h107z" />
    <glyph glyph-name="Eth" unicode="&#xd0;" horiz-adv-x="639" 
d="M302 0h-272l66 315h-69l15 71h69l67 314h229c125 0 222 -81 222 -202c0 -51 -7 -78 -47 -256c-36 -168 -127 -242 -280 -242zM158 103h157c68 0 139 39 160 139c43 203 50 218 50 240c0 79 -58 115 -131 115h-131l-45 -211h145l-15 -71h-145z" />
    <glyph glyph-name="Ntilde" unicode="&#xd1;" horiz-adv-x="649" 
d="M669 700l-149 -700h-107l-178 515l-110 -515h-106l148 700h107l178 -514l110 514h107zM379 859c17 0 33 0 52 -8l38 -16c7 -3 13 -6 20 -6c13 0 23 9 30 28h91c-16 -100 -79 -116 -111 -116c-17 0 -33 0 -52 8l-38 16c-7 3 -13 6 -20 6c-13 0 -23 -9 -30 -28h-91
c16 100 79 116 111 116z" />
    <glyph glyph-name="Ograve" unicode="&#xd2;" horiz-adv-x="608" 
d="M205 468c-45 -204 -54 -236 -54 -260c0 -79 58 -115 131 -115c68 0 139 39 160 139c43 203 54 237 54 260c0 79 -58 115 -131 115c-69 0 -138 -39 -160 -139zM549 232c-36 -168 -127 -242 -280 -242c-125 0 -222 81 -222 202c0 51 11 97 51 276c36 168 127 242 280 242
c125 0 222 -81 222 -202c0 -51 -11 -97 -51 -276zM266 854h132l59 -109h-86z" />
    <glyph glyph-name="Oacute" unicode="&#xd3;" horiz-adv-x="608" 
d="M205 468c-45 -204 -54 -236 -54 -260c0 -79 58 -115 131 -115c68 0 139 39 160 139c43 203 54 237 54 260c0 79 -58 115 -131 115c-69 0 -138 -39 -160 -139zM549 232c-36 -168 -127 -242 -280 -242c-125 0 -222 81 -222 202c0 51 11 97 51 276c36 168 127 242 280 242
c125 0 222 -81 222 -202c0 -51 -11 -97 -51 -276zM417 854h137l-128 -109h-91z" />
    <glyph glyph-name="Ocircumflex" unicode="&#xd4;" horiz-adv-x="608" 
d="M205 468c-45 -204 -54 -236 -54 -260c0 -79 58 -115 131 -115c68 0 139 39 160 139c43 203 54 237 54 260c0 79 -58 115 -131 115c-69 0 -138 -39 -160 -139zM549 232c-36 -168 -127 -242 -280 -242c-125 0 -222 81 -222 202c0 51 11 97 51 276c36 168 127 242 280 242
c125 0 222 -81 222 -202c0 -51 -11 -97 -51 -276zM463 745l-36 36l-52 -36h-140l155 109h84l109 -109h-120z" />
    <glyph glyph-name="Otilde" unicode="&#xd5;" horiz-adv-x="608" 
d="M205 468c-45 -204 -54 -236 -54 -260c0 -79 58 -115 131 -115c68 0 139 39 160 139c43 203 54 237 54 260c0 79 -58 115 -131 115c-69 0 -138 -39 -160 -139zM549 232c-36 -168 -127 -242 -280 -242c-125 0 -222 81 -222 202c0 51 11 97 51 276c36 168 127 242 280 242
c125 0 222 -81 222 -202c0 -51 -11 -97 -51 -276zM359 859c17 0 33 0 52 -8l38 -16c7 -3 13 -6 20 -6c13 0 23 9 30 28h91c-16 -100 -79 -116 -111 -116c-17 0 -33 0 -52 8l-38 16c-7 3 -13 6 -20 6c-13 0 -23 -9 -30 -28h-91c16 100 79 116 111 116z" />
    <glyph glyph-name="Odieresis" unicode="&#xd6;" horiz-adv-x="608" 
d="M205 468c-45 -204 -54 -236 -54 -260c0 -79 58 -115 131 -115c68 0 139 39 160 139c43 203 54 237 54 260c0 79 -58 115 -131 115c-69 0 -138 -39 -160 -139zM549 232c-36 -168 -127 -242 -280 -242c-125 0 -222 81 -222 202c0 51 11 97 51 276c36 168 127 242 280 242
c125 0 222 -81 222 -202c0 -51 -11 -97 -51 -276zM389 853l-23 -107h-107l23 107h107zM580 853l-23 -107h-107l23 107h107z" />
    <glyph glyph-name="multiply" unicode="&#xd7;" 
d="M66 127l153 154l-153 154l64 65l154 -155l154 155l64 -65l-154 -154l154 -154l-64 -65l-154 154l-154 -154z" />
    <glyph glyph-name="Oslash" unicode="&#xd8;" horiz-adv-x="614" 
d="M552 232c-36 -168 -127 -242 -280 -242c-61 0 -115 19 -154 52l-58 -70l-57 43l69 84c-15 28 -22 59 -22 93c0 51 11 97 51 276c36 168 127 242 280 242c60 0 113 -19 153 -52l58 71l57 -44l-69 -83c15 -29 23 -60 23 -94c0 -51 -11 -97 -51 -276zM499 492c0 5 0 8 -1 11
l-311 -378c24 -23 59 -32 98 -32c68 0 139 39 160 139c43 203 54 237 54 260zM208 468c-45 -204 -54 -236 -54 -260v-10l311 377c-24 23 -58 32 -97 32c-69 0 -138 -39 -160 -139z" />
    <glyph glyph-name="Ugrave" unicode="&#xd9;" horiz-adv-x="630" 
d="M161 208c0 -79 58 -115 131 -115c69 0 139 39 160 139l100 468h107l-100 -468c-35 -168 -127 -242 -280 -242c-125 0 -222 81 -222 202c0 66 61 329 101 508h107c-43 -204 -104 -463 -104 -492zM276 854h132l59 -109h-86z" />
    <glyph glyph-name="Uacute" unicode="&#xda;" horiz-adv-x="630" 
d="M161 208c0 -79 58 -115 131 -115c69 0 139 39 160 139l100 468h107l-100 -468c-35 -168 -127 -242 -280 -242c-125 0 -222 81 -222 202c0 66 61 329 101 508h107c-43 -204 -104 -463 -104 -492zM426 854h137l-128 -109h-91z" />
    <glyph glyph-name="Ucircumflex" unicode="&#xdb;" horiz-adv-x="630" 
d="M161 208c0 -79 58 -115 131 -115c69 0 139 39 160 139l100 468h107l-100 -468c-35 -168 -127 -242 -280 -242c-125 0 -222 81 -222 202c0 66 61 329 101 508h107c-43 -204 -104 -463 -104 -492zM471 745l-36 36l-52 -36h-140l155 109h84l109 -109h-120z" />
    <glyph glyph-name="Udieresis" unicode="&#xdc;" horiz-adv-x="630" 
d="M161 208c0 -79 58 -115 131 -115c69 0 139 39 160 139l100 468h107l-100 -468c-35 -168 -127 -242 -280 -242c-125 0 -222 81 -222 202c0 66 61 329 101 508h107c-43 -204 -104 -463 -104 -492zM398 853l-23 -107h-107l23 107h107zM589 853l-23 -107h-107l23 107h107z
" />
    <glyph glyph-name="Yacute" unicode="&#xdd;" horiz-adv-x="594" 
d="M691 700l-339 -433l-57 -267h-107l57 267l-154 433h107l113 -322l252 322h128zM409 854h137l-128 -109h-91z" />
    <glyph glyph-name="Thorn" unicode="&#xde;" horiz-adv-x="589" 
d="M380 477h-153l-54 -252h165c89 0 157 48 157 139c0 53 -34 113 -115 113zM151 122l-26 -122h-106l148 700h107l-26 -122h153c120 0 198 -96 198 -200c0 -169 -95 -256 -283 -256h-165z" />
    <glyph glyph-name="germandbls" unicode="&#xdf;" horiz-adv-x="541" 
d="M14 0l109 515c29 139 89 195 219 195c86 0 165 -51 165 -156c0 -60 -22 -132 -74 -179c35 -35 58 -74 58 -133c0 -155 -82 -252 -261 -252c-17 0 -33 2 -50 5l23 105c13 -7 30 -11 49 -11c83 0 137 57 137 140c0 50 -34 98 -103 98h-36l21 95h22c67 0 112 57 112 124
c0 39 -30 65 -74 65c-60 0 -91 -37 -103 -96l-110 -515h-104z" />
    <glyph glyph-name="agrave" unicode="&#xe0;" horiz-adv-x="545" 
d="M181 356h-107c32 112 95 174 234 174c103 0 188 -60 188 -168c0 -55 -13 -106 -28 -170l-41 -192h-105l13 59c-24 -36 -77 -69 -145 -69c-108 0 -171 60 -171 147c0 85 35 134 140 163c67 17 144 21 232 24c3 9 3 20 3 23c0 51 -35 84 -99 84c-55 0 -95 -30 -114 -75z
M204 89c60 0 141 21 162 117l5 25c-93 -5 -141 -7 -189 -20c-36 -11 -61 -27 -61 -63c0 -41 34 -59 83 -59zM213 700h130l40 -129h-79z" />
    <glyph glyph-name="aacute" unicode="&#xe1;" horiz-adv-x="545" 
d="M181 356h-107c32 112 95 174 234 174c103 0 188 -60 188 -168c0 -55 -13 -106 -28 -170l-41 -192h-105l13 59c-24 -36 -77 -69 -145 -69c-108 0 -171 60 -171 147c0 85 35 134 140 163c67 17 144 21 232 24c3 9 3 20 3 23c0 51 -35 84 -99 84c-55 0 -95 -30 -114 -75z
M204 89c60 0 141 21 162 117l5 25c-93 -5 -141 -7 -189 -20c-36 -11 -61 -27 -61 -63c0 -41 34 -59 83 -59zM331 700h135l-118 -129h-84z" />
    <glyph glyph-name="acircumflex" unicode="&#xe2;" horiz-adv-x="545" 
d="M181 356h-107c32 112 95 174 234 174c103 0 188 -60 188 -168c0 -55 -13 -106 -28 -170l-41 -192h-105l13 59c-24 -36 -77 -69 -145 -69c-108 0 -171 60 -171 147c0 85 35 134 140 163c67 17 144 21 232 24c3 9 3 20 3 23c0 51 -35 84 -99 84c-55 0 -95 -30 -114 -75z
M204 89c60 0 141 21 162 117l5 25c-93 -5 -141 -7 -189 -20c-36 -11 -61 -27 -61 -63c0 -41 34 -59 83 -59zM410 700l105 -129h-106l-45 56l-69 -56h-128l159 129h84z" />
    <glyph glyph-name="atilde" unicode="&#xe3;" horiz-adv-x="545" 
d="M181 356h-107c32 112 95 174 234 174c103 0 188 -60 188 -168c0 -55 -13 -106 -28 -170l-41 -192h-105l13 59c-24 -36 -77 -69 -145 -69c-108 0 -171 60 -171 147c0 85 35 134 140 163c67 17 144 21 232 24c3 9 3 20 3 23c0 51 -35 84 -99 84c-55 0 -95 -30 -114 -75z
M204 89c60 0 141 21 162 117l5 25c-93 -5 -141 -7 -189 -20c-36 -11 -61 -27 -61 -63c0 -41 34 -59 83 -59zM267 579h-84c16 100 79 116 111 116c17 0 33 -1 52 -9l38 -16c7 -3 16 -7 27 -7c12 0 22 7 30 30h84c-16 -100 -79 -116 -111 -116c-17 0 -33 1 -52 9l-38 16
c-7 3 -16 7 -27 7c-12 0 -22 -7 -30 -30z" />
    <glyph glyph-name="adieresis" unicode="&#xe4;" horiz-adv-x="545" 
d="M181 356h-107c32 112 95 174 234 174c103 0 188 -60 188 -168c0 -55 -13 -106 -28 -170l-41 -192h-105l13 59c-24 -36 -77 -69 -145 -69c-108 0 -171 60 -171 147c0 85 35 134 140 163c67 17 144 21 232 24c3 9 3 20 3 23c0 51 -35 84 -99 84c-55 0 -95 -30 -114 -75z
M204 89c60 0 141 21 162 117l5 25c-93 -5 -141 -7 -189 -20c-36 -11 -61 -27 -61 -63c0 -41 34 -59 83 -59zM322 689l-23 -107h-105l23 107h105zM515 689l-23 -107h-105l23 107h105z" />
    <glyph glyph-name="aring" unicode="&#xe5;" horiz-adv-x="545" 
d="M181 356h-107c32 112 95 174 234 174c103 0 188 -60 188 -168c0 -55 -13 -106 -28 -170l-41 -192h-105l13 59c-24 -36 -77 -69 -145 -69c-108 0 -171 60 -171 147c0 85 35 134 140 163c67 17 144 21 232 24c3 9 3 20 3 23c0 51 -35 84 -99 84c-55 0 -95 -30 -114 -75z
M204 89c60 0 141 21 162 117l5 25c-93 -5 -141 -7 -189 -20c-36 -11 -61 -27 -61 -63c0 -41 34 -59 83 -59zM280 635c0 41 33 75 74 75s75 -34 75 -75s-34 -74 -75 -74s-74 33 -74 74zM331 635c0 -13 10 -23 23 -23s23 10 23 23s-10 23 -23 23s-23 -10 -23 -23z" />
    <glyph glyph-name="ae" unicode="&#xe6;" horiz-adv-x="861" 
d="M308 530c75 0 125 -32 152 -69c37 41 93 69 173 69c103 0 188 -60 188 -168c0 -45 -9 -87 -21 -138h-326c-5 -25 -8 -42 -8 -51c0 -51 35 -84 99 -84c55 0 95 30 114 75h107c-31 -113 -97 -174 -234 -174c-76 0 -140 33 -171 93c-18 -29 -86 -93 -191 -93
c-108 0 -171 60 -171 147c0 85 35 134 140 163c67 17 144 21 232 24c3 9 3 20 3 23c0 51 -35 84 -99 84c-55 0 -95 -30 -114 -75h-107c32 112 95 174 234 174zM204 89c60 0 141 21 162 117l5 25c-93 -5 -141 -7 -189 -20c-36 -11 -61 -27 -61 -63c0 -41 34 -59 83 -59z
M494 315h220c3 17 5 27 5 32c0 51 -35 84 -99 84c-75 0 -118 -55 -126 -116z" />
    <glyph glyph-name="ccedilla" unicode="&#xe7;" horiz-adv-x="529" 
d="M499 362v-18h-102v4c0 51 -35 83 -99 83s-107 -40 -122 -100c-8 -38 -32 -140 -32 -158c0 -51 35 -84 99 -84c59 0 101 35 118 87h106c-30 -121 -94 -186 -237 -186c-103 0 -188 60 -188 168c0 55 13 106 28 170c27 132 93 202 241 202c103 0 188 -60 188 -168zM124 -158
l65 158h86l-38 -158h-113z" />
    <glyph glyph-name="egrave" unicode="&#xe8;" horiz-adv-x="539" 
d="M357 164h107c-31 -113 -97 -174 -234 -174c-103 0 -188 60 -188 168c0 55 13 106 28 170c27 132 93 202 241 202c103 0 188 -60 188 -168c0 -45 -9 -87 -21 -138h-326c-5 -25 -8 -42 -8 -51c0 -51 35 -84 99 -84c55 0 95 30 114 75zM172 315h220c3 17 5 27 5 32
c0 51 -35 84 -99 84c-75 0 -118 -55 -126 -116zM219 700h130l40 -129h-79z" />
    <glyph glyph-name="eacute" unicode="&#xe9;" horiz-adv-x="539" 
d="M357 164h107c-31 -113 -97 -174 -234 -174c-103 0 -188 60 -188 168c0 55 13 106 28 170c27 132 93 202 241 202c103 0 188 -60 188 -168c0 -45 -9 -87 -21 -138h-326c-5 -25 -8 -42 -8 -51c0 -51 35 -84 99 -84c55 0 95 30 114 75zM172 315h220c3 17 5 27 5 32
c0 51 -35 84 -99 84c-75 0 -118 -55 -126 -116zM338 700h135l-118 -129h-84z" />
    <glyph glyph-name="ecircumflex" unicode="&#xea;" horiz-adv-x="539" 
d="M357 164h107c-31 -113 -97 -174 -234 -174c-103 0 -188 60 -188 168c0 55 13 106 28 170c27 132 93 202 241 202c103 0 188 -60 188 -168c0 -45 -9 -87 -21 -138h-326c-5 -25 -8 -42 -8 -51c0 -51 35 -84 99 -84c55 0 95 30 114 75zM172 315h220c3 17 5 27 5 32
c0 51 -35 84 -99 84c-75 0 -118 -55 -126 -116zM406 700l105 -129h-106l-45 56l-69 -56h-128l159 129h84z" />
    <glyph glyph-name="edieresis" unicode="&#xeb;" horiz-adv-x="539" 
d="M357 164h107c-31 -113 -97 -174 -234 -174c-103 0 -188 60 -188 168c0 55 13 106 28 170c27 132 93 202 241 202c103 0 188 -60 188 -168c0 -45 -9 -87 -21 -138h-326c-5 -25 -8 -42 -8 -51c0 -51 35 -84 99 -84c55 0 95 30 114 75zM172 315h220c3 17 5 27 5 32
c0 51 -35 84 -99 84c-75 0 -118 -55 -126 -116zM317 689l-23 -107h-105l23 107h105zM510 689l-23 -107h-105l23 107h105z" />
    <glyph glyph-name="igrave" unicode="&#xec;" horiz-adv-x="243" 
d="M229 516l-109 -516h-105l109 516h105zM70 700h130l40 -129h-79z" />
    <glyph glyph-name="iacute" unicode="&#xed;" horiz-adv-x="243" 
d="M229 516l-109 -516h-105l109 516h105zM188 700h135l-118 -129h-84z" />
    <glyph glyph-name="icircumflex" unicode="&#xee;" horiz-adv-x="243" 
d="M229 516l-109 -516h-105l109 516h105zM258 700l105 -129h-106l-45 56l-69 -56h-128l159 129h84z" />
    <glyph glyph-name="idieresis" unicode="&#xef;" horiz-adv-x="243" 
d="M229 516l-109 -516h-105l109 516h105zM170 689l-23 -107h-105l23 107h105zM363 689l-23 -107h-105l23 107h105z" />
    <glyph glyph-name="eth" unicode="&#xf0;" horiz-adv-x="541" 
d="M471 192c-30 -132 -92 -202 -241 -202c-103 0 -188 60 -188 168c0 55 13 106 28 170c27 132 93 202 241 202h9l-24 45h-136l14 66h88l-30 59h115l30 -59h99l-14 -66h-51l70 -135c12 -23 18 -49 18 -78c0 -55 -13 -106 -28 -170zM176 331c-8 -38 -32 -140 -32 -158
c0 -51 35 -84 99 -84s107 40 122 100c8 38 32 140 32 158c0 51 -35 84 -99 84s-107 -40 -122 -100z" />
    <glyph glyph-name="ntilde" unicode="&#xf1;" horiz-adv-x="562" 
d="M340 530c92 0 173 -63 173 -168c0 -55 -13 -106 -28 -170l-41 -192h-105l40 189c8 38 32 140 32 158c0 51 -35 84 -99 84s-109 -40 -122 -100l-71 -331h-105l110 516h105l-11 -49c20 32 66 63 122 63zM278 579h-84c16 100 79 116 111 116c17 0 33 -1 52 -9l38 -16
c7 -3 16 -7 27 -7c12 0 22 7 30 30h84c-16 -100 -79 -116 -111 -116c-17 0 -33 1 -52 9l-38 16c-7 3 -16 7 -27 7c-12 0 -22 -7 -30 -30z" />
    <glyph glyph-name="ograve" unicode="&#xf2;" horiz-adv-x="541" 
d="M176 331c-8 -38 -32 -140 -32 -158c0 -51 35 -84 99 -84s107 40 122 100c8 38 32 140 32 158c0 51 -35 84 -99 84s-107 -40 -122 -100zM471 192c-30 -132 -92 -202 -241 -202c-103 0 -188 60 -188 168c0 55 13 106 28 170c27 132 93 202 241 202c103 0 188 -60 188 -168
c0 -55 -13 -106 -28 -170zM219 700h130l40 -129h-79z" />
    <glyph glyph-name="oacute" unicode="&#xf3;" horiz-adv-x="541" 
d="M176 331c-8 -38 -32 -140 -32 -158c0 -51 35 -84 99 -84s107 40 122 100c8 38 32 140 32 158c0 51 -35 84 -99 84s-107 -40 -122 -100zM471 192c-30 -132 -92 -202 -241 -202c-103 0 -188 60 -188 168c0 55 13 106 28 170c27 132 93 202 241 202c103 0 188 -60 188 -168
c0 -55 -13 -106 -28 -170zM337 700h135l-118 -129h-84z" />
    <glyph glyph-name="ocircumflex" unicode="&#xf4;" horiz-adv-x="541" 
d="M176 331c-8 -38 -32 -140 -32 -158c0 -51 35 -84 99 -84s107 40 122 100c8 38 32 140 32 158c0 51 -35 84 -99 84s-107 -40 -122 -100zM471 192c-30 -132 -92 -202 -241 -202c-103 0 -188 60 -188 168c0 55 13 106 28 170c27 132 93 202 241 202c103 0 188 -60 188 -168
c0 -55 -13 -106 -28 -170zM406 700l105 -129h-106l-45 56l-69 -56h-128l159 129h84z" />
    <glyph glyph-name="otilde" unicode="&#xf5;" horiz-adv-x="541" 
d="M176 331c-8 -38 -32 -140 -32 -158c0 -51 35 -84 99 -84s107 40 122 100c8 38 32 140 32 158c0 51 -35 84 -99 84s-107 -40 -122 -100zM471 192c-30 -132 -92 -202 -241 -202c-103 0 -188 60 -188 168c0 55 13 106 28 170c27 132 93 202 241 202c103 0 188 -60 188 -168
c0 -55 -13 -106 -28 -170zM263 579h-84c16 100 79 116 111 116c17 0 33 -1 52 -9l38 -16c7 -3 16 -7 27 -7c12 0 22 7 30 30h84c-16 -100 -79 -116 -111 -116c-17 0 -33 1 -52 9l-38 16c-7 3 -16 7 -27 7c-12 0 -22 -7 -30 -30z" />
    <glyph glyph-name="odieresis" unicode="&#xf6;" horiz-adv-x="541" 
d="M176 331c-8 -38 -32 -140 -32 -158c0 -51 35 -84 99 -84s107 40 122 100c8 38 32 140 32 158c0 51 -35 84 -99 84s-107 -40 -122 -100zM471 192c-30 -132 -92 -202 -241 -202c-103 0 -188 60 -188 168c0 55 13 106 28 170c27 132 93 202 241 202c103 0 188 -60 188 -168
c0 -55 -13 -106 -28 -170zM317 689l-23 -107h-105l23 107h105zM510 689l-23 -107h-105l23 107h105z" />
    <glyph glyph-name="divide" unicode="&#xf7;" 
d="M217 454c0 37 30 67 67 67s67 -30 67 -67s-30 -67 -67 -67s-67 30 -67 67zM217 107c0 37 30 67 67 67s67 -30 67 -67s-30 -67 -67 -67s-67 30 -67 67zM69 326h430v-91h-430v91z" />
    <glyph glyph-name="oslash" unicode="&#xf8;" horiz-adv-x="547" 
d="M474 192c-30 -132 -92 -202 -241 -202c-49 0 -93 12 -128 39l-49 -53l-50 42l57 62c-12 22 -18 48 -18 78c0 55 13 106 28 170c27 132 93 202 241 202c51 0 93 -13 127 -40l50 54l50 -42l-57 -62c11 -23 18 -49 18 -78c0 -55 -13 -106 -28 -170zM179 331
c-8 -38 -32 -140 -32 -158v-2l222 241c-17 13 -39 19 -68 19c-64 0 -107 -40 -122 -100zM368 189c8 38 32 140 32 158v2l-223 -241c17 -13 40 -19 69 -19c64 0 107 40 122 100z" />
    <glyph glyph-name="ugrave" unicode="&#xf9;" horiz-adv-x="557" 
d="M213 -10c-77 0 -163 62 -163 168c0 55 13 106 28 170l40 188h105l-39 -185c-8 -38 -32 -139 -32 -158c0 -52 40 -84 92 -84c68 0 111 41 124 100l70 327h105l-110 -516h-105l12 53c-16 -32 -68 -63 -127 -63zM224 700h130l40 -129h-79z" />
    <glyph glyph-name="uacute" unicode="&#xfa;" horiz-adv-x="557" 
d="M213 -10c-77 0 -163 62 -163 168c0 55 13 106 28 170l40 188h105l-39 -185c-8 -38 -32 -139 -32 -158c0 -52 40 -84 92 -84c68 0 111 41 124 100l70 327h105l-110 -516h-105l12 53c-16 -32 -68 -63 -127 -63zM342 700h135l-118 -129h-84z" />
    <glyph glyph-name="ucircumflex" unicode="&#xfb;" horiz-adv-x="557" 
d="M213 -10c-77 0 -163 62 -163 168c0 55 13 106 28 170l40 188h105l-39 -185c-8 -38 -32 -139 -32 -158c0 -52 40 -84 92 -84c68 0 111 41 124 100l70 327h105l-110 -516h-105l12 53c-16 -32 -68 -63 -127 -63zM411 700l105 -129h-106l-45 56l-69 -56h-128l159 129h84z" />
    <glyph glyph-name="udieresis" unicode="&#xfc;" horiz-adv-x="557" 
d="M213 -10c-77 0 -163 62 -163 168c0 55 13 106 28 170l40 188h105l-39 -185c-8 -38 -32 -139 -32 -158c0 -52 40 -84 92 -84c68 0 111 41 124 100l70 327h105l-110 -516h-105l12 53c-16 -32 -68 -63 -127 -63zM323 689l-23 -107h-105l23 107h105zM516 689l-23 -107h-105
l23 107h105z" />
    <glyph glyph-name="yacute" unicode="&#xfd;" horiz-adv-x="476" 
d="M129 19l-74 497h104l50 -362l204 362h118l-360 -628c-24 -43 -65 -72 -132 -72h-54l22 99h21c47 0 55 22 79 66zM305 700h135l-118 -129h-84z" />
    <glyph glyph-name="thorn" unicode="&#xfe;" horiz-adv-x="554" 
d="M189 331c-8 -38 -32 -140 -32 -158c0 -51 35 -84 99 -84s107 40 122 100c8 38 32 140 32 158c0 51 -35 84 -99 84s-107 -40 -122 -100zM263 -10c-78 0 -114 41 -130 77l-53 -251h-105l188 884h105l-50 -233c21 35 70 63 126 63c77 0 168 -60 168 -168
c0 -55 -13 -106 -28 -170c-29 -133 -102 -202 -221 -202z" />
    <glyph glyph-name="ydieresis" unicode="&#xff;" horiz-adv-x="476" 
d="M129 19l-74 497h104l50 -362l204 362h118l-360 -628c-24 -43 -65 -72 -132 -72h-54l22 99h21c47 0 55 22 79 66zM286 689l-23 -107h-105l23 107h105zM479 689l-23 -107h-105l23 107h105z" />
    <glyph glyph-name="Abreve" unicode="&#x102;" horiz-adv-x="615" 
d="M449 0l-23 170h-261l-95 -170h-117l393 700h110l96 -700h-103zM219 266h194l-38 278zM510 854h87c-13 -61 -71 -109 -132 -109h-110c-53 0 -89 37 -89 86c0 7 1 15 3 23h76c-1 -1 -1 -3 -1 -4v-2c0 -15 8 -22 23 -22h109c16 0 31 12 34 28z" />
    <glyph glyph-name="Amacron" unicode="&#x100;" horiz-adv-x="615" 
d="M449 0l-23 170h-261l-95 -170h-117l393 700h110l96 -700h-103zM219 266h194l-38 278zM271 843h322l-19 -87h-322z" />
    <glyph glyph-name="Aogonek" unicode="&#x104;" horiz-adv-x="615" 
d="M449 0l-23 170h-261l-95 -170h-117l393 700h110l96 -700c-22 -14 -101 -57 -101 -91c0 -13 10 -17 23 -17c19 0 43 10 58 17l-17 -80c-28 -12 -48 -18 -85 -18c-52 0 -92 21 -92 73c0 61 52 95 111 116zM219 266h194l-38 278z" />
    <glyph glyph-name="Cacute" unicode="&#x106;" horiz-adv-x="596" 
d="M599 483h-103v9c0 79 -58 115 -131 115c-69 0 -138 -39 -160 -139c-45 -204 -54 -236 -54 -260c0 -79 58 -115 131 -115c64 0 132 36 156 124h108c-39 -159 -129 -227 -277 -227c-125 0 -222 81 -222 202c0 51 11 97 51 276c36 168 127 242 280 242
c125 0 222 -81 222 -202c0 -8 0 -12 -1 -25zM415 854h137l-128 -109h-91z" />
    <glyph glyph-name="Ccaron" unicode="&#x10c;" horiz-adv-x="596" 
d="M599 483h-103v9c0 79 -58 115 -131 115c-69 0 -138 -39 -160 -139c-45 -204 -54 -236 -54 -260c0 -79 58 -115 131 -115c64 0 132 36 156 124h108c-39 -159 -129 -227 -277 -227c-125 0 -222 81 -222 202c0 51 11 97 51 276c36 168 127 242 280 242
c125 0 222 -81 222 -202c0 -8 0 -12 -1 -25zM375 854l36 -36l52 36h140l-155 -109h-84l-109 109h120z" />
    <glyph glyph-name="Ccircumflex" unicode="&#x108;" horiz-adv-x="596" 
d="M599 483h-103v9c0 79 -58 115 -131 115c-69 0 -138 -39 -160 -139c-45 -204 -54 -236 -54 -260c0 -79 58 -115 131 -115c64 0 132 36 156 124h108c-39 -159 -129 -227 -277 -227c-125 0 -222 81 -222 202c0 51 11 97 51 276c36 168 127 242 280 242
c125 0 222 -81 222 -202c0 -8 0 -12 -1 -25zM460 745l-36 36l-52 -36h-140l155 109h84l109 -109h-120z" />
    <glyph glyph-name="Cdotaccent" unicode="&#x10a;" horiz-adv-x="596" 
d="M599 483h-103v9c0 79 -58 115 -131 115c-69 0 -138 -39 -160 -139c-45 -204 -54 -236 -54 -260c0 -79 58 -115 131 -115c64 0 132 36 156 124h108c-39 -159 -129 -227 -277 -227c-125 0 -222 81 -222 202c0 51 11 97 51 276c36 168 127 242 280 242
c125 0 222 -81 222 -202c0 -8 0 -12 -1 -25zM483 853l-23 -107h-107l23 107h107z" />
    <glyph glyph-name="Dcaron" unicode="&#x10e;" horiz-adv-x="628" 
d="M147 103h157c68 0 139 39 160 139c43 203 50 218 50 240c0 79 -58 115 -131 115h-131zM291 0h-272l148 700h229c125 0 222 -81 222 -202c0 -51 -7 -78 -47 -256c-36 -168 -127 -242 -280 -242zM361 854l36 -36l52 36h140l-155 -109h-84l-109 109h120z" />
    <glyph glyph-name="Dcroat" unicode="&#x110;" horiz-adv-x="639" 
d="M302 0h-272l66 315h-69l15 71h69l67 314h229c125 0 222 -81 222 -202c0 -51 -7 -78 -47 -256c-36 -168 -127 -242 -280 -242zM158 103h157c68 0 139 39 160 139c43 203 50 218 50 240c0 79 -58 115 -131 115h-131l-45 -211h145l-15 -71h-145z" />
    <glyph glyph-name="Ebreve" unicode="&#x114;" horiz-adv-x="544" 
d="M252 597l-41 -192h306l-22 -103h-306l-42 -199h306l-22 -103h-412l148 700h412l-22 -103h-305zM482 854h87c-13 -61 -71 -109 -132 -109h-110c-53 0 -89 37 -89 86c0 7 1 15 3 23h76c-1 -1 -1 -3 -1 -4v-2c0 -15 8 -22 23 -22h109c16 0 31 12 34 28z" />
    <glyph glyph-name="Ecaron" unicode="&#x11a;" horiz-adv-x="544" 
d="M252 597l-41 -192h306l-22 -103h-306l-42 -199h306l-22 -103h-412l148 700h412l-22 -103h-305zM351 854l36 -36l52 36h140l-155 -109h-84l-109 109h120z" />
    <glyph glyph-name="Emacron" unicode="&#x112;" horiz-adv-x="544" 
d="M252 597l-41 -192h306l-22 -103h-306l-42 -199h306l-22 -103h-412l148 700h412l-22 -103h-305zM243 843h322l-19 -87h-322z" />
    <glyph glyph-name="Eogonek" unicode="&#x118;" horiz-adv-x="544" 
d="M252 597l-41 -192h306l-22 -103h-306l-42 -199h306l-22 -103h-412l148 700h412l-22 -103h-305zM325 0h106c-22 -14 -101 -57 -101 -91c0 -13 10 -17 23 -17c19 0 43 10 58 17l-17 -80c-28 -12 -48 -18 -85 -18c-52 0 -92 21 -92 73c0 61 52 95 108 116z" />
    <glyph glyph-name="Edotaccent" unicode="&#x116;" horiz-adv-x="544" 
d="M252 597l-41 -192h306l-22 -103h-306l-42 -199h306l-22 -103h-412l148 700h412l-22 -103h-305zM459 853l-23 -107h-107l23 107h107z" />
    <glyph glyph-name="Gbreve" unicode="&#x11e;" horiz-adv-x="603" 
d="M599 486h-103v6c0 79 -58 115 -131 115c-69 0 -138 -39 -160 -139c-45 -204 -54 -236 -54 -260c0 -79 58 -115 131 -115c69 0 139 39 160 139l11 52h-144l22 100h251l-33 -152c-36 -168 -127 -242 -280 -242c-125 0 -222 81 -222 202c0 51 11 97 51 276
c36 168 127 242 280 242c125 0 222 -81 222 -202c0 -7 0 -13 -1 -22zM507 854h87c-13 -61 -71 -109 -132 -109h-110c-53 0 -89 37 -89 86c0 7 1 15 3 23h76c-1 -1 -1 -3 -1 -4v-2c0 -15 8 -22 23 -22h109c16 0 31 12 34 28z" />
    <glyph glyph-name="Gcircumflex" unicode="&#x11c;" horiz-adv-x="603" 
d="M599 486h-103v6c0 79 -58 115 -131 115c-69 0 -138 -39 -160 -139c-45 -204 -54 -236 -54 -260c0 -79 58 -115 131 -115c69 0 139 39 160 139l11 52h-144l22 100h251l-33 -152c-36 -168 -127 -242 -280 -242c-125 0 -222 81 -222 202c0 51 11 97 51 276
c36 168 127 242 280 242c125 0 222 -81 222 -202c0 -7 0 -13 -1 -22zM461 745l-36 36l-52 -36h-140l155 109h84l109 -109h-120z" />
    <glyph glyph-name="uni0122" unicode="&#x122;" horiz-adv-x="603" 
d="M599 486h-103v6c0 79 -58 115 -131 115c-69 0 -138 -39 -160 -139c-45 -204 -54 -236 -54 -260c0 -79 58 -115 131 -115c69 0 139 39 160 139l11 52h-144l22 100h251l-33 -152c-36 -168 -127 -242 -280 -242c-125 0 -222 81 -222 202c0 51 11 97 51 276
c36 168 127 242 280 242c125 0 222 -81 222 -202c0 -7 0 -13 -1 -22zM149 -174l27 124h124l-27 -124l-49 -94h-79l49 94h-45z" />
    <glyph glyph-name="Gdotaccent" unicode="&#x120;" horiz-adv-x="603" 
d="M599 486h-103v6c0 79 -58 115 -131 115c-69 0 -138 -39 -160 -139c-45 -204 -54 -236 -54 -260c0 -79 58 -115 131 -115c69 0 139 39 160 139l11 52h-144l22 100h251l-33 -152c-36 -168 -127 -242 -280 -242c-125 0 -222 81 -222 202c0 51 11 97 51 276
c36 168 127 242 280 242c125 0 222 -81 222 -202c0 -7 0 -13 -1 -22zM484 853l-23 -107h-107l23 107h107z" />
    <glyph glyph-name="Hbar" unicode="&#x126;" horiz-adv-x="649" 
d="M274 700l-24 -111h287l24 111h107l-148 -700h-107l64 302h-288l-63 -302h-107l148 700h107zM499 405l23 113h-287l-24 -113h288z" />
    <glyph glyph-name="Hcircumflex" unicode="&#x124;" horiz-adv-x="649" 
d="M499 405l62 295h107l-148 -700h-107l64 302h-288l-63 -302h-107l148 700h107l-63 -295h288zM481 745l-36 36l-52 -36h-140l155 109h84l109 -109h-120z" />
    <glyph glyph-name="Ibreve" unicode="&#x12c;" horiz-adv-x="255" 
d="M274 700l-148 -700h-107l148 700h107zM330 854h87c-13 -61 -71 -109 -132 -109h-110c-53 0 -89 37 -89 86c0 7 1 15 3 23h76c-1 -1 -1 -3 -1 -4v-2c0 -15 8 -22 23 -22h109c16 0 31 12 34 28z" />
    <glyph glyph-name="Idot" unicode="&#x130;" horiz-adv-x="255" 
d="M274 700l-148 -700h-107l148 700h107zM306 853l-23 -107h-107l23 107h107z" />
    <glyph glyph-name="Imacron" unicode="&#x12a;" horiz-adv-x="255" 
d="M274 700l-148 -700h-107l148 700h107zM95 862h322l-19 -85h-322z" />
    <glyph glyph-name="Iogonek" unicode="&#x12e;" horiz-adv-x="255" 
d="M274 700l-148 -700h-107l148 700h107zM20 0h106c-22 -14 -101 -57 -101 -91c0 -13 10 -17 23 -17c19 0 43 10 58 17l-17 -80c-28 -12 -48 -18 -85 -18c-52 0 -92 21 -92 73c0 61 52 95 108 116z" />
    <glyph glyph-name="Itilde" unicode="&#x128;" horiz-adv-x="255" 
d="M274 700l-148 -700h-107l148 700h107zM182 859c17 0 33 0 52 -8l38 -16c7 -3 13 -6 20 -6c13 0 23 9 30 28h91c-16 -100 -79 -116 -111 -116c-17 0 -33 0 -52 8l-38 16c-7 3 -13 6 -20 6c-13 0 -23 -9 -30 -28h-91c16 100 79 116 111 116z" />
    <glyph glyph-name="uni1ECA" unicode="&#x1eca;" horiz-adv-x="255" 
d="M274 700l-148 -700h-107l148 700h107zM116 -49l-23 -107h-107l23 107h107z" />
    <glyph glyph-name="Jcircumflex" unicode="&#x134;" horiz-adv-x="475" 
d="M-3 200h104c-2 -10 -3 -18 -3 -25c0 -47 29 -82 90 -82c64 0 86 28 101 99l108 508h107l-108 -508c-32 -143 -83 -202 -216 -202c-88 0 -186 55 -186 172c0 12 1 25 3 38zM513 745l-36 36l-52 -36h-140l155 109h84l109 -109h-120z" />
    <glyph glyph-name="uni0136" unicode="&#x136;" horiz-adv-x="630" 
d="M168 203l-43 -203h-106l148 700h107l-70 -327l347 327h146l-306 -288l184 -412h-116l-150 336zM178 -174l27 124h124l-27 -124l-49 -94h-79l49 94h-45z" />
    <glyph glyph-name="Lacute" unicode="&#x139;" horiz-adv-x="496" 
d="M19 0l148 700h107l-126 -597h306l-23 -103h-412zM239 854h137l-128 -109h-91z" />
    <glyph glyph-name="Lcaron" unicode="&#x13d;" horiz-adv-x="496" 
d="M535 700l-107 -158h-86l61 158h132zM19 0l148 700h107l-126 -597h306l-23 -103h-412z" />
    <glyph glyph-name="uni013B" unicode="&#x13b;" horiz-adv-x="496" 
d="M19 0l148 700h107l-126 -597h306l-23 -103h-412zM125 -174l27 124h124l-27 -124l-49 -94h-79l49 94h-45z" />
    <glyph glyph-name="Ldot" unicode="&#x13f;" horiz-adv-x="496" 
d="M19 0l148 700h107l-126 -597h306l-23 -103h-412zM466 458l-23 -107h-107l23 107h107z" />
    <glyph glyph-name="Lslash" unicode="&#x141;" horiz-adv-x="507" 
d="M30 0l54 258l-77 -38l19 90l77 38l75 352h107l-62 -292l160 80l-19 -90l-160 -80l-45 -215h306l-23 -103h-412z" />
    <glyph glyph-name="Eng" unicode="&#x14a;" horiz-adv-x="649" 
d="M412 2l-177 513l-110 -515h-106l148 700h107l178 -514l110 514h107l-149 -700c-27 -123 -88 -184 -216 -184h-72l22 103h63c47 0 78 36 95 83z" />
    <glyph glyph-name="Nacute" unicode="&#x143;" horiz-adv-x="649" 
d="M669 700l-149 -700h-107l-178 515l-110 -515h-106l148 700h107l178 -514l110 514h107zM436 854h137l-128 -109h-91z" />
    <glyph glyph-name="Ncaron" unicode="&#x147;" horiz-adv-x="649" 
d="M669 700l-149 -700h-107l-178 515l-110 -515h-106l148 700h107l178 -514l110 514h107zM396 854l36 -36l52 36h140l-155 -109h-84l-109 109h120z" />
    <glyph glyph-name="uni0145" unicode="&#x145;" horiz-adv-x="649" 
d="M669 700l-149 -700h-107l-178 515l-110 -515h-106l148 700h107l178 -514l110 514h107zM170 -174l27 124h124l-27 -124l-49 -94h-79l49 94h-45z" />
    <glyph glyph-name="OE" unicode="&#x152;" horiz-adv-x="918" 
d="M393 0l7 36c-27 -28 -83 -46 -131 -46c-125 0 -222 81 -222 202c0 51 11 97 51 276c36 168 127 242 280 242c69 0 124 -30 151 -69l12 59h412l-22 -103h-305l-41 -192h306l-22 -103h-306l-42 -199h306l-22 -103h-412zM205 468c-45 -204 -54 -236 -54 -260
c0 -79 58 -115 131 -115c68 0 139 39 160 139c43 203 54 237 54 260c0 79 -58 115 -131 115c-69 0 -138 -39 -160 -139z" />
    <glyph glyph-name="Obreve" unicode="&#x14e;" horiz-adv-x="608" 
d="M205 468c-45 -204 -54 -236 -54 -260c0 -79 58 -115 131 -115c68 0 139 39 160 139c43 203 54 237 54 260c0 79 -58 115 -131 115c-69 0 -138 -39 -160 -139zM549 232c-36 -168 -127 -242 -280 -242c-125 0 -222 81 -222 202c0 51 11 97 51 276c36 168 127 242 280 242
c125 0 222 -81 222 -202c0 -51 -11 -97 -51 -276zM508 854h87c-13 -61 -71 -109 -132 -109h-110c-53 0 -89 37 -89 86c0 7 1 15 3 23h76c-1 -1 -1 -3 -1 -4v-2c0 -15 8 -22 23 -22h109c16 0 31 12 34 28z" />
    <glyph glyph-name="Ohungarumlaut" unicode="&#x150;" horiz-adv-x="608" 
d="M205 468c-45 -204 -54 -236 -54 -260c0 -79 58 -115 131 -115c68 0 139 39 160 139c43 203 54 237 54 260c0 79 -58 115 -131 115c-69 0 -138 -39 -160 -139zM549 232c-36 -168 -127 -242 -280 -242c-125 0 -222 81 -222 202c0 51 11 97 51 276c36 168 127 242 280 242
c125 0 222 -81 222 -202c0 -51 -11 -97 -51 -276zM352 854h132l-118 -109h-86zM527 854h132l-118 -109h-86z" />
    <glyph glyph-name="Omacron" unicode="&#x14c;" horiz-adv-x="608" 
d="M205 468c-45 -204 -54 -236 -54 -260c0 -79 58 -115 131 -115c68 0 139 39 160 139c43 203 54 237 54 260c0 79 -58 115 -131 115c-69 0 -138 -39 -160 -139zM549 232c-36 -168 -127 -242 -280 -242c-125 0 -222 81 -222 202c0 51 11 97 51 276c36 168 127 242 280 242
c125 0 222 -81 222 -202c0 -51 -11 -97 -51 -276zM268 843h322l-19 -87h-322z" />
    <glyph glyph-name="uni1ECC" unicode="&#x1ecc;" horiz-adv-x="608" 
d="M205 468c-45 -204 -54 -236 -54 -260c0 -79 58 -115 131 -115c68 0 139 39 160 139c43 203 54 237 54 260c0 79 -58 115 -131 115c-69 0 -138 -39 -160 -139zM549 232c-36 -168 -127 -242 -280 -242c-125 0 -222 81 -222 202c0 51 11 97 51 276c36 168 127 242 280 242
c125 0 222 -81 222 -202c0 -51 -11 -97 -51 -276zM293 -49l-23 -107h-107l23 107h107z" />
    <glyph glyph-name="Racute" unicode="&#x154;" horiz-adv-x="609" 
d="M308 302h-118l-64 -302h-107l148 700h265c127 0 187 -83 187 -183c0 -120 -83 -196 -202 -212l114 -305h-110zM515 509c0 55 -23 88 -106 88h-157l-41 -195h168c84 0 136 53 136 107zM395 854h137l-128 -109h-91z" />
    <glyph glyph-name="Rcaron" unicode="&#x158;" horiz-adv-x="609" 
d="M308 302h-118l-64 -302h-107l148 700h265c127 0 187 -83 187 -183c0 -120 -83 -196 -202 -212l114 -305h-110zM515 509c0 55 -23 88 -106 88h-157l-41 -195h168c84 0 136 53 136 107zM361 854l36 -36l52 36h140l-155 -109h-84l-109 109h120z" />
    <glyph glyph-name="uni0156" unicode="&#x156;" horiz-adv-x="609" 
d="M308 302h-118l-64 -302h-107l148 700h265c127 0 187 -83 187 -183c0 -120 -83 -196 -202 -212l114 -305h-110zM515 509c0 55 -23 88 -106 88h-157l-41 -195h168c84 0 136 53 136 107zM159 -174l27 124h124l-27 -124l-49 -94h-79l49 94h-45z" />
    <glyph glyph-name="Sacute" unicode="&#x15a;" horiz-adv-x="555" 
d="M256 -10c-141 0 -240 84 -240 200c0 9 1 18 2 27h102v-12c0 -72 59 -112 146 -112c72 0 134 29 134 98c0 49 -19 77 -86 100l-102 34c-75 24 -124 90 -124 170c0 139 83 215 244 215c136 0 214 -99 214 -189c0 -5 0 -7 -1 -15h-103v8c0 55 -51 93 -118 93
c-66 0 -132 -27 -132 -94c0 -56 26 -80 78 -97l102 -34c85 -28 132 -94 132 -174c0 -141 -83 -218 -248 -218zM378 854h137l-128 -109h-91z" />
    <glyph glyph-name="Scaron" unicode="&#x160;" horiz-adv-x="555" 
d="M256 -10c-141 0 -240 84 -240 200c0 9 1 18 2 27h102v-12c0 -72 59 -112 146 -112c72 0 134 29 134 98c0 49 -19 77 -86 100l-102 34c-75 24 -124 90 -124 170c0 139 83 215 244 215c136 0 214 -99 214 -189c0 -5 0 -7 -1 -15h-103v8c0 55 -51 93 -118 93
c-66 0 -132 -27 -132 -94c0 -56 26 -80 78 -97l102 -34c85 -28 132 -94 132 -174c0 -141 -83 -218 -248 -218zM328 854l36 -36l52 36h140l-155 -109h-84l-109 109h120z" />
    <glyph glyph-name="Scedilla" unicode="&#x15e;" horiz-adv-x="555" 
d="M256 -10c-141 0 -240 84 -240 200c0 9 1 18 2 27h102v-12c0 -72 59 -112 146 -112c72 0 134 29 134 98c0 49 -19 77 -86 100l-102 34c-75 24 -124 90 -124 170c0 139 83 215 244 215c136 0 214 -99 214 -189c0 -5 0 -7 -1 -15h-103v8c0 55 -51 93 -118 93
c-66 0 -132 -27 -132 -94c0 -56 26 -80 78 -97l102 -34c85 -28 132 -94 132 -174c0 -141 -83 -218 -248 -218zM150 -158l60 158h93l-38 -158h-115z" />
    <glyph glyph-name="Scircumflex" unicode="&#x15c;" horiz-adv-x="555" 
d="M256 -10c-141 0 -240 84 -240 200c0 9 1 18 2 27h102v-12c0 -72 59 -112 146 -112c72 0 134 29 134 98c0 49 -19 77 -86 100l-102 34c-75 24 -124 90 -124 170c0 139 83 215 244 215c136 0 214 -99 214 -189c0 -5 0 -7 -1 -15h-103v8c0 55 -51 93 -118 93
c-66 0 -132 -27 -132 -94c0 -56 26 -80 78 -97l102 -34c85 -28 132 -94 132 -174c0 -141 -83 -218 -248 -218zM423 745l-36 36l-52 -36h-140l155 109h84l109 -109h-120z" />
    <glyph glyph-name="uni0218" unicode="&#x218;" horiz-adv-x="555" 
d="M256 -10c-141 0 -240 84 -240 200c0 9 1 18 2 27h102v-12c0 -72 59 -112 146 -112c72 0 134 29 134 98c0 49 -19 77 -86 100l-102 34c-75 24 -124 90 -124 170c0 139 83 215 244 215c136 0 214 -99 214 -189c0 -5 0 -7 -1 -15h-103v8c0 55 -51 93 -118 93
c-66 0 -132 -27 -132 -94c0 -56 26 -80 78 -97l102 -34c85 -28 132 -94 132 -174c0 -141 -83 -218 -248 -218zM132 -174l27 124h124l-27 -124l-49 -94h-79l49 94h-45z" />
    <glyph glyph-name="Tbar" unicode="&#x166;" horiz-adv-x="517" 
d="M582 597h-198l-45 -211h128l-15 -71h-128l-66 -315h-107l66 315h-126l15 71h126l45 211h-196l22 103h501z" />
    <glyph glyph-name="Tcaron" unicode="&#x164;" horiz-adv-x="517" 
d="M582 597h-198l-126 -597h-107l126 597h-196l22 103h501zM331 854l36 -36l52 36h140l-155 -109h-84l-109 109h120z" />
    <glyph glyph-name="uni0162" unicode="&#x162;" horiz-adv-x="517" 
d="M582 597h-198l-126 -597h-107l126 597h-196l22 103h501zM104 -174l27 124h124l-27 -124l-49 -94h-79l49 94h-45z" />
    <glyph glyph-name="uni021A" unicode="&#x21a;" horiz-adv-x="517" 
d="M582 597h-198l-126 -597h-107l126 597h-196l22 103h501zM104 -174l27 124h124l-27 -124l-49 -94h-79l49 94h-45z" />
    <glyph glyph-name="Ubreve" unicode="&#x16c;" horiz-adv-x="630" 
d="M161 208c0 -79 58 -115 131 -115c69 0 139 39 160 139l100 468h107l-100 -468c-35 -168 -127 -242 -280 -242c-125 0 -222 81 -222 202c0 66 61 329 101 508h107c-43 -204 -104 -463 -104 -492zM517 854h87c-13 -61 -71 -109 -132 -109h-110c-53 0 -89 37 -89 86
c0 7 1 15 3 23h76c-1 -1 -1 -3 -1 -4v-2c0 -15 8 -22 23 -22h109c16 0 31 12 34 28z" />
    <glyph glyph-name="Uhungarumlaut" unicode="&#x170;" horiz-adv-x="630" 
d="M161 208c0 -79 58 -115 131 -115c69 0 139 39 160 139l100 468h107l-100 -468c-35 -168 -127 -242 -280 -242c-125 0 -222 81 -222 202c0 66 61 329 101 508h107c-43 -204 -104 -463 -104 -492zM340 854h132l-118 -109h-86zM515 854h132l-118 -109h-86z" />
    <glyph glyph-name="Umacron" unicode="&#x16a;" horiz-adv-x="630" 
d="M161 208c0 -79 58 -115 131 -115c69 0 139 39 160 139l100 468h107l-100 -468c-35 -168 -127 -242 -280 -242c-125 0 -222 81 -222 202c0 66 61 329 101 508h107c-43 -204 -104 -463 -104 -492zM278 843h322l-19 -87h-322z" />
    <glyph glyph-name="Uogonek" unicode="&#x172;" horiz-adv-x="630" 
d="M161 208c0 -79 58 -115 131 -115c69 0 139 39 160 139l100 468h107l-100 -468c-21 -100 -63 -164 -124 -203c-21 -13 -147 -77 -147 -120c0 -13 10 -17 23 -17c19 0 43 10 58 17l-17 -80c-28 -12 -48 -18 -85 -18c-52 0 -92 21 -92 73c0 53 38 84 85 107
c-116 8 -203 85 -203 201c0 66 61 329 101 508h107c-43 -204 -104 -463 -104 -492z" />
    <glyph glyph-name="Uring" unicode="&#x16e;" horiz-adv-x="630" 
d="M161 208c0 -79 58 -115 131 -115c69 0 139 39 160 139l100 468h107l-100 -468c-35 -168 -127 -242 -280 -242c-125 0 -222 81 -222 202c0 66 61 329 101 508h107c-43 -204 -104 -463 -104 -492zM346 799c0 41 33 75 74 75s75 -34 75 -75s-34 -74 -75 -74s-74 33 -74 74z
M399 799c0 -12 9 -21 21 -21s21 9 21 21s-9 21 -21 21s-21 -9 -21 -21z" />
    <glyph glyph-name="Utilde" unicode="&#x168;" horiz-adv-x="630" 
d="M161 208c0 -79 58 -115 131 -115c69 0 139 39 160 139l100 468h107l-100 -468c-35 -168 -127 -242 -280 -242c-125 0 -222 81 -222 202c0 66 61 329 101 508h107c-43 -204 -104 -463 -104 -492zM369 859c17 0 33 0 52 -8l38 -16c7 -3 13 -6 20 -6c13 0 23 9 30 28h91
c-16 -100 -79 -116 -111 -116c-17 0 -33 0 -52 8l-38 16c-7 3 -13 6 -20 6c-13 0 -23 -9 -30 -28h-91c16 100 79 116 111 116z" />
    <glyph glyph-name="uni1EE4" unicode="&#x1ee4;" horiz-adv-x="630" 
d="M161 208c0 -79 58 -115 131 -115c69 0 139 39 160 139l100 468h107l-100 -468c-35 -168 -127 -242 -280 -242c-125 0 -222 81 -222 202c0 66 61 329 101 508h107c-43 -204 -104 -463 -104 -492zM302 -49l-23 -107h-107l23 107h107z" />
    <glyph glyph-name="Wacute" unicode="&#x1e82;" horiz-adv-x="743" 
d="M438 0l-20 445l-222 -445h-101l20 700h103l-14 -481l191 381h100l17 -388l193 488h112l-278 -700h-101zM485 854h137l-128 -109h-91z" />
    <glyph glyph-name="Wcircumflex" unicode="&#x174;" horiz-adv-x="743" 
d="M438 0l-20 445l-222 -445h-101l20 700h103l-14 -481l191 381h100l17 -388l193 488h112l-278 -700h-101zM529 745l-36 36l-52 -36h-140l155 109h84l109 -109h-120z" />
    <glyph glyph-name="Wdieresis" unicode="&#x1e84;" horiz-adv-x="743" 
d="M438 0l-20 445l-222 -445h-101l20 700h103l-14 -481l191 381h100l17 -388l193 488h112l-278 -700h-101zM456 853l-23 -107h-107l23 107h107zM647 853l-23 -107h-107l23 107h107z" />
    <glyph glyph-name="Wgrave" unicode="&#x1e80;" horiz-adv-x="743" 
d="M438 0l-20 445l-222 -445h-101l20 700h103l-14 -481l191 381h100l17 -388l193 488h112l-278 -700h-101zM339 854h132l59 -109h-86z" />
    <glyph glyph-name="Ycircumflex" unicode="&#x176;" horiz-adv-x="594" 
d="M691 700l-339 -433l-57 -267h-107l57 267l-154 433h107l113 -322l252 322h128zM455 745l-36 36l-52 -36h-140l155 109h84l109 -109h-120z" />
    <glyph glyph-name="Ydieresis" unicode="&#x178;" horiz-adv-x="594" 
d="M691 700l-339 -433l-57 -267h-107l57 267l-154 433h107l113 -322l252 322h128zM381 853l-23 -107h-107l23 107h107zM572 853l-23 -107h-107l23 107h107z" />
    <glyph glyph-name="Ygrave" unicode="&#x1ef2;" horiz-adv-x="594" 
d="M691 700l-339 -433l-57 -267h-107l57 267l-154 433h107l113 -322l252 322h128zM264 854h132l59 -109h-86z" />
    <glyph glyph-name="uni0232" unicode="&#x232;" horiz-adv-x="594" 
d="M691 700l-339 -433l-57 -267h-107l57 267l-154 433h107l113 -322l252 322h128zM261 843h322l-19 -87h-322z" />
    <glyph glyph-name="Zacute" unicode="&#x179;" horiz-adv-x="585" 
d="M491 0h-506l22 103l466 494h-357l22 103h497l-22 -103l-466 -494h366zM404 854h137l-128 -109h-91z" />
    <glyph glyph-name="Zcaron" unicode="&#x17d;" horiz-adv-x="585" 
d="M491 0h-506l22 103l466 494h-357l22 103h497l-22 -103l-466 -494h366zM364 854l36 -36l52 36h140l-155 -109h-84l-109 109h120z" />
    <glyph glyph-name="Zdotaccent" unicode="&#x17b;" horiz-adv-x="585" 
d="M491 0h-506l22 103l466 494h-357l22 103h497l-22 -103l-466 -494h366zM472 853l-23 -107h-107l23 107h107z" />
    <glyph glyph-name="abreve" unicode="&#x103;" horiz-adv-x="545" 
d="M181 356h-107c32 112 95 174 234 174c103 0 188 -60 188 -168c0 -55 -13 -106 -28 -170l-41 -192h-105l13 59c-24 -36 -77 -69 -145 -69c-108 0 -171 60 -171 147c0 85 35 134 140 163c67 17 144 21 232 24c3 9 3 20 3 23c0 51 -35 84 -99 84c-55 0 -95 -30 -114 -75z
M204 89c60 0 141 21 162 117l5 25c-93 -5 -141 -7 -189 -20c-36 -11 -61 -27 -61 -63c0 -41 34 -59 83 -59zM376 571h-70c-63 0 -105 44 -105 103c0 8 1 17 3 26h74c-1 -3 -1 -6 -1 -11c0 -23 17 -39 41 -39h69c28 0 53 22 60 50h85c-16 -72 -84 -129 -156 -129z" />
    <glyph glyph-name="amacron" unicode="&#x101;" horiz-adv-x="545" 
d="M181 356h-107c32 112 95 174 234 174c103 0 188 -60 188 -168c0 -55 -13 -106 -28 -170l-41 -192h-105l13 59c-24 -36 -77 -69 -145 -69c-108 0 -171 60 -171 147c0 85 35 134 140 163c67 17 144 21 232 24c3 9 3 20 3 23c0 51 -35 84 -99 84c-55 0 -95 -30 -114 -75z
M204 89c60 0 141 21 162 117l5 25c-93 -5 -141 -7 -189 -20c-36 -11 -61 -27 -61 -63c0 -41 34 -59 83 -59zM203 678h322l-19 -85h-322z" />
    <glyph glyph-name="aogonek" unicode="&#x105;" horiz-adv-x="545" 
d="M181 356h-107c32 112 95 174 234 174c103 0 188 -60 188 -168c0 -55 -13 -106 -28 -170l-41 -192h-105l13 59c-24 -36 -77 -69 -145 -69c-108 0 -171 60 -171 147c0 85 35 134 140 163c67 17 144 21 232 24c3 9 3 20 3 23c0 51 -35 84 -99 84c-55 0 -95 -30 -114 -75z
M204 89c60 0 141 21 162 117l5 25c-93 -5 -141 -7 -189 -20c-36 -11 -61 -27 -61 -63c0 -41 34 -59 83 -59zM322 0h105c-23 -15 -101 -54 -101 -92c0 -12 7 -18 22 -18c19 0 44 10 59 17l-17 -78c-27 -11 -54 -18 -85 -18c-52 0 -90 24 -90 71c0 64 48 94 107 118z" />
    <glyph glyph-name="cacute" unicode="&#x107;" horiz-adv-x="529" 
d="M499 362v-18h-102v4c0 51 -35 83 -99 83s-107 -40 -122 -100c-8 -38 -32 -140 -32 -158c0 -51 35 -84 99 -84c59 0 101 35 118 87h106c-30 -121 -94 -186 -237 -186c-103 0 -188 60 -188 168c0 55 13 106 28 170c27 132 93 202 241 202c103 0 188 -60 188 -168zM336 700
h135l-118 -129h-84z" />
    <glyph glyph-name="ccaron" unicode="&#x10d;" horiz-adv-x="529" 
d="M499 362v-18h-102v4c0 51 -35 83 -99 83s-107 -40 -122 -100c-8 -38 -32 -140 -32 -158c0 -51 35 -84 99 -84c59 0 101 35 118 87h106c-30 -121 -94 -186 -237 -186c-103 0 -188 60 -188 168c0 55 13 106 28 170c27 132 93 202 241 202c103 0 188 -60 188 -168zM294 571
l-105 129h106l45 -56l69 56h128l-159 -129h-84z" />
    <glyph glyph-name="ccircumflex" unicode="&#x109;" horiz-adv-x="529" 
d="M499 362v-18h-102v4c0 51 -35 83 -99 83s-107 -40 -122 -100c-8 -38 -32 -140 -32 -158c0 -51 35 -84 99 -84c59 0 101 35 118 87h106c-30 -121 -94 -186 -237 -186c-103 0 -188 60 -188 168c0 55 13 106 28 170c27 132 93 202 241 202c103 0 188 -60 188 -168zM405 700
l105 -129h-106l-45 56l-69 -56h-128l159 129h84z" />
    <glyph glyph-name="cdotaccent" unicode="&#x10b;" horiz-adv-x="529" 
d="M499 362v-18h-102v4c0 51 -35 83 -99 83s-107 -40 -122 -100c-8 -38 -32 -140 -32 -158c0 -51 35 -84 99 -84c59 0 101 35 118 87h106c-30 -121 -94 -186 -237 -186c-103 0 -188 60 -188 168c0 55 13 106 28 170c27 132 93 202 241 202c103 0 188 -60 188 -168zM413 689
l-23 -107h-105l23 107h105z" />
    <glyph glyph-name="dcaron" unicode="&#x10f;" horiz-adv-x="553" 
d="M765 700l-112 -158h-79l61 158h130zM365 189c8 38 32 140 32 158c0 51 -35 84 -99 84s-107 -40 -122 -100c-8 -38 -32 -140 -32 -158c0 -51 35 -84 99 -84s107 40 122 100zM291 530c77 0 114 -41 130 -77l52 247h105l-149 -700h-105l12 53c-21 -35 -70 -63 -126 -63
c-77 0 -168 60 -168 168c0 55 13 106 28 170c29 133 102 202 221 202z" />
    <glyph glyph-name="dslash" unicode="&#x111;" horiz-adv-x="553" 
d="M291 530c77 0 114 -41 130 -77l26 124h-120l15 66h119l12 57h105l-12 -57h71l-15 -66h-70l-123 -577h-105l12 53c-21 -35 -70 -63 -126 -63c-77 0 -168 60 -168 168c0 55 13 106 28 170c29 133 102 202 221 202zM365 189c8 38 32 140 32 158c0 51 -35 84 -99 84
s-107 -40 -122 -100c-8 -38 -32 -140 -32 -158c0 -51 35 -84 99 -84s107 40 122 100z" />
    <glyph glyph-name="ebreve" unicode="&#x115;" horiz-adv-x="539" 
d="M357 164h107c-31 -113 -97 -174 -234 -174c-103 0 -188 60 -188 168c0 55 13 106 28 170c27 132 93 202 241 202c103 0 188 -60 188 -168c0 -45 -9 -87 -21 -138h-326c-5 -25 -8 -42 -8 -51c0 -51 35 -84 99 -84c55 0 95 30 114 75zM172 315h220c3 17 5 27 5 32
c0 51 -35 84 -99 84c-75 0 -118 -55 -126 -116zM372 571h-70c-63 0 -105 44 -105 103c0 8 1 17 3 26h74c-1 -3 -1 -6 -1 -11c0 -23 17 -39 41 -39h69c28 0 53 22 60 50h85c-16 -72 -84 -129 -156 -129z" />
    <glyph glyph-name="ecaron" unicode="&#x11b;" horiz-adv-x="539" 
d="M357 164h107c-31 -113 -97 -174 -234 -174c-103 0 -188 60 -188 168c0 55 13 106 28 170c27 132 93 202 241 202c103 0 188 -60 188 -168c0 -45 -9 -87 -21 -138h-326c-5 -25 -8 -42 -8 -51c0 -51 35 -84 99 -84c55 0 95 30 114 75zM172 315h220c3 17 5 27 5 32
c0 51 -35 84 -99 84c-75 0 -118 -55 -126 -116zM295 571l-105 129h106l45 -56l69 56h128l-159 -129h-84z" />
    <glyph glyph-name="emacron" unicode="&#x113;" horiz-adv-x="539" 
d="M357 164h107c-31 -113 -97 -174 -234 -174c-103 0 -188 60 -188 168c0 55 13 106 28 170c27 132 93 202 241 202c103 0 188 -60 188 -168c0 -45 -9 -87 -21 -138h-326c-5 -25 -8 -42 -8 -51c0 -51 35 -84 99 -84c55 0 95 30 114 75zM172 315h220c3 17 5 27 5 32
c0 51 -35 84 -99 84c-75 0 -118 -55 -126 -116zM200 678h322l-19 -85h-322z" />
    <glyph glyph-name="eogonek" unicode="&#x119;" horiz-adv-x="539" 
d="M357 164h107c-19 -67 -49 -115 -96 -143c-29 -16 -136 -68 -136 -113c0 -12 7 -18 22 -18c19 0 44 10 59 17l-17 -78c-27 -11 -54 -18 -85 -18c-52 0 -90 24 -90 71c0 56 37 86 86 109c-93 8 -165 68 -165 167c0 55 13 106 28 170c27 132 93 202 241 202
c103 0 188 -60 188 -168c0 -45 -9 -87 -21 -138h-326c-5 -25 -8 -42 -8 -51c0 -51 35 -84 99 -84c55 0 95 30 114 75zM172 315h220c3 17 5 27 5 32c0 51 -35 84 -99 84c-75 0 -118 -55 -126 -116z" />
    <glyph glyph-name="edotaccent" unicode="&#x117;" horiz-adv-x="539" 
d="M357 164h107c-31 -113 -97 -174 -234 -174c-103 0 -188 60 -188 168c0 55 13 106 28 170c27 132 93 202 241 202c103 0 188 -60 188 -168c0 -45 -9 -87 -21 -138h-326c-5 -25 -8 -42 -8 -51c0 -51 35 -84 99 -84c55 0 95 30 114 75zM172 315h220c3 17 5 27 5 32
c0 51 -35 84 -99 84c-75 0 -118 -55 -126 -116zM414 689l-23 -107h-105l23 107h105z" />
    <glyph glyph-name="gbreve" unicode="&#x11f;" horiz-adv-x="551" 
d="M101 -10v-4c0 -47 35 -81 99 -81s111 40 124 100l17 78c-21 -35 -70 -63 -126 -63c-77 0 -168 60 -168 168c0 54 8 76 21 140c29 133 102 202 221 202c77 0 114 -41 130 -77l13 63h105l-109 -508c-30 -132 -92 -202 -241 -202c-103 0 -188 60 -188 168v16h102zM370 219
c8 40 25 108 25 128c0 51 -35 84 -99 84s-107 -40 -122 -100c-8 -40 -25 -108 -25 -128c0 -51 35 -84 99 -84s107 40 122 100zM370 571h-70c-63 0 -105 44 -105 103c0 8 1 17 3 26h74c-1 -3 -1 -6 -1 -11c0 -23 17 -39 41 -39h69c28 0 53 22 60 50h85
c-16 -72 -84 -129 -156 -129z" />
    <glyph glyph-name="gcircumflex" unicode="&#x11d;" horiz-adv-x="551" 
d="M101 -10v-4c0 -47 35 -81 99 -81s111 40 124 100l17 78c-21 -35 -70 -63 -126 -63c-77 0 -168 60 -168 168c0 54 8 76 21 140c29 133 102 202 221 202c77 0 114 -41 130 -77l13 63h105l-109 -508c-30 -132 -92 -202 -241 -202c-103 0 -188 60 -188 168v16h102zM370 219
c8 40 25 108 25 128c0 51 -35 84 -99 84s-107 -40 -122 -100c-8 -40 -25 -108 -25 -128c0 -51 35 -84 99 -84s107 40 122 100zM403 700l105 -129h-106l-45 56l-69 -56h-128l159 129h84z" />
    <glyph glyph-name="uni0123" unicode="&#x123;" horiz-adv-x="551" 
d="M101 -10v-4c0 -47 35 -81 99 -81s111 40 124 100l17 78c-21 -35 -70 -63 -126 -63c-77 0 -168 60 -168 168c0 54 8 76 21 140c29 133 102 202 221 202c77 0 114 -41 130 -77l13 63h105l-109 -508c-30 -132 -92 -202 -241 -202c-103 0 -188 60 -188 168v16h102zM370 219
c8 40 25 108 25 128c0 51 -35 84 -99 84s-107 -40 -122 -100c-8 -40 -25 -108 -25 -128c0 -51 35 -84 99 -84s107 40 122 100zM423 695l-27 -124h-124l27 124l49 94h79l-49 -94h45z" />
    <glyph glyph-name="gdotaccent" unicode="&#x121;" horiz-adv-x="551" 
d="M101 -10v-4c0 -47 35 -81 99 -81s111 40 124 100l17 78c-21 -35 -70 -63 -126 -63c-77 0 -168 60 -168 168c0 54 8 76 21 140c29 133 102 202 221 202c77 0 114 -41 130 -77l13 63h105l-109 -508c-30 -132 -92 -202 -241 -202c-103 0 -188 60 -188 168v16h102zM370 219
c8 40 25 108 25 128c0 51 -35 84 -99 84s-107 -40 -122 -100c-8 -40 -25 -108 -25 -128c0 -51 35 -84 99 -84s107 40 122 100zM412 689l-23 -107h-105l23 107h105z" />
    <glyph glyph-name="hbar" unicode="&#x127;" horiz-adv-x="562" 
d="M340 530c92 0 173 -63 173 -168c0 -55 -13 -106 -28 -170l-41 -192h-105l40 189c8 38 32 140 32 158c0 51 -35 84 -99 84s-109 -40 -122 -100l-71 -331h-105l123 577h-70l14 66h70l12 57h105l-13 -57h121l-15 -66h-120l-23 -110c20 32 66 63 122 63z" />
    <glyph glyph-name="hcircumflex" unicode="&#x125;" horiz-adv-x="562" 
d="M340 530c92 0 173 -63 173 -168c0 -55 -13 -106 -28 -170l-41 -192h-105l40 189c8 38 32 140 32 158c0 51 -35 84 -99 84s-109 -40 -122 -100l-71 -331h-105l149 700h105l-50 -233c20 32 66 63 122 63zM456 874l105 -129h-106l-45 56l-69 -56h-128l159 129h84z" />
    <glyph glyph-name="dotlessi" unicode="&#x131;" horiz-adv-x="243" 
d="M229 516l-109 -516h-105l109 516h105z" />
    <glyph glyph-name="ibreve" unicode="&#x12d;" horiz-adv-x="243" 
d="M229 516l-109 -516h-105l109 516h105zM224 571h-70c-63 0 -105 44 -105 103c0 8 1 17 3 26h74c-1 -3 -1 -6 -1 -11c0 -23 17 -39 41 -39h69c28 0 53 22 60 50h85c-16 -72 -84 -129 -156 -129z" />
    <glyph glyph-name="imacron" unicode="&#x12b;" horiz-adv-x="243" 
d="M229 516l-109 -516h-105l109 516h105zM51 678h322l-19 -85h-322z" />
    <glyph glyph-name="iogonek" unicode="&#x12f;" horiz-adv-x="243" 
d="M268 700l-23 -107h-105l23 107h105zM14 0l110 516h105l-110 -516c-23 -15 -101 -54 -101 -92c0 -12 7 -18 22 -18c19 0 44 10 59 17l-17 -78c-27 -11 -54 -18 -85 -18c-52 0 -90 24 -90 71c0 64 48 94 107 118z" />
    <glyph glyph-name="itilde" unicode="&#x129;" horiz-adv-x="243" 
d="M229 516l-109 -516h-105l109 516h105zM117 579h-84c16 100 79 116 111 116c17 0 33 -1 52 -9l38 -16c7 -3 16 -7 27 -7c12 0 22 7 30 30h84c-16 -100 -79 -116 -111 -116c-17 0 -33 1 -52 9l-38 16c-7 3 -16 7 -27 7c-12 0 -22 -7 -30 -30z" />
    <glyph glyph-name="uni1ECB" unicode="&#x1ecb;" horiz-adv-x="243" 
d="M268 700l-23 -107h-105l23 107h105zM229 516l-110 -516h-105l110 516h105zM108 -49l-23 -107h-105l23 107h105z" />
    <glyph glyph-name="uni0237" unicode="&#x237;" horiz-adv-x="243" 
d="M229 516l-122 -573c-17 -81 -57 -127 -156 -127h-39l22 99h15c40 0 50 12 58 51l117 550h105z" />
    <glyph glyph-name="jcircumflex" unicode="&#x135;" horiz-adv-x="243" 
d="M7 -34l117 550h105l-123 -577c-17 -81 -63 -123 -148 -123h-46l22 101h16c31 0 49 10 57 49zM257 700l105 -129h-106l-45 56l-69 -56h-128l159 129h84z" />
    <glyph glyph-name="uni0137" unicode="&#x137;" horiz-adv-x="526" 
d="M268 700l-81 -380l222 196h140l-229 -202l147 -314h-112l-114 244l-86 -76l-36 -168h-105l149 700h105zM122 -174l27 124h124l-27 -124l-49 -94h-79l49 94h-45z" />
    <glyph glyph-name="lacute" unicode="&#x13a;" horiz-adv-x="272" 
d="M161 700h105c-116 -539 -120 -562 -120 -570c0 -21 14 -31 41 -31h16l-22 -99h-15c-88 0 -124 59 -124 107c0 47 15 105 119 593zM223 874h135l-118 -129h-84z" />
    <glyph glyph-name="lcaron" unicode="&#x13e;" horiz-adv-x="272" 
d="M454 700l-112 -158h-79l61 158h130zM161 700h105c-116 -539 -120 -562 -120 -570c0 -21 14 -31 41 -31h16l-22 -99h-15c-88 0 -124 59 -124 107c0 47 15 105 119 593z" />
    <glyph glyph-name="uni013C" unicode="&#x13c;" horiz-adv-x="272" 
d="M161 700h105c-116 -539 -120 -562 -120 -570c0 -21 14 -31 41 -31h16l-22 -99h-15c-88 0 -124 59 -124 107c0 47 15 105 119 593zM-3 -174l27 124h124l-27 -124l-49 -94h-79l49 94h-45z" />
    <glyph glyph-name="ldot" unicode="&#x140;" horiz-adv-x="328" 
d="M161 700h105c-116 -539 -120 -562 -120 -570c0 -21 14 -31 41 -31h16l-22 -99h-15c-88 0 -124 59 -124 107c0 47 15 105 119 593zM379 456l-23 -107h-105l23 107h105z" />
    <glyph glyph-name="lslash" unicode="&#x142;" horiz-adv-x="292" 
d="M171 700h105l-54 -252l72 36l-17 -82l-73 -37c-45 -213 -48 -230 -48 -235c0 -21 14 -31 41 -31h16l-22 -99h-15c-88 0 -124 59 -124 107c0 28 4 62 34 199l-69 -35l17 82l70 35z" />
    <glyph glyph-name="eng" unicode="&#x14b;" horiz-adv-x="562" 
d="M485 192l-54 -253c-16 -80 -52 -123 -149 -123h-46l22 99h16c40 0 50 12 58 51l47 223c8 38 32 140 32 158c0 51 -35 84 -99 84s-109 -40 -122 -100l-71 -331h-105l110 516h105l-11 -49c20 32 66 63 122 63c92 0 173 -63 173 -168c0 -55 -13 -106 -28 -170z" />
    <glyph glyph-name="nacute" unicode="&#x144;" horiz-adv-x="562" 
d="M340 530c92 0 173 -63 173 -168c0 -55 -13 -106 -28 -170l-41 -192h-105l40 189c8 38 32 140 32 158c0 51 -35 84 -99 84s-109 -40 -122 -100l-71 -331h-105l110 516h105l-11 -49c20 32 66 63 122 63zM350 700h135l-118 -129h-84z" />
    <glyph glyph-name="ncaron" unicode="&#x148;" horiz-adv-x="562" 
d="M340 530c92 0 173 -63 173 -168c0 -55 -13 -106 -28 -170l-41 -192h-105l40 189c8 38 32 140 32 158c0 51 -35 84 -99 84s-109 -40 -122 -100l-71 -331h-105l110 516h105l-11 -49c20 32 66 63 122 63zM309 571l-105 129h106l45 -56l69 56h128l-159 -129h-84z" />
    <glyph glyph-name="uni0146" unicode="&#x146;" horiz-adv-x="562" 
d="M340 530c92 0 173 -63 173 -168c0 -55 -13 -106 -28 -170l-41 -192h-105l40 189c8 38 32 140 32 158c0 51 -35 84 -99 84s-109 -40 -122 -100l-71 -331h-105l110 516h105l-11 -49c20 32 66 63 122 63zM130 -174l27 124h124l-27 -124l-49 -94h-79l49 94h-45z" />
    <glyph glyph-name="oe" unicode="&#x153;" horiz-adv-x="865" 
d="M556 -10c-75 0 -126 32 -153 69c-37 -41 -93 -69 -173 -69c-103 0 -188 60 -188 168c0 55 13 106 28 170c27 132 93 202 241 202c75 0 126 -32 153 -69c37 41 93 69 173 69c103 0 188 -60 188 -168c0 -45 -9 -87 -21 -138h-326c-5 -25 -8 -42 -8 -51c0 -51 35 -84 99 -84
c55 0 95 30 114 75h107c-31 -113 -97 -174 -234 -174zM176 331c-8 -38 -32 -140 -32 -158c0 -51 35 -84 99 -84s107 40 122 100c8 38 32 140 32 158c0 51 -35 84 -99 84s-107 -40 -122 -100zM498 315h220c3 17 5 27 5 32c0 51 -35 84 -99 84c-75 0 -118 -55 -126 -116z" />
    <glyph glyph-name="obreve" unicode="&#x14f;" horiz-adv-x="541" 
d="M176 331c-8 -38 -32 -140 -32 -158c0 -51 35 -84 99 -84s107 40 122 100c8 38 32 140 32 158c0 51 -35 84 -99 84s-107 -40 -122 -100zM471 192c-30 -132 -92 -202 -241 -202c-103 0 -188 60 -188 168c0 55 13 106 28 170c27 132 93 202 241 202c103 0 188 -60 188 -168
c0 -55 -13 -106 -28 -170zM372 571h-70c-63 0 -105 44 -105 103c0 8 1 17 3 26h74c-1 -3 -1 -6 -1 -11c0 -23 17 -39 41 -39h69c28 0 53 22 60 50h85c-16 -72 -84 -129 -156 -129z" />
    <glyph glyph-name="ohungarumlaut" unicode="&#x151;" horiz-adv-x="541" 
d="M176 331c-8 -38 -32 -140 -32 -158c0 -51 35 -84 99 -84s107 40 122 100c8 38 32 140 32 158c0 51 -35 84 -99 84s-107 -40 -122 -100zM471 192c-30 -132 -92 -202 -241 -202c-103 0 -188 60 -188 168c0 55 13 106 28 170c27 132 93 202 241 202c103 0 188 -60 188 -168
c0 -55 -13 -106 -28 -170zM247 700h130l-108 -129h-79zM422 700h130l-108 -129h-79z" />
    <glyph glyph-name="omacron" unicode="&#x14d;" horiz-adv-x="541" 
d="M176 331c-8 -38 -32 -140 -32 -158c0 -51 35 -84 99 -84s107 40 122 100c8 38 32 140 32 158c0 51 -35 84 -99 84s-107 -40 -122 -100zM471 192c-30 -132 -92 -202 -241 -202c-103 0 -188 60 -188 168c0 55 13 106 28 170c27 132 93 202 241 202c103 0 188 -60 188 -168
c0 -55 -13 -106 -28 -170zM199 678h322l-19 -85h-322z" />
    <glyph glyph-name="uni1ECD" unicode="&#x1ecd;" horiz-adv-x="541" 
d="M176 331c-8 -38 -32 -140 -32 -158c0 -51 35 -84 99 -84s107 40 122 100c8 38 32 140 32 158c0 51 -35 84 -99 84s-107 -40 -122 -100zM471 192c-30 -132 -92 -202 -241 -202c-103 0 -188 60 -188 168c0 55 13 106 28 170c27 132 93 202 241 202c103 0 188 -60 188 -168
c0 -55 -13 -106 -28 -170zM257 -49l-23 -107h-105l23 107h105z" />
    <glyph glyph-name="racute" unicode="&#x155;" horiz-adv-x="345" 
d="M369 423h-59c-64 0 -108 -37 -121 -97l-70 -326h-105l110 516h105l-12 -54c20 32 66 63 122 63h52zM267 700h135l-118 -129h-84z" />
    <glyph glyph-name="rcaron" unicode="&#x159;" horiz-adv-x="345" 
d="M369 423h-59c-64 0 -108 -37 -121 -97l-70 -326h-105l110 516h105l-12 -54c20 32 66 63 122 63h52zM227 571l-105 129h106l45 -56l69 56h128l-159 -129h-84z" />
    <glyph glyph-name="uni0157" unicode="&#x157;" horiz-adv-x="345" 
d="M369 423h-59c-64 0 -108 -37 -121 -97l-70 -326h-105l110 516h105l-12 -54c20 32 66 63 122 63h52zM-32 -174l27 124h124l-27 -124l-49 -94h-79l49 94h-45z" />
    <glyph glyph-name="sacute" unicode="&#x15b;" horiz-adv-x="482" 
d="M221 -10c-118 0 -207 60 -207 158v17h102v-4c0 -48 58 -72 113 -72c46 0 94 16 94 56c0 28 -17 43 -53 54l-100 31c-56 17 -103 58 -103 134c0 108 73 166 200 166c116 0 187 -69 187 -155v-10h-104v4c0 41 -44 62 -92 62c-49 0 -87 -19 -87 -54c0 -31 13 -43 44 -52
l100 -31c71 -23 112 -66 112 -130c0 -116 -83 -174 -206 -174zM307 700h135l-118 -129h-84z" />
    <glyph glyph-name="scaron" unicode="&#x161;" horiz-adv-x="482" 
d="M221 -10c-118 0 -207 60 -207 158v17h102v-4c0 -48 58 -72 113 -72c46 0 94 16 94 56c0 28 -17 43 -53 54l-100 31c-56 17 -103 58 -103 134c0 108 73 166 200 166c116 0 187 -69 187 -155v-10h-104v4c0 41 -44 62 -92 62c-49 0 -87 -19 -87 -54c0 -31 13 -43 44 -52
l100 -31c71 -23 112 -66 112 -130c0 -116 -83 -174 -206 -174zM255 571l-105 129h106l45 -56l69 56h128l-159 -129h-84z" />
    <glyph glyph-name="scedilla" unicode="&#x15f;" horiz-adv-x="482" 
d="M221 -10c-118 0 -207 60 -207 158v17h102v-4c0 -48 58 -72 113 -72c46 0 94 16 94 56c0 28 -17 43 -53 54l-100 31c-56 17 -103 58 -103 134c0 108 73 166 200 166c116 0 187 -69 187 -155v-10h-104v4c0 41 -44 62 -92 62c-49 0 -87 -19 -87 -54c0 -31 13 -43 44 -52
l100 -31c71 -23 112 -66 112 -130c0 -116 -83 -174 -206 -174zM109 -158l65 158h86l-38 -158h-113z" />
    <glyph glyph-name="scircumflex" unicode="&#x15d;" horiz-adv-x="482" 
d="M221 -10c-118 0 -207 60 -207 158v17h102v-4c0 -48 58 -72 113 -72c46 0 94 16 94 56c0 28 -17 43 -53 54l-100 31c-56 17 -103 58 -103 134c0 108 73 166 200 166c116 0 187 -69 187 -155v-10h-104v4c0 41 -44 62 -92 62c-49 0 -87 -19 -87 -54c0 -31 13 -43 44 -52
l100 -31c71 -23 112 -66 112 -130c0 -116 -83 -174 -206 -174zM376 700l105 -129h-106l-45 56l-69 -56h-128l159 129h84z" />
    <glyph glyph-name="uni0219" unicode="&#x219;" horiz-adv-x="482" 
d="M221 -10c-118 0 -207 60 -207 158v17h102v-4c0 -48 58 -72 113 -72c46 0 94 16 94 56c0 28 -17 43 -53 54l-100 31c-56 17 -103 58 -103 134c0 108 73 166 200 166c116 0 187 -69 187 -155v-10h-104v4c0 41 -44 62 -92 62c-49 0 -87 -19 -87 -54c0 -31 13 -43 44 -52
l100 -31c71 -23 112 -66 112 -130c0 -116 -83 -174 -206 -174zM105 -174l27 124h124l-27 -124l-49 -94h-79l49 94h-45z" />
    <glyph glyph-name="tbar" unicode="&#x167;" horiz-adv-x="359" 
d="M359 419h-127l-22 -102h128l-15 -66h-127c-21 -106 -23 -116 -23 -121c0 -21 14 -31 41 -31h78l-22 -99h-77c-88 0 -124 59 -124 107c0 24 3 53 22 144h-73l15 66h72c7 29 13 63 22 102h-73l21 97h73l25 117h105l-25 -117h127z" />
    <glyph glyph-name="tcaron" unicode="&#x165;" horiz-adv-x="359" 
d="M493 700l-96 -129h-79l45 129h130zM359 419h-127c-56 -267 -59 -281 -59 -289c0 -21 14 -31 41 -31h78l-22 -99h-77c-88 0 -124 59 -124 107c0 35 7 80 58 312h-73l21 97h73l25 117h105l-25 -117h127z" />
    <glyph glyph-name="uni0163" unicode="&#x163;" horiz-adv-x="359" 
d="M359 419h-127c-56 -267 -59 -281 -59 -289c0 -21 14 -31 41 -31h78l-22 -99h-77c-88 0 -124 59 -124 107c0 35 7 80 58 312h-73l21 97h73l25 117h105l-25 -117h127zM54 -174l27 124h124l-27 -124l-49 -94h-79l49 94h-45z" />
    <glyph glyph-name="uni021B" unicode="&#x21b;" horiz-adv-x="359" 
d="M359 419h-127c-56 -267 -59 -281 -59 -289c0 -21 14 -31 41 -31h78l-22 -99h-77c-88 0 -124 59 -124 107c0 35 7 80 58 312h-73l21 97h73l25 117h105l-25 -117h127zM54 -174l27 124h124l-27 -124l-49 -94h-79l49 94h-45z" />
    <glyph glyph-name="ubreve" unicode="&#x16d;" horiz-adv-x="557" 
d="M213 -10c-77 0 -163 62 -163 168c0 55 13 106 28 170l40 188h105l-39 -185c-8 -38 -32 -139 -32 -158c0 -52 40 -84 92 -84c68 0 111 41 124 100l70 327h105l-110 -516h-105l12 53c-16 -32 -68 -63 -127 -63zM377 571h-70c-63 0 -105 44 -105 103c0 8 1 17 3 26h74
c-1 -3 -1 -6 -1 -11c0 -23 17 -39 41 -39h69c28 0 53 22 60 50h85c-16 -72 -84 -129 -156 -129z" />
    <glyph glyph-name="uhungarumlaut" unicode="&#x171;" horiz-adv-x="557" 
d="M213 -10c-77 0 -163 62 -163 168c0 55 13 106 28 170l40 188h105l-39 -185c-8 -38 -32 -139 -32 -158c0 -52 40 -84 92 -84c68 0 111 41 124 100l70 327h105l-110 -516h-105l12 53c-16 -32 -68 -63 -127 -63zM249 700h130l-108 -129h-79zM424 700h130l-108 -129h-79z" />
    <glyph glyph-name="umacron" unicode="&#x16b;" horiz-adv-x="557" 
d="M213 -10c-77 0 -163 62 -163 168c0 55 13 106 28 170l40 188h105l-39 -185c-8 -38 -32 -139 -32 -158c0 -52 40 -84 92 -84c68 0 111 41 124 100l70 327h105l-110 -516h-105l12 53c-16 -32 -68 -63 -127 -63zM205 678h322l-19 -85h-322z" />
    <glyph glyph-name="uogonek" unicode="&#x173;" horiz-adv-x="557" 
d="M213 -10c-77 0 -163 62 -163 168c0 55 13 106 28 170l40 188h105l-39 -185c-8 -38 -32 -139 -32 -158c0 -52 40 -84 92 -84c68 0 111 41 124 100l70 327h105l-110 -516h-105l12 53c-16 -32 -68 -63 -127 -63zM328 0h105c-23 -15 -101 -54 -101 -92c0 -12 7 -18 22 -18
c19 0 44 10 59 17l-17 -78c-27 -11 -54 -18 -85 -18c-52 0 -90 24 -90 71c0 64 48 94 107 118z" />
    <glyph glyph-name="uring" unicode="&#x16f;" horiz-adv-x="557" 
d="M213 -10c-77 0 -163 62 -163 168c0 55 13 106 28 170l40 188h105l-39 -185c-8 -38 -32 -139 -32 -158c0 -52 40 -84 92 -84c68 0 111 41 124 100l70 327h105l-110 -516h-105l12 53c-16 -32 -68 -63 -127 -63zM271 635c0 41 33 75 74 75s75 -34 75 -75s-34 -74 -75 -74
s-74 33 -74 74zM322 635c0 -13 10 -23 23 -23s23 10 23 23s-10 23 -23 23s-23 -10 -23 -23z" />
    <glyph glyph-name="utilde" unicode="&#x169;" horiz-adv-x="557" 
d="M213 -10c-77 0 -163 62 -163 168c0 55 13 106 28 170l40 188h105l-39 -185c-8 -38 -32 -139 -32 -158c0 -52 40 -84 92 -84c68 0 111 41 124 100l70 327h105l-110 -516h-105l12 53c-16 -32 -68 -63 -127 -63zM269 579h-84c16 100 79 116 111 116c17 0 33 -1 52 -9l38 -16
c7 -3 16 -7 27 -7c12 0 22 7 30 30h84c-16 -100 -79 -116 -111 -116c-17 0 -33 1 -52 9l-38 16c-7 3 -16 7 -27 7c-12 0 -22 -7 -30 -30z" />
    <glyph glyph-name="uni1EE5" unicode="&#x1ee5;" horiz-adv-x="557" 
d="M213 -10c-77 0 -163 62 -163 168c0 55 13 106 28 170l40 188h105l-39 -185c-8 -38 -32 -139 -32 -158c0 -52 40 -84 92 -84c68 0 111 41 124 100l70 327h105l-110 -516h-105l12 53c-16 -32 -68 -63 -127 -63zM264 -49l-23 -107h-105l23 107h105z" />
    <glyph glyph-name="wacute" unicode="&#x1e83;" horiz-adv-x="688" 
d="M451 516l13 -353l159 353h113l-245 -516h-105l-14 377l-173 -377h-110l-27 516h103l12 -355l163 355h111zM410 700h135l-118 -129h-84z" />
    <glyph glyph-name="wcircumflex" unicode="&#x175;" horiz-adv-x="688" 
d="M451 516l13 -353l159 353h113l-245 -516h-105l-14 377l-173 -377h-110l-27 516h103l12 -355l163 355h111zM479 700l105 -129h-106l-45 56l-69 -56h-128l159 129h84z" />
    <glyph glyph-name="wdieresis" unicode="&#x1e85;" horiz-adv-x="688" 
d="M451 516l13 -353l159 353h113l-245 -516h-105l-14 377l-173 -377h-110l-27 516h103l12 -355l163 355h111zM393 689l-23 -107h-105l23 107h105zM586 689l-23 -107h-105l23 107h105z" />
    <glyph glyph-name="wgrave" unicode="&#x1e81;" horiz-adv-x="688" 
d="M451 516l13 -353l159 353h113l-245 -516h-105l-14 377l-173 -377h-110l-27 516h103l12 -355l163 355h111zM290 700h130l40 -129h-79z" />
    <glyph glyph-name="ycircumflex" unicode="&#x177;" horiz-adv-x="476" 
d="M129 19l-74 497h104l50 -362l204 362h118l-360 -628c-24 -43 -65 -72 -132 -72h-54l22 99h21c47 0 55 22 79 66zM374 700l105 -129h-106l-45 56l-69 -56h-128l159 129h84z" />
    <glyph glyph-name="ygrave" unicode="&#x1ef3;" horiz-adv-x="476" 
d="M129 19l-74 497h104l50 -362l204 362h118l-360 -628c-24 -43 -65 -72 -132 -72h-54l22 99h21c47 0 55 22 79 66zM185 700h130l40 -129h-79z" />
    <glyph glyph-name="uni0233" unicode="&#x233;" horiz-adv-x="476" 
d="M129 19l-74 497h104l50 -362l204 362h118l-360 -628c-24 -43 -65 -72 -132 -72h-54l22 99h21c47 0 55 22 79 66zM167 678h322l-19 -85h-322z" />
    <glyph glyph-name="zacute" unicode="&#x17a;" horiz-adv-x="450" 
d="M444 419l-304 -322h244l-21 -97h-384l21 97l304 322h-231l21 97h371zM291 700h135l-118 -129h-84z" />
    <glyph glyph-name="zcaron" unicode="&#x17e;" horiz-adv-x="450" 
d="M444 419l-304 -322h244l-21 -97h-384l21 97l304 322h-231l21 97h371zM250 571l-105 129h106l45 -56l69 56h128l-159 -129h-84z" />
    <glyph glyph-name="zdotaccent" unicode="&#x17c;" horiz-adv-x="450" 
d="M444 419l-304 -322h244l-21 -97h-384l21 97l304 322h-231l21 97h371zM370 689l-23 -107h-105l23 107h105z" />
    <glyph glyph-name="ellipsis" unicode="&#x2026;" horiz-adv-x="835" 
d="M295 0l29 134h134l-29 -134h-134zM573 0l29 134h134l-29 -134h-134zM18 0l29 134h134l-29 -134h-134z" />
    <glyph glyph-name="endash" unicode="&#x2013;" horiz-adv-x="528" 
d="M64 326h430l-19 -91h-430z" />
    <glyph glyph-name="emdash" unicode="&#x2014;" horiz-adv-x="833" 
d="M64 326h735l-19 -91h-735z" />
    <glyph glyph-name="guilsinglleft" unicode="&#x2039;" horiz-adv-x="282" 
d="M179 75l-139 151l19 94l205 151l-29 -135l-100 -74l68 -74z" />
    <glyph glyph-name="guilsinglright" unicode="&#x203a;" horiz-adv-x="282" 
d="M105 471l139 -151l-19 -94l-205 -151l29 135l100 74l-68 74z" />
    <glyph glyph-name="quoteleft" unicode="&#x2018;" horiz-adv-x="258" 
d="M269 596l-29 -134h-134l29 134l61 104h79l-62 -104h56z" />
    <glyph glyph-name="quoteright" unicode="&#x2019;" horiz-adv-x="258" 
d="M128 566l29 134h134l-29 -134l-61 -104h-79l61 104h-55z" />
    <glyph glyph-name="quotedblleft" unicode="&#x201c;" horiz-adv-x="459" 
d="M269 596l-29 -134h-134l29 134l61 104h79l-62 -104h56zM470 596l-29 -134h-134l29 134l61 104h79l-62 -104h56z" />
    <glyph glyph-name="quotedblright" unicode="&#x201d;" horiz-adv-x="459" 
d="M128 566l29 134h134l-29 -134l-61 -104h-79l61 104h-55zM329 566l29 134h134l-29 -134l-61 -104h-79l61 104h-55z" />
    <glyph glyph-name="quotesinglbase" unicode="&#x201a;" horiz-adv-x="258" 
d="M7 0l29 134h134l-29 -134l-61 -104h-79l61 104h-55z" />
    <glyph glyph-name="quotedblbase" unicode="&#x201e;" horiz-adv-x="459" 
d="M7 0l29 134h134l-29 -134l-61 -104h-79l61 104h-55zM208 0l29 134h134l-29 -134l-61 -104h-79l61 104h-55z" />
    <glyph glyph-name="bullet" unicode="&#x2022;" horiz-adv-x="800" 
d="M251 298c0 93 75 168 168 168s168 -75 168 -168s-75 -168 -168 -168s-168 75 -168 168z" />
    <glyph glyph-name="dagger" unicode="&#x2020;" horiz-adv-x="597" 
d="M139 516h167l39 184h95l-39 -184h167l-19 -89h-167l-109 -514h-95l109 514h-167z" />
    <glyph glyph-name="daggerdbl" unicode="&#x2021;" horiz-adv-x="597" 
d="M139 516h167l39 184h95l-39 -184h167l-19 -89h-167l-51 -241h167l-19 -89h-167l-39 -184h-95l39 184h-167l19 89h167l51 241h-167z" />
    <glyph glyph-name="perthousand" unicode="&#x2030;" horiz-adv-x="1203" 
d="M966 67c32 0 52 17 60 52c13 67 36 163 36 181c0 17 -7 39 -48 39c-32 0 -52 -17 -60 -52c-13 -68 -36 -163 -36 -181c0 -17 5 -39 48 -39zM961 -6c-75 0 -125 48 -125 107c0 32 28 165 33 181c21 88 61 130 150 130c75 0 125 -48 125 -107c0 -32 -30 -165 -33 -181
c-21 -88 -61 -130 -150 -130zM651 700h95l-481 -700h-95zM227 361c32 0 52 17 60 52c13 67 36 163 36 181c0 17 -7 39 -48 39c-32 0 -52 -17 -60 -52c-13 -68 -36 -163 -36 -181c0 -17 5 -39 48 -39zM222 288c-75 0 -125 48 -125 107c0 32 28 165 33 181
c21 88 61 130 150 130c75 0 125 -48 125 -107c0 -32 -30 -165 -33 -181c-21 -88 -61 -130 -150 -130zM639 67c32 0 52 17 60 52c13 67 36 163 36 181c0 17 -7 39 -48 39c-32 0 -52 -17 -60 -52c-13 -68 -36 -163 -36 -181c0 -17 5 -39 48 -39zM634 -6
c-75 0 -125 48 -125 107c0 32 28 165 33 181c21 88 61 130 150 130c75 0 125 -48 125 -107c0 -32 -30 -165 -33 -181c-21 -88 -61 -130 -150 -130z" />
    <glyph glyph-name="uni2117" unicode="&#x2117;" horiz-adv-x="798" 
d="M58 350c0 200 160 360 360 360s360 -160 360 -360s-160 -360 -360 -360s-360 160 -360 360zM153 350c0 -147 117 -266 265 -266s265 119 265 266s-117 266 -265 266s-265 -119 -265 -266zM292 158v383h165c93 0 135 -66 135 -138s-42 -139 -135 -139h-80v-106h-85z
M377 349h80c35 0 51 30 51 54s-16 53 -51 53h-80v-107z" />
    <glyph glyph-name="trademark" unicode="&#x2122;" horiz-adv-x="753" 
d="M180 294v325h-113v81h311v-81h-113v-325h-85zM418 294v406h82l98 -204l98 204h83v-406h-82v248l-66 -139h-65l-66 139v-248h-82z" />
    <glyph glyph-name="lozenge" unicode="&#x25ca;" horiz-adv-x="566" 
d="M544 350l-203 -350h-82l-203 350l203 350h82zM162 350l138 -238l138 238l-138 238z" />
    <glyph glyph-name="uni2113" unicode="&#x2113;" horiz-adv-x="347" 
d="M62 221l73 338c23 101 72 151 157 151c61 0 96 -41 96 -97c0 -144 -111 -285 -214 -359c-29 -135 -29 -139 -29 -158c0 -39 30 -52 55 -52c19 0 41 4 65 9l3 -31c-39 -19 -79 -32 -115 -32c-63 0 -113 23 -113 106c0 13 0 22 11 73l-52 -36l-18 32zM231 518l-44 -207
c83 75 163 193 163 277c0 24 -18 39 -42 39c-44 0 -62 -37 -77 -109z" />
    <glyph glyph-name="uni2116" unicode="&#x2116;" horiz-adv-x="938" 
d="M657 365h276l-15 -71h-276zM822 468c32 0 52 18 59 54c5 24 13 59 13 70c0 23 -11 44 -47 44c-31 0 -51 -18 -59 -55c-7 -23 -13 -58 -13 -69c0 -23 11 -44 47 -44zM817 395c-79 0 -125 51 -125 122c0 8 5 47 10 59c21 88 59 132 150 132c79 0 125 -50 125 -121
c0 -9 -7 -46 -10 -59c-21 -88 -59 -133 -150 -133zM669 700l-149 -700h-107l-178 515l-110 -515h-106l148 700h107l178 -514l110 514h107z" />
    <glyph glyph-name="apple" horiz-adv-x="616" 
d="M176 0v26c-37 8 -49 31 -49 78v256c-18 0 -30 8 -37 24c-16 7 -24 19 -24 37c0 11 4 21 11 28c-24 11 -36 31 -36 59c0 25 13 48 36 59c-7 7 -11 17 -11 28c0 20 13 37 32 40c8 27 32 48 63 48c16 0 31 -6 44 -17c9 25 33 44 61 44c23 0 43 -12 55 -31c9 5 19 7 29 7
c25 0 48 -14 59 -37c8 8 17 12 28 12c17 0 30 -8 37 -24c29 -7 51 -33 51 -64c0 -25 -14 -46 -34 -57v-38h4c63 0 80 -23 80 -80v-215c0 -57 -17 -80 -80 -80h-4c0 -47 -12 -69 -49 -77v-26h-266zM442 104v406c-11 3 -21 8 -29 17h-83c-13 -13 -28 -19 -46 -19
c-23 0 -40 9 -53 27c-5 -2 -11 -3 -16 -3c-12 0 -22 4 -29 11c-3 -5 -6 -10 -10 -15v-424c0 -25 8 -34 32 -34h202c24 0 32 9 32 34zM106 462v-19c-13 0 -21 -11 -21 -22c0 -12 9 -21 21 -21c0 -12 9 -21 21 -21v147c25 0 44 18 47 42v4h19c0 -13 10 -21 22 -21s21 9 21 21
h19c0 -10 -3 -19 -9 -26c9 -13 21 -19 38 -19c27 0 47 19 47 46h82c0 -27 19 -46 46 -46s47 19 47 46s-20 47 -47 47c0 12 -10 22 -22 22c-11 0 -21 -7 -21 -22h-19c0 27 -20 47 -47 47c-20 0 -36 -13 -43 -30c16 -5 28 -19 28 -38h-19c0 12 -10 21 -22 21s-21 -9 -21 -21
h-19c0 20 14 36 33 39c4 13 10 23 19 30c-8 15 -24 23 -40 23c-25 0 -45 -20 -46 -45c5 -11 7 -20 7 -29h-19c0 27 -20 47 -47 47c-21 0 -36 -10 -43 -30c17 -5 29 -20 29 -39h-19c0 12 -10 22 -22 22s-21 -10 -21 -22c0 -13 6 -20 17 -21h4v-19h-4c-24 -3 -42 -22 -42 -47
s18 -45 42 -46h4zM526 183v215c0 25 -8 34 -31 34h-4v-283h4c23 0 31 9 31 34zM217 103v375h15v-375h-15zM385 103v375h15v-375h-15zM329 103v375h15v-375h-15zM273 103v375h15v-375h-15z" />
    <glyph glyph-name="estimated" unicode="&#x212e;" horiz-adv-x="802" 
d="M183 290v-173c0 -10 4 -18 12 -25c23 -19 49 -35 78 -46c43 -16 89 -22 140 -22s97 6 140 22c38 15 71 37 98 64h50c-36 -43 -80 -75 -131 -95c-48 -19 -101 -25 -157 -25s-109 6 -157 25c-117 48 -205 157 -205 302s88 254 205 302c48 19 101 25 157 25s109 -6 157 -25
c117 -48 205 -157 205 -302v-17h-582c-7 0 -10 -3 -10 -10zM643 344v173c0 10 -4 18 -12 25c-23 19 -49 35 -78 46c-43 16 -89 22 -140 22s-97 -6 -140 -22c-29 -11 -55 -27 -78 -46c-8 -7 -12 -15 -12 -25v-173c0 -7 3 -10 10 -10h440c7 0 10 3 10 10z" />
    <glyph glyph-name="minus" unicode="&#x2212;" 
d="M69 326h430v-91h-430v91z" />
    <glyph glyph-name="lessequal" unicode="&#x2264;" 
d="M499 139l-430 138v108l430 138v-103l-278 -89l278 -89v-103zM69 91h430v-91h-430v91z" />
    <glyph glyph-name="greaterequal" unicode="&#x2265;" 
d="M499 277l-430 -138v103l278 89l-278 89v103l430 -138v-108zM69 91h430v-91h-430v91z" />
    <glyph glyph-name="notequal" unicode="&#x2260;" 
d="M277 340h-208v91h278l82 107l70 -54l-41 -53h41v-91h-110l-100 -130h210v-91h-279l-81 -106l-70 54l39 52h-39v91h109z" />
    <glyph glyph-name="approxequal" unicode="&#x2248;" 
d="M127 317l-58 64c51 52 93 73 137 73c61 0 112 -46 152 -46c28 0 48 10 83 46l58 -64c-51 -52 -93 -73 -137 -73c-61 0 -112 46 -152 46c-28 0 -48 -10 -83 -46zM127 97l-58 64c51 52 93 73 137 73c61 0 112 -46 152 -46c28 0 48 10 83 46l58 -64
c-51 -52 -93 -73 -137 -73c-61 0 -112 46 -152 46c-28 0 -48 -10 -83 -46z" />
    <glyph glyph-name="partialdiff" unicode="&#x2202;" horiz-adv-x="581" 
d="M430 389l21 105c2 10 3 19 3 28c0 60 -42 95 -99 95c-68 0 -124 -33 -141 -117h-96c40 167 143 210 250 210c89 0 182 -58 182 -180c0 -17 -2 -36 -6 -56l-55 -274c-35 -168 -144 -210 -250 -210c-89 0 -182 58 -182 180c0 17 4 44 8 64c35 168 144 210 250 210
c55 0 100 -26 115 -55zM401 256c0 60 -42 95 -99 95c-68 0 -124 -33 -141 -117c-3 -11 -8 -47 -8 -56c0 -60 42 -95 99 -95c68 0 124 33 141 117c3 11 8 47 8 56z" />
    <glyph glyph-name="product" unicode="&#x220f;" horiz-adv-x="650" 
d="M93 0v700h502v-700h-107v594h-288v-594h-107z" />
    <glyph glyph-name="radical" unicode="&#x221a;" horiz-adv-x="538" 
d="M517 700l-210 -700h-120l-62 206h-68v94h135l55 -184l175 584h95z" />
    <glyph glyph-name="summation" unicode="&#x2211;" horiz-adv-x="700" 
d="M204 -90h407v-94h-532v94l282 348l-282 348v94h532v-94h-407l282 -348z" />
    <glyph glyph-name="integral" unicode="&#x222b;" horiz-adv-x="303" 
d="M218 555v-616c0 -81 -36 -123 -123 -123h-22v94c40 0 50 14 50 51v616c0 81 36 123 123 123h22v-94c-40 0 -50 -14 -50 -51z" />
    <glyph glyph-name="infinity" unicode="&#x221e;" 
d="M74 336c0 69 55 126 125 126c39 0 74 -18 97 -46c23 28 57 46 97 46c69 0 126 -57 126 -126c0 -70 -57 -125 -126 -125c-40 0 -74 17 -97 45c-23 -28 -58 -45 -97 -45c-70 0 -125 55 -125 125zM345 336c0 -27 21 -48 48 -48s49 21 49 48s-22 49 -49 49s-48 -22 -48 -49z
M151 336c0 -27 21 -48 48 -48s49 21 49 48s-22 49 -49 49s-48 -22 -48 -49z" />
    <glyph glyph-name="uni0394" unicode="&#x394;" horiz-adv-x="616" 
d="M333 700l245 -700h-600l245 700h110zM278 546l-153 -440h306z" />
    <glyph glyph-name="uni0394" unicode="&#x2206;" horiz-adv-x="616" 
d="M333 700l245 -700h-600l245 700h110zM278 546l-153 -440h306z" />
    <glyph glyph-name="uni03A9" unicode="&#x3a9;" horiz-adv-x="600" 
d="M428 127l-3 -24h84l-23 -103h-191l44 204c56 13 102 54 121 135c19 83 31 130 31 153c0 79 -58 115 -131 115c-69 0 -138 -39 -160 -139c-17 -84 -31 -130 -31 -153c0 -56 29 -91 72 -106l-46 -209h-190l22 103h84l10 57c-35 35 -56 83 -56 139c0 52 13 98 28 169
c36 168 127 242 280 242c125 0 222 -81 222 -202c0 -52 -13 -106 -28 -169c-24 -106 -70 -177 -139 -212z" />
    <glyph glyph-name="uni03A9" unicode="&#x2126;" horiz-adv-x="600" 
d="M428 127l-3 -24h84l-23 -103h-191l44 204c56 13 102 54 121 135c19 83 31 130 31 153c0 79 -58 115 -131 115c-69 0 -138 -39 -160 -139c-17 -84 -31 -130 -31 -153c0 -56 29 -91 72 -106l-46 -209h-190l22 103h84l10 57c-35 35 -56 83 -56 139c0 52 13 98 28 169
c36 168 127 242 280 242c125 0 222 -81 222 -202c0 -52 -13 -106 -28 -169c-24 -106 -70 -177 -139 -212z" />
    <glyph glyph-name="pi" unicode="&#x3c0;" horiz-adv-x="620" 
d="M129 417h-73l21 99h576l-21 -99h-73l-88 -417h-105l88 417h-220l-88 -417h-105z" />
    <glyph glyph-name="Euro" unicode="&#x20ac;" horiz-adv-x="599" 
d="M120 252h-77l31 66h59c4 19 7 40 14 65h-79l31 66h63c1 7 1 12 4 19c36 168 127 242 280 242c73 0 137 -28 177 -75l-80 -70c-21 29 -62 46 -101 46c-84 0 -149 -45 -172 -148l-3 -14h260l-31 -66h-243l-15 -65h227l-31 -66h-210c-7 -33 -7 -39 -7 -51
c0 -75 64 -112 128 -112c39 0 76 14 110 42l61 -86c-45 -37 -105 -55 -179 -55c-125 0 -222 81 -222 202c0 19 1 36 5 60z" />
    <glyph glyph-name="fi" unicode="&#xfb01;" horiz-adv-x="578" 
d="M399 601h-79c-40 0 -50 -12 -58 -51l-7 -34h127l-21 -97h-127l-89 -419h-105l89 419h-73l21 97h73l12 57c17 81 57 127 156 127h103zM603 700l-23 -107h-105l23 107h105zM564 516l-110 -516h-105l110 516h105z" />
    <glyph glyph-name="fl" unicode="&#xfb02;" horiz-adv-x="607" 
d="M399 601h-79c-40 0 -50 -12 -58 -51l-7 -34h127l-21 -97h-127l-89 -419h-105l89 419h-73l21 97h73l12 57c17 81 57 127 156 127h103zM496 700h105c-116 -539 -120 -562 -120 -570c0 -21 14 -31 41 -31h16l-22 -99h-15c-88 0 -124 59 -124 107c0 47 15 105 119 593z" />
    <glyph glyph-name="f_f" unicode="&#xfb00;" horiz-adv-x="670" 
d="M399 601h-79c-40 0 -50 -12 -58 -51l-7 -34h127l-21 -97h-127l-89 -419h-105l89 419h-73l21 97h73l12 57c17 81 57 127 156 127h103zM734 601h-79c-40 0 -50 -12 -58 -51l-7 -34h127l-21 -97h-127l-89 -419h-105l89 419h-73l21 97h73l12 57c17 81 57 127 156 127h103z
" />
    <glyph glyph-name="f_f_i" unicode="&#xfb03;" horiz-adv-x="913" 
d="M399 601h-79c-40 0 -50 -12 -58 -51l-7 -34h127l-21 -97h-127l-89 -419h-105l89 419h-73l21 97h73l12 57c17 81 57 127 156 127h103zM734 601h-79c-40 0 -50 -12 -58 -51l-7 -34h127l-21 -97h-127l-89 -419h-105l89 419h-73l21 97h73l12 57c17 81 57 127 156 127h103z
M938 700l-23 -107h-105l23 107h105zM899 516l-110 -516h-105l110 516h105z" />
    <glyph glyph-name="f_f_l" unicode="&#xfb04;" horiz-adv-x="942" 
d="M399 601h-79c-40 0 -50 -12 -58 -51l-7 -34h127l-21 -97h-127l-89 -419h-105l89 419h-73l21 97h73l12 57c17 81 57 127 156 127h103zM734 601h-79c-40 0 -50 -12 -58 -51l-7 -34h127l-21 -97h-127l-89 -419h-105l89 419h-73l21 97h73l12 57c17 81 57 127 156 127h103z
M831 700h105c-116 -539 -120 -562 -120 -570c0 -21 14 -31 41 -31h16l-22 -99h-15c-88 0 -124 59 -124 107c0 47 15 105 119 593z" />
    <glyph glyph-name="breve" unicode="&#x2d8;" horiz-adv-x="414" 
d="M308 571h-70c-63 0 -105 44 -105 103c0 8 1 17 3 26h74c-1 -3 -1 -6 -1 -11c0 -23 17 -39 41 -39h69c28 0 53 22 60 50h85c-16 -72 -84 -129 -156 -129z" />
    <glyph glyph-name="caron" unicode="&#x2c7;" horiz-adv-x="452" 
d="M250 571l-105 129h106l45 -56l69 56h128l-159 -129h-84z" />
    <glyph glyph-name="circumflex" unicode="&#x2c6;" horiz-adv-x="452" 
d="M361 700l105 -129h-106l-45 56l-69 -56h-128l159 129h84z" />
    <glyph glyph-name="dotaccent" unicode="&#x2d9;" horiz-adv-x="201" 
d="M244 689l-23 -107h-105l23 107h105z" />
    <glyph glyph-name="hungarumlaut" unicode="&#x2dd;" horiz-adv-x="470" 
d="M198 700h130l-108 -129h-79zM373 700h130l-108 -129h-79z" />
    <glyph glyph-name="commaaccent" horiz-adv-x="282" 
d="M-10 -174l27 124h124l-27 -124l-49 -94h-79l49 94h-45z" />
    <glyph glyph-name="ogonek" unicode="&#x2db;" horiz-adv-x="260" 
d="M56 0h105c-23 -15 -101 -54 -101 -92c0 -12 7 -18 22 -18c19 0 44 10 59 17l-17 -78c-27 -11 -54 -18 -85 -18c-52 0 -90 24 -90 71c0 64 48 94 107 118z" />
    <glyph glyph-name="ring" unicode="&#x2da;" horiz-adv-x="233" 
d="M122 635c0 41 33 75 74 75s75 -34 75 -75s-34 -74 -75 -74s-74 33 -74 74zM173 635c0 -13 10 -23 23 -23s23 10 23 23s-10 23 -23 23s-23 -10 -23 -23z" />
    <glyph glyph-name="tilde" unicode="&#x2dc;" horiz-adv-x="452" 
d="M219 579h-84c16 100 79 116 111 116c17 0 33 -1 52 -9l38 -16c7 -3 16 -7 27 -7c12 0 22 7 30 30h84c-16 -100 -79 -116 -111 -116c-17 0 -33 1 -52 9l-38 16c-7 3 -16 7 -27 7c-12 0 -22 -7 -30 -30z" />
    <glyph glyph-name="uni032C" unicode="&#x32c;" horiz-adv-x="452" 
d="M95 -129l-105 129h106l45 -56l69 56h128l-159 -129h-84z" />
    <glyph glyph-name="zero.slashed" horiz-adv-x="542" 
d="M472 199c-27 -128 -85 -209 -240 -209c-115 0 -187 73 -187 180c0 19 12 86 27 155s31 143 36 176c27 128 85 209 240 209c115 0 187 -73 187 -180c0 -38 -50 -265 -63 -331zM366 196c8 30 29 129 45 211l-261 -215c-3 -8 -2 -14 -2 -17c0 -60 50 -86 98 -86
c68 0 105 47 120 107zM214 504c-8 -29 -29 -130 -45 -210l261 215c1 7 2 12 2 16c0 60 -50 86 -98 86c-68 0 -105 -47 -120 -107z" />
    <glyph glyph-name="one.tlf" 
d="M215 99l98 460l-158 -115l29 141l159 115h105l-128 -601h162l-22 -99h-430l22 99h163z" />
    <glyph glyph-name="two.tlf" 
d="M218 485h-105c19 143 91 225 243 225c115 0 187 -73 187 -180c0 -93 -44 -160 -131 -235l-229 -197h273l-22 -98h-429l22 98l305 263c69 60 108 101 108 164c0 60 -50 86 -98 86c-80 0 -113 -65 -124 -126z" />
    <glyph glyph-name="three.tlf" 
d="M52 200h103c-3 -8 -3 -22 -3 -25c0 -60 53 -86 101 -86c75 0 119 50 119 125c0 53 -38 89 -93 89h-58l21 94h58c83 0 136 60 136 128c0 60 -50 86 -98 86c-64 0 -110 -44 -121 -111h-105c24 128 86 210 240 210c115 0 187 -73 187 -180c0 -76 -48 -161 -115 -193
c31 -24 53 -70 53 -118c0 -88 -45 -229 -238 -229c-115 0 -190 73 -190 180c0 7 0 21 3 30z" />
    <glyph glyph-name="four.tlf" 
d="M492 174h-73l-37 -174h-105l37 174h-310l20 95l402 431h105l-92 -431h73zM163 269h171l51 238z" />
    <glyph glyph-name="five.tlf" 
d="M268 601l-38 -181c16 15 53 31 97 31c107 0 182 -73 182 -180c0 -23 -1 -32 -9 -72c-27 -128 -85 -209 -240 -209c-115 0 -187 73 -187 180c0 7 0 19 3 30h103c-2 -13 -3 -22 -3 -25c0 -60 50 -86 98 -86c68 0 105 47 120 107c8 35 12 54 12 70c0 60 -50 86 -98 86
c-51 0 -87 -25 -104 -64h-107l88 412h394l-22 -99h-289z" />
    <glyph glyph-name="six.tlf" 
d="M204 408c20 19 59 36 104 36c109 0 182 -73 182 -180c0 -9 0 -32 -7 -65c-24 -129 -85 -209 -240 -209c-115 0 -187 73 -187 180c0 19 12 86 27 155s31 143 36 176c27 128 85 209 240 209c115 0 187 -73 187 -180c0 -6 -1 -16 -3 -30h-103c2 13 3 21 3 25
c0 60 -50 86 -98 86c-68 0 -105 -47 -120 -107c-4 -16 -12 -52 -21 -96zM289 345c-68 0 -105 -47 -120 -107c-8 -33 -10 -52 -10 -63c0 -60 50 -86 98 -86c68 0 105 47 120 107c8 33 10 52 10 63c0 60 -50 86 -98 86z" />
    <glyph glyph-name="seven.tlf" 
d="M553 601l-343 -601h-119l343 601h-305l22 99h424z" />
    <glyph glyph-name="eight.tlf" 
d="M482 213c0 -145 -94 -223 -235 -223c-124 0 -199 78 -199 185c0 97 40 163 112 198c-28 32 -42 72 -42 120c0 72 38 217 229 217c115 0 196 -74 196 -185c0 -53 -20 -144 -105 -189c28 -32 44 -75 44 -123zM151 192c0 -55 34 -103 111 -103c63 0 117 50 117 116
c0 53 -34 103 -111 103c-63 0 -117 -50 -117 -116zM440 509c0 69 -47 102 -107 102c-64 0 -112 -51 -112 -112c0 -69 47 -102 107 -102c64 0 112 51 112 112z" />
    <glyph glyph-name="nine.tlf" 
d="M393 292c-20 -19 -59 -36 -104 -36c-109 0 -182 73 -182 180c0 9 0 32 7 65c24 129 85 209 240 209c115 0 187 -73 187 -180c0 -38 -50 -265 -63 -331c-27 -128 -85 -209 -240 -209c-115 0 -187 73 -187 180c0 6 1 16 3 30h103c-2 -13 -3 -22 -3 -25c0 -60 50 -86 98 -86
c68 0 105 47 120 107c4 16 12 52 21 96zM308 355c68 0 105 47 120 107c8 33 10 52 10 63c0 60 -50 86 -98 86c-68 0 -105 -47 -120 -107c-8 -33 -10 -52 -10 -63c0 -60 50 -86 98 -86z" />
    <glyph glyph-name="zero.tlf" 
d="M222 504c-12 -53 -66 -305 -66 -329c0 -60 50 -86 98 -86c68 0 105 47 120 107c12 53 66 305 66 329c0 60 -50 86 -98 86c-68 0 -105 -47 -120 -107zM480 199c-27 -128 -85 -209 -240 -209c-115 0 -187 73 -187 180c0 19 12 86 27 155s31 143 36 176
c27 128 85 209 240 209c115 0 187 -73 187 -180c0 -38 -50 -265 -63 -331z" />
    <glyph glyph-name="zero.slashed.tlf" 
d="M480 199c-27 -128 -85 -209 -240 -209c-115 0 -187 73 -187 180c0 19 12 86 27 155s31 143 36 176c27 128 85 209 240 209c115 0 187 -73 187 -180c0 -38 -50 -265 -63 -331zM374 196c8 30 29 129 45 211l-261 -215c-3 -8 -2 -14 -2 -17c0 -60 50 -86 98 -86
c68 0 105 47 120 107zM222 504c-8 -29 -29 -130 -45 -210l261 215c1 7 2 12 2 16c0 60 -50 86 -98 86c-68 0 -105 -47 -120 -107z" />
    <glyph glyph-name="one.case" horiz-adv-x="371" 
d="M125 0l119 551l-158 -115l29 149l159 115h107l-149 -700h-107z" />
    <glyph glyph-name="two.case" horiz-adv-x="531" 
d="M-10 0l22 102l307 263c67 56 106 98 106 159c0 53 -49 83 -97 83c-80 0 -112 -64 -123 -123h-107c21 144 89 226 244 226c114 0 188 -75 188 -181c0 -96 -44 -167 -131 -239l-227 -188h272l-22 -102h-432z" />
    <glyph glyph-name="three.case" horiz-adv-x="528" 
d="M222 -10c-116 0 -191 75 -191 181c0 7 0 21 3 29h105c-3 -7 -3 -20 -3 -24c0 -53 52 -83 100 -83c73 0 118 53 118 121c0 51 -37 87 -92 87h-58l21 99h58c81 0 135 55 135 124c0 53 -49 83 -97 83c-64 0 -109 -43 -120 -107h-107c24 131 87 210 240 210
c115 0 189 -75 189 -181c0 -81 -49 -160 -115 -192c31 -24 52 -70 52 -117c0 -104 -49 -230 -238 -230z" />
    <glyph glyph-name="four.case" horiz-adv-x="531" 
d="M269 0l36 170h-309l20 99l402 431h107l-92 -431h73l-21 -99h-73l-36 -170h-107zM157 269h169l50 227z" />
    <glyph glyph-name="five.case" horiz-adv-x="539" 
d="M242 -10c-115 0 -189 75 -189 181c0 7 0 18 3 29h105c-2 -12 -3 -20 -3 -24c0 -53 49 -83 97 -83c68 0 107 45 120 105c9 44 12 59 12 72c0 51 -49 80 -97 80c-49 0 -87 -24 -104 -63h-109l88 413h397l-23 -103h-289l-37 -174c16 15 52 30 97 30c107 0 182 -72 182 -179
c0 -21 -1 -29 -9 -72c-26 -132 -87 -212 -241 -212z" />
    <glyph glyph-name="six.case" horiz-adv-x="543" 
d="M238 -10c-116 0 -188 75 -188 181c0 43 51 268 62 327c27 132 87 212 241 212c116 0 188 -75 188 -181c0 -6 -1 -16 -2 -29h-105c2 12 3 20 3 24c0 53 -49 83 -98 83c-68 0 -104 -45 -119 -105c-4 -17 -12 -50 -20 -90c20 19 58 34 103 34c108 0 183 -72 183 -183
c0 -11 0 -32 -7 -61c-27 -133 -86 -212 -241 -212zM252 93c68 0 104 45 119 105c8 32 10 51 10 62c0 53 -49 83 -98 83c-68 0 -104 -45 -119 -105c-8 -32 -10 -51 -10 -62c0 -53 49 -83 98 -83z" />
    <glyph glyph-name="seven.case" horiz-adv-x="467" 
d="M50 0l343 597h-306l22 103h427l-23 -103l-343 -597h-120z" />
    <glyph glyph-name="eight.case" horiz-adv-x="544" 
d="M240 -10c-123 0 -200 79 -200 187c0 85 40 157 112 194c-27 33 -41 73 -41 119c0 77 38 220 229 220c116 0 197 -76 197 -185c0 -56 -20 -146 -103 -191c27 -33 41 -73 41 -121c0 -124 -88 -223 -235 -223zM255 93c64 0 115 53 115 114c0 55 -33 100 -109 100
c-64 0 -116 -54 -116 -115c0 -53 34 -99 110 -99zM321 399c63 0 111 52 111 111c0 64 -46 97 -106 97c-63 0 -111 -52 -111 -111c0 -64 46 -97 106 -97z" />
    <glyph glyph-name="nine.case" horiz-adv-x="543" 
d="M343 710c116 0 188 -75 188 -181c0 -43 -49 -270 -62 -327c-29 -132 -86 -212 -241 -212c-116 0 -188 75 -188 181c0 6 1 16 2 29h105c-2 -12 -3 -20 -3 -24c0 -53 49 -83 98 -83c68 0 104 45 119 105c4 17 12 50 20 90c-20 -19 -58 -34 -103 -34
c-108 0 -183 72 -183 183c0 11 0 32 7 61c27 133 86 212 241 212zM329 607c-68 0 -104 -45 -119 -105c-8 -32 -10 -51 -10 -62c0 -53 49 -83 98 -83c68 0 104 45 119 105c8 32 10 51 10 62c0 53 -49 83 -98 83z" />
    <glyph glyph-name="zero.case" horiz-adv-x="553" 
d="M220 502c-16 -63 -66 -300 -66 -326c0 -53 49 -83 98 -83c68 0 106 45 119 105c12 64 66 299 66 326c0 53 -49 83 -98 83c-68 0 -106 -45 -119 -105zM479 202c-26 -132 -87 -212 -241 -212c-116 0 -188 75 -188 181c0 40 50 268 62 327c27 132 87 212 241 212
c116 0 188 -75 188 -181c0 -40 -50 -268 -62 -327z" />
    <glyph glyph-name="zero.slashed.case" horiz-adv-x="553" 
d="M479 202c-26 -132 -87 -212 -241 -212c-116 0 -188 75 -188 181c0 40 50 268 62 327c27 132 87 212 241 212c116 0 188 -75 188 -181c0 -40 -50 -268 -62 -327zM220 502c-8 -36 -28 -128 -44 -206l259 214c1 7 2 11 2 14c0 53 -49 83 -98 83c-68 0 -106 -45 -119 -105z
M371 198c8 34 28 127 44 204l-260 -214c-1 -5 -1 -9 -1 -12c0 -53 49 -83 98 -83c68 0 106 45 119 105z" />
    <glyph glyph-name="uni21B2" unicode="&#x21b2;" horiz-adv-x="800" 
d="M755 700v-461h-538l187 -184l-64 -65l-295 295l295 295l64 -65l-186 -185h446v370h91z" />
    <glyph glyph-name="uni21B3" unicode="&#x21b3;" horiz-adv-x="800" 
d="M45 239v461h91v-370h446l-186 185l64 65l295 -295l-295 -295l-64 65l187 184h-538z" />
    <glyph glyph-name="uni21B0" unicode="&#x21b0;" horiz-adv-x="800" 
d="M755 330v-514h-91v423h-447l187 -184l-64 -65l-295 295l295 295l64 -65l-186 -185h537z" />
    <glyph glyph-name="uni21B1" unicode="&#x21b1;" horiz-adv-x="800" 
d="M45 -184v514h537l-186 185l64 65l295 -295l-295 -295l-64 65l187 184h-447v-423h-91z" />
    <glyph glyph-name="arrowleft" unicode="&#x2190;" horiz-adv-x="800" 
d="M755 239h-538l187 -184l-64 -65l-295 295l295 295l64 -65l-186 -185h537v-91z" />
    <glyph glyph-name="arrowup" unicode="&#x2191;" horiz-adv-x="800" 
d="M354 0v538l-184 -187l-65 64l295 295l295 -295l-65 -64l-185 186v-537h-91z" />
    <glyph glyph-name="arrowright" unicode="&#x2192;" horiz-adv-x="800" 
d="M583 239h-538v91h537l-186 185l64 65l295 -295l-295 -295l-64 65z" />
    <glyph glyph-name="arrowdown" unicode="&#x2193;" horiz-adv-x="800" 
d="M354 162v538h91v-537l185 186l65 -64l-295 -295l-295 295l65 64z" />
    <glyph glyph-name="uni2196" unicode="&#x2196;" horiz-adv-x="800" 
d="M645 -5l-422 421v-261h-91v417h417v-91h-263l423 -422z" />
    <glyph glyph-name="uni2197" unicode="&#x2197;" horiz-adv-x="800" 
d="M577 416l-422 -421l-64 64l423 422h-263v91h417v-417h-91v261z" />
    <glyph glyph-name="uni2198" unicode="&#x2198;" horiz-adv-x="800" 
d="M155 577l422 -421v261h91v-417h-417v91h263l-423 422z" />
    <glyph glyph-name="uni2199" unicode="&#x2199;" horiz-adv-x="800" 
d="M223 156l422 421l64 -64l-423 -422h263v-91h-417v417h91v-261z" />
    <glyph glyph-name="filledbox" unicode="&#x25a0;" horiz-adv-x="800" 
d="M142 0v516h516v-516h-516z" />
    <glyph glyph-name="H22073" unicode="&#x25a1;" horiz-adv-x="800" 
d="M142 0v516h516v-516h-516zM233 425v-334h334v334h-334z" />
    <glyph glyph-name="circle" unicode="&#x25cb;" horiz-adv-x="800" 
d="M130 260c0 149 121 270 270 270s270 -121 270 -270s-121 -270 -270 -270s-270 121 -270 270zM221 260c0 -99 80 -179 179 -179s179 80 179 179s-80 179 -179 179s-179 -80 -179 -179z" />
    <glyph glyph-name="H18533" unicode="&#x25cf;" horiz-adv-x="800" 
d="M130 260c0 149 121 270 270 270s270 -121 270 -270s-121 -270 -270 -270s-270 121 -270 270z" />
    <glyph glyph-name="onethird" unicode="&#x2153;" horiz-adv-x="777" 
d="M143 294l63 298l-92 -67l23 107l91 68h85l-85 -406h-85zM569 700h95l-481 -700h-95zM551 -6c-80 0 -125 47 -125 107c0 4 1 12 1 15h82c0 -3 -1 -7 -1 -10c0 -17 6 -39 47 -39c37 0 62 35 62 58s-16 40 -47 40h-34l16 74h33c39 0 68 22 68 61c0 17 -7 39 -48 39
c-32 0 -52 -16 -60 -49h-84c23 83 63 122 148 122c74 0 126 -48 126 -107c0 -57 -29 -94 -70 -110c19 -15 28 -39 28 -66c0 -101 -68 -135 -142 -135z" />
    <glyph glyph-name="uni2155" unicode="&#x2155;" horiz-adv-x="776" 
d="M143 294l63 298l-92 -67l23 107l91 68h85l-85 -406h-85zM569 700h95l-481 -700h-95zM559 -6c-75 0 -125 48 -125 107c0 4 0 7 1 15h82c-1 -4 -1 -7 -1 -10c0 -17 5 -39 48 -39c32 0 52 17 60 52c5 23 9 40 9 47c0 11 -3 29 -39 29c-23 0 -48 -8 -60 -31h-86l51 242h255
l-15 -73h-171l-16 -80c12 7 26 15 59 15c60 0 105 -42 105 -102c0 -7 -2 -21 -7 -42c-19 -87 -59 -130 -150 -130z" />
    <glyph glyph-name="uni2159" unicode="&#x2159;" horiz-adv-x="771" 
d="M143 294l63 298l-92 -67l23 107l91 68h85l-85 -406h-85zM569 700h95l-481 -700h-95zM554 -6c-75 0 -124 47 -124 107c0 39 27 168 32 181c21 88 61 130 150 130c75 0 125 -48 125 -107c0 -4 0 -8 -1 -15h-82c1 3 1 6 1 10c0 17 -7 39 -48 39c-31 0 -51 -17 -60 -52
c-3 -13 -4 -25 -7 -37c11 8 31 14 56 14c53 0 108 -41 108 -114c0 -13 -2 -37 -7 -53c-23 -71 -63 -103 -143 -103zM559 67c32 0 52 17 60 52c4 19 5 29 5 33c0 17 -7 39 -48 39c-31 0 -53 -16 -60 -52c-3 -16 -5 -29 -5 -33c0 -17 5 -39 48 -39z" />
    <glyph glyph-name="oneeighth" unicode="&#x215b;" horiz-adv-x="739" 
d="M143 294l63 298l-92 -67l23 107l91 68h85l-85 -406h-85zM569 700h95l-481 -700h-95zM539 -6c-69 0 -127 45 -127 115c0 17 2 80 60 112c-11 17 -17 36 -17 56c0 61 31 135 139 135c72 0 119 -50 119 -107c0 -43 -16 -88 -60 -115c15 -19 22 -41 22 -66
c0 -22 -3 -130 -136 -130zM542 67c45 0 50 37 50 59c0 31 -18 45 -47 45c-45 0 -51 -37 -51 -59c0 -29 19 -45 48 -45zM578 239c41 0 53 32 53 61c0 20 -10 39 -41 39c-41 0 -52 -32 -52 -60c0 -21 9 -40 40 -40z" />
    <glyph glyph-name="twothirds" unicode="&#x2154;" horiz-adv-x="840" 
d="M46 294l15 73l189 150c23 19 48 45 48 77c0 17 -7 39 -48 39s-58 -30 -62 -62h-84c20 88 58 135 150 135c74 0 126 -48 126 -107c0 -64 -34 -112 -82 -149l-106 -83h144l-14 -73h-276zM632 700h95l-481 -700h-95zM615 -6c-80 0 -125 47 -125 107c0 4 1 12 1 15h82
c0 -3 -1 -7 -1 -10c0 -17 6 -39 47 -39c37 0 62 35 62 58s-16 40 -47 40h-34l16 74h33c39 0 68 22 68 61c0 17 -7 39 -48 39c-32 0 -52 -16 -60 -49h-84c23 83 63 122 148 122c74 0 126 -48 126 -107c0 -57 -29 -94 -70 -110c19 -15 28 -39 28 -66
c0 -101 -68 -135 -142 -135z" />
    <glyph glyph-name="uni2156" unicode="&#x2156;" horiz-adv-x="839" 
d="M46 294l15 73l189 150c23 19 48 45 48 77c0 17 -7 39 -48 39s-58 -30 -62 -62h-84c20 88 58 135 150 135c74 0 126 -48 126 -107c0 -64 -34 -112 -82 -149l-106 -83h144l-14 -73h-276zM632 700h95l-481 -700h-95zM623 -6c-75 0 -125 48 -125 107c0 4 0 7 1 15h82
c-1 -4 -1 -7 -1 -10c0 -17 5 -39 48 -39c32 0 52 17 60 52c5 23 9 40 9 47c0 11 -3 29 -39 29c-23 0 -48 -8 -60 -31h-86l51 242h255l-15 -73h-171l-16 -80c12 7 26 15 59 15c60 0 105 -42 105 -102c0 -7 -2 -21 -7 -42c-19 -87 -59 -130 -150 -130z" />
    <glyph glyph-name="uni2157" unicode="&#x2157;" horiz-adv-x="840" 
d="M200 288c-80 0 -125 47 -125 107c0 4 1 12 1 15h82c0 -3 -1 -7 -1 -10c0 -17 6 -39 47 -39c37 0 62 35 62 58s-16 40 -47 40h-34l16 74h33c39 0 68 22 68 61c0 17 -7 39 -48 39c-32 0 -52 -16 -60 -49h-84c23 83 63 122 148 122c74 0 126 -48 126 -107
c0 -57 -29 -94 -70 -110c19 -15 28 -39 28 -66c0 -101 -68 -135 -142 -135zM633 700h95l-481 -700h-95zM623 -6c-75 0 -125 48 -125 107c0 4 0 7 1 15h82c-1 -4 -1 -7 -1 -10c0 -17 5 -39 48 -39c32 0 52 17 60 52c5 23 9 40 9 47c0 11 -3 29 -39 29c-23 0 -48 -8 -60 -31
h-86l51 242h255l-15 -73h-171l-16 -80c12 7 26 15 59 15c60 0 105 -42 105 -102c0 -7 -2 -21 -7 -42c-19 -87 -59 -130 -150 -130z" />
    <glyph glyph-name="threeeighths" unicode="&#x215c;" horiz-adv-x="803" 
d="M200 288c-80 0 -125 47 -125 107c0 4 1 12 1 15h82c0 -3 -1 -7 -1 -10c0 -17 6 -39 47 -39c37 0 62 35 62 58s-16 40 -47 40h-34l16 74h33c39 0 68 22 68 61c0 17 -7 39 -48 39c-32 0 -52 -16 -60 -49h-84c23 83 63 122 148 122c74 0 126 -48 126 -107
c0 -57 -29 -94 -70 -110c19 -15 28 -39 28 -66c0 -101 -68 -135 -142 -135zM633 700h95l-481 -700h-95zM603 -6c-69 0 -127 45 -127 115c0 17 2 80 60 112c-11 17 -17 36 -17 56c0 61 31 135 139 135c72 0 119 -50 119 -107c0 -43 -16 -88 -60 -115c15 -19 22 -41 22 -66
c0 -22 -3 -130 -136 -130zM606 67c45 0 50 37 50 59c0 31 -18 45 -47 45c-45 0 -51 -37 -51 -59c0 -29 19 -45 48 -45zM642 239c41 0 53 32 53 61c0 20 -10 39 -41 39c-41 0 -52 -32 -52 -60c0 -21 9 -40 40 -40z" />
    <glyph glyph-name="uni2158" unicode="&#x2158;" horiz-adv-x="793" 
d="M170 294l19 88h-173l15 72l225 246h85l-53 -246h42l-15 -72h-41l-19 -88h-85zM136 454h67l23 98zM586 700h95l-481 -700h-95zM576 -6c-75 0 -125 48 -125 107c0 4 0 7 1 15h82c-1 -4 -1 -7 -1 -10c0 -17 5 -39 48 -39c32 0 52 17 60 52c5 23 9 40 9 47c0 11 -3 29 -39 29
c-23 0 -48 -8 -60 -31h-86l51 242h255l-15 -73h-171l-16 -80c12 7 26 15 59 15c60 0 105 -42 105 -102c0 -7 -2 -21 -7 -42c-19 -87 -59 -130 -150 -130z" />
    <glyph glyph-name="uni215A" unicode="&#x215a;" horiz-adv-x="834" 
d="M208 288c-75 0 -125 48 -125 107c0 4 0 7 1 15h82c-1 -4 -1 -7 -1 -10c0 -17 5 -39 48 -39c32 0 52 17 60 52c5 23 9 40 9 47c0 11 -3 29 -39 29c-23 0 -48 -8 -60 -31h-86l51 242h255l-15 -73h-171l-16 -80c12 7 26 15 59 15c60 0 105 -42 105 -102c0 -7 -2 -21 -7 -42
c-19 -87 -59 -130 -150 -130zM632 700h95l-481 -700h-95zM617 -6c-75 0 -124 47 -124 107c0 39 27 168 32 181c21 88 61 130 150 130c75 0 125 -48 125 -107c0 -4 0 -8 -1 -15h-82c1 3 1 6 1 10c0 17 -7 39 -48 39c-31 0 -51 -17 -60 -52c-3 -13 -4 -25 -7 -37
c11 8 31 14 56 14c53 0 108 -41 108 -114c0 -13 -2 -37 -7 -53c-23 -71 -63 -103 -143 -103zM622 67c32 0 52 17 60 52c4 19 5 29 5 33c0 17 -7 39 -48 39c-31 0 -53 -16 -60 -52c-3 -16 -5 -29 -5 -33c0 -17 5 -39 48 -39z" />
    <glyph glyph-name="fiveeighths" unicode="&#x215d;" horiz-adv-x="802" 
d="M208 288c-75 0 -125 48 -125 107c0 4 0 7 1 15h82c-1 -4 -1 -7 -1 -10c0 -17 5 -39 48 -39c32 0 52 17 60 52c5 23 9 40 9 47c0 11 -3 29 -39 29c-23 0 -48 -8 -60 -31h-86l51 242h255l-15 -73h-171l-16 -80c12 7 26 15 59 15c60 0 105 -42 105 -102c0 -7 -2 -21 -7 -42
c-19 -87 -59 -130 -150 -130zM632 700h95l-481 -700h-95zM602 -6c-69 0 -127 45 -127 115c0 17 2 80 60 112c-11 17 -17 36 -17 56c0 61 31 135 139 135c72 0 119 -50 119 -107c0 -43 -16 -88 -60 -115c15 -19 22 -41 22 -66c0 -22 -3 -130 -136 -130zM605 67
c45 0 50 37 50 59c0 31 -18 45 -47 45c-45 0 -51 -37 -51 -59c0 -29 19 -45 48 -45zM641 239c41 0 53 32 53 61c0 20 -10 39 -41 39c-41 0 -52 -32 -52 -60c0 -21 9 -40 40 -40z" />
    <glyph glyph-name="seveneighths" unicode="&#x215e;" horiz-adv-x="727" 
d="M81 294l199 333h-179l14 73h273l-15 -73l-198 -333h-94zM557 700h95l-481 -700h-95zM527 -6c-69 0 -127 45 -127 115c0 17 2 80 60 112c-11 17 -17 36 -17 56c0 61 31 135 139 135c72 0 119 -50 119 -107c0 -43 -16 -88 -60 -115c15 -19 22 -41 22 -66
c0 -22 -3 -130 -136 -130zM530 67c45 0 50 37 50 59c0 31 -18 45 -47 45c-45 0 -51 -37 -51 -59c0 -29 19 -45 48 -45zM566 239c41 0 53 32 53 61c0 20 -10 39 -41 39c-41 0 -52 -32 -52 -60c0 -21 9 -40 40 -40z" />
    <glyph glyph-name="uni215F" unicode="&#x215f;" horiz-adv-x="413" 
d="M143 294l63 298l-92 -67l23 107l91 68h85l-85 -406h-85zM569 700h95l-481 -700h-95z" />
    <glyph glyph-name="fraction" unicode="&#x2044;" horiz-adv-x="114" 
d="M270 700h95l-481 -700h-95z" />
    <glyph glyph-name="a.superior" horiz-adv-x="331" 
d="M198 465c43 0 67 30 74 58l1 5c-38 -3 -88 -4 -99 -12c-12 -7 -15 -14 -15 -26c0 -7 4 -25 39 -25zM177 395c-59 0 -99 41 -99 86c0 47 27 80 58 92c45 17 91 20 151 23c0 8 -7 40 -49 40c-23 0 -40 -10 -51 -30h-85c23 68 61 102 141 102c79 0 125 -50 125 -121
c0 -9 -7 -46 -10 -59l-27 -127h-86l7 29c-17 -24 -39 -35 -75 -35z" />
    <glyph glyph-name="b.superior" horiz-adv-x="336" 
d="M224 471c32 0 50 18 59 54c9 37 12 51 12 58c0 28 -9 50 -48 50c-33 0 -52 -18 -59 -54c-8 -39 -11 -54 -11 -59c0 -28 8 -49 47 -49zM239 395c-39 0 -66 14 -81 42l-8 -36h-85l86 406h85l-28 -135c3 8 23 36 65 36c83 0 103 -72 103 -120c0 -13 -7 -54 -10 -69
c-17 -88 -55 -124 -127 -124z" />
    <glyph glyph-name="c.superior" horiz-adv-x="322" 
d="M208 395c-79 0 -125 51 -125 122c0 8 5 47 10 59c21 88 59 132 150 132c79 0 125 -51 125 -118h-83v4c0 19 -10 42 -47 42c-31 0 -51 -18 -59 -55c-7 -33 -13 -57 -13 -64c0 -27 8 -49 47 -49c29 0 48 15 57 46h85c-23 -79 -62 -119 -147 -119z" />
    <glyph glyph-name="d.superior" horiz-adv-x="336" 
d="M212 471c31 0 51 18 59 54c8 39 12 51 12 58c0 28 -9 50 -48 50c-33 0 -52 -18 -59 -54c-7 -31 -11 -51 -11 -59c0 -28 8 -49 47 -49zM186 395c-83 0 -103 73 -103 121c0 13 7 52 10 69c19 88 55 123 127 123c39 0 66 -14 81 -42l30 141h85l-85 -406h-85l6 31
c-6 -9 -23 -37 -66 -37z" />
    <glyph glyph-name="e.superior" horiz-adv-x="325" 
d="M208 395c-79 0 -125 51 -125 122c0 8 5 47 10 59c21 88 59 132 150 132c79 0 125 -50 125 -121c0 -11 -8 -49 -11 -65h-191v-5c0 -27 8 -49 47 -49c23 0 40 10 51 30h85c-23 -68 -61 -103 -141 -103zM180 588h105c0 25 -8 48 -47 48c-29 0 -48 -16 -58 -48z" />
    <glyph glyph-name="f.superior" horiz-adv-x="208" 
d="M80 401l48 226h-42l16 73h41l6 29c11 44 54 78 98 78h78l-14 -73h-55c-16 0 -23 -12 -26 -23l-2 -11h75l-16 -73h-74l-48 -226h-85z" />
    <glyph glyph-name="g.superior" horiz-adv-x="335" 
d="M177 579c-4 -19 -6 -31 -6 -35c0 -28 8 -50 47 -50c32 0 52 18 59 54c4 19 6 30 6 35c0 28 -8 50 -47 50c-31 0 -51 -18 -59 -54zM185 288c-78 0 -125 53 -125 113h82v-4c0 -15 13 -36 48 -36c31 0 50 18 58 55l9 39c-5 -8 -26 -36 -69 -36c-83 0 -100 67 -100 122
c0 12 1 23 6 44c19 88 55 123 127 123c39 0 66 -14 81 -42l6 34h85l-58 -279c-19 -88 -59 -133 -150 -133z" />
    <glyph glyph-name="h.superior" horiz-adv-x="342" 
d="M65 401l86 406h86l-29 -135c3 8 26 36 68 36c86 0 101 -72 101 -120c0 -13 -7 -54 -10 -69l-26 -118h-85l27 124c11 45 12 53 12 58c0 28 -8 50 -47 50c-31 0 -51 -18 -59 -54l-39 -178h-85z" />
    <glyph glyph-name="i.superior" horiz-adv-x="155" 
d="M65 401l64 299h85l-64 -299h-85zM136 736l15 71h86l-16 -71h-85z" />
    <glyph glyph-name="j.superior" horiz-adv-x="154" 
d="M6 294l14 73h17c16 0 23 14 26 23l65 310h85l-69 -328c-8 -44 -54 -78 -98 -78h-40zM136 736l15 71h85l-15 -71h-85z" />
    <glyph glyph-name="k.superior" horiz-adv-x="322" 
d="M237 807l-41 -190l94 83h113l-134 -118l86 -181h-89l-60 125l-37 -33l-19 -92h-85l86 406h86z" />
    <glyph glyph-name="l.superior" horiz-adv-x="171" 
d="M186 401h-26c-53 0 -75 28 -75 75c0 36 30 166 65 331h85c-47 -219 -67 -313 -67 -321s5 -12 14 -12h19z" />
    <glyph glyph-name="m.superior" horiz-adv-x="529" 
d="M65 401l64 299h85l-6 -28c5 8 26 36 70 36c39 0 59 -19 70 -38c5 8 31 38 91 38c108 0 125 -73 125 -116c0 -13 -6 -49 -9 -64l-27 -127h-85l27 124c7 32 12 53 12 58c0 28 -8 50 -48 50c-27 0 -49 -15 -56 -50l-39 -182h-85l27 124c7 32 12 53 12 58c0 28 -8 50 -48 50
c-27 0 -49 -15 -56 -50l-39 -182h-85z" />
    <glyph glyph-name="uni207F" unicode="&#x207f;" horiz-adv-x="342" 
d="M65 401l64 299h85l-6 -28c3 8 26 36 68 36c86 0 101 -72 101 -120c0 -13 -7 -54 -10 -69l-26 -118h-85l27 124c8 35 12 54 12 58c0 28 -8 50 -47 50c-31 0 -51 -18 -59 -54l-39 -178h-85z" />
    <glyph glyph-name="o.superior" horiz-adv-x="327" 
d="M213 468c32 0 52 18 59 54c5 24 13 59 13 70c0 23 -11 44 -47 44c-31 0 -51 -18 -59 -55c-7 -23 -13 -58 -13 -69c0 -23 11 -44 47 -44zM208 395c-79 0 -125 51 -125 122c0 8 5 47 10 59c21 88 59 132 150 132c79 0 125 -50 125 -121c0 -9 -7 -46 -10 -59
c-21 -88 -59 -133 -150 -133z" />
    <glyph glyph-name="p.superior" horiz-adv-x="337" 
d="M225 471c31 0 51 18 59 54c8 35 12 54 12 58c0 28 -9 50 -48 50c-31 0 -51 -18 -59 -54c-8 -37 -11 -56 -11 -59c0 -28 8 -49 47 -49zM43 294l86 406h85l-6 -28c5 8 23 36 66 36c83 0 103 -72 103 -120c0 -13 -7 -54 -10 -69c-19 -88 -55 -124 -127 -124
c-39 0 -66 14 -81 42l-31 -143h-85z" />
    <glyph glyph-name="q.superior" horiz-adv-x="335" 
d="M212 471c31 0 51 18 59 54c9 39 12 51 12 58c0 28 -9 50 -48 50c-33 0 -52 -18 -59 -54c-5 -27 -11 -52 -11 -59c0 -28 8 -49 47 -49zM223 294l29 138c-6 -9 -23 -37 -66 -37c-83 0 -103 73 -103 121c0 13 7 52 10 69c19 88 55 123 127 123c39 0 66 -14 81 -42l8 34h85
l-85 -406h-86z" />
    <glyph glyph-name="r.superior" horiz-adv-x="223" 
d="M150 401h-85l64 299h85l-8 -31c5 9 25 37 68 37h34l-16 -79h-46c-32 0 -52 -19 -60 -56z" />
    <glyph glyph-name="s.superior" horiz-adv-x="281" 
d="M182 395c-65 0 -120 46 -120 99v4h83v-4c0 -15 20 -28 47 -28c16 0 39 5 39 22c0 13 -13 17 -25 20l-33 8c-40 9 -81 40 -81 89c0 72 60 103 124 103c45 0 111 -33 111 -93v-4h-82v4c0 11 -19 23 -39 23c-19 0 -32 -7 -32 -22c0 -13 14 -18 21 -19l40 -9
c43 -11 79 -40 79 -88c0 -76 -44 -105 -132 -105z" />
    <glyph glyph-name="t.superior" horiz-adv-x="221" 
d="M238 401h-63c-53 0 -75 28 -75 75c0 23 12 83 27 151h-42l15 73h42l14 68h85l-14 -68h74l-15 -73h-74c-19 -89 -29 -136 -29 -141c0 -8 5 -12 14 -12h55z" />
    <glyph glyph-name="u.superior" horiz-adv-x="339" 
d="M189 395c-79 0 -99 68 -99 116c0 15 4 49 8 65l26 124h86l-27 -121c-7 -33 -11 -53 -11 -59c0 -27 7 -49 48 -49c29 0 47 18 55 54l38 175h85l-64 -299h-85l7 31c-5 -8 -26 -37 -67 -37z" />
    <glyph glyph-name="v.superior" horiz-adv-x="295" 
d="M134 401l-45 299h86l23 -179l101 179h95l-172 -299h-88z" />
    <glyph glyph-name="w.superior" horiz-adv-x="419" 
d="M109 401l-16 299h84l7 -178l80 178h74l6 -171l79 171h91l-142 -299h-80l-7 203l-91 -203h-85z" />
    <glyph glyph-name="x.superior" horiz-adv-x="304" 
d="M32 401l133 154l-66 145h89l33 -76l66 76h107l-134 -152l66 -147h-90l-32 76l-66 -76h-106z" />
    <glyph glyph-name="y.superior" horiz-adv-x="295" 
d="M49 294l14 73h42c7 0 12 2 15 7l14 25l-45 301h85l23 -177l99 177h98l-176 -308c-32 -56 -37 -98 -99 -98h-70z" />
    <glyph glyph-name="z.superior" horiz-adv-x="260" 
d="M321 627l-150 -153h121l-15 -73h-231l15 73l150 153h-113l14 73h224z" />
    <glyph glyph-name="uni2074" unicode="&#x2074;" horiz-adv-x="307" 
d="M202 401l19 88h-173l15 72l225 246h85l-53 -246h42l-15 -72h-41l-19 -88h-85zM168 561h67l23 98z" />
    <glyph glyph-name="uni2075" unicode="&#x2075;" horiz-adv-x="325" 
d="M210 395c-75 0 -125 48 -125 107c0 4 0 7 1 15h82c-1 -4 -1 -7 -1 -10c0 -17 5 -39 48 -39c32 0 52 17 60 52c5 23 9 40 9 47c0 11 -3 29 -39 29c-23 0 -48 -8 -60 -31h-86l51 242h255l-15 -73h-171l-16 -80c12 7 26 15 59 15c60 0 105 -42 105 -102c0 -7 -2 -21 -7 -42
c-19 -87 -59 -130 -150 -130z" />
    <glyph glyph-name="uni2076" unicode="&#x2076;" horiz-adv-x="327" 
d="M210 395c-75 0 -124 47 -124 107c0 39 27 168 32 181c21 88 61 130 150 130c75 0 125 -48 125 -107c0 -4 0 -8 -1 -15h-82c1 3 1 6 1 10c0 17 -7 39 -48 39c-31 0 -51 -17 -60 -52c-3 -13 -4 -25 -7 -37c11 8 31 14 56 14c53 0 108 -41 108 -114c0 -13 -2 -37 -7 -53
c-23 -71 -63 -103 -143 -103zM215 468c32 0 52 17 60 52c4 19 5 29 5 33c0 17 -7 39 -48 39c-31 0 -53 -16 -60 -52c-3 -16 -5 -29 -5 -33c0 -17 5 -39 48 -39z" />
    <glyph glyph-name="uni2077" unicode="&#x2077;" horiz-adv-x="278" 
d="M83 401l199 333h-179l14 73h273l-15 -73l-198 -333h-94z" />
    <glyph glyph-name="uni2078" unicode="&#x2078;" horiz-adv-x="315" 
d="M205 395c-69 0 -127 45 -127 115c0 17 2 80 60 112c-11 17 -17 36 -17 56c0 61 31 135 139 135c72 0 119 -50 119 -107c0 -43 -16 -88 -60 -115c15 -19 22 -41 22 -66c0 -22 -3 -130 -136 -130zM208 468c45 0 50 37 50 59c0 31 -18 45 -47 45c-45 0 -51 -37 -51 -59
c0 -29 19 -45 48 -45zM244 640c41 0 53 32 53 61c0 20 -10 39 -41 39c-41 0 -52 -32 -52 -60c0 -21 9 -40 40 -40z" />
    <glyph glyph-name="uni2079" unicode="&#x2079;" horiz-adv-x="327" 
d="M262 813c75 0 124 -47 124 -107c0 -39 -29 -167 -32 -181c-21 -88 -61 -130 -150 -130c-75 0 -125 48 -125 107c0 4 0 8 1 15h82c-1 -3 -1 -6 -1 -10c0 -17 5 -39 48 -39c31 0 51 17 60 52c3 13 4 25 7 37c-11 -8 -31 -14 -56 -14c-53 0 -108 41 -108 114c0 13 2 37 7 53
c23 71 63 103 143 103zM257 740c-32 0 -52 -17 -60 -52c-4 -19 -5 -29 -5 -33c0 -17 7 -39 48 -39c31 0 53 16 60 52c3 16 5 29 5 33c0 17 -7 39 -48 39z" />
    <glyph glyph-name="uni2070" unicode="&#x2070;" horiz-adv-x="333" 
d="M215 468c32 0 52 17 60 52c13 67 36 163 36 181c0 17 -7 39 -48 39c-32 0 -52 -17 -60 -52c-13 -68 -36 -163 -36 -181c0 -17 5 -39 48 -39zM210 395c-75 0 -125 48 -125 107c0 32 28 165 33 181c21 88 61 130 150 130c75 0 125 -48 125 -107c0 -32 -30 -165 -33 -181
c-21 -88 -61 -130 -150 -130z" />
    <glyph glyph-name="zero.slashed.superior" horiz-adv-x="333" 
d="M210 395c-75 0 -125 48 -125 107c0 32 28 165 33 181c21 88 61 130 150 130c75 0 125 -48 125 -107c0 -32 -30 -165 -33 -181c-21 -88 -61 -130 -150 -130zM203 688l-22 -100l129 106c1 2 1 4 1 7c0 17 -7 39 -48 39c-32 0 -52 -17 -60 -52zM215 468c32 0 52 17 60 52
l21 99l-129 -106v-6c0 -17 5 -39 48 -39z" />
    <glyph glyph-name="period.superior" horiz-adv-x="183" 
d="M71 401l21 101h101l-21 -101h-101z" />
    <glyph glyph-name="hyphen.superior" horiz-adv-x="215" 
d="M78 519l16 79h168l-16 -79h-168z" />
    <glyph glyph-name="comma.superior" horiz-adv-x="183" 
d="M71 401l21 101h101l-21 -101l-42 -69h-59l42 69h-42z" />
    <glyph glyph-name="uni207C" unicode="&#x207c;" horiz-adv-x="330" 
d="M90 449v78h276v-78h-276zM90 594v78h276v-78h-276z" />
    <glyph glyph-name="uni207A" unicode="&#x207a;" horiz-adv-x="330" 
d="M90 519v79h98v99h79v-99h99v-79h-99v-98h-79v98h-98z" />
    <glyph glyph-name="uni207B" unicode="&#x207b;" horiz-adv-x="330" 
d="M90 519v79h276v-79h-276z" />
    <glyph glyph-name="uni207D" unicode="&#x207d;" horiz-adv-x="180" 
d="M176 292h-13c-69 0 -87 42 -87 80c0 54 14 98 70 356c11 56 28 79 97 79h43l-17 -78h-25c-16 0 -19 -9 -22 -20c-61 -291 -68 -315 -68 -323c0 -11 5 -16 16 -16h23z" />
    <glyph glyph-name="uni207E" unicode="&#x207e;" horiz-adv-x="181" 
d="M62 292h-43l17 78h24c16 0 19 9 22 20c61 293 68 314 68 323c0 11 -5 16 -15 16h-24l17 78h14c69 0 86 -41 86 -80c0 -53 -14 -97 -70 -355c-13 -58 -26 -80 -96 -80z" />
    <glyph glyph-name="a.inferior" horiz-adv-x="331" 
d="M93 -32c43 0 67 30 74 58l1 5c-38 -3 -88 -4 -99 -12c-12 -7 -15 -14 -15 -26c0 -7 4 -25 39 -25zM72 -102c-59 0 -99 41 -99 86c0 47 27 80 58 92c45 17 91 20 151 23c0 8 -7 40 -49 40c-23 0 -40 -10 -51 -30h-85c23 68 61 102 141 102c79 0 125 -50 125 -121
c0 -9 -7 -46 -10 -59l-27 -127h-86l7 29c-17 -24 -39 -35 -75 -35z" />
    <glyph glyph-name="b.inferior" horiz-adv-x="336" 
d="M119 -26c32 0 50 18 59 54c9 37 12 51 12 58c0 28 -9 50 -48 50c-33 0 -52 -18 -59 -54c-8 -39 -11 -54 -11 -59c0 -28 8 -49 47 -49zM134 -102c-39 0 -66 14 -81 42l-8 -36h-85l86 406h85l-28 -135c3 8 23 36 65 36c83 0 103 -72 103 -120c0 -13 -7 -54 -10 -69
c-17 -88 -55 -124 -127 -124z" />
    <glyph glyph-name="c.inferior" horiz-adv-x="322" 
d="M103 -102c-79 0 -125 51 -125 122c0 8 5 47 10 59c21 88 59 132 150 132c79 0 125 -51 125 -118h-83v4c0 19 -10 42 -47 42c-31 0 -51 -18 -59 -55c-7 -33 -13 -57 -13 -64c0 -27 8 -49 47 -49c29 0 48 15 57 46h85c-23 -79 -62 -119 -147 -119z" />
    <glyph glyph-name="d.inferior" horiz-adv-x="336" 
d="M107 -26c31 0 51 18 59 54c8 39 12 51 12 58c0 28 -9 50 -48 50c-33 0 -52 -18 -59 -54c-7 -31 -11 -51 -11 -59c0 -28 8 -49 47 -49zM81 -102c-83 0 -103 73 -103 121c0 13 7 52 10 69c19 88 55 123 127 123c39 0 66 -14 81 -42l30 141h85l-85 -406h-85l6 31
c-6 -9 -23 -37 -66 -37z" />
    <glyph glyph-name="e.inferior" horiz-adv-x="325" 
d="M103 -102c-79 0 -125 51 -125 122c0 8 5 47 10 59c21 88 59 132 150 132c79 0 125 -50 125 -121c0 -11 -8 -49 -11 -65h-191v-5c0 -27 8 -49 47 -49c23 0 40 10 51 30h85c-23 -68 -61 -103 -141 -103zM75 91h105c0 25 -8 48 -47 48c-29 0 -48 -16 -58 -48z" />
    <glyph glyph-name="f.inferior" horiz-adv-x="208" 
d="M-25 -96l48 226h-42l16 73h41l6 29c11 44 54 78 98 78h78l-14 -73h-55c-16 0 -23 -12 -26 -23l-2 -11h75l-16 -73h-74l-48 -226h-85z" />
    <glyph glyph-name="g.inferior" horiz-adv-x="335" 
d="M72 82c-4 -19 -6 -31 -6 -35c0 -28 8 -50 47 -50c32 0 52 18 59 54c4 19 6 30 6 35c0 28 -8 50 -47 50c-31 0 -51 -18 -59 -54zM80 -209c-78 0 -125 53 -125 113h82v-4c0 -15 13 -36 48 -36c31 0 50 18 58 55l9 39c-5 -8 -26 -36 -69 -36c-83 0 -100 67 -100 122
c0 12 1 23 6 44c19 88 55 123 127 123c39 0 66 -14 81 -42l6 34h85l-58 -279c-19 -88 -59 -133 -150 -133z" />
    <glyph glyph-name="h.inferior" horiz-adv-x="342" 
d="M-40 -96l86 406h86l-29 -135c3 8 26 36 68 36c86 0 101 -72 101 -120c0 -13 -7 -54 -10 -69l-26 -118h-85l27 124c11 45 12 53 12 58c0 28 -8 50 -47 50c-31 0 -51 -18 -59 -54l-39 -178h-85z" />
    <glyph glyph-name="i.inferior" horiz-adv-x="155" 
d="M-40 -96l64 299h85l-64 -299h-85zM31 239l15 71h86l-16 -71h-85z" />
    <glyph glyph-name="j.inferior" horiz-adv-x="154" 
d="M-99 -203l14 73h17c16 0 23 14 26 23l65 310h85l-69 -328c-8 -44 -54 -78 -98 -78h-40zM31 239l15 71h85l-15 -71h-85z" />
    <glyph glyph-name="k.inferior" horiz-adv-x="322" 
d="M132 310l-41 -190l94 83h113l-134 -118l86 -181h-89l-60 125l-37 -33l-19 -92h-85l86 406h86z" />
    <glyph glyph-name="l.inferior" horiz-adv-x="171" 
d="M81 -96h-26c-53 0 -75 28 -75 75c0 36 30 166 65 331h85c-47 -219 -67 -313 -67 -321s5 -12 14 -12h19z" />
    <glyph glyph-name="m.inferior" horiz-adv-x="529" 
d="M-40 -96l64 299h85l-6 -28c5 8 26 36 70 36c39 0 59 -19 70 -38c5 8 31 38 91 38c108 0 125 -73 125 -116c0 -13 -6 -49 -9 -64l-27 -127h-85l27 124c7 32 12 53 12 58c0 28 -8 50 -48 50c-27 0 -49 -15 -56 -50l-39 -182h-85l27 124c7 32 12 53 12 58c0 28 -8 50 -48 50
c-27 0 -49 -15 -56 -50l-39 -182h-85z" />
    <glyph glyph-name="n.inferior" horiz-adv-x="342" 
d="M-40 -96l64 299h85l-6 -28c3 8 26 36 68 36c86 0 101 -72 101 -120c0 -13 -7 -54 -10 -69l-26 -118h-85l27 124c8 35 12 54 12 58c0 28 -8 50 -47 50c-31 0 -51 -18 -59 -54l-39 -178h-85z" />
    <glyph glyph-name="o.inferior" horiz-adv-x="327" 
d="M108 -29c32 0 52 18 59 54c5 24 13 59 13 70c0 23 -11 44 -47 44c-31 0 -51 -18 -59 -55c-7 -23 -13 -58 -13 -69c0 -23 11 -44 47 -44zM103 -102c-79 0 -125 51 -125 122c0 8 5 47 10 59c21 88 59 132 150 132c79 0 125 -50 125 -121c0 -9 -7 -46 -10 -59
c-21 -88 -59 -133 -150 -133z" />
    <glyph glyph-name="p.inferior" horiz-adv-x="337" 
d="M120 -26c31 0 51 18 59 54c8 35 12 54 12 58c0 28 -9 50 -48 50c-31 0 -51 -18 -59 -54c-8 -37 -11 -56 -11 -59c0 -28 8 -49 47 -49zM-62 -203l86 406h85l-6 -28c5 8 23 36 66 36c83 0 103 -72 103 -120c0 -13 -7 -54 -10 -69c-19 -88 -55 -124 -127 -124
c-39 0 -66 14 -81 42l-31 -143h-85z" />
    <glyph glyph-name="q.inferior" horiz-adv-x="335" 
d="M107 -26c31 0 51 18 59 54c9 39 12 51 12 58c0 28 -9 50 -48 50c-33 0 -52 -18 -59 -54c-5 -27 -11 -52 -11 -59c0 -28 8 -49 47 -49zM118 -203l29 138c-6 -9 -23 -37 -66 -37c-83 0 -103 73 -103 121c0 13 7 52 10 69c19 88 55 123 127 123c39 0 66 -14 81 -42l8 34h85
l-85 -406h-86z" />
    <glyph glyph-name="r.inferior" horiz-adv-x="223" 
d="M45 -96h-85l64 299h85l-8 -31c5 9 25 37 68 37h34l-16 -79h-46c-32 0 -52 -19 -60 -56z" />
    <glyph glyph-name="s.inferior" horiz-adv-x="281" 
d="M77 -102c-65 0 -120 46 -120 99v4h83v-4c0 -15 20 -28 47 -28c16 0 39 5 39 22c0 13 -13 17 -25 20l-33 8c-40 9 -81 40 -81 89c0 72 60 103 124 103c45 0 111 -33 111 -93v-4h-82v4c0 11 -19 23 -39 23c-19 0 -32 -7 -32 -22c0 -13 14 -18 21 -19l40 -9
c43 -11 79 -40 79 -88c0 -76 -44 -105 -132 -105z" />
    <glyph glyph-name="t.inferior" horiz-adv-x="221" 
d="M133 -96h-63c-53 0 -75 28 -75 75c0 23 12 83 27 151h-42l15 73h42l14 68h85l-14 -68h74l-15 -73h-74c-19 -89 -29 -136 -29 -141c0 -8 5 -12 14 -12h55z" />
    <glyph glyph-name="u.inferior" horiz-adv-x="339" 
d="M84 -102c-79 0 -99 68 -99 116c0 15 4 49 8 65l26 124h86l-27 -121c-7 -33 -11 -53 -11 -59c0 -27 7 -49 48 -49c29 0 47 18 55 54l38 175h85l-64 -299h-85l7 31c-5 -8 -26 -37 -67 -37z" />
    <glyph glyph-name="v.inferior" horiz-adv-x="295" 
d="M29 -96l-45 299h86l23 -179l101 179h95l-172 -299h-88z" />
    <glyph glyph-name="w.inferior" horiz-adv-x="419" 
d="M4 -96l-16 299h84l7 -178l80 178h74l6 -171l79 171h91l-142 -299h-80l-7 203l-91 -203h-85z" />
    <glyph glyph-name="x.inferior" horiz-adv-x="304" 
d="M-73 -96l133 154l-66 145h89l33 -76l66 76h107l-134 -152l66 -147h-90l-32 76l-66 -76h-106z" />
    <glyph glyph-name="y.inferior" horiz-adv-x="295" 
d="M29 -96l-45 299h86l23 -179l101 179h95l-172 -299h-88z" />
    <glyph glyph-name="z.inferior" horiz-adv-x="260" 
d="M216 130l-150 -153h121l-15 -73h-231l15 73l150 153h-113l14 73h224z" />
    <glyph glyph-name="uni2081" unicode="&#x2081;" horiz-adv-x="220" 
d="M20 -96l63 298l-92 -67l23 107l91 68h85l-85 -406h-85z" />
    <glyph glyph-name="uni2082" unicode="&#x2082;" horiz-adv-x="317" 
d="M-57 -96l15 73l189 150c23 19 48 45 48 77c0 17 -7 39 -48 39s-58 -30 -62 -62h-84c20 88 58 135 150 135c74 0 126 -48 126 -107c0 -64 -34 -112 -82 -149l-106 -83h144l-14 -73h-276z" />
    <glyph glyph-name="uni2083" unicode="&#x2083;" horiz-adv-x="323" 
d="M97 -102c-80 0 -125 47 -125 107c0 4 1 12 1 15h82c0 -3 -1 -7 -1 -10c0 -17 6 -39 47 -39c37 0 62 35 62 58s-16 40 -47 40h-34l16 74h33c39 0 68 22 68 61c0 17 -7 39 -48 39c-32 0 -52 -16 -60 -49h-84c23 83 63 122 148 122c74 0 126 -48 126 -107
c0 -57 -29 -94 -70 -110c19 -15 28 -39 28 -66c0 -101 -68 -135 -142 -135z" />
    <glyph glyph-name="uni2084" unicode="&#x2084;" horiz-adv-x="307" 
d="M97 -96l19 88h-173l15 72l225 246h85l-53 -246h42l-15 -72h-41l-19 -88h-85zM63 64h67l23 98z" />
    <glyph glyph-name="uni2085" unicode="&#x2085;" horiz-adv-x="325" 
d="M105 -102c-75 0 -125 48 -125 107c0 4 0 7 1 15h82c-1 -4 -1 -7 -1 -10c0 -17 5 -39 48 -39c32 0 52 17 60 52c5 23 9 40 9 47c0 11 -3 29 -39 29c-23 0 -48 -8 -60 -31h-86l51 242h255l-15 -73h-171l-16 -80c12 7 26 15 59 15c60 0 105 -42 105 -102c0 -7 -2 -21 -7 -42
c-19 -87 -59 -130 -150 -130z" />
    <glyph glyph-name="uni2086" unicode="&#x2086;" horiz-adv-x="327" 
d="M105 -102c-75 0 -124 47 -124 107c0 39 27 168 32 181c21 88 61 130 150 130c75 0 125 -48 125 -107c0 -4 0 -8 -1 -15h-82c1 3 1 6 1 10c0 17 -7 39 -48 39c-31 0 -51 -17 -60 -52c-3 -13 -4 -25 -7 -37c11 8 31 14 56 14c53 0 108 -41 108 -114c0 -13 -2 -37 -7 -53
c-23 -71 -63 -103 -143 -103zM110 -29c32 0 52 17 60 52c4 19 5 29 5 33c0 17 -7 39 -48 39c-31 0 -53 -16 -60 -52c-3 -16 -5 -29 -5 -33c0 -17 5 -39 48 -39z" />
    <glyph glyph-name="uni2087" unicode="&#x2087;" horiz-adv-x="278" 
d="M-22 -96l199 333h-179l14 73h273l-15 -73l-198 -333h-94z" />
    <glyph glyph-name="uni2088" unicode="&#x2088;" horiz-adv-x="315" 
d="M100 -102c-69 0 -127 45 -127 115c0 17 2 80 60 112c-11 17 -17 36 -17 56c0 61 31 135 139 135c72 0 119 -50 119 -107c0 -43 -16 -88 -60 -115c15 -19 22 -41 22 -66c0 -22 -3 -130 -136 -130zM103 -29c45 0 50 37 50 59c0 31 -18 45 -47 45c-45 0 -51 -37 -51 -59
c0 -29 19 -45 48 -45zM139 143c41 0 53 32 53 61c0 20 -10 39 -41 39c-41 0 -52 -32 -52 -60c0 -21 9 -40 40 -40z" />
    <glyph glyph-name="uni2089" unicode="&#x2089;" horiz-adv-x="327" 
d="M157 316c75 0 124 -47 124 -107c0 -39 -29 -167 -32 -181c-21 -88 -61 -130 -150 -130c-75 0 -125 48 -125 107c0 4 0 8 1 15h82c-1 -3 -1 -6 -1 -10c0 -17 5 -39 48 -39c31 0 51 17 60 52c3 13 4 25 7 37c-11 -8 -31 -14 -56 -14c-53 0 -108 41 -108 114c0 13 2 37 7 53
c23 71 63 103 143 103zM152 243c-32 0 -52 -17 -60 -52c-4 -19 -5 -29 -5 -33c0 -17 7 -39 48 -39c31 0 53 16 60 52c3 16 5 29 5 33c0 17 -7 39 -48 39z" />
    <glyph glyph-name="uni2080" unicode="&#x2080;" horiz-adv-x="333" 
d="M110 -29c32 0 52 17 60 52c13 67 36 163 36 181c0 17 -7 39 -48 39c-32 0 -52 -17 -60 -52c-13 -68 -36 -163 -36 -181c0 -17 5 -39 48 -39zM105 -102c-75 0 -125 48 -125 107c0 32 28 165 33 181c21 88 61 130 150 130c75 0 125 -48 125 -107c0 -32 -30 -165 -33 -181
c-21 -88 -61 -130 -150 -130z" />
    <glyph glyph-name="zero.slashed.inferior" horiz-adv-x="333" 
d="M104 -103c-75 0 -125 48 -125 107c0 32 28 165 33 181c21 88 61 130 150 130c75 0 125 -48 125 -107c0 -32 -30 -165 -33 -181c-21 -88 -61 -130 -150 -130zM97 190l-22 -100l129 106c1 2 1 4 1 7c0 17 -7 39 -48 39c-32 0 -52 -17 -60 -52zM109 -30c32 0 52 17 60 52
l21 99l-129 -106v-6c0 -17 5 -39 48 -39z" />
    <glyph glyph-name="period.inferior" horiz-adv-x="183" 
d="M-34 -96l21 101h101l-21 -101h-101z" />
    <glyph glyph-name="hyphen.inferior" horiz-adv-x="215" 
d="M-27 22l16 79h168l-16 -79h-168z" />
    <glyph glyph-name="comma.inferior" horiz-adv-x="183" 
d="M-34 -96l21 101h101l-21 -101l-42 -69h-59l42 69h-42z" />
    <glyph glyph-name="equal.inferior" horiz-adv-x="330" 
d="M-15 -48v78h276v-78h-276zM-15 97v78h276v-78h-276z" />
    <glyph glyph-name="plus.inferior" horiz-adv-x="330" 
d="M-15 22v79h98v99h79v-99h99v-79h-99v-98h-79v98h-98z" />
    <glyph glyph-name="minus.inferior" horiz-adv-x="330" 
d="M-15 22v79h276v-79h-276z" />
    <glyph glyph-name="uni208D" unicode="&#x208d;" horiz-adv-x="180" 
d="M71 -205h-13c-69 0 -87 42 -87 80c0 54 14 98 70 356c11 56 28 79 97 79h43l-17 -78h-25c-16 0 -19 -9 -22 -20c-61 -291 -68 -315 -68 -323c0 -11 5 -16 16 -16h23z" />
    <glyph glyph-name="uni208E" unicode="&#x208e;" horiz-adv-x="181" 
d="M-43 -205h-43l17 78h24c16 0 19 9 22 20c61 293 68 314 68 323c0 11 -5 16 -15 16h-24l17 78h14c69 0 86 -41 86 -80c0 -53 -14 -97 -70 -355c-13 -58 -26 -80 -96 -80z" />
    <glyph glyph-name="one.numerator" horiz-adv-x="299" 
d="M143 294l63 298l-92 -67l23 107l91 68h85l-85 -406h-85z" />
    <glyph glyph-name="two.numerator" horiz-adv-x="363" 
d="M46 294l15 73l189 150c23 19 48 45 48 77c0 17 -7 39 -48 39s-58 -30 -62 -62h-84c20 88 58 135 150 135c74 0 126 -48 126 -107c0 -64 -34 -112 -82 -149l-106 -83h144l-14 -73h-276z" />
    <glyph glyph-name="three.numerator" horiz-adv-x="363" 
d="M200 288c-80 0 -125 47 -125 107c0 4 1 12 1 15h82c0 -3 -1 -7 -1 -10c0 -17 6 -39 47 -39c37 0 62 35 62 58s-16 40 -47 40h-34l16 74h33c39 0 68 22 68 61c0 17 -7 39 -48 39c-32 0 -52 -16 -60 -49h-84c23 83 63 122 148 122c74 0 126 -48 126 -107
c0 -57 -29 -94 -70 -110c19 -15 28 -39 28 -66c0 -101 -68 -135 -142 -135z" />
    <glyph glyph-name="four.numerator" horiz-adv-x="316" 
d="M170 294l19 88h-173l15 72l225 246h85l-53 -246h42l-15 -72h-41l-19 -88h-85zM136 454h67l23 98z" />
    <glyph glyph-name="five.numerator" horiz-adv-x="362" 
d="M208 288c-75 0 -125 48 -125 107c0 4 0 7 1 15h82c-1 -4 -1 -7 -1 -10c0 -17 5 -39 48 -39c32 0 52 17 60 52c5 23 9 40 9 47c0 11 -3 29 -39 29c-23 0 -48 -8 -60 -31h-86l51 242h255l-15 -73h-171l-16 -80c12 7 26 15 59 15c60 0 105 -42 105 -102c0 -7 -2 -21 -7 -42
c-19 -87 -59 -130 -150 -130z" />
    <glyph glyph-name="six.numerator" horiz-adv-x="357" 
d="M203 288c-75 0 -124 47 -124 107c0 39 27 168 32 181c21 88 61 130 150 130c75 0 125 -48 125 -107c0 -4 0 -8 -1 -15h-82c1 3 1 6 1 10c0 17 -7 39 -48 39c-31 0 -51 -17 -60 -52c-3 -13 -4 -25 -7 -37c11 8 31 14 56 14c53 0 108 -41 108 -114c0 -13 -2 -37 -7 -53
c-23 -71 -63 -103 -143 -103zM208 361c32 0 52 17 60 52c4 19 5 29 5 33c0 17 -7 39 -48 39c-31 0 -53 -16 -60 -52c-3 -16 -5 -29 -5 -33c0 -17 5 -39 48 -39z" />
    <glyph glyph-name="seven.numerator" horiz-adv-x="288" 
d="M81 294l199 333h-179l14 73h273l-15 -73l-198 -333h-94z" />
    <glyph glyph-name="eight.numerator" horiz-adv-x="325" 
d="M188 288c-69 0 -127 45 -127 115c0 17 2 80 60 112c-11 17 -17 36 -17 56c0 61 31 135 139 135c72 0 119 -50 119 -107c0 -43 -16 -88 -60 -115c15 -19 22 -41 22 -66c0 -22 -3 -130 -136 -130zM191 361c45 0 50 37 50 59c0 31 -18 45 -47 45c-45 0 -51 -37 -51 -59
c0 -29 19 -45 48 -45zM227 533c41 0 53 32 53 61c0 20 -10 39 -41 39c-41 0 -52 -32 -52 -60c0 -21 9 -40 40 -40z" />
    <glyph glyph-name="nine.numerator" horiz-adv-x="356" 
d="M255 706c75 0 124 -47 124 -107c0 -39 -29 -167 -32 -181c-21 -88 -61 -130 -150 -130c-75 0 -125 48 -125 107c0 4 0 8 1 15h82c-1 -3 -1 -6 -1 -10c0 -17 5 -39 48 -39c31 0 51 17 60 52c3 13 4 25 7 37c-11 -8 -31 -14 -56 -14c-53 0 -108 41 -108 114c0 13 2 37 7 53
c23 71 63 103 143 103zM250 633c-32 0 -52 -17 -60 -52c-4 -19 -5 -29 -5 -33c0 -17 7 -39 48 -39c31 0 53 16 60 52c3 16 5 29 5 33c0 17 -7 39 -48 39z" />
    <glyph glyph-name="zero.numerator" horiz-adv-x="362" 
d="M208 361c32 0 52 17 60 52c13 67 36 163 36 181c0 17 -7 39 -48 39c-32 0 -52 -17 -60 -52c-13 -68 -36 -163 -36 -181c0 -17 5 -39 48 -39zM203 288c-75 0 -125 48 -125 107c0 32 28 165 33 181c21 88 61 130 150 130c75 0 125 -48 125 -107c0 -32 -30 -165 -33 -181
c-21 -88 -61 -130 -150 -130z" />
    <glyph glyph-name="zero.slashed.numerator" horiz-adv-x="363" 
d="M203 288c-75 0 -125 48 -125 107c0 32 28 165 33 181c21 88 61 130 150 130c75 0 125 -48 125 -107c0 -32 -30 -165 -33 -181c-21 -88 -61 -130 -150 -130zM196 581l-22 -100l129 106c1 2 1 4 1 7c0 17 -7 39 -48 39c-32 0 -52 -17 -60 -52zM208 361c32 0 52 17 60 52
l21 99l-129 -106v-6c0 -17 5 -39 48 -39z" />
    <glyph glyph-name="one.denominator" horiz-adv-x="299" 
d="M80 0l63 298l-92 -67l23 107l91 68h85l-85 -406h-85z" />
    <glyph glyph-name="two.denominator" horiz-adv-x="363" 
d="M-16 0l15 73l189 150c23 19 48 45 48 77c0 17 -7 39 -48 39s-58 -30 -62 -62h-84c20 88 58 135 150 135c74 0 126 -48 126 -107c0 -64 -34 -112 -82 -149l-106 -83h144l-14 -73h-276z" />
    <glyph glyph-name="three.denominator" horiz-adv-x="363" 
d="M138 -6c-80 0 -125 47 -125 107c0 4 1 12 1 15h82c0 -3 -1 -7 -1 -10c0 -17 6 -39 47 -39c37 0 62 35 62 58s-16 40 -47 40h-34l16 74h33c39 0 68 22 68 61c0 17 -7 39 -48 39c-32 0 -52 -16 -60 -49h-84c23 83 63 122 148 122c74 0 126 -48 126 -107
c0 -57 -29 -94 -70 -110c19 -15 28 -39 28 -66c0 -101 -68 -135 -142 -135z" />
    <glyph glyph-name="four.denominator" horiz-adv-x="316" 
d="M107 0l19 88h-173l15 72l225 246h85l-53 -246h42l-15 -72h-41l-19 -88h-85zM73 160h67l23 98z" />
    <glyph glyph-name="five.denominator" horiz-adv-x="362" 
d="M146 -6c-75 0 -125 48 -125 107c0 4 0 7 1 15h82c-1 -4 -1 -7 -1 -10c0 -17 5 -39 48 -39c32 0 52 17 60 52c5 23 9 40 9 47c0 11 -3 29 -39 29c-23 0 -48 -8 -60 -31h-86l51 242h255l-15 -73h-171l-16 -80c12 7 26 15 59 15c60 0 105 -42 105 -102c0 -7 -2 -21 -7 -42
c-19 -87 -59 -130 -150 -130z" />
    <glyph glyph-name="six.denominator" horiz-adv-x="357" 
d="M141 -6c-75 0 -124 47 -124 107c0 39 27 168 32 181c21 88 61 130 150 130c75 0 125 -48 125 -107c0 -4 0 -8 -1 -15h-82c1 3 1 6 1 10c0 17 -7 39 -48 39c-31 0 -51 -17 -60 -52c-3 -13 -4 -25 -7 -37c11 8 31 14 56 14c53 0 108 -41 108 -114c0 -13 -2 -37 -7 -53
c-23 -71 -63 -103 -143 -103zM146 67c32 0 52 17 60 52c4 19 5 29 5 33c0 17 -7 39 -48 39c-31 0 -53 -16 -60 -52c-3 -16 -5 -29 -5 -33c0 -17 5 -39 48 -39z" />
    <glyph glyph-name="seven.denominator" horiz-adv-x="288" 
d="M18 0l199 333h-179l14 73h273l-15 -73l-198 -333h-94z" />
    <glyph glyph-name="eight.denominator" horiz-adv-x="325" 
d="M126 -6c-69 0 -127 45 -127 115c0 17 2 80 60 112c-11 17 -17 36 -17 56c0 61 31 135 139 135c72 0 119 -50 119 -107c0 -43 -16 -88 -60 -115c15 -19 22 -41 22 -66c0 -22 -3 -130 -136 -130zM129 67c45 0 50 37 50 59c0 31 -18 45 -47 45c-45 0 -51 -37 -51 -59
c0 -29 19 -45 48 -45zM165 239c41 0 53 32 53 61c0 20 -10 39 -41 39c-41 0 -52 -32 -52 -60c0 -21 9 -40 40 -40z" />
    <glyph glyph-name="nine.denominator" horiz-adv-x="356" 
d="M192 412c75 0 124 -47 124 -107c0 -39 -29 -167 -32 -181c-21 -88 -61 -130 -150 -130c-75 0 -125 48 -125 107c0 4 0 8 1 15h82c-1 -3 -1 -6 -1 -10c0 -17 5 -39 48 -39c31 0 51 17 60 52c3 13 4 25 7 37c-11 -8 -31 -14 -56 -14c-53 0 -108 41 -108 114c0 13 2 37 7 53
c23 71 63 103 143 103zM187 339c-32 0 -52 -17 -60 -52c-4 -19 -5 -29 -5 -33c0 -17 7 -39 48 -39c31 0 53 16 60 52c3 16 5 29 5 33c0 17 -7 39 -48 39z" />
    <glyph glyph-name="zero.denominator" horiz-adv-x="362" 
d="M145 67c32 0 52 17 60 52c13 67 36 163 36 181c0 17 -7 39 -48 39c-32 0 -52 -17 -60 -52c-13 -68 -36 -163 -36 -181c0 -17 5 -39 48 -39zM140 -6c-75 0 -125 48 -125 107c0 32 28 165 33 181c21 88 61 130 150 130c75 0 125 -48 125 -107c0 -32 -30 -165 -33 -181
c-21 -88 -61 -130 -150 -130z" />
    <glyph glyph-name="zero.slashed.denominator" horiz-adv-x="362" 
d="M140 -6c-75 0 -125 48 -125 107c0 32 28 165 33 181c21 88 61 130 150 130c75 0 125 -48 125 -107c0 -32 -30 -165 -33 -181c-21 -88 -61 -130 -150 -130zM133 287l-22 -100l129 106c1 2 1 4 1 7c0 17 -7 39 -48 39c-32 0 -52 -17 -60 -52zM145 67c32 0 52 17 60 52
l21 99l-129 -106v-6c0 -17 5 -39 48 -39z" />
    <glyph glyph-name="ampersand.case" horiz-adv-x="615" 
d="M430 0h-219c-87 0 -175 67 -175 176c0 88 36 159 119 196c-32 25 -54 75 -54 120c0 143 93 208 261 208h110l-22 -102h-109c-79 0 -136 -37 -136 -102c0 -48 32 -95 91 -95h112l18 81h107l-18 -81h123l-21 -102h-123zM232 102h113l42 197h-116c-68 0 -131 -33 -131 -108
c0 -48 36 -89 92 -89z" />
    <glyph glyph-name="hyphen.case" horiz-adv-x="399" 
d="M81 383h290l-19 -91h-290z" />
    <glyph glyph-name="endash.case" horiz-adv-x="539" 
d="M81 383h430l-19 -91h-430z" />
    <glyph glyph-name="emdash.case" horiz-adv-x="844" 
d="M81 383h735l-19 -91h-735z" />
    <glyph glyph-name="question.case" horiz-adv-x="528" 
d="M200 500h-107c27 131 86 210 241 210c114 0 188 -75 188 -181c0 -81 -36 -138 -108 -197l-55 -44c-29 -23 -59 -47 -63 -68l-2 -10h-107l4 22c11 48 25 77 92 130l56 44c33 27 78 62 78 116c0 55 -49 85 -97 85c-67 0 -107 -44 -120 -107zM128 0l29 134h134l-29 -134
h-134z" />
    <glyph glyph-name="questiondown.case" horiz-adv-x="528" 
d="M364 200h107c-27 -131 -86 -210 -241 -210c-114 0 -188 75 -188 181c0 81 36 138 108 197l55 44c29 23 59 47 63 68l2 10h107l-4 -22c-11 -48 -25 -77 -92 -130l-56 -44c-33 -27 -78 -62 -78 -116c0 -55 49 -85 97 -85c67 0 107 44 120 107zM436 700l-29 -134h-134
l29 134h134z" />
    <glyph glyph-name="exclam.case" horiz-adv-x="303" 
d="M299 700l-104 -490h-109l104 490h109zM29 0l29 134h134l-29 -134h-134z" />
    <glyph glyph-name="exclamdown.case" horiz-adv-x="303" 
d="M42 0l104 490h109l-104 -490h-109zM312 700l-29 -134h-134l29 134h134z" />
    <glyph glyph-name="guilsinglleft.case" horiz-adv-x="292" 
d="M201 132l-139 151l19 94l205 151l-29 -135l-100 -74l68 -74z" />
    <glyph glyph-name="guilsinglright.case" horiz-adv-x="292" 
d="M121 528l139 -151l-19 -94l-205 -151l29 135l100 74l-68 74z" />
    <glyph glyph-name="guillemotleft.case" horiz-adv-x="496" 
d="M201 132l-139 151l19 94l205 151l-29 -135l-100 -74l68 -74zM405 132l-139 151l19 94l205 151l-29 -135l-100 -74l68 -74z" />
    <glyph glyph-name="guillemotright.case" horiz-adv-x="496" 
d="M121 528l139 -151l-19 -94l-205 -151l29 135l100 74l-68 74zM325 528l139 -151l-19 -94l-205 -151l29 135l100 74l-68 74z" />
    <glyph glyph-name="parenleft.case" horiz-adv-x="301" 
d="M163 577c19 80 52 123 149 123h46l-20 -92h-24c-40 0 -53 -16 -61 -53c-53 -239 -88 -414 -88 -427c0 -24 13 -36 38 -36h27l-20 -92h-16c-62 0 -123 37 -123 116c0 32 36 200 92 461z" />
    <glyph glyph-name="parenright.case" horiz-adv-x="301" 
d="M177 123c-19 -80 -52 -123 -149 -123h-46l20 92h24c40 0 53 16 61 53c51 240 88 414 88 427c0 24 -13 36 -38 36h-27l20 92h16c61 0 123 -37 123 -116c0 -32 -36 -202 -92 -461z" />
    <glyph glyph-name="bracketleft.case" horiz-adv-x="302" 
d="M40 0l148 700h169l-20 -92h-74l-108 -516h74l-20 -92h-169z" />
    <glyph glyph-name="bracketright.case" horiz-adv-x="302" 
d="M300 700l-148 -700h-169l20 92h74l108 516h-74l20 92h169z" />
    <glyph glyph-name="braceleft.case" horiz-adv-x="334" 
d="M129 274c0 19 -9 29 -34 29h-32l19 94h32c33 0 46 16 53 51l28 129c16 80 53 123 149 123h46l-20 -92h-24c-40 0 -53 -16 -61 -53l-27 -129c-7 -31 -19 -61 -48 -76c15 -9 20 -26 20 -38c0 -27 -33 -163 -33 -184c0 -24 13 -36 38 -36h27l-20 -92h-16
c-62 0 -123 37 -123 116c0 40 26 137 26 158z" />
    <glyph glyph-name="braceright.case" horiz-adv-x="334" 
d="M244 426c0 -19 9 -29 34 -29h32l-19 -94h-32c-33 0 -46 -16 -53 -51l-28 -129c-16 -80 -53 -123 -149 -123h-46l20 92h24c40 0 53 16 61 53l27 129c7 31 19 61 48 76c-15 9 -20 26 -20 38c0 27 33 163 33 184c0 24 -13 36 -38 36h-27l20 92h16c61 0 123 -37 123 -116
c0 -40 -26 -139 -26 -158z" />
    <glyph glyph-name="bar.case" horiz-adv-x="253" 
d="M193 700v-700h-95v700h95z" />
    <glyph glyph-name="brokenbar.case" horiz-adv-x="253" 
d="M98 0v289h95v-289h-95zM98 411v289h95v-289h-95z" />
    <glyph glyph-name="periodcentered.case" horiz-adv-x="311" 
d="M93 280l29 134h134l-29 -134h-134z" />
    <glyph glyph-name="at.case" horiz-adv-x="926" 
d="M591 420c-5 68 -48 101 -109 101c-52 0 -90 -24 -105 -73h-107c19 137 129 174 212 174c90 0 215 -43 215 -214v-187c0 -31 19 -45 42 -45s42 14 42 45v189c0 238 -174 298 -299 298c-126 0 -299 -60 -299 -298v-120c0 -238 173 -298 299 -298c61 0 131 14 190 55l50 -83
c-75 -49 -164 -66 -240 -66c-166 0 -394 82 -394 395v114c0 313 228 395 394 395s394 -82 394 -395v-189c0 -79 -42 -136 -135 -136c-73 0 -121 24 -149 59c-33 -40 -86 -59 -154 -59c-93 0 -176 46 -176 153c0 58 27 128 112 155c63 19 129 23 217 30zM455 183
c60 0 137 19 137 115v29c-92 -7 -161 -12 -200 -35c-13 -8 -25 -21 -25 -48c0 -43 32 -61 88 -61z" />
    <glyph glyph-name="plus.case" 
d="M342 552v-169h169v-91h-169v-170h-91v170h-170v91h170v169h91z" />
    <glyph glyph-name="minus.case" 
d="M81 383h430v-91h-430v91z" />
    <glyph glyph-name="divide.case" 
d="M229 511c0 37 30 67 67 67s67 -30 67 -67s-30 -67 -67 -67s-67 30 -67 67zM229 164c0 37 30 67 67 67s67 -30 67 -67s-30 -67 -67 -67s-67 30 -67 67zM81 383h430v-91h-430v91z" />
    <glyph glyph-name="multiply.case" 
d="M77 184l153 154l-153 154l64 65l154 -155l154 155l64 -65l-154 -154l154 -154l-64 -65l-154 154l-154 -154z" />
    <glyph glyph-name="equal.case" 
d="M511 397h-430v91h430v-91zM81 267h430v-91h-430v91z" />
    <glyph glyph-name="plusminus.case" 
d="M251 351h-170v91h170v131h91v-131h169v-91h-169v-131h-91v131zM81 148h430v-91h-430v91z" />
    <glyph glyph-name="less.case" 
d="M179 316l332 -162v-102l-430 210v108l430 210v-102z" />
    <glyph glyph-name="greater.case" 
d="M81 154l332 162l-332 162v102l430 -210v-108l-430 -210v102z" />
    <glyph glyph-name="lessequal.case" 
d="M511 196l-430 138v108l430 138v-103l-278 -89l278 -89v-103zM81 148h430v-91h-430v91z" />
    <glyph glyph-name="greaterequal.case" 
d="M511 334l-430 -138v103l278 89l-278 89v103l430 -138v-108zM81 148h430v-91h-430v91z" />
    <glyph glyph-name="notequal.case" 
d="M289 397h-208v91h278l82 107l70 -54l-41 -53h41v-91h-110l-100 -130h210v-91h-279l-81 -106l-70 54l39 52h-39v91h109z" />
    <glyph glyph-name="acute.case" horiz-adv-x="326" 
d="M257 854h137l-128 -109h-91z" />
    <glyph glyph-name="breve.case" horiz-adv-x="414" 
d="M410 854h87c-13 -61 -71 -109 -132 -109h-110c-53 0 -89 37 -89 86c0 7 1 15 3 23h76c-1 -1 -1 -3 -1 -4v-2c0 -15 8 -22 23 -22h109c16 0 31 12 34 28z" />
    <glyph glyph-name="caron.case" horiz-adv-x="452" 
d="M298 854l36 -36l52 36h140l-155 -109h-84l-109 109h120z" />
    <glyph glyph-name="cedilla.case" horiz-adv-x="273" 
d="M-36 -158l60 158h93l-38 -158h-115z" />
    <glyph glyph-name="circumflex.case" horiz-adv-x="452" 
d="M383 745l-36 36l-52 -36h-140l155 109h84l109 -109h-120z" />
    <glyph glyph-name="dieresis.case" horiz-adv-x="420" 
d="M294 853l-23 -107h-107l23 107h107zM485 853l-23 -107h-107l23 107h107z" />
    <glyph glyph-name="dotaccent.case" horiz-adv-x="203" 
d="M281 853l-23 -107h-107l23 107h107z" />
    <glyph glyph-name="grave.case" horiz-adv-x="326" 
d="M178 854h132l59 -109h-86z" />
    <glyph glyph-name="hungarumlaut.case" horiz-adv-x="487" 
d="M248 854h132l-118 -109h-86zM423 854h132l-118 -109h-86z" />
    <glyph glyph-name="macron.case" horiz-adv-x="438" 
d="M182 843h322l-19 -87h-322z" />
    <glyph glyph-name="ogonek.case" horiz-adv-x="262" 
d="M57 0h106c-22 -14 -101 -57 -101 -91c0 -13 10 -17 23 -17c19 0 43 10 58 17l-17 -80c-28 -12 -48 -18 -85 -18c-52 0 -92 21 -92 73c0 61 52 95 108 116z" />
    <glyph glyph-name="ring.case" horiz-adv-x="233" 
d="M157 799c0 41 33 75 74 75s75 -34 75 -75s-34 -74 -75 -74s-74 33 -74 74zM210 799c0 -12 9 -21 21 -21s21 9 21 21s-9 21 -21 21s-21 -9 -21 -21z" />
    <glyph glyph-name="tilde.case" horiz-adv-x="452" 
d="M281 859c17 0 33 0 52 -8l38 -16c7 -3 13 -6 20 -6c13 0 23 9 30 28h91c-16 -100 -79 -116 -111 -116c-17 0 -33 0 -52 8l-38 16c-7 3 -13 6 -20 6c-13 0 -23 -9 -30 -28h-91c16 100 79 116 111 116z" />
    <glyph glyph-name="at.case.ss01" horiz-adv-x="926" 
d="M687 608v-387c0 -31 24 -45 47 -45s47 14 47 45v189c0 238 -174 298 -299 298c-126 0 -299 -60 -299 -298v-120c0 -238 173 -298 299 -298c61 0 131 14 190 55l50 -83c-75 -49 -164 -66 -240 -66c-166 0 -394 82 -394 395v114c0 313 228 395 394 395s394 -82 394 -395
v-189c0 -79 -47 -136 -140 -136c-73 0 -126 24 -154 59c-16 -31 -64 -59 -120 -59c-89 0 -205 55 -205 214v112c0 159 116 214 205 214c56 0 104 -30 120 -59v45h105zM362 406v-108c0 -79 44 -114 103 -114c65 0 117 35 117 114v108c0 79 -45 114 -110 114
s-110 -35 -110 -114z" />
    <glyph glyph-name="a.ss01" horiz-adv-x="553" 
d="M365 189c8 38 32 140 32 158c0 51 -35 84 -99 84s-107 -40 -122 -100c-8 -38 -32 -140 -32 -158c0 -51 35 -84 99 -84s107 40 122 100zM291 530c77 0 114 -41 130 -77l13 63h105l-110 -516h-105l12 53c-21 -35 -70 -63 -126 -63c-77 0 -168 60 -168 168
c0 55 13 106 28 170c29 133 102 202 221 202z" />
    <glyph glyph-name="aacute.ss01" horiz-adv-x="553" 
d="M365 189c8 38 32 140 32 158c0 51 -35 84 -99 84s-107 -40 -122 -100c-8 -38 -32 -140 -32 -158c0 -51 35 -84 99 -84s107 40 122 100zM291 530c77 0 114 -41 130 -77l13 63h105l-110 -516h-105l12 53c-21 -35 -70 -63 -126 -63c-77 0 -168 60 -168 168
c0 55 13 106 28 170c29 133 102 202 221 202zM337 700h135l-118 -129h-84z" />
    <glyph glyph-name="abreve.ss01" horiz-adv-x="553" 
d="M365 189c8 38 32 140 32 158c0 51 -35 84 -99 84s-107 -40 -122 -100c-8 -38 -32 -140 -32 -158c0 -51 35 -84 99 -84s107 40 122 100zM291 530c77 0 114 -41 130 -77l13 63h105l-110 -516h-105l12 53c-21 -35 -70 -63 -126 -63c-77 0 -168 60 -168 168
c0 55 13 106 28 170c29 133 102 202 221 202zM386 571h-70c-63 0 -105 44 -105 103c0 8 1 17 3 26h74c-1 -3 -1 -6 -1 -11c0 -23 17 -39 41 -39h69c28 0 53 22 60 50h85c-16 -72 -84 -129 -156 -129z" />
    <glyph glyph-name="acircumflex.ss01" horiz-adv-x="553" 
d="M365 189c8 38 32 140 32 158c0 51 -35 84 -99 84s-107 -40 -122 -100c-8 -38 -32 -140 -32 -158c0 -51 35 -84 99 -84s107 40 122 100zM291 530c77 0 114 -41 130 -77l13 63h105l-110 -516h-105l12 53c-21 -35 -70 -63 -126 -63c-77 0 -168 60 -168 168
c0 55 13 106 28 170c29 133 102 202 221 202zM405 700l105 -129h-106l-45 56l-69 -56h-128l159 129h84z" />
    <glyph glyph-name="adieresis.ss01" horiz-adv-x="553" 
d="M365 189c8 38 32 140 32 158c0 51 -35 84 -99 84s-107 -40 -122 -100c-8 -38 -32 -140 -32 -158c0 -51 35 -84 99 -84s107 40 122 100zM291 530c77 0 114 -41 130 -77l13 63h105l-110 -516h-105l12 53c-21 -35 -70 -63 -126 -63c-77 0 -168 60 -168 168
c0 55 13 106 28 170c29 133 102 202 221 202zM317 689l-23 -107h-105l23 107h105zM510 689l-23 -107h-105l23 107h105z" />
    <glyph glyph-name="agrave.ss01" horiz-adv-x="553" 
d="M365 189c8 38 32 140 32 158c0 51 -35 84 -99 84s-107 -40 -122 -100c-8 -38 -32 -140 -32 -158c0 -51 35 -84 99 -84s107 40 122 100zM291 530c77 0 114 -41 130 -77l13 63h105l-110 -516h-105l12 53c-21 -35 -70 -63 -126 -63c-77 0 -168 60 -168 168
c0 55 13 106 28 170c29 133 102 202 221 202zM216 700h130l40 -129h-79z" />
    <glyph glyph-name="amacron.ss01" horiz-adv-x="553" 
d="M365 189c8 38 32 140 32 158c0 51 -35 84 -99 84s-107 -40 -122 -100c-8 -38 -32 -140 -32 -158c0 -51 35 -84 99 -84s107 40 122 100zM291 530c77 0 114 -41 130 -77l13 63h105l-110 -516h-105l12 53c-21 -35 -70 -63 -126 -63c-77 0 -168 60 -168 168
c0 55 13 106 28 170c29 133 102 202 221 202zM214 678h322l-19 -85h-322z" />
    <glyph glyph-name="aogonek.ss01" horiz-adv-x="553" 
d="M365 189c8 38 32 140 32 158c0 51 -35 84 -99 84s-107 -40 -122 -100c-8 -38 -32 -140 -32 -158c0 -51 35 -84 99 -84s107 40 122 100zM291 530c77 0 114 -41 130 -77l13 63h105l-110 -516h-105l12 53c-21 -35 -70 -63 -126 -63c-77 0 -168 60 -168 168
c0 55 13 106 28 170c29 133 102 202 221 202zM324 0h105c-23 -15 -101 -54 -101 -92c0 -12 7 -18 22 -18c19 0 44 10 59 17l-17 -78c-27 -11 -54 -18 -85 -18c-52 0 -90 24 -90 71c0 64 48 94 107 118z" />
    <glyph glyph-name="aring.ss01" horiz-adv-x="553" 
d="M365 189c8 38 32 140 32 158c0 51 -35 84 -99 84s-107 -40 -122 -100c-8 -38 -32 -140 -32 -158c0 -51 35 -84 99 -84s107 40 122 100zM291 530c77 0 114 -41 130 -77l13 63h105l-110 -516h-105l12 53c-21 -35 -70 -63 -126 -63c-77 0 -168 60 -168 168
c0 55 13 106 28 170c29 133 102 202 221 202zM275 635c0 41 33 75 74 75s75 -34 75 -75s-34 -74 -75 -74s-74 33 -74 74zM326 635c0 -13 10 -23 23 -23s23 10 23 23s-10 23 -23 23s-23 -10 -23 -23z" />
    <glyph glyph-name="atilde.ss01" horiz-adv-x="553" 
d="M365 189c8 38 32 140 32 158c0 51 -35 84 -99 84s-107 -40 -122 -100c-8 -38 -32 -140 -32 -158c0 -51 35 -84 99 -84s107 40 122 100zM291 530c77 0 114 -41 130 -77l13 63h105l-110 -516h-105l12 53c-21 -35 -70 -63 -126 -63c-77 0 -168 60 -168 168
c0 55 13 106 28 170c29 133 102 202 221 202zM263 579h-84c16 100 79 116 111 116c17 0 33 -1 52 -9l38 -16c7 -3 16 -7 27 -7c12 0 22 7 30 30h84c-16 -100 -79 -116 -111 -116c-17 0 -33 1 -52 9l-38 16c-7 3 -16 7 -27 7c-12 0 -22 -7 -30 -30z" />
    <glyph glyph-name="at.ss01" horiz-adv-x="916" 
d="M663 516v-387c0 -31 24 -45 47 -45s47 14 47 45v189c0 238 -174 298 -299 298c-126 0 -299 -60 -299 -298v-120c0 -238 173 -298 299 -298c61 0 131 14 190 55l50 -83c-75 -49 -164 -66 -240 -66c-166 0 -394 82 -394 395v114c0 313 228 395 394 395s394 -82 394 -395
v-189c0 -79 -47 -136 -140 -136c-73 0 -126 24 -154 59c-16 -31 -64 -59 -120 -59c-89 0 -205 55 -205 214v112c0 159 116 214 205 214c56 0 104 -30 120 -59v45h105zM338 314v-108c0 -79 44 -114 103 -114c65 0 117 35 117 114v108c0 79 -45 114 -110 114
s-110 -35 -110 -114z" />
    <glyph glyph-name="l.ss02" horiz-adv-x="242" 
d="M267 700l-149 -700h-104l148 700h105z" />
    <glyph glyph-name="lacute.ss02" horiz-adv-x="242" 
d="M267 700l-149 -700h-104l148 700h105zM224 874h135l-118 -129h-84z" />
    <glyph glyph-name="lcaron.ss02" horiz-adv-x="242" 
d="M455 700l-112 -158h-79l61 158h130zM267 700l-149 -700h-104l148 700h105z" />
    <glyph glyph-name="lcommaaccent.ss02" horiz-adv-x="242" 
d="M267 700l-149 -700h-104l148 700h105zM-33 -174l27 124h124l-27 -124l-49 -94h-79l49 94h-45z" />
    <glyph glyph-name="ldot.ss02" horiz-adv-x="329" 
d="M267 700l-149 -700h-104l148 700h105zM369 404l-23 -107h-105l23 107h105z" />
    <glyph glyph-name="lslash.ss02" horiz-adv-x="258" 
d="M275 700l-54 -252l72 36l-17 -82l-72 -37l-78 -365h-104l65 306l-71 -35l17 82l71 36l66 311h105z" />
    <glyph glyph-name="fl.ss02" horiz-adv-x="577" 
d="M399 601h-79c-40 0 -50 -12 -58 -51l-7 -34h127l-21 -97h-127l-89 -419h-105l89 419h-73l21 97h73l12 57c17 81 57 127 156 127h103zM602 700l-149 -700h-104l148 700h105z" />
    <glyph glyph-name="uniFB04.ss02" horiz-adv-x="912" 
d="M399 601h-79c-40 0 -50 -12 -58 -51l-7 -34h127l-21 -97h-127l-89 -419h-105l89 419h-73l21 97h73l12 57c17 81 57 127 156 127h103zM734 601h-79c-40 0 -50 -12 -58 -51l-7 -34h127l-21 -97h-127l-89 -419h-105l89 419h-73l21 97h73l12 57c17 81 57 127 156 127h103z
M937 700l-149 -700h-104l148 700h105z" />
    </font>
</defs>
</svg>
