<?xml version="1.0" standalone="no"?>
<!DOCTYPE svg PUBLIC "-//W3C//DTD SVG 1.1//EN" "http://www.w3.org/Graphics/SVG/1.1/DTD/svg11.dtd" >
<svg xmlns="http://www.w3.org/2000/svg" xmlns:xlink="http://www.w3.org/1999/xlink" version="1.1">
<metadata>
Created by FontForge 20161003 at Fri Aug  9 10:47:58 2019
 By www-data
Copyright \(c\) 2011 Swiss Typefaces. All rights reserved.
</metadata>
<defs>
<font id="SimplonNorm-LightItalic" horiz-adv-x="558" >
  <font-face 
    font-family="Simplon Norm"
    font-weight="300"
    font-style="italic"
    font-stretch="normal"
    units-per-em="1000"
    panose-1="2 11 3 0 3 0 0 0 0 0"
    ascent="800"
    descent="-200"
    x-height="516"
    cap-height="700"
    bbox="-200 -209 1036 874"
    underline-thickness="48"
    underline-position="-100"
    slope="-12"
    unicode-range="U+0020-FB04"
  />
<missing-glyph horiz-adv-x="500" 
d="M388 0h-387l148 700h387zM221 646l56 -242l160 242h-216zM76 98l168 256l-59 256zM351 88l110 515l-170 -258zM99 54h215l-56 241z" />
    <glyph glyph-name=".notdef" horiz-adv-x="500" 
d="M388 0h-387l148 700h387zM221 646l56 -242l160 242h-216zM76 98l168 256l-59 256zM351 88l110 515l-170 -258zM99 54h215l-56 241z" />
    <glyph glyph-name="NULL" horiz-adv-x="0" 
 />
    <glyph glyph-name="CR" horiz-adv-x="0" 
 />
    <glyph glyph-name="space" unicode=" " horiz-adv-x="230" 
 />
    <glyph glyph-name="exclam" unicode="!" horiz-adv-x="264" 
d="M199 700h53l-104 -490h-53zM35 0l18 84h84l-18 -84h-84z" />
    <glyph glyph-name="quotedbl" unicode="&#x22;" horiz-adv-x="356" 
d="M208 476h-53v224h53v-224zM341 476h-53v224h53v-224z" />
    <glyph glyph-name="numbersign" unicode="#" horiz-adv-x="700" 
d="M581 216h-93l-53 -216h-47l53 216h-211l-53 -216h-47l53 216h-71v45h82l44 178h-81v45h92l54 216h47l-54 -216h211l54 216h47l-54 -216h72v-45h-83l-44 -178h82v-45zM285 439l-44 -178h211l44 178h-211z" />
    <glyph glyph-name="dollar" unicode="$" horiz-adv-x="505" 
d="M157 -100l20 97c-81 19 -147 78 -147 183c0 7 0 13 1 20h52c-1 -11 -1 -10 -1 -17c0 -75 43 -120 106 -137l60 285l-15 6c-83 31 -125 99 -125 174c0 129 81 199 205 199c5 0 9 0 16 -1l19 91h43l-21 -98c68 -21 128 -74 128 -158c0 -5 0 -6 -1 -14h-51v4
c0 63 -37 103 -86 119l-61 -285l23 -8c76 -28 122 -87 122 -166c0 -108 -65 -204 -212 -204c-4 0 -9 1 -13 1l-19 -91h-43zM297 313l-9 3l-58 -276h11c77 0 149 53 149 151c0 56 -25 97 -93 122zM162 520c0 -60 23 -109 90 -134l7 -3l59 277h-7c-96 0 -149 -60 -149 -140z
" />
    <glyph glyph-name="percent" unicode="%" horiz-adv-x="807" 
d="M640 700h48l-481 -700h-48zM212 329c39 0 72 25 83 73c8 42 41 179 41 203c0 36 -23 60 -66 60c-39 0 -72 -25 -83 -73c-8 -41 -41 -179 -41 -203c0 -36 23 -60 66 -60zM205 288c-69 0 -100 50 -100 95c0 28 28 157 39 208c19 80 61 115 133 115c69 0 100 -50 100 -95
c0 -29 -28 -157 -39 -208c-19 -80 -61 -115 -133 -115zM577 35c39 0 72 25 83 73c8 42 41 179 41 203c0 36 -23 60 -66 60c-39 0 -72 -25 -83 -73c-8 -41 -41 -179 -41 -203c0 -36 23 -60 66 -60zM570 -6c-69 0 -100 50 -100 95c0 28 28 157 39 208c19 80 61 115 133 115
c69 0 100 -50 100 -95c0 -29 -28 -157 -39 -208c-19 -80 -61 -115 -133 -115z" />
    <glyph glyph-name="ampersand" unicode="&#x26;" horiz-adv-x="595" 
d="M485 650h-155c-100 0 -171 -48 -171 -143c0 -64 40 -129 114 -129h155l17 81h53l-18 -81h128l-11 -49h-127l-70 -329h-203c-104 0 -158 78 -158 169c0 89 39 162 135 197c-44 27 -67 80 -67 131c0 148 102 203 230 203h159zM208 50h150l59 279h-150
c-99 0 -176 -44 -176 -153c0 -61 30 -126 117 -126z" />
    <glyph glyph-name="quotesingle" unicode="'" horiz-adv-x="223" 
d="M208 476h-53v224h53v-224z" />
    <glyph glyph-name="parenleft" unicode="(" horiz-adv-x="261" 
d="M173 597c19 85 44 103 129 103h10l-9 -41h-10c-53 0 -66 -14 -77 -62c-128 -596 -128 -593 -128 -613c0 -25 10 -35 54 -35h10l-9 -41h-10c-64 0 -88 31 -88 78c0 16 0 15 128 611z" />
    <glyph glyph-name="parenright" unicode=")" horiz-adv-x="261" 
d="M108 11c-19 -85 -44 -103 -129 -103h-10l9 41h10c53 0 66 14 77 62c128 596 128 593 128 613c0 25 -10 35 -54 35h-10l9 41h10c64 0 88 -31 88 -78c0 -16 0 -15 -128 -611z" />
    <glyph glyph-name="asterisk" unicode="*" horiz-adv-x="453" 
d="M334 410l-52 101l-100 -105l-32 27l98 102l-111 40l21 38l109 -39l28 126h45l-27 -125l127 39l4 -41l-127 -39l53 -101z" />
    <glyph glyph-name="plus" unicode="+" 
d="M262 82v176h-176v45h176v175h45v-175h175v-45h-175v-176h-45z" />
    <glyph glyph-name="comma" unicode="," horiz-adv-x="264" 
d="M36 0l17 84h84l-17 -84l-49 -84h-49l49 84h-35z" />
    <glyph glyph-name="hyphen" unicode="-" horiz-adv-x="410" 
d="M351 258h-290l9 45h290z" />
    <glyph glyph-name="period" unicode="." horiz-adv-x="264" 
d="M36 0l17 84h84l-17 -84h-84z" />
    <glyph glyph-name="slash" unicode="/" horiz-adv-x="332" 
d="M283 700h49l-283 -700h-49z" />
    <glyph glyph-name="zero" unicode="0" horiz-adv-x="534" 
d="M176 513c-32 -149 -71 -312 -71 -359c0 -80 50 -114 127 -114c79 0 144 54 164 147c32 150 71 311 71 359c0 80 -50 114 -127 114c-79 0 -144 -54 -164 -147zM449 187c-32 -144 -117 -197 -226 -197c-75 0 -170 43 -170 155c0 56 38 214 70 368c32 144 117 197 226 197
c75 0 170 -43 170 -155c0 -56 -38 -214 -70 -368z" />
    <glyph glyph-name="one" unicode="1" horiz-adv-x="329" 
d="M106 513l15 72l159 115h53l-149 -700h-53l133 627z" />
    <glyph glyph-name="two" unicode="2" horiz-adv-x="507" 
d="M155 495h-53c16 117 83 215 230 215c75 0 170 -43 170 -155c0 -91 -51 -164 -120 -228l-302 -277h322l-11 -50h-395l11 51l337 310c51 48 106 111 106 185c0 80 -50 114 -127 114c-91 0 -157 -73 -168 -165z" />
    <glyph glyph-name="three" unicode="3" horiz-adv-x="509" 
d="M158 500h-53c27 152 115 210 229 210c75 0 170 -43 170 -155c0 -104 -57 -177 -134 -208c47 -31 65 -81 65 -125c0 -147 -98 -232 -233 -232c-77 0 -166 47 -166 155c0 11 1 30 5 55h52c-3 -20 -5 -35 -5 -46c0 -80 51 -114 123 -114c91 0 172 67 172 175
c0 59 -36 114 -111 114h-49l11 50h51c97 0 167 76 167 167c0 80 -50 114 -127 114c-95 0 -151 -72 -167 -160z" />
    <glyph glyph-name="four" unicode="4" horiz-adv-x="508" 
d="M443 700h53l-97 -452h73l-9 -48h-73l-43 -200h-53l43 200h-328l9 48zM87 248h259l77 358z" />
    <glyph glyph-name="five" unicode="5" horiz-adv-x="514" 
d="M216 650l-57 -268c23 27 76 55 136 55c75 0 170 -43 170 -155c0 -20 -7 -67 -13 -95c-32 -144 -117 -197 -226 -197c-75 0 -170 43 -170 155c0 13 2 32 6 55h51c-3 -20 -5 -35 -5 -46c0 -80 50 -114 127 -114c79 0 144 54 164 147c7 27 14 65 14 86
c0 80 -50 114 -127 114c-55 0 -102 -25 -133 -72h-61l82 385h360l-11 -50h-307z" />
    <glyph glyph-name="six" unicode="6" horiz-adv-x="522" 
d="M176 513l-32 -146c28 35 82 63 146 63c75 0 170 -43 170 -155c0 -29 -6 -67 -11 -88c-33 -144 -113 -197 -226 -197c-75 0 -170 43 -170 155c0 56 38 214 70 368c32 144 117 197 226 197c75 0 170 -43 170 -155c0 -14 -2 -32 -6 -55h-51c3 20 5 35 5 46
c0 80 -50 114 -127 114c-79 0 -144 -54 -164 -147zM117 233c-7 -36 -12 -63 -12 -79c0 -80 50 -114 127 -114c80 0 144 55 164 147c3 15 12 55 12 79c0 80 -50 114 -127 114s-145 -54 -164 -147z" />
    <glyph glyph-name="seven" unicode="7" horiz-adv-x="442" 
d="M117 700h390l-11 -50l-375 -650h-60l375 650h-330z" />
    <glyph glyph-name="eight" unicode="8" horiz-adv-x="498" 
d="M498 552c0 -92 -44 -172 -131 -207c37 -25 64 -64 64 -120c0 -119 -67 -235 -224 -235c-78 0 -174 50 -174 155c0 90 40 184 132 218c-33 27 -57 65 -57 124c0 119 77 223 224 223c77 0 166 -47 166 -158zM379 212c0 68 -44 117 -127 117c-93 0 -167 -71 -167 -171
c0 -68 44 -118 127 -118c93 0 167 71 167 172zM160 500c0 -92 58 -121 119 -121c87 0 167 64 167 160c0 92 -58 121 -119 121c-87 0 -167 -64 -167 -160z" />
    <glyph glyph-name="nine" unicode="9" horiz-adv-x="522" 
d="M385 187l32 146c-28 -35 -82 -63 -146 -63c-75 0 -170 43 -170 155c0 29 6 67 11 88c33 144 113 197 226 197c75 0 170 -43 170 -155c0 -56 -38 -214 -70 -368c-32 -144 -117 -197 -226 -197c-75 0 -170 43 -170 155c0 13 2 32 6 55h51c-3 -20 -5 -35 -5 -46
c0 -80 50 -114 127 -114c79 0 144 54 164 147zM444 467c7 36 12 63 12 79c0 80 -50 114 -127 114c-80 0 -144 -55 -164 -147c-3 -15 -12 -55 -12 -79c0 -80 50 -114 127 -114s145 54 164 147z" />
    <glyph glyph-name="colon" unicode=":" horiz-adv-x="264" 
d="M129 432l17 84h84l-17 -84h-84zM36 0l17 84h84l-17 -84h-84z" />
    <glyph glyph-name="semicolon" unicode=";" horiz-adv-x="264" 
d="M36 0l17 84h84l-17 -84l-49 -84h-49l49 84h-35zM129 432l17 84h84l-17 -84h-84z" />
    <glyph glyph-name="less" unicode="&#x3c;" 
d="M129 259l353 -213v-51l-396 239v50l396 239v-51z" />
    <glyph glyph-name="equal" unicode="=" 
d="M86 395h396v-45h-396v45zM482 155h-396v45h396v-45z" />
    <glyph glyph-name="greater" unicode="&#x3e;" 
d="M86 46l353 213l-353 213v51l396 -239v-50l-396 -239v51z" />
    <glyph glyph-name="question" unicode="?" horiz-adv-x="505" 
d="M156 500h-53c27 152 116 210 229 210c75 0 170 -43 170 -155c0 -80 -48 -150 -113 -201l-71 -55c-36 -28 -46 -42 -51 -67l-4 -22h-53l4 22c8 37 26 72 75 109l72 55c48 36 89 85 89 150c0 80 -50 114 -127 114c-95 0 -154 -75 -167 -160zM147 0l18 84h84l-18 -84h-84z
" />
    <glyph glyph-name="at" unicode="@" horiz-adv-x="862" 
d="M576 319v9c0 93 -61 151 -145 151c-75 0 -130 -44 -142 -119h-54c13 125 110 170 196 170c92 0 198 -53 198 -202v-232c0 -31 15 -63 58 -63c41 0 57 32 57 63v295c0 120 -90 277 -313 277s-313 -157 -313 -277v-266c0 -120 90 -277 313 -277c87 0 152 24 201 59l25 -36
c-56 -39 -130 -65 -226 -65c-256 0 -356 182 -356 319v266c0 137 100 319 356 319s356 -182 356 -319v-287c0 -79 -38 -114 -102 -114s-98 37 -109 73c-33 -48 -93 -73 -172 -73c-112 0 -172 69 -172 152c0 68 32 124 112 148c60 19 144 24 232 29zM576 192v80
c-116 -7 -187 -13 -226 -32c-49 -23 -65 -53 -65 -94c0 -56 35 -105 131 -105c92 0 160 60 160 151z" />
    <glyph glyph-name="A" unicode="A" horiz-adv-x="564" 
d="M438 0l-28 218h-266l-120 -218h-59l386 700h50l89 -700h-52zM171 267h233l-44 343z" />
    <glyph glyph-name="B" unicode="B" horiz-adv-x="579" 
d="M351 329h-196l-58 -276h197c87 0 168 71 168 164c0 64 -43 112 -111 112zM389 648h-166l-57 -268h178c97 0 170 65 170 158c0 68 -45 110 -125 110zM447 352c43 -23 70 -73 70 -128c0 -124 -96 -224 -232 -224h-255l149 700h222c104 0 168 -68 168 -156
c0 -96 -50 -160 -122 -192z" />
    <glyph glyph-name="C" unicode="C" horiz-adv-x="559" 
d="M555 500h-54c1 11 1 14 1 21c0 91 -66 137 -143 137c-89 0 -165 -51 -192 -176c-56 -263 -60 -268 -60 -303c0 -91 66 -137 143 -137c85 0 159 45 188 158h55c-32 -131 -110 -210 -250 -210c-103 0 -191 69 -191 182c0 37 4 46 60 310c29 141 106 228 254 228
c103 0 191 -69 191 -182c0 -12 -1 -21 -2 -28z" />
    <glyph glyph-name="D" unicode="D" horiz-adv-x="590" 
d="M96 52h177c89 0 165 51 192 176c56 264 56 248 56 283c0 91 -66 137 -143 137h-155zM266 0h-236l149 700h206c103 0 191 -69 191 -182c0 -38 -11 -81 -56 -290c-32 -142 -105 -228 -254 -228z" />
    <glyph glyph-name="E" unicode="E" horiz-adv-x="541" 
d="M154 329l-59 -277h332l-11 -52h-387l149 700h387l-11 -52h-332l-57 -268h332l-11 -51h-332z" />
    <glyph glyph-name="F" unicode="F" horiz-adv-x="531" 
d="M155 329l-70 -329h-55l149 700h387l-11 -52h-332l-57 -268h332l-11 -51h-332z" />
    <glyph glyph-name="G" unicode="G" horiz-adv-x="566" 
d="M555 500h-54c1 9 1 14 1 21c0 91 -66 137 -143 137c-89 0 -165 -51 -192 -176c-56 -263 -60 -268 -60 -303c0 -91 66 -137 143 -137c89 0 165 51 192 176c7 35 12 64 19 91h-165l11 51h220l-30 -142c-31 -143 -106 -228 -254 -228c-103 0 -191 69 -191 182
c0 37 4 46 60 310c29 141 106 228 254 228c103 0 191 -69 191 -182c0 -12 -1 -21 -2 -28z" />
    <glyph glyph-name="H" unicode="H" horiz-adv-x="612" 
d="M498 380l68 320h55l-149 -700h-55l70 329h-332l-70 -329h-55l149 700h55l-68 -320h332z" />
    <glyph glyph-name="I" unicode="I" horiz-adv-x="225" 
d="M234 700l-149 -700h-55l149 700h55z" />
    <glyph glyph-name="J" unicode="J" horiz-adv-x="467" 
d="M319 177l111 523h55l-111 -523c-24 -116 -75 -187 -206 -187c-93 0 -168 71 -168 156c0 12 1 29 8 54h54c-7 -23 -7 -36 -7 -44c0 -63 46 -114 126 -114c84 0 122 60 138 135z" />
    <glyph glyph-name="K" unicode="K" horiz-adv-x="597" 
d="M129 206l-44 -206h-55l149 700h55l-86 -406l432 406h74l-308 -289l185 -411h-58l-168 372z" />
    <glyph glyph-name="L" unicode="L" horiz-adv-x="493" 
d="M234 700l-137 -648h332l-12 -52h-387l149 700h55z" />
    <glyph glyph-name="M" unicode="M" horiz-adv-x="706" 
d="M369 188h-62l-97 408l-127 -596h-53l149 700h58l109 -456l311 456h58l-149 -700h-53l123 579z" />
    <glyph glyph-name="N" unicode="N" horiz-adv-x="612" 
d="M621 700l-149 -700h-55l-204 605l-128 -605h-55l149 700h55l204 -605l128 605h55z" />
    <glyph glyph-name="O" unicode="O" horiz-adv-x="569" 
d="M497 218c-31 -143 -106 -228 -254 -228c-103 0 -191 69 -191 182c0 37 4 46 60 310c29 141 106 228 254 228c103 0 191 -69 191 -182c0 -37 -4 -46 -60 -310zM167 482c-56 -263 -60 -268 -60 -303c0 -91 66 -137 143 -137c89 0 165 51 192 176c56 263 60 268 60 303
c0 91 -66 137 -143 137c-89 0 -165 -51 -192 -176z" />
    <glyph glyph-name="P" unicode="P" horiz-adv-x="548" 
d="M332 294h-185l-62 -294h-55l149 700h206c127 0 187 -88 187 -181c0 -100 -72 -225 -240 -225zM159 346h180c109 0 178 85 178 168c0 62 -31 134 -144 134h-150z" />
    <glyph glyph-name="Q" unicode="Q" horiz-adv-x="569" 
d="M497 218c-15 -68 -39 -122 -76 -161l55 -69l-40 -33l-55 70c-37 -23 -83 -35 -138 -35c-103 0 -191 69 -191 182c0 37 4 46 60 310c29 141 106 228 254 228c103 0 191 -69 191 -182c0 -37 -4 -46 -60 -310zM167 482c-56 -263 -60 -268 -60 -303c0 -91 66 -137 143 -137
c35 0 68 6 97 25l-60 77l39 33l61 -78c27 29 45 69 55 119c56 263 60 268 60 303c0 91 -66 137 -143 137c-89 0 -165 -51 -192 -176z" />
    <glyph glyph-name="R" unicode="R" horiz-adv-x="572" 
d="M302 329h-147l-70 -329h-55l149 700h226c104 0 168 -68 168 -156c0 -132 -97 -207 -214 -215l124 -329h-58zM166 380h183c96 3 169 66 169 158c0 68 -45 110 -125 110h-170z" />
    <glyph glyph-name="S" unicode="S" horiz-adv-x="515" 
d="M501 523h-55v4c0 85 -66 131 -133 131c-97 0 -156 -55 -156 -138c0 -56 20 -103 81 -126l104 -39c72 -27 111 -89 111 -161c0 -109 -67 -204 -219 -204c-104 0 -208 61 -208 190c0 7 0 13 1 20h55c-1 -7 -1 -10 -1 -17c0 -107 85 -141 162 -141c84 0 155 50 155 146
c0 47 -23 96 -78 116l-104 39c-83 32 -114 99 -114 168c0 130 87 199 214 199c103 0 186 -76 186 -176c0 -5 0 -3 -1 -11z" />
    <glyph glyph-name="T" unicode="T" horiz-adv-x="481" 
d="M351 648l-138 -648h-55l138 648h-194l11 52h443l-11 -52h-194z" />
    <glyph glyph-name="U" unicode="U" horiz-adv-x="594" 
d="M119 179c0 -91 66 -137 143 -137c88 0 165 51 192 176l103 482h55l-103 -482c-31 -143 -106 -228 -254 -228c-103 0 -192 69 -192 182c0 38 4 44 108 528h55c-104 -481 -107 -486 -107 -521z" />
    <glyph glyph-name="V" unicode="V" horiz-adv-x="564" 
d="M243 92l336 608h60l-387 -700h-50l-89 700h53z" />
    <glyph glyph-name="W" unicode="W" horiz-adv-x="715" 
d="M447 0l-36 509l-252 -509h-53l20 700h53l-17 -579l237 479h57l33 -485l232 585h57l-278 -700h-53z" />
    <glyph glyph-name="X" unicode="X" horiz-adv-x="564" 
d="M421 0l-126 313l-260 -313h-67l300 362l-137 338h57l119 -294l244 294h68l-286 -344l145 -356h-57z" />
    <glyph glyph-name="Y" unicode="Y" horiz-adv-x="543" 
d="M629 700l-323 -409l-62 -291h-55l62 291l-149 409h56l129 -350l275 350h67z" />
    <glyph glyph-name="Z" unicode="Z" horiz-adv-x="537" 
d="M437 0h-446l11 52l500 596h-369l11 52h437l-11 -52l-500 -596h378z" />
    <glyph glyph-name="bracketleft" unicode="[" horiz-adv-x="262" 
d="M26 -92l169 792h117l-9 -41h-74l-151 -710h74l-9 -41h-117z" />
    <glyph glyph-name="backslash" unicode="\" horiz-adv-x="371" 
d="M39 700h49l283 -700h-49z" />
    <glyph glyph-name="bracketright" unicode="]" horiz-adv-x="262" 
d="M255 700l-169 -792h-116l9 41h73l151 710h-74l9 41h117z" />
    <glyph glyph-name="asciicircum" unicode="^" horiz-adv-x="606" 
d="M510 300l-182 348l-182 -348h-51l209 400h48l209 -400h-51z" />
    <glyph glyph-name="underscore" unicode="_" horiz-adv-x="406" 
d="M321 -114h-396l9 45h396z" />
    <glyph glyph-name="grave" unicode="`" horiz-adv-x="298" 
d="M154 700h79l58 -129h-46z" />
    <glyph glyph-name="a" unicode="a" horiz-adv-x="527" 
d="M134 360h-53c35 121 117 170 224 170c76 0 168 -44 168 -156c0 -30 -2 -33 -34 -187l-40 -187h-53l15 66c-32 -45 -87 -76 -167 -76c-99 0 -163 63 -163 139c0 88 44 138 125 161c68 19 167 24 258 29c7 27 7 36 7 49c0 69 -42 112 -125 112c-72 0 -135 -44 -162 -120z
M387 192l17 79c-117 -5 -201 -15 -244 -30c-53 -19 -76 -61 -76 -108c0 -49 36 -93 121 -93c92 0 163 61 182 152z" />
    <glyph glyph-name="b" unicode="b" horiz-adv-x="543" 
d="M318 480c-80 0 -149 -54 -169 -147c-32 -150 -35 -157 -35 -181c0 -69 42 -112 125 -112c80 0 149 54 169 147c32 150 35 157 35 181c0 69 -42 112 -125 112zM227 700l-52 -243c27 40 79 73 152 73c76 0 168 -44 168 -156c0 -30 -2 -33 -34 -187
c-31 -140 -116 -197 -231 -197c-77 0 -124 47 -137 83l-15 -73h-53l149 700h53z" />
    <glyph glyph-name="c" unicode="c" horiz-adv-x="516" 
d="M481 374v-14h-52v8c0 69 -42 112 -125 112c-80 0 -149 -54 -169 -147c-32 -150 -35 -157 -35 -181c0 -69 42 -112 125 -112c72 0 135 44 162 120h53c-35 -121 -117 -170 -224 -170c-76 0 -168 44 -168 156c0 30 2 33 34 187c29 140 116 197 231 197
c76 0 168 -44 168 -156z" />
    <glyph glyph-name="d" unicode="d" horiz-adv-x="542" 
d="M225 40c80 0 149 54 169 147c32 150 35 157 35 181c0 69 -42 112 -125 112c-80 0 -149 -54 -169 -147c-32 -150 -35 -157 -35 -181c0 -69 42 -112 125 -112zM354 0l14 63c-27 -40 -79 -73 -152 -73c-76 0 -168 44 -168 156c0 30 2 33 34 187c29 140 116 197 231 197
c77 0 123 -47 137 -83l53 253h53l-149 -700h-53z" />
    <glyph glyph-name="e" unicode="e" horiz-adv-x="523" 
d="M461 253h-343c-16 -72 -18 -82 -18 -101c0 -69 42 -112 125 -112c72 0 134 44 161 120h54c-35 -121 -117 -170 -224 -170c-76 0 -168 44 -168 156c0 30 2 33 34 187c29 140 116 197 231 197c76 0 168 -44 168 -156c0 -24 -1 -31 -20 -121zM129 303h290c8 41 10 49 10 65
c0 69 -42 112 -125 112c-93 0 -162 -68 -175 -177z" />
    <glyph glyph-name="f" unicode="f" horiz-adv-x="305" 
d="M77 466l11 50h73l17 81c13 66 28 103 129 103h73l-11 -50h-73c-43 0 -57 -16 -65 -53l-17 -81h127l-11 -50h-127l-99 -466h-53l99 466h-73z" />
    <glyph glyph-name="g" unicode="g" horiz-adv-x="541" 
d="M60 -24v-8c0 -69 42 -112 125 -112c80 0 149 54 169 147l16 74c-27 -40 -79 -73 -152 -73c-76 0 -168 44 -168 156c0 27 7 55 31 173c29 140 116 197 231 197c77 0 123 -47 137 -83l14 69h53l-109 -513c-31 -140 -116 -197 -231 -197c-76 0 -168 44 -168 156v14h52z
M227 54c80 0 146 54 169 147c27 113 32 153 32 167c0 69 -42 112 -125 112c-80 0 -149 -54 -169 -147c-21 -101 -32 -143 -32 -167c0 -69 42 -112 125 -112z" />
    <glyph glyph-name="h" unicode="h" horiz-adv-x="549" 
d="M327 530c76 0 168 -44 168 -156c0 -30 -2 -33 -34 -187l-40 -187h-53l40 187c32 150 35 157 35 181c0 69 -42 112 -125 112c-80 0 -149 -54 -169 -147l-71 -333h-53l149 700h53l-52 -243c27 40 79 73 152 73z" />
    <glyph glyph-name="i" unicode="i" horiz-adv-x="213" 
d="M135 516h53l-110 -516h-53zM227 700l-19 -87h-53l19 87h53z" />
    <glyph glyph-name="j" unicode="j" horiz-adv-x="213" 
d="M227 700l-19 -87h-53l19 87h53zM188 516l-127 -597c-13 -66 -28 -103 -129 -103h-9l11 50h9c43 0 57 16 65 53l127 597h53z" />
    <glyph glyph-name="k" unicode="k" horiz-adv-x="489" 
d="M227 700l-95 -448l299 264h73l-231 -204l146 -312h-56l-130 277l-118 -104l-37 -173h-53l149 700h53z" />
    <glyph glyph-name="l" unicode="l" horiz-adv-x="242" 
d="M173 700h53c-120 -560 -130 -605 -130 -622c0 -20 15 -28 36 -28h20l-11 -50h-6c-63 0 -91 29 -91 76c0 29 21 116 129 624z" />
    <glyph glyph-name="m" unicode="m" horiz-adv-x="852" 
d="M315 530c52 0 118 -26 147 -90c37 56 104 90 176 90c67 0 160 -44 160 -156c0 -30 -2 -33 -34 -187l-40 -187h-53l40 187c32 150 35 157 35 181c0 69 -45 112 -117 112c-64 0 -138 -54 -157 -147l-71 -333h-53l40 187c32 150 35 157 35 181c0 69 -45 112 -117 112
c-64 0 -138 -54 -157 -147l-71 -333h-53l110 516h53l-13 -59c21 35 72 73 140 73z" />
    <glyph glyph-name="n" unicode="n" horiz-adv-x="549" 
d="M327 530c76 0 168 -44 168 -156c0 -30 -2 -33 -34 -187l-40 -187h-53l40 187c32 150 35 157 35 181c0 69 -42 112 -125 112c-80 0 -149 -54 -169 -147l-71 -333h-53l110 516h53l-13 -59c27 40 79 73 152 73z" />
    <glyph glyph-name="o" unicode="o" horiz-adv-x="529" 
d="M135 333c-32 -150 -35 -157 -35 -181c0 -69 42 -112 125 -112c80 0 149 54 169 147c32 150 35 157 35 181c0 69 -42 112 -125 112c-80 0 -149 -54 -169 -147zM447 187c-31 -140 -116 -197 -231 -197c-76 0 -168 44 -168 156c0 30 2 33 34 187c29 140 116 197 231 197
c76 0 168 -44 168 -156c0 -30 -2 -33 -34 -187z" />
    <glyph glyph-name="p" unicode="p" horiz-adv-x="543" 
d="M318 480c-80 0 -149 -54 -169 -147c-32 -150 -35 -157 -35 -181c0 -69 42 -112 125 -112c80 0 149 54 169 147c32 150 35 157 35 181c0 69 -42 112 -125 112zM188 516l-13 -59c27 40 79 73 152 73c76 0 168 -44 168 -156c0 -30 -2 -33 -34 -187
c-31 -140 -116 -197 -231 -197c-77 0 -124 47 -137 83l-54 -257h-53l149 700h53z" />
    <glyph glyph-name="q" unicode="q" horiz-adv-x="542" 
d="M225 40c80 0 149 54 169 147c32 150 35 157 35 181c0 69 -42 112 -125 112c-80 0 -149 -54 -169 -147c-32 -150 -35 -157 -35 -181c0 -69 42 -112 125 -112zM315 -184l53 247c-27 -40 -79 -73 -152 -73c-76 0 -168 44 -168 156c0 30 2 33 34 187c29 140 116 197 231 197
c77 0 123 -47 137 -83l14 69h53l-149 -700h-53z" />
    <glyph glyph-name="r" unicode="r" horiz-adv-x="315" 
d="M339 475h-22c-80 0 -149 -54 -169 -147l-70 -328h-53l110 516h53l-14 -64c27 40 79 73 152 73h24z" />
    <glyph glyph-name="s" unicode="s" horiz-adv-x="484" 
d="M444 368h-52v8c0 72 -65 104 -130 104c-64 0 -129 -33 -129 -93c0 -48 24 -69 80 -86l93 -28c64 -19 106 -62 106 -125c0 -108 -79 -158 -199 -158c-96 0 -189 50 -189 158v13h52v-11c0 -76 66 -110 146 -110c68 0 138 32 138 101c0 47 -32 72 -75 84l-100 30
c-61 15 -104 63 -104 126c0 99 90 149 180 149c89 0 183 -48 183 -149v-13z" />
    <glyph glyph-name="t" unicode="t" horiz-adv-x="329" 
d="M149 466h-73l11 50h73l25 117h53l-25 -117h127l-11 -50h-127c-72 -341 -80 -374 -80 -388c0 -20 15 -28 36 -28h83l-11 -50h-69c-63 0 -91 29 -91 76c0 24 15 88 79 390z" />
    <glyph glyph-name="u" unicode="u" horiz-adv-x="542" 
d="M223 -10c-76 0 -168 47 -168 156c0 26 4 46 33 183l40 187h53l-40 -187c-29 -128 -34 -154 -34 -177c0 -68 42 -112 122 -112c76 0 144 54 165 147l70 329h53l-110 -516h-53l14 63c-21 -35 -78 -73 -145 -73z" />
    <glyph glyph-name="v" unicode="v" horiz-adv-x="452" 
d="M184 72l252 444h60l-295 -516h-58l-77 516h52z" />
    <glyph glyph-name="w" unicode="w" horiz-adv-x="676" 
d="M357 516h69l24 -441l206 441h57l-245 -516h-63l-25 447l-217 -447h-63l-27 516h52l20 -440z" />
    <glyph glyph-name="x" unicode="x" horiz-adv-x="460" 
d="M235 302l186 214h65l-225 -257l117 -259h-57l-99 221l-191 -221h-65l231 264l-115 252h57z" />
    <glyph glyph-name="y" unicode="y" horiz-adv-x="452" 
d="M143 -1l-77 517h52l66 -444l252 444h60l-342 -597c-31 -58 -58 -103 -132 -103h-26l11 50h27c35 0 48 26 67 59z" />
    <glyph glyph-name="z" unicode="z" horiz-adv-x="477" 
d="M470 466l-400 -416h320l-11 -50h-389l11 50l400 416h-307l11 50h376z" />
    <glyph glyph-name="braceleft" unicode="{" horiz-adv-x="294" 
d="M128 247c0 24 -13 36 -54 36h-10l9 42h10c53 0 68 20 77 61l45 211c19 85 44 103 129 103h10l-9 -41h-10c-53 0 -66 -14 -77 -62l-45 -211c-11 -45 -23 -73 -51 -88c11 -11 19 -27 19 -50c0 -31 -51 -231 -51 -264c0 -25 10 -35 54 -35h10l-9 -41h-10
c-64 0 -88 31 -88 78c0 29 51 233 51 261z" />
    <glyph glyph-name="bar" unicode="|" horiz-adv-x="213" 
d="M85 -100v800h43v-800h-43z" />
    <glyph glyph-name="braceright" unicode="}" horiz-adv-x="294" 
d="M186 361c0 -24 13 -36 54 -36h10l-9 -42h-10c-53 0 -68 -20 -77 -61l-45 -211c-19 -85 -44 -103 -129 -103h-10l9 41h10c53 0 66 14 77 62l45 211c11 45 23 73 51 88c-11 11 -19 27 -19 50c0 31 51 231 51 264c0 25 -10 35 -54 35h-10l9 41h10c64 0 88 -31 88 -78
c0 -29 -51 -233 -51 -261z" />
    <glyph glyph-name="asciitilde" unicode="~" horiz-adv-x="527" 
d="M101 235l-30 33c31 35 79 58 118 58c61 0 115 -46 160 -46c19 0 52 11 88 46l30 -33c-31 -35 -79 -58 -118 -58c-61 0 -115 46 -160 46c-19 0 -52 -11 -88 -46z" />
    <glyph glyph-name="uni00A0" unicode="&#xa0;" horiz-adv-x="230" 
 />
    <glyph glyph-name="exclamdown" unicode="&#xa1;" horiz-adv-x="234" 
d="M50 -184h-53l104 490h53zM214 516l-18 -84h-84l18 84h84z" />
    <glyph glyph-name="cent" unicode="&#xa2;" horiz-adv-x="526" 
d="M486 374v-14h-52v8c0 60 -33 101 -97 110l-93 -438c67 7 123 48 148 120h53c-35 -117 -111 -165 -211 -169l-19 -91h-43l19 92c-68 11 -138 56 -138 154c0 30 2 33 34 187c29 136 110 193 218 197l20 90h43l-20 -92c68 -11 138 -57 138 -154zM105 152
c0 -61 33 -101 97 -110l93 437c-75 -7 -136 -58 -155 -146c-32 -150 -35 -157 -35 -181z" />
    <glyph glyph-name="sterling" unicode="&#xa3;" horiz-adv-x="590" 
d="M581 508h-52c3 12 4 29 4 38c0 80 -50 114 -127 114c-79 0 -144 -54 -164 -147l-31 -141h290l-9 -42h-290l-48 -227c-4 -20 -10 -42 -25 -53h357l-11 -50h-459l10 50h16c27 0 51 18 59 53l48 227h-64l9 42h64l31 141c32 144 117 197 226 197c75 0 170 -43 170 -155
c0 -13 -1 -28 -4 -47z" />
    <glyph glyph-name="currency" unicode="&#xa4;" horiz-adv-x="720" 
d="M106 340c0 68 24 128 64 175l-84 85l31 30l84 -85c47 41 107 65 175 65s128 -24 175 -65l84 85l31 -30l-85 -85c41 -47 65 -107 65 -175s-24 -128 -65 -175l85 -85l-31 -30l-84 84c-47 -40 -107 -64 -175 -64s-128 24 -175 64l-84 -84l-31 30l84 85
c-40 47 -64 107 -64 175zM157 340c0 -121 98 -219 219 -219s219 98 219 219s-98 219 -219 219s-219 -98 -219 -219z" />
    <glyph glyph-name="yen" unicode="&#xa5;" horiz-adv-x="586" 
d="M111 334h146l-134 366h54l129 -352l280 352h65l-291 -366h146l-9 -43h-171l-22 -102h171l-9 -43h-171l-31 -146h-53l31 146h-171l9 43h171l22 102h-171z" />
    <glyph glyph-name="brokenbar" unicode="&#xa6;" horiz-adv-x="213" 
d="M85 -100v339h43v-339h-43zM85 361v339h43v-339h-43z" />
    <glyph glyph-name="section" unicode="&#xa7;" horiz-adv-x="554" 
d="M283 80l-109 40c-43 16 -108 54 -108 134c0 96 57 145 141 165c-28 27 -48 68 -48 116c0 107 79 175 192 175c100 0 169 -63 169 -148c0 -4 0 -5 -1 -14h-45v8c0 67 -55 112 -127 112c-76 0 -142 -47 -142 -127c0 -47 26 -90 65 -105l109 -40c43 -16 108 -54 108 -134
c0 -96 -58 -145 -142 -166c28 -27 49 -67 49 -115c0 -107 -79 -175 -192 -175c-100 0 -169 63 -169 148c0 4 -1 13 2 24h45l-1 -18c0 -67 55 -112 127 -112c76 0 142 47 142 127c0 47 -26 90 -65 105zM360 353l-85 31c-81 0 -163 -44 -163 -120c0 -51 34 -85 81 -101l84 -31
c80 0 164 44 164 120c0 51 -34 85 -81 101z" />
    <glyph glyph-name="dieresis" unicode="&#xa8;" horiz-adv-x="410" 
d="M214 679l-19 -87h-53l19 87h53zM427 679l-19 -87h-53l19 87h53z" />
    <glyph glyph-name="copyright" unicode="&#xa9;" horiz-adv-x="820" 
d="M69 350c0 200 160 360 360 360s360 -160 360 -360s-160 -360 -360 -360s-360 160 -360 360zM112 350c0 -175 141 -318 317 -318s317 143 317 318s-141 318 -317 318s-317 -143 -317 -318zM429 125c-83 0 -140 56 -140 148v153c0 92 57 148 140 148c79 0 132 -50 139 -134
h-43c-5 61 -45 92 -96 92c-55 0 -97 -35 -97 -106v-153c0 -72 42 -106 97 -106c51 0 91 31 96 92h43c-7 -84 -60 -134 -139 -134z" />
    <glyph glyph-name="ordfeminine" unicode="&#xaa;" horiz-adv-x="312" 
d="M185 436c47 0 84 25 95 76l8 36c-67 -4 -97 -7 -129 -20c-23 -9 -36 -22 -36 -49c0 -24 19 -43 62 -43zM176 395c-63 0 -96 40 -96 80c0 52 20 78 77 95c36 11 88 14 139 17c3 12 4 22 4 30c0 35 -31 51 -62 51c-42 0 -70 -20 -85 -59h-43c20 72 65 99 133 99
c52 0 100 -30 100 -85c0 -21 -12 -70 -20 -111l-12 -56c-7 -28 -12 -56 -12 -55h-43l7 32c-16 -23 -48 -38 -87 -38z" />
    <glyph glyph-name="guillemotleft" unicode="&#xab;" horiz-adv-x="461" 
d="M188 103l-131 143l11 54l193 143l-14 -65l-148 -110l101 -110zM355 103l-131 143l11 54l193 143l-14 -65l-148 -110l101 -110z" />
    <glyph glyph-name="logicalnot" unicode="&#xac;" 
d="M86 258v45h396v-221h-45v176h-351z" />
    <glyph glyph-name="uni00AD" unicode="&#xad;" horiz-adv-x="410" 
d="M351 258h-290l9 45h290z" />
    <glyph glyph-name="registered" unicode="&#xae;" horiz-adv-x="820" 
d="M69 350c0 200 160 360 360 360s360 -160 360 -360s-160 -360 -360 -360s-360 160 -360 360zM112 350c0 -175 141 -318 317 -318s317 143 317 318s-141 318 -317 318s-317 -143 -317 -318zM595 131h-50l-118 200h-76v-200h-43v437h149c84 0 123 -58 123 -119
c0 -56 -32 -109 -104 -117zM351 525v-152h106c48 0 80 29 80 76s-32 76 -80 76h-106z" />
    <glyph glyph-name="overscore" unicode="&#xaf;" horiz-adv-x="427" 
d="M433 613h-289l9 45h289z" />
    <glyph glyph-name="degree" unicode="&#xb0;" horiz-adv-x="425" 
d="M115 549c0 85 71 156 156 156s156 -71 156 -156s-71 -156 -156 -156s-156 71 -156 156zM160 549c0 -61 49 -112 111 -112s111 51 111 112s-49 112 -111 112s-111 -51 -111 -112z" />
    <glyph glyph-name="plusminus" unicode="&#xb1;" 
d="M262 317h-176v45h176v154h45v-154h175v-45h-175v-154h-45v154zM482 0h-396v45h396v-45z" />
    <glyph glyph-name="twosuperior" unicode="&#xb2;" horiz-adv-x="299" 
d="M61 401l9 41l178 160c29 27 67 65 67 110c0 36 -22 60 -65 60s-79 -31 -86 -87h-43c17 88 59 128 135 128c69 0 101 -50 101 -95c0 -69 -38 -109 -81 -146l-144 -130h171l-8 -41h-234z" />
    <glyph glyph-name="threesuperior" unicode="&#xb3;" horiz-adv-x="300" 
d="M186 395c-69 0 -100 50 -100 95c0 5 0 19 3 27h41c-2 -9 -3 -16 -3 -21c0 -36 24 -60 65 -60c50 0 86 45 86 90c0 32 -21 59 -60 59h-29l9 41h29c51 0 90 43 90 86c0 36 -23 60 -66 60s-78 -31 -86 -87h-43c17 89 59 128 136 128c69 0 100 -50 100 -95
c0 -60 -33 -99 -74 -118c24 -15 36 -39 36 -70c0 -75 -45 -135 -134 -135z" />
    <glyph glyph-name="acute" unicode="&#xb4;" horiz-adv-x="298" 
d="M236 700h84l-118 -129h-51z" />
    <glyph glyph-name="mu" unicode="&#xb5;" horiz-adv-x="549" 
d="M230 -10c-61 0 -115 30 -135 81l-55 -255h-53l148 700h53l-40 -187c-29 -128 -34 -154 -34 -177c0 -68 42 -112 122 -112c76 0 144 54 165 147l70 329h53l-110 -516h-53l14 63c-21 -35 -78 -73 -145 -73z" />
    <glyph glyph-name="mu" unicode="&#x3bc;" horiz-adv-x="549" 
d="M230 -10c-61 0 -115 30 -135 81l-55 -255h-53l148 700h53l-40 -187c-29 -128 -34 -154 -34 -177c0 -68 42 -112 122 -112c76 0 144 54 165 147l70 329h53l-110 -516h-53l14 63c-21 -35 -78 -73 -145 -73z" />
    <glyph glyph-name="paragraph" unicode="&#xb6;" horiz-adv-x="533" 
d="M256 300h-10c-95 0 -161 83 -161 176c0 131 100 224 246 224h206l-167 -787h-43l158 745h-110l-158 -745h-43z" />
    <glyph glyph-name="middot" unicode="&#xb7;" horiz-adv-x="274" 
d="M94 248l17 84h84l-17 -84h-84z" />
    <glyph glyph-name="cedilla" unicode="&#xb8;" horiz-adv-x="249" 
d="M-25 -158l58 158h49l-38 -158h-69z" />
    <glyph glyph-name="onesuperior" unicode="&#xb9;" horiz-adv-x="204" 
d="M138 401l75 347l-93 -67l12 59l93 67h43l-87 -406h-43z" />
    <glyph glyph-name="ordmasculine" unicode="&#xba;" horiz-adv-x="312" 
d="M194 436c47 0 78 25 89 76c8 35 20 87 20 105c0 35 -30 51 -62 51c-45 0 -78 -25 -89 -76c-8 -35 -20 -87 -20 -105c0 -36 31 -51 62 -51zM189 395c-53 0 -100 30 -100 86c0 20 12 70 20 110c19 87 65 117 138 117c51 0 100 -30 100 -85c0 -21 -12 -70 -21 -111
c-19 -85 -64 -117 -137 -117z" />
    <glyph glyph-name="guillemotright" unicode="&#xbb;" horiz-adv-x="461" 
d="M106 443l131 -143l-11 -54l-193 -143l14 65l148 110l-101 110zM273 443l131 -143l-11 -54l-193 -143l14 65l148 110l-101 110z" />
    <glyph glyph-name="onequarter" unicode="&#xbc;" horiz-adv-x="680" 
d="M156 294l75 347l-93 -67l12 59l93 67h43l-87 -406h-43zM564 700h48l-481 -700h-48zM500 0l23 110h-185l8 39l241 257h43l-55 -257h42l-8 -39h-43l-23 -110h-43zM400 149h132l39 183z" />
    <glyph glyph-name="onehalf" unicode="&#xbd;" horiz-adv-x="717" 
d="M156 294l75 347l-93 -67l12 59l93 67h43l-87 -406h-43zM564 700h48l-481 -700h-48zM368 0l9 41l178 160c29 27 67 65 67 110c0 36 -22 60 -65 60s-79 -31 -86 -87h-43c17 88 59 128 135 128c69 0 101 -50 101 -95c0 -69 -38 -109 -81 -146l-144 -130h171l-8 -41h-234z
" />
    <glyph glyph-name="threequarters" unicode="&#xbe;" horiz-adv-x="736" 
d="M184 288c-69 0 -100 50 -100 95c0 5 0 19 3 27h41c-2 -9 -3 -16 -3 -21c0 -36 24 -60 65 -60c50 0 86 45 86 90c0 32 -21 59 -60 59h-29l9 41h29c51 0 90 43 90 86c0 36 -23 60 -66 60s-78 -31 -86 -87h-43c17 89 59 128 136 128c69 0 100 -50 100 -95
c0 -60 -33 -99 -74 -118c24 -15 36 -39 36 -70c0 -75 -45 -135 -134 -135zM620 700h48l-481 -700h-48zM557 0l23 110h-185l8 39l241 257h43l-55 -257h42l-8 -39h-43l-23 -110h-43zM457 149h132l39 183z" />
    <glyph glyph-name="questiondown" unicode="&#xbf;" horiz-adv-x="487" 
d="M341 16h53c-29 -152 -114 -210 -229 -210c-75 0 -170 43 -170 155c0 80 48 150 113 201l71 55c35 27 46 42 51 67l4 22h53l-4 -22c-8 -37 -26 -72 -75 -109l-72 -55c-48 -36 -89 -85 -89 -150c0 -80 50 -114 127 -114c95 0 154 75 167 160zM350 516l-18 -84h-84l18 84h84
z" />
    <glyph glyph-name="Agrave" unicode="&#xc0;" horiz-adv-x="564" 
d="M438 0l-28 218h-266l-120 -218h-59l386 700h50l89 -700h-52zM171 267h233l-44 343zM272 854h81l77 -109h-53z" />
    <glyph glyph-name="Aacute" unicode="&#xc1;" horiz-adv-x="564" 
d="M438 0l-28 218h-266l-120 -218h-59l386 700h50l89 -700h-52zM171 267h233l-44 343zM423 854h86l-128 -109h-58z" />
    <glyph glyph-name="Acircumflex" unicode="&#xc2;" horiz-adv-x="564" 
d="M438 0l-28 218h-266l-120 -218h-59l386 700h50l89 -700h-52zM171 267h233l-44 343zM434 854l102 -109h-67l-66 63l-92 -63h-77l148 109h52z" />
    <glyph glyph-name="Atilde" unicode="&#xc3;" horiz-adv-x="564" 
d="M438 0l-28 218h-266l-120 -218h-59l386 700h50l89 -700h-52zM171 267h233l-44 343zM346 845c15 0 29 -3 45 -12l33 -17c11 -5 20 -10 29 -10c18 0 33 12 44 37h56c-24 -77 -69 -88 -102 -88c-15 0 -29 3 -45 12l-33 17c-11 5 -20 10 -29 10c-18 0 -33 -12 -44 -37h-56
c24 77 69 88 102 88z" />
    <glyph glyph-name="Adieresis" unicode="&#xc4;" horiz-adv-x="564" 
d="M438 0l-28 218h-266l-120 -218h-59l386 700h50l89 -700h-52zM171 267h233l-44 343zM329 843l-19 -87h-55l19 87h55zM540 843l-19 -87h-55l19 87h55z" />
    <glyph glyph-name="Aring" unicode="&#xc5;" horiz-adv-x="564" 
d="M438 0l-28 218h-266l-120 -218h-59l386 700h50l89 -700h-52zM171 267h233l-44 343zM323 799c0 41 33 75 74 75s75 -34 75 -75s-34 -74 -75 -74s-74 33 -74 74zM368 799c0 -16 13 -29 29 -29s30 13 30 29s-14 30 -30 30s-29 -14 -29 -30z" />
    <glyph glyph-name="AE" unicode="&#xc6;" horiz-adv-x="824" 
d="M437 329l-59 -277h332l-11 -52h-387l46 218h-191l-146 -218h-64l470 700h421l-11 -52h-332l-57 -268h332l-11 -51h-332zM200 267h169l78 367z" />
    <glyph glyph-name="Ccedilla" unicode="&#xc7;" horiz-adv-x="559" 
d="M555 500h-54c1 11 1 14 1 21c0 91 -66 137 -143 137c-89 0 -165 -51 -192 -176c-56 -263 -60 -268 -60 -303c0 -91 66 -137 143 -137c85 0 159 45 188 158h55c-32 -131 -110 -210 -250 -210c-103 0 -191 69 -191 182c0 37 4 46 60 310c29 141 106 228 254 228
c103 0 191 -69 191 -182c0 -12 -1 -21 -2 -28zM157 -158l53 158h56l-38 -158h-71z" />
    <glyph glyph-name="Egrave" unicode="&#xc8;" horiz-adv-x="541" 
d="M154 329l-59 -277h332l-11 -52h-387l149 700h387l-11 -52h-332l-57 -268h332l-11 -51h-332zM267 854h81l77 -109h-53z" />
    <glyph glyph-name="Eacute" unicode="&#xc9;" horiz-adv-x="541" 
d="M154 329l-59 -277h332l-11 -52h-387l149 700h387l-11 -52h-332l-57 -268h332l-11 -51h-332zM418 854h86l-128 -109h-58z" />
    <glyph glyph-name="Ecircumflex" unicode="&#xca;" horiz-adv-x="541" 
d="M154 329l-59 -277h332l-11 -52h-387l149 700h387l-11 -52h-332l-57 -268h332l-11 -51h-332zM429 854l102 -109h-67l-66 63l-92 -63h-77l148 109h52z" />
    <glyph glyph-name="Edieresis" unicode="&#xcb;" horiz-adv-x="541" 
d="M154 329l-59 -277h332l-11 -52h-387l149 700h387l-11 -52h-332l-57 -268h332l-11 -51h-332zM324 843l-19 -87h-55l19 87h55zM535 843l-19 -87h-55l19 87h55z" />
    <glyph glyph-name="Igrave" unicode="&#xcc;" horiz-adv-x="225" 
d="M234 700l-149 -700h-55l149 700h55zM103 854h81l77 -109h-53z" />
    <glyph glyph-name="Iacute" unicode="&#xcd;" horiz-adv-x="225" 
d="M234 700l-149 -700h-55l149 700h55zM254 854h86l-128 -109h-58z" />
    <glyph glyph-name="Icircumflex" unicode="&#xce;" horiz-adv-x="225" 
d="M234 700l-149 -700h-55l149 700h55zM265 854l102 -109h-67l-66 63l-92 -63h-77l148 109h52z" />
    <glyph glyph-name="Idieresis" unicode="&#xcf;" horiz-adv-x="225" 
d="M234 700l-149 -700h-55l149 700h55zM160 843l-19 -87h-55l19 87h55zM371 843l-19 -87h-55l19 87h55z" />
    <glyph glyph-name="Eth" unicode="&#xd0;" horiz-adv-x="601" 
d="M277 0h-236l70 328h-70l9 45h70l70 327h206c103 0 191 -69 191 -182c0 -38 -11 -81 -56 -290c-32 -142 -105 -228 -254 -228zM107 52h177c89 0 165 51 192 176c56 264 56 248 56 283c0 91 -66 137 -143 137h-155l-59 -275h166l-9 -45h-166z" />
    <glyph glyph-name="Ntilde" unicode="&#xd1;" horiz-adv-x="612" 
d="M621 700l-149 -700h-55l-204 605l-128 -605h-55l149 700h55l204 -605l128 605h55zM370 845c15 0 29 -3 45 -12l33 -17c11 -5 20 -10 29 -10c18 0 33 12 44 37h56c-24 -77 -69 -88 -102 -88c-15 0 -29 3 -45 12l-33 17c-11 5 -20 10 -29 10c-18 0 -33 -12 -44 -37h-56
c24 77 69 88 102 88z" />
    <glyph glyph-name="Ograve" unicode="&#xd2;" horiz-adv-x="569" 
d="M497 218c-31 -143 -106 -228 -254 -228c-103 0 -191 69 -191 182c0 37 4 46 60 310c29 141 106 228 254 228c103 0 191 -69 191 -182c0 -37 -4 -46 -60 -310zM167 482c-56 -263 -60 -268 -60 -303c0 -91 66 -137 143 -137c89 0 165 51 192 176c56 263 60 268 60 303
c0 91 -66 137 -143 137c-89 0 -165 -51 -192 -176zM276 854h81l77 -109h-53z" />
    <glyph glyph-name="Oacute" unicode="&#xd3;" horiz-adv-x="569" 
d="M497 218c-31 -143 -106 -228 -254 -228c-103 0 -191 69 -191 182c0 37 4 46 60 310c29 141 106 228 254 228c103 0 191 -69 191 -182c0 -37 -4 -46 -60 -310zM167 482c-56 -263 -60 -268 -60 -303c0 -91 66 -137 143 -137c89 0 165 51 192 176c56 263 60 268 60 303
c0 91 -66 137 -143 137c-89 0 -165 -51 -192 -176zM427 854h86l-128 -109h-58z" />
    <glyph glyph-name="Ocircumflex" unicode="&#xd4;" horiz-adv-x="569" 
d="M497 218c-31 -143 -106 -228 -254 -228c-103 0 -191 69 -191 182c0 37 4 46 60 310c29 141 106 228 254 228c103 0 191 -69 191 -182c0 -37 -4 -46 -60 -310zM167 482c-56 -263 -60 -268 -60 -303c0 -91 66 -137 143 -137c89 0 165 51 192 176c56 263 60 268 60 303
c0 91 -66 137 -143 137c-89 0 -165 -51 -192 -176zM438 854l102 -109h-67l-66 63l-92 -63h-77l148 109h52z" />
    <glyph glyph-name="Otilde" unicode="&#xd5;" horiz-adv-x="569" 
d="M497 218c-31 -143 -106 -228 -254 -228c-103 0 -191 69 -191 182c0 37 4 46 60 310c29 141 106 228 254 228c103 0 191 -69 191 -182c0 -37 -4 -46 -60 -310zM167 482c-56 -263 -60 -268 -60 -303c0 -91 66 -137 143 -137c89 0 165 51 192 176c56 263 60 268 60 303
c0 91 -66 137 -143 137c-89 0 -165 -51 -192 -176zM349 845c15 0 29 -3 45 -12l33 -17c11 -5 20 -10 29 -10c18 0 33 12 44 37h56c-24 -77 -69 -88 -102 -88c-15 0 -29 3 -45 12l-33 17c-11 5 -20 10 -29 10c-18 0 -33 -12 -44 -37h-56c24 77 69 88 102 88z" />
    <glyph glyph-name="Odieresis" unicode="&#xd6;" horiz-adv-x="569" 
d="M497 218c-31 -143 -106 -228 -254 -228c-103 0 -191 69 -191 182c0 37 4 46 60 310c29 141 106 228 254 228c103 0 191 -69 191 -182c0 -37 -4 -46 -60 -310zM167 482c-56 -263 -60 -268 -60 -303c0 -91 66 -137 143 -137c89 0 165 51 192 176c56 263 60 268 60 303
c0 91 -66 137 -143 137c-89 0 -165 -51 -192 -176zM332 843l-19 -87h-55l19 87h55zM543 843l-19 -87h-55l19 87h55z" />
    <glyph glyph-name="multiply" unicode="&#xd7;" 
d="M486 450l-171 -170l171 -169l-32 -32l-171 169l-170 -169l-32 32l170 169l-170 170l32 32l170 -170l171 170z" />
    <glyph glyph-name="Oslash" unicode="&#xd8;" horiz-adv-x="575" 
d="M500 218c-31 -143 -106 -228 -254 -228c-56 0 -108 20 -144 57l-51 -66l-38 24l62 81c-13 25 -20 53 -20 86c0 37 4 46 60 310c29 141 106 228 254 228c56 0 108 -21 143 -58l53 68l38 -25l-63 -82c12 -24 20 -53 20 -85c0 -37 -4 -46 -60 -310zM170 482
c-56 -263 -60 -268 -60 -303c0 -16 1 -30 5 -42l363 470c-27 35 -69 51 -116 51c-89 0 -165 -51 -192 -176zM505 521c0 15 -2 28 -5 41l-363 -470c27 -33 68 -50 116 -50c89 0 165 51 192 176c56 263 60 268 60 303z" />
    <glyph glyph-name="Ugrave" unicode="&#xd9;" horiz-adv-x="594" 
d="M119 179c0 -91 66 -137 143 -137c88 0 165 51 192 176l103 482h55l-103 -482c-31 -143 -106 -228 -254 -228c-103 0 -192 69 -192 182c0 38 4 44 108 528h55c-104 -481 -107 -486 -107 -521zM285 854h81l77 -109h-53z" />
    <glyph glyph-name="Uacute" unicode="&#xda;" horiz-adv-x="594" 
d="M119 179c0 -91 66 -137 143 -137c88 0 165 51 192 176l103 482h55l-103 -482c-31 -143 -106 -228 -254 -228c-103 0 -192 69 -192 182c0 38 4 44 108 528h55c-104 -481 -107 -486 -107 -521zM438 854h86l-128 -109h-58z" />
    <glyph glyph-name="Ucircumflex" unicode="&#xdb;" horiz-adv-x="594" 
d="M119 179c0 -91 66 -137 143 -137c88 0 165 51 192 176l103 482h55l-103 -482c-31 -143 -106 -228 -254 -228c-103 0 -192 69 -192 182c0 38 4 44 108 528h55c-104 -481 -107 -486 -107 -521zM449 854l102 -109h-67l-66 63l-92 -63h-77l148 109h52z" />
    <glyph glyph-name="Udieresis" unicode="&#xdc;" horiz-adv-x="594" 
d="M119 179c0 -91 66 -137 143 -137c88 0 165 51 192 176l103 482h55l-103 -482c-31 -143 -106 -228 -254 -228c-103 0 -192 69 -192 182c0 38 4 44 108 528h55c-104 -481 -107 -486 -107 -521zM344 843l-19 -87h-55l19 87h55zM555 843l-19 -87h-55l19 87h55z" />
    <glyph glyph-name="Yacute" unicode="&#xdd;" horiz-adv-x="543" 
d="M629 700l-323 -409l-62 -291h-55l62 291l-149 409h56l129 -350l275 350h67zM412 854h86l-128 -109h-58z" />
    <glyph glyph-name="Thorn" unicode="&#xde;" horiz-adv-x="539" 
d="M301 148h-185l-31 -148h-55l149 700h55l-31 -146h151c127 0 187 -88 187 -181c0 -100 -72 -225 -240 -225zM128 200h180c109 0 178 85 178 168c0 62 -31 134 -144 134h-150z" />
    <glyph glyph-name="germandbls" unicode="&#xdf;" horiz-adv-x="529" 
d="M257 404h27c88 0 151 64 151 155c0 59 -35 101 -107 101c-77 0 -121 -53 -136 -124l-114 -536h-53l114 536c19 93 64 174 200 174c87 0 149 -69 149 -146c0 -69 -28 -145 -101 -186c51 -25 80 -85 80 -150c0 -101 -56 -238 -241 -238c-21 0 -39 2 -56 6l12 54
c17 -7 35 -10 55 -10c107 0 178 83 178 184c0 73 -43 130 -134 130h-35z" />
    <glyph glyph-name="agrave" unicode="&#xe0;" horiz-adv-x="527" 
d="M134 360h-53c35 121 117 170 224 170c76 0 168 -44 168 -156c0 -30 -2 -33 -34 -187l-40 -187h-53l15 66c-32 -45 -87 -76 -167 -76c-99 0 -163 63 -163 139c0 88 44 138 125 161c68 19 167 24 258 29c7 27 7 36 7 49c0 69 -42 112 -125 112c-72 0 -135 -44 -162 -120z
M387 192l17 79c-117 -5 -201 -15 -244 -30c-53 -19 -76 -61 -76 -108c0 -49 36 -93 121 -93c92 0 163 61 182 152zM224 700h79l58 -129h-46z" />
    <glyph glyph-name="aacute" unicode="&#xe1;" horiz-adv-x="527" 
d="M134 360h-53c35 121 117 170 224 170c76 0 168 -44 168 -156c0 -30 -2 -33 -34 -187l-40 -187h-53l15 66c-32 -45 -87 -76 -167 -76c-99 0 -163 63 -163 139c0 88 44 138 125 161c68 19 167 24 258 29c7 27 7 36 7 49c0 69 -42 112 -125 112c-72 0 -135 -44 -162 -120z
M387 192l17 79c-117 -5 -201 -15 -244 -30c-53 -19 -76 -61 -76 -108c0 -49 36 -93 121 -93c92 0 163 61 182 152zM351 700h84l-118 -129h-51z" />
    <glyph glyph-name="acircumflex" unicode="&#xe2;" horiz-adv-x="527" 
d="M134 360h-53c35 121 117 170 224 170c76 0 168 -44 168 -156c0 -30 -2 -33 -34 -187l-40 -187h-53l15 66c-32 -45 -87 -76 -167 -76c-99 0 -163 63 -163 139c0 88 44 138 125 161c68 19 167 24 258 29c7 27 7 36 7 49c0 69 -42 112 -125 112c-72 0 -135 -44 -162 -120z
M387 192l17 79c-117 -5 -201 -15 -244 -30c-53 -19 -76 -61 -76 -108c0 -49 36 -93 121 -93c92 0 163 61 182 152zM419 571l-70 83l-104 -83h-69l152 129h52l98 -129h-59z" />
    <glyph glyph-name="atilde" unicode="&#xe3;" horiz-adv-x="527" 
d="M134 360h-53c35 121 117 170 224 170c76 0 168 -44 168 -156c0 -30 -2 -33 -34 -187l-40 -187h-53l15 66c-32 -45 -87 -76 -167 -76c-99 0 -163 63 -163 139c0 88 44 138 125 161c68 19 167 24 258 29c7 27 7 36 7 49c0 69 -42 112 -125 112c-72 0 -135 -44 -162 -120z
M387 192l17 79c-117 -5 -201 -15 -244 -30c-53 -19 -76 -61 -76 -108c0 -49 36 -93 121 -93c92 0 163 61 182 152zM447 679h49c-24 -77 -69 -88 -102 -88c-15 0 -29 3 -45 12l-33 19c-7 4 -18 10 -33 10s-32 -8 -47 -39h-49c24 77 69 88 102 88c15 0 29 -3 45 -12l33 -19
c7 -4 18 -10 33 -10s32 8 47 39z" />
    <glyph glyph-name="adieresis" unicode="&#xe4;" horiz-adv-x="527" 
d="M134 360h-53c35 121 117 170 224 170c76 0 168 -44 168 -156c0 -30 -2 -33 -34 -187l-40 -187h-53l15 66c-32 -45 -87 -76 -167 -76c-99 0 -163 63 -163 139c0 88 44 138 125 161c68 19 167 24 258 29c7 27 7 36 7 49c0 69 -42 112 -125 112c-72 0 -135 -44 -162 -120z
M387 192l17 79c-117 -5 -201 -15 -244 -30c-53 -19 -76 -61 -76 -108c0 -49 36 -93 121 -93c92 0 163 61 182 152zM270 679l-19 -87h-53l19 87h53zM483 679l-19 -87h-53l19 87h53z" />
    <glyph glyph-name="aring" unicode="&#xe5;" horiz-adv-x="527" 
d="M134 360h-53c35 121 117 170 224 170c76 0 168 -44 168 -156c0 -30 -2 -33 -34 -187l-40 -187h-53l15 66c-32 -45 -87 -76 -167 -76c-99 0 -163 63 -163 139c0 88 44 138 125 161c68 19 167 24 258 29c7 27 7 36 7 49c0 69 -42 112 -125 112c-72 0 -135 -44 -162 -120z
M387 192l17 79c-117 -5 -201 -15 -244 -30c-53 -19 -76 -61 -76 -108c0 -49 36 -93 121 -93c92 0 163 61 182 152zM266 635c0 41 33 75 74 75s75 -34 75 -75s-34 -74 -75 -74s-74 33 -74 74zM309 635c0 -17 14 -31 31 -31s32 14 32 31s-15 32 -32 32s-31 -15 -31 -32z" />
    <glyph glyph-name="ae" unicode="&#xe6;" horiz-adv-x="856" 
d="M389 94c-25 -41 -79 -104 -197 -104c-99 0 -163 63 -163 139c0 88 44 138 125 161c68 19 167 24 258 29c7 27 7 36 7 49c0 69 -42 112 -125 112c-72 0 -135 -44 -162 -120h-53c35 121 117 170 224 170c68 0 131 -27 156 -98c45 65 108 98 187 98c76 0 168 -44 168 -156
c0 -24 -1 -31 -20 -121h-343c-16 -72 -18 -82 -18 -101c0 -69 42 -112 125 -112c72 0 134 44 161 120h54c-35 -121 -117 -170 -224 -170c-64 0 -136 30 -160 104zM385 192l17 79c-117 -5 -201 -15 -244 -30c-53 -19 -76 -61 -76 -108c0 -49 36 -93 121 -93
c92 0 163 61 182 152zM462 303h290c8 41 10 49 10 65c0 69 -42 112 -125 112c-93 0 -162 -68 -175 -177z" />
    <glyph glyph-name="ccedilla" unicode="&#xe7;" horiz-adv-x="516" 
d="M481 374v-14h-52v8c0 69 -42 112 -125 112c-80 0 -149 -54 -169 -147c-32 -150 -35 -157 -35 -181c0 -69 42 -112 125 -112c72 0 135 44 162 120h53c-35 -121 -117 -170 -224 -170c-76 0 -168 44 -168 156c0 30 2 33 34 187c29 140 116 197 231 197
c76 0 168 -44 168 -156zM136 -158l58 158h49l-38 -158h-69z" />
    <glyph glyph-name="egrave" unicode="&#xe8;" horiz-adv-x="523" 
d="M461 253h-343c-16 -72 -18 -82 -18 -101c0 -69 42 -112 125 -112c72 0 134 44 161 120h54c-35 -121 -117 -170 -224 -170c-76 0 -168 44 -168 156c0 30 2 33 34 187c29 140 116 197 231 197c76 0 168 -44 168 -156c0 -24 -1 -31 -20 -121zM129 303h290c8 41 10 49 10 65
c0 69 -42 112 -125 112c-93 0 -162 -68 -175 -177zM233 700h79l58 -129h-46z" />
    <glyph glyph-name="eacute" unicode="&#xe9;" horiz-adv-x="523" 
d="M461 253h-343c-16 -72 -18 -82 -18 -101c0 -69 42 -112 125 -112c72 0 134 44 161 120h54c-35 -121 -117 -170 -224 -170c-76 0 -168 44 -168 156c0 30 2 33 34 187c29 140 116 197 231 197c76 0 168 -44 168 -156c0 -24 -1 -31 -20 -121zM129 303h290c8 41 10 49 10 65
c0 69 -42 112 -125 112c-93 0 -162 -68 -175 -177zM360 700h84l-118 -129h-51z" />
    <glyph glyph-name="ecircumflex" unicode="&#xea;" horiz-adv-x="523" 
d="M461 253h-343c-16 -72 -18 -82 -18 -101c0 -69 42 -112 125 -112c72 0 134 44 161 120h54c-35 -121 -117 -170 -224 -170c-76 0 -168 44 -168 156c0 30 2 33 34 187c29 140 116 197 231 197c76 0 168 -44 168 -156c0 -24 -1 -31 -20 -121zM129 303h290c8 41 10 49 10 65
c0 69 -42 112 -125 112c-93 0 -162 -68 -175 -177zM423 571l-70 83l-104 -83h-69l152 129h52l98 -129h-59z" />
    <glyph glyph-name="edieresis" unicode="&#xeb;" horiz-adv-x="523" 
d="M461 253h-343c-16 -72 -18 -82 -18 -101c0 -69 42 -112 125 -112c72 0 134 44 161 120h54c-35 -121 -117 -170 -224 -170c-76 0 -168 44 -168 156c0 30 2 33 34 187c29 140 116 197 231 197c76 0 168 -44 168 -156c0 -24 -1 -31 -20 -121zM129 303h290c8 41 10 49 10 65
c0 69 -42 112 -125 112c-93 0 -162 -68 -175 -177zM274 679l-19 -87h-53l19 87h53zM487 679l-19 -87h-53l19 87h53z" />
    <glyph glyph-name="igrave" unicode="&#xec;" horiz-adv-x="213" 
d="M135 516h53l-109 -516h-53zM75 700h79l58 -129h-46z" />
    <glyph glyph-name="iacute" unicode="&#xed;" horiz-adv-x="213" 
d="M135 516h53l-109 -516h-53zM202 700h84l-118 -129h-51z" />
    <glyph glyph-name="icircumflex" unicode="&#xee;" horiz-adv-x="213" 
d="M135 516h53l-109 -516h-53zM265 571l-70 83l-104 -83h-69l152 129h52l98 -129h-59z" />
    <glyph glyph-name="idieresis" unicode="&#xef;" horiz-adv-x="213" 
d="M135 516h53l-109 -516h-53zM117 679l-19 -87h-53l19 87h53zM330 679l-19 -87h-53l19 87h53z" />
    <glyph glyph-name="eth" unicode="&#xf0;" horiz-adv-x="529" 
d="M447 187c-31 -140 -116 -197 -231 -197c-76 0 -168 44 -168 156c0 30 2 33 34 187c29 140 116 197 231 197c19 0 36 -2 53 -7l-32 62h-129l9 43h99l-36 72h59l36 -72h84l-9 -43h-54l62 -122c13 -27 26 -52 26 -89c0 -30 -2 -33 -34 -187zM135 333
c-32 -150 -35 -157 -35 -181c0 -69 42 -112 125 -112c80 0 149 54 169 147c32 150 35 157 35 181c0 69 -42 112 -125 112c-80 0 -149 -54 -169 -147z" />
    <glyph glyph-name="ntilde" unicode="&#xf1;" horiz-adv-x="549" 
d="M327 530c76 0 168 -44 168 -156c0 -30 -2 -33 -34 -187l-40 -187h-53l40 187c32 150 35 157 35 181c0 69 -42 112 -125 112c-80 0 -149 -54 -169 -147l-71 -333h-53l110 516h53l-13 -59c27 40 79 73 152 73zM464 679h49c-24 -77 -69 -88 -102 -88c-15 0 -29 3 -45 12
l-33 19c-7 4 -18 10 -33 10s-32 -8 -47 -39h-49c24 77 69 88 102 88c15 0 29 -3 45 -12l33 -19c7 -4 18 -10 33 -10s32 8 47 39z" />
    <glyph glyph-name="ograve" unicode="&#xf2;" horiz-adv-x="529" 
d="M135 333c-32 -150 -35 -157 -35 -181c0 -69 42 -112 125 -112c80 0 149 54 169 147c32 150 35 157 35 181c0 69 -42 112 -125 112c-80 0 -149 -54 -169 -147zM447 187c-31 -140 -116 -197 -231 -197c-76 0 -168 44 -168 156c0 30 2 33 34 187c29 140 116 197 231 197
c76 0 168 -44 168 -156c0 -30 -2 -33 -34 -187zM233 700h79l58 -129h-46z" />
    <glyph glyph-name="oacute" unicode="&#xf3;" horiz-adv-x="529" 
d="M135 333c-32 -150 -35 -157 -35 -181c0 -69 42 -112 125 -112c80 0 149 54 169 147c32 150 35 157 35 181c0 69 -42 112 -125 112c-80 0 -149 -54 -169 -147zM447 187c-31 -140 -116 -197 -231 -197c-76 0 -168 44 -168 156c0 30 2 33 34 187c29 140 116 197 231 197
c76 0 168 -44 168 -156c0 -30 -2 -33 -34 -187zM360 700h84l-118 -129h-51z" />
    <glyph glyph-name="ocircumflex" unicode="&#xf4;" horiz-adv-x="529" 
d="M135 333c-32 -150 -35 -157 -35 -181c0 -69 42 -112 125 -112c80 0 149 54 169 147c32 150 35 157 35 181c0 69 -42 112 -125 112c-80 0 -149 -54 -169 -147zM447 187c-31 -140 -116 -197 -231 -197c-76 0 -168 44 -168 156c0 30 2 33 34 187c29 140 116 197 231 197
c76 0 168 -44 168 -156c0 -30 -2 -33 -34 -187zM423 571l-70 83l-104 -83h-69l152 129h52l98 -129h-59z" />
    <glyph glyph-name="otilde" unicode="&#xf5;" horiz-adv-x="529" 
d="M135 333c-32 -150 -35 -157 -35 -181c0 -69 42 -112 125 -112c80 0 149 54 169 147c32 150 35 157 35 181c0 69 -42 112 -125 112c-80 0 -149 -54 -169 -147zM447 187c-31 -140 -116 -197 -231 -197c-76 0 -168 44 -168 156c0 30 2 33 34 187c29 140 116 197 231 197
c76 0 168 -44 168 -156c0 -30 -2 -33 -34 -187zM450 679h49c-24 -77 -69 -88 -102 -88c-15 0 -29 3 -45 12l-33 19c-7 4 -18 10 -33 10s-32 -8 -47 -39h-49c24 77 69 88 102 88c15 0 29 -3 45 -12l33 -19c7 -4 18 -10 33 -10s32 8 47 39z" />
    <glyph glyph-name="odieresis" unicode="&#xf6;" horiz-adv-x="529" 
d="M135 333c-32 -150 -35 -157 -35 -181c0 -69 42 -112 125 -112c80 0 149 54 169 147c32 150 35 157 35 181c0 69 -42 112 -125 112c-80 0 -149 -54 -169 -147zM447 187c-31 -140 -116 -197 -231 -197c-76 0 -168 44 -168 156c0 30 2 33 34 187c29 140 116 197 231 197
c76 0 168 -44 168 -156c0 -30 -2 -33 -34 -187zM274 679l-19 -87h-53l19 87h53zM487 679l-19 -87h-53l19 87h53z" />
    <glyph glyph-name="divide" unicode="&#xf7;" 
d="M243 479c0 23 19 42 42 42s42 -19 42 -42s-19 -42 -42 -42s-42 19 -42 42zM243 82c0 23 19 42 42 42s42 -19 42 -42s-19 -42 -42 -42s-42 19 -42 42zM482 258h-396v45h396v-45z" />
    <glyph glyph-name="oslash" unicode="&#xf8;" horiz-adv-x="535" 
d="M450 187c-31 -140 -116 -197 -231 -197c-43 0 -89 13 -122 44l-49 -56l-33 27l55 62c-13 22 -19 48 -19 79c0 30 2 33 34 187c29 140 116 197 231 197c41 0 88 -13 121 -44l49 56l34 -27l-55 -63c13 -22 19 -48 19 -78s-2 -33 -34 -187zM432 368c0 15 -2 28 -6 40
l-295 -335c22 -22 54 -33 97 -33c80 0 149 54 169 147c32 150 35 157 35 181zM138 333c-32 -150 -35 -157 -35 -181c0 -15 2 -29 6 -41l294 336c-22 22 -54 33 -96 33c-80 0 -149 -54 -169 -147z" />
    <glyph glyph-name="ugrave" unicode="&#xf9;" horiz-adv-x="541" 
d="M223 -10c-76 0 -168 47 -168 156c0 26 4 46 33 183l40 187h53l-40 -187c-29 -128 -34 -154 -34 -177c0 -68 42 -112 122 -112c76 0 144 54 165 147l70 329h53l-110 -516h-53l14 63c-21 -35 -78 -73 -145 -73zM235 700h79l58 -129h-46z" />
    <glyph glyph-name="uacute" unicode="&#xfa;" horiz-adv-x="542" 
d="M223 -10c-76 0 -168 47 -168 156c0 26 4 46 33 183l40 187h53l-40 -187c-29 -128 -34 -154 -34 -177c0 -68 42 -112 122 -112c76 0 144 54 165 147l70 329h53l-110 -516h-53l14 63c-21 -35 -78 -73 -145 -73zM363 700h84l-118 -129h-51z" />
    <glyph glyph-name="ucircumflex" unicode="&#xfb;" horiz-adv-x="541" 
d="M223 -10c-76 0 -168 47 -168 156c0 26 4 46 33 183l40 187h53l-40 -187c-29 -128 -34 -154 -34 -177c0 -68 42 -112 122 -112c76 0 144 54 165 147l70 329h53l-110 -516h-53l14 63c-21 -35 -78 -73 -145 -73zM425 571l-70 83l-104 -83h-69l152 129h52l98 -129h-59z" />
    <glyph glyph-name="udieresis" unicode="&#xfc;" horiz-adv-x="541" 
d="M223 -10c-76 0 -168 47 -168 156c0 26 4 46 33 183l40 187h53l-40 -187c-29 -128 -34 -154 -34 -177c0 -68 42 -112 122 -112c76 0 144 54 165 147l70 329h53l-110 -516h-53l14 63c-21 -35 -78 -73 -145 -73zM276 679l-19 -87h-53l19 87h53zM489 679l-19 -87h-53l19 87
h53z" />
    <glyph glyph-name="yacute" unicode="&#xfd;" horiz-adv-x="452" 
d="M143 -1l-77 517h52l66 -444l252 444h60l-342 -597c-31 -58 -58 -103 -132 -103h-26l11 50h27c35 0 48 26 67 59zM322 700h84l-118 -129h-51z" />
    <glyph glyph-name="thorn" unicode="&#xfe;" horiz-adv-x="544" 
d="M319 480c-80 0 -149 -54 -169 -147c-32 -150 -35 -157 -35 -181c0 -69 42 -112 125 -112c80 0 149 54 169 147c32 150 35 157 35 181c0 69 -42 112 -125 112zM227 700l-51 -243c27 40 79 73 152 73c76 0 168 -44 168 -156c0 -30 -2 -33 -34 -187
c-31 -140 -116 -197 -231 -197c-77 0 -124 47 -137 83l-54 -257h-53l187 884h53z" />
    <glyph glyph-name="ydieresis" unicode="&#xff;" horiz-adv-x="452" 
d="M143 -1l-77 517h52l66 -444l252 444h60l-342 -597c-31 -58 -58 -103 -132 -103h-26l11 50h27c35 0 48 26 67 59zM236 679l-19 -87h-53l19 87h53zM449 679l-19 -87h-53l19 87h53z" />
    <glyph glyph-name="Abreve" unicode="&#x102;" horiz-adv-x="564" 
d="M438 0l-28 218h-266l-120 -218h-59l386 700h50l89 -700h-52zM171 267h233l-44 343zM364 796h55c31 0 69 29 74 58h56c-13 -60 -71 -109 -132 -109h-64c-52 0 -89 37 -89 86c0 7 1 15 3 23h48c-1 -3 -1 -7 -1 -12c0 -27 19 -46 50 -46z" />
    <glyph glyph-name="Amacron" unicode="&#x100;" horiz-adv-x="564" 
d="M438 0l-28 218h-266l-120 -218h-59l386 700h50l89 -700h-52zM171 267h233l-44 343zM537 774h-289l9 47h289z" />
    <glyph glyph-name="Aogonek" unicode="&#x104;" horiz-adv-x="564" 
d="M438 0l-28 218h-266l-120 -218h-59l386 700h50l89 -700c-35 -21 -105 -55 -105 -106c0 -23 13 -32 32 -32c15 0 31 5 46 12l-11 -50c-16 -9 -34 -13 -50 -13c-47 0 -73 32 -73 71c0 61 49 97 109 118zM171 267h233l-44 343z" />
    <glyph glyph-name="Cacute" unicode="&#x106;" horiz-adv-x="559" 
d="M555 500h-54c1 11 1 14 1 21c0 91 -66 137 -143 137c-89 0 -165 -51 -192 -176c-56 -263 -60 -268 -60 -303c0 -91 66 -137 143 -137c85 0 159 45 188 158h55c-32 -131 -110 -210 -250 -210c-103 0 -191 69 -191 182c0 37 4 46 60 310c29 141 106 228 254 228
c103 0 191 -69 191 -182c0 -12 -1 -21 -2 -28zM425 854h86l-128 -109h-58z" />
    <glyph glyph-name="Ccaron" unicode="&#x10c;" horiz-adv-x="559" 
d="M555 500h-54c1 11 1 14 1 21c0 91 -66 137 -143 137c-89 0 -165 -51 -192 -176c-56 -263 -60 -268 -60 -303c0 -91 66 -137 143 -137c85 0 159 45 188 158h55c-32 -131 -110 -210 -250 -210c-103 0 -191 69 -191 182c0 37 4 46 60 310c29 141 106 228 254 228
c103 0 191 -69 191 -182c0 -12 -1 -21 -2 -28zM362 745l-102 109h67l66 -63l92 63h77l-148 -109h-52z" />
    <glyph glyph-name="Ccircumflex" unicode="&#x108;" horiz-adv-x="559" 
d="M555 500h-54c1 11 1 14 1 21c0 91 -66 137 -143 137c-89 0 -165 -51 -192 -176c-56 -263 -60 -268 -60 -303c0 -91 66 -137 143 -137c85 0 159 45 188 158h55c-32 -131 -110 -210 -250 -210c-103 0 -191 69 -191 182c0 37 4 46 60 310c29 141 106 228 254 228
c103 0 191 -69 191 -182c0 -12 -1 -21 -2 -28zM437 854l102 -109h-67l-66 63l-92 -63h-77l148 109h52z" />
    <glyph glyph-name="Cdotaccent" unicode="&#x10a;" horiz-adv-x="559" 
d="M555 500h-54c1 11 1 14 1 21c0 91 -66 137 -143 137c-89 0 -165 -51 -192 -176c-56 -263 -60 -268 -60 -303c0 -91 66 -137 143 -137c85 0 159 45 188 158h55c-32 -131 -110 -210 -250 -210c-103 0 -191 69 -191 182c0 37 4 46 60 310c29 141 106 228 254 228
c103 0 191 -69 191 -182c0 -12 -1 -21 -2 -28zM437 843l-19 -87h-55l19 87h55z" />
    <glyph glyph-name="Dcaron" unicode="&#x10e;" horiz-adv-x="591" 
d="M96 52h177c89 0 165 51 192 176c56 264 56 248 56 283c0 91 -66 137 -143 137h-155zM266 0h-236l149 700h206c103 0 191 -69 191 -182c0 -38 -11 -81 -56 -290c-32 -142 -105 -228 -254 -228zM347 745l-102 109h67l66 -63l92 63h77l-148 -109h-52z" />
    <glyph glyph-name="Dcroat" unicode="&#x110;" horiz-adv-x="601" 
d="M277 0h-236l70 328h-70l9 45h70l70 327h206c103 0 191 -69 191 -182c0 -38 -11 -81 -56 -290c-32 -142 -105 -228 -254 -228zM107 52h177c89 0 165 51 192 176c56 264 56 248 56 283c0 91 -66 137 -143 137h-155l-59 -275h166l-9 -45h-166z" />
    <glyph glyph-name="Ebreve" unicode="&#x114;" horiz-adv-x="541" 
d="M154 329l-59 -277h332l-11 -52h-387l149 700h387l-11 -52h-332l-57 -268h332l-11 -51h-332zM359 796h55c31 0 69 29 74 58h56c-13 -60 -71 -109 -132 -109h-64c-52 0 -89 37 -89 86c0 7 1 15 3 23h48c-1 -3 -1 -7 -1 -12c0 -27 19 -46 50 -46z" />
    <glyph glyph-name="Ecaron" unicode="&#x11a;" horiz-adv-x="541" 
d="M154 329l-59 -277h332l-11 -52h-387l149 700h387l-11 -52h-332l-57 -268h332l-11 -51h-332zM354 745l-102 109h67l66 -63l92 63h77l-148 -109h-52z" />
    <glyph glyph-name="Emacron" unicode="&#x112;" horiz-adv-x="541" 
d="M154 329l-59 -277h332l-11 -52h-387l149 700h387l-11 -52h-332l-57 -268h332l-11 -51h-332zM532 774h-289l9 47h289z" />
    <glyph glyph-name="Eogonek" unicode="&#x118;" horiz-adv-x="541" 
d="M154 329l-59 -277h332l-11 -52h-387l149 700h387l-11 -52h-332l-57 -268h332l-11 -51h-332zM361 0h55c-35 -21 -105 -55 -105 -106c0 -23 13 -32 32 -32c15 0 31 5 46 12l-11 -50c-16 -9 -34 -13 -50 -13c-47 0 -73 32 -73 71c0 61 47 95 106 118z" />
    <glyph glyph-name="Edotaccent" unicode="&#x116;" horiz-adv-x="541" 
d="M154 329l-59 -277h332l-11 -52h-387l149 700h387l-11 -52h-332l-57 -268h332l-11 -51h-332zM430 843l-19 -87h-55l19 87h55z" />
    <glyph glyph-name="Gbreve" unicode="&#x11e;" horiz-adv-x="566" 
d="M555 500h-54c1 9 1 14 1 21c0 91 -66 137 -143 137c-89 0 -165 -51 -192 -176c-56 -263 -60 -268 -60 -303c0 -91 66 -137 143 -137c89 0 165 51 192 176c7 35 12 64 19 91h-165l11 51h220l-30 -142c-31 -143 -106 -228 -254 -228c-103 0 -191 69 -191 182
c0 37 4 46 60 310c29 141 106 228 254 228c103 0 191 -69 191 -182c0 -12 -1 -21 -2 -28zM368 796h55c31 0 69 29 74 58h56c-13 -60 -71 -109 -132 -109h-64c-52 0 -89 37 -89 86c0 7 1 15 3 23h48c-1 -3 -1 -7 -1 -12c0 -27 19 -46 50 -46z" />
    <glyph glyph-name="Gcircumflex" unicode="&#x11c;" horiz-adv-x="566" 
d="M555 500h-54c1 9 1 14 1 21c0 91 -66 137 -143 137c-89 0 -165 -51 -192 -176c-56 -263 -60 -268 -60 -303c0 -91 66 -137 143 -137c89 0 165 51 192 176c7 35 12 64 19 91h-165l11 51h220l-30 -142c-31 -143 -106 -228 -254 -228c-103 0 -191 69 -191 182
c0 37 4 46 60 310c29 141 106 228 254 228c103 0 191 -69 191 -182c0 -12 -1 -21 -2 -28zM437 854l102 -109h-67l-66 63l-92 -63h-77l148 109h52z" />
    <glyph glyph-name="uni0122" unicode="&#x122;" horiz-adv-x="566" 
d="M555 500h-54c1 9 1 14 1 21c0 91 -66 137 -143 137c-89 0 -165 -51 -192 -176c-56 -263 -60 -268 -60 -303c0 -91 66 -137 143 -137c89 0 165 51 192 176c7 35 12 64 19 91h-165l11 51h220l-30 -142c-31 -143 -106 -228 -254 -228c-103 0 -191 69 -191 182
c0 37 4 46 60 310c29 141 106 228 254 228c103 0 191 -69 191 -182c0 -12 -1 -21 -2 -28zM167 -124l15 74h74l-15 -74l-37 -74h-49l37 74h-25z" />
    <glyph glyph-name="Gdotaccent" unicode="&#x120;" horiz-adv-x="566" 
d="M555 500h-54c1 9 1 14 1 21c0 91 -66 137 -143 137c-89 0 -165 -51 -192 -176c-56 -263 -60 -268 -60 -303c0 -91 66 -137 143 -137c89 0 165 51 192 176c7 35 12 64 19 91h-165l11 51h220l-30 -142c-31 -143 -106 -228 -254 -228c-103 0 -191 69 -191 182
c0 37 4 46 60 310c29 141 106 228 254 228c103 0 191 -69 191 -182c0 -12 -1 -21 -2 -28zM438 843l-19 -87h-55l19 87h55z" />
    <glyph glyph-name="Hbar" unicode="&#x126;" horiz-adv-x="612" 
d="M234 700l-29 -137h332l29 137h55l-149 -700h-55l70 329h-332l-70 -329h-55l149 700h55zM498 380l29 138h-332l-29 -138h332z" />
    <glyph glyph-name="Hcircumflex" unicode="&#x124;" horiz-adv-x="612" 
d="M498 380l68 320h55l-149 -700h-55l70 329h-332l-70 -329h-55l149 700h55l-68 -320h332zM458 854l102 -109h-67l-66 63l-92 -63h-77l148 109h52z" />
    <glyph glyph-name="Ibreve" unicode="&#x12c;" horiz-adv-x="225" 
d="M234 700l-149 -700h-55l149 700h55zM195 796h55c31 0 69 29 74 58h56c-13 -60 -71 -109 -132 -109h-64c-52 0 -89 37 -89 86c0 7 1 15 3 23h48c-1 -3 -1 -7 -1 -12c0 -27 19 -46 50 -46z" />
    <glyph glyph-name="Idot" unicode="&#x130;" horiz-adv-x="225" 
d="M234 700l-149 -700h-55l149 700h55zM265 843l-19 -87h-55l19 87h55z" />
    <glyph glyph-name="Imacron" unicode="&#x12a;" horiz-adv-x="225" 
d="M234 700l-149 -700h-55l149 700h55zM368 774h-289l9 47h289z" />
    <glyph glyph-name="Iogonek" unicode="&#x12e;" horiz-adv-x="225" 
d="M234 700l-149 -700h-55l149 700h55zM31 0h55c-35 -21 -105 -55 -105 -106c0 -23 13 -32 32 -32c15 0 31 5 46 12l-11 -50c-16 -9 -34 -13 -50 -13c-47 0 -73 32 -73 71c0 61 47 95 106 118z" />
    <glyph glyph-name="Itilde" unicode="&#x128;" horiz-adv-x="225" 
d="M234 700l-149 -700h-55l149 700h55zM177 845c15 0 29 -3 45 -12l33 -17c11 -5 20 -10 29 -10c18 0 33 12 44 37h56c-24 -77 -69 -88 -102 -88c-15 0 -29 3 -45 12l-33 17c-11 5 -20 10 -29 10c-18 0 -33 -12 -44 -37h-56c24 77 69 88 102 88z" />
    <glyph glyph-name="uni1ECA" unicode="&#x1eca;" horiz-adv-x="225" 
d="M234 700l-149 -700h-55l149 700h55zM75 -49l-19 -87h-55l19 87h55z" />
    <glyph glyph-name="Jcircumflex" unicode="&#x134;" horiz-adv-x="467" 
d="M319 177l111 523h55l-111 -523c-24 -116 -75 -187 -206 -187c-93 0 -168 71 -168 156c0 12 1 29 8 54h54c-7 -23 -7 -36 -7 -44c0 -63 46 -114 126 -114c84 0 122 60 138 135zM515 854l102 -109h-67l-66 63l-92 -63h-77l148 109h52z" />
    <glyph glyph-name="uni0136" unicode="&#x136;" horiz-adv-x="597" 
d="M129 206l-44 -206h-55l149 700h55l-86 -406l432 406h74l-308 -289l185 -411h-58l-168 372zM203 -124l15 74h74l-15 -74l-37 -74h-49l37 74h-25z" />
    <glyph glyph-name="Lacute" unicode="&#x139;" horiz-adv-x="493" 
d="M234 700l-137 -648h332l-12 -52h-387l149 700h55zM254 854h86l-128 -109h-58z" />
    <glyph glyph-name="Lcaron" unicode="&#x13d;" horiz-adv-x="493" 
d="M473 700l-89 -158h-51l61 158h79zM234 700l-137 -648h332l-12 -52h-387l149 700h55z" />
    <glyph glyph-name="uni013B" unicode="&#x13b;" horiz-adv-x="493" 
d="M234 700l-137 -648h332l-12 -52h-387l149 700h55zM161 -124l15 74h74l-15 -74l-37 -74h-49l37 74h-25z" />
    <glyph glyph-name="Ldot" unicode="&#x13f;" horiz-adv-x="493" 
d="M234 700l-137 -648h332l-12 -52h-387l149 700h55zM412 422l-19 -87h-55l19 87h55z" />
    <glyph glyph-name="Lslash" unicode="&#x141;" horiz-adv-x="504" 
d="M245 700l-73 -344l186 92l-13 -56l-185 -92l-52 -248h332l-12 -52h-387l57 270l-78 -39l13 56l77 38l80 375h55z" />
    <glyph glyph-name="Eng" unicode="&#x14a;" horiz-adv-x="612" 
d="M417 0l-204 605l-128 -605h-55l149 700h55l204 -605l128 605h55l-149 -700c-24 -115 -75 -184 -205 -184h-54l11 52h56c80 0 121 60 137 132z" />
    <glyph glyph-name="Nacute" unicode="&#x143;" horiz-adv-x="612" 
d="M621 700l-149 -700h-55l-204 605l-128 -605h-55l149 700h55l204 -605l128 605h55zM447 854h86l-128 -109h-58z" />
    <glyph glyph-name="Ncaron" unicode="&#x147;" horiz-adv-x="612" 
d="M621 700l-149 -700h-55l-204 605l-128 -605h-55l149 700h55l204 -605l128 605h55zM383 745l-102 109h67l66 -63l92 63h77l-148 -109h-52z" />
    <glyph glyph-name="uni0145" unicode="&#x145;" horiz-adv-x="612" 
d="M621 700l-149 -700h-55l-204 605l-128 -605h-55l149 700h55l204 -605l128 605h55zM189 -124l15 74h74l-15 -74l-37 -74h-49l37 74h-25z" />
    <glyph glyph-name="OE" unicode="&#x152;" horiz-adv-x="908" 
d="M243 -10c-103 0 -191 69 -191 182c0 37 4 46 60 310c29 141 106 228 254 228c93 0 144 -56 160 -99l19 89h387l-11 -52h-332l-57 -268h332l-11 -51h-332l-59 -277h332l-11 -52h-387l13 59c-40 -51 -102 -69 -166 -69zM167 482c-56 -263 -60 -268 -60 -303
c0 -91 66 -137 143 -137c89 0 165 51 192 176c56 263 60 268 60 303c0 91 -66 137 -143 137c-89 0 -165 -51 -192 -176z" />
    <glyph glyph-name="Obreve" unicode="&#x14e;" horiz-adv-x="569" 
d="M497 218c-31 -143 -106 -228 -254 -228c-103 0 -191 69 -191 182c0 37 4 46 60 310c29 141 106 228 254 228c103 0 191 -69 191 -182c0 -37 -4 -46 -60 -310zM167 482c-56 -263 -60 -268 -60 -303c0 -91 66 -137 143 -137c89 0 165 51 192 176c56 263 60 268 60 303
c0 91 -66 137 -143 137c-89 0 -165 -51 -192 -176zM368 796h55c31 0 69 29 74 58h56c-13 -60 -71 -109 -132 -109h-64c-52 0 -89 37 -89 86c0 7 1 15 3 23h48c-1 -3 -1 -7 -1 -12c0 -27 19 -46 50 -46z" />
    <glyph glyph-name="Ohungarumlaut" unicode="&#x150;" horiz-adv-x="569" 
d="M497 218c-31 -143 -106 -228 -254 -228c-103 0 -191 69 -191 182c0 37 4 46 60 310c29 141 106 228 254 228c103 0 191 -69 191 -182c0 -37 -4 -46 -60 -310zM167 482c-56 -263 -60 -268 -60 -303c0 -91 66 -137 143 -137c89 0 165 51 192 176c56 263 60 268 60 303
c0 91 -66 137 -143 137c-89 0 -165 -51 -192 -176zM365 854h81l-118 -109h-53zM529 854h81l-118 -109h-53z" />
    <glyph glyph-name="Omacron" unicode="&#x14c;" horiz-adv-x="569" 
d="M497 218c-31 -143 -106 -228 -254 -228c-103 0 -191 69 -191 182c0 37 4 46 60 310c29 141 106 228 254 228c103 0 191 -69 191 -182c0 -37 -4 -46 -60 -310zM167 482c-56 -263 -60 -268 -60 -303c0 -91 66 -137 143 -137c89 0 165 51 192 176c56 263 60 268 60 303
c0 91 -66 137 -143 137c-89 0 -165 -51 -192 -176zM539 774h-289l9 47h289z" />
    <glyph glyph-name="uni1ECC" unicode="&#x1ecc;" horiz-adv-x="569" 
d="M497 218c-31 -143 -106 -228 -254 -228c-103 0 -191 69 -191 182c0 37 4 46 60 310c29 141 106 228 254 228c103 0 191 -69 191 -182c0 -37 -4 -46 -60 -310zM167 482c-56 -263 -60 -268 -60 -303c0 -91 66 -137 143 -137c89 0 165 51 192 176c56 263 60 268 60 303
c0 91 -66 137 -143 137c-89 0 -165 -51 -192 -176zM247 -49l-19 -87h-55l19 87h55z" />
    <glyph glyph-name="Racute" unicode="&#x154;" horiz-adv-x="572" 
d="M302 329h-147l-70 -329h-55l149 700h226c104 0 168 -68 168 -156c0 -132 -97 -207 -214 -215l124 -329h-58zM166 380h183c96 3 169 66 169 158c0 68 -45 110 -125 110h-170zM407 854h86l-128 -109h-58z" />
    <glyph glyph-name="Rcaron" unicode="&#x158;" horiz-adv-x="572" 
d="M302 329h-147l-70 -329h-55l149 700h226c104 0 168 -68 168 -156c0 -132 -97 -207 -214 -215l124 -329h-58zM166 380h183c96 3 169 66 169 158c0 68 -45 110 -125 110h-170zM348 745l-102 109h67l66 -63l92 63h77l-148 -109h-52z" />
    <glyph glyph-name="uni0156" unicode="&#x156;" horiz-adv-x="572" 
d="M302 329h-147l-70 -329h-55l149 700h226c104 0 168 -68 168 -156c0 -132 -97 -207 -214 -215l124 -329h-58zM166 380h183c96 3 169 66 169 158c0 68 -45 110 -125 110h-170zM180 -124l15 74h74l-15 -74l-37 -74h-49l37 74h-25z" />
    <glyph glyph-name="Sacute" unicode="&#x15a;" horiz-adv-x="515" 
d="M501 523h-55v4c0 85 -66 131 -133 131c-97 0 -156 -55 -156 -138c0 -56 20 -103 81 -126l104 -39c72 -27 111 -89 111 -161c0 -109 -67 -204 -219 -204c-104 0 -208 61 -208 190c0 7 0 13 1 20h55c-1 -7 -1 -10 -1 -17c0 -107 85 -141 162 -141c84 0 155 50 155 146
c0 47 -23 96 -78 116l-104 39c-83 32 -114 99 -114 168c0 130 87 199 214 199c103 0 186 -76 186 -176c0 -5 0 -3 -1 -11zM390 854h86l-128 -109h-58z" />
    <glyph glyph-name="Scaron" unicode="&#x160;" horiz-adv-x="515" 
d="M501 523h-55v4c0 85 -66 131 -133 131c-97 0 -156 -55 -156 -138c0 -56 20 -103 81 -126l104 -39c72 -27 111 -89 111 -161c0 -109 -67 -204 -219 -204c-104 0 -208 61 -208 190c0 7 0 13 1 20h55c-1 -7 -1 -10 -1 -17c0 -107 85 -141 162 -141c84 0 155 50 155 146
c0 47 -23 96 -78 116l-104 39c-83 32 -114 99 -114 168c0 130 87 199 214 199c103 0 186 -76 186 -176c0 -5 0 -3 -1 -11zM326 745l-102 109h67l66 -63l92 63h77l-148 -109h-52z" />
    <glyph glyph-name="Scedilla" unicode="&#x15e;" horiz-adv-x="515" 
d="M501 523h-55v4c0 85 -66 131 -133 131c-97 0 -156 -55 -156 -138c0 -56 20 -103 81 -126l104 -39c72 -27 111 -89 111 -161c0 -109 -67 -204 -219 -204c-104 0 -208 61 -208 190c0 7 0 13 1 20h55c-1 -7 -1 -10 -1 -17c0 -107 85 -141 162 -141c84 0 155 50 155 146
c0 47 -23 96 -78 116l-104 39c-83 32 -114 99 -114 168c0 130 87 199 214 199c103 0 186 -76 186 -176c0 -5 0 -3 -1 -11zM161 -158l53 158h56l-38 -158h-71z" />
    <glyph glyph-name="Scircumflex" unicode="&#x15c;" horiz-adv-x="515" 
d="M501 523h-55v4c0 85 -66 131 -133 131c-97 0 -156 -55 -156 -138c0 -56 20 -103 81 -126l104 -39c72 -27 111 -89 111 -161c0 -109 -67 -204 -219 -204c-104 0 -208 61 -208 190c0 7 0 13 1 20h55c-1 -7 -1 -10 -1 -17c0 -107 85 -141 162 -141c84 0 155 50 155 146
c0 47 -23 96 -78 116l-104 39c-83 32 -114 99 -114 168c0 130 87 199 214 199c103 0 186 -76 186 -176c0 -5 0 -3 -1 -11zM401 854l102 -109h-67l-66 63l-92 -63h-77l148 109h52z" />
    <glyph glyph-name="uni0218" unicode="&#x218;" horiz-adv-x="515" 
d="M501 523h-55v4c0 85 -66 131 -133 131c-97 0 -156 -55 -156 -138c0 -56 20 -103 81 -126l104 -39c72 -27 111 -89 111 -161c0 -109 -67 -204 -219 -204c-104 0 -208 61 -208 190c0 7 0 13 1 20h55c-1 -7 -1 -10 -1 -17c0 -107 85 -141 162 -141c84 0 155 50 155 146
c0 47 -23 96 -78 116l-104 39c-83 32 -114 99 -114 168c0 130 87 199 214 199c103 0 186 -76 186 -176c0 -5 0 -3 -1 -11zM150 -124l15 74h74l-15 -74l-37 -74h-49l37 74h-25z" />
    <glyph glyph-name="Tbar" unicode="&#x166;" horiz-adv-x="481" 
d="M351 648l-59 -275h124l-9 -45h-124l-70 -328h-55l70 328h-124l9 45h124l59 275h-194l11 52h443l-11 -52h-194z" />
    <glyph glyph-name="Tcaron" unicode="&#x164;" horiz-adv-x="481" 
d="M351 648l-138 -648h-55l138 648h-194l11 52h443l-11 -52h-194zM317 745l-102 109h67l66 -63l92 63h77l-148 -109h-52z" />
    <glyph glyph-name="uni0162" unicode="&#x162;" horiz-adv-x="481" 
d="M351 648l-138 -648h-55l138 648h-194l11 52h443l-11 -52h-194zM123 -124l15 74h74l-15 -74l-37 -74h-49l37 74h-25z" />
    <glyph glyph-name="uni021A" unicode="&#x21a;" horiz-adv-x="481" 
d="M351 648l-138 -648h-55l138 648h-194l11 52h443l-11 -52h-194zM123 -124l15 74h74l-15 -74l-37 -74h-49l37 74h-25z" />
    <glyph glyph-name="Ubreve" unicode="&#x16c;" horiz-adv-x="594" 
d="M119 179c0 -91 66 -137 143 -137c88 0 165 51 192 176l103 482h55l-103 -482c-31 -143 -106 -228 -254 -228c-103 0 -192 69 -192 182c0 38 4 44 108 528h55c-104 -481 -107 -486 -107 -521zM380 796h55c31 0 69 29 74 58h56c-13 -60 -71 -109 -132 -109h-64
c-52 0 -89 37 -89 86c0 7 1 15 3 23h48c-1 -3 -1 -7 -1 -12c0 -27 19 -46 50 -46z" />
    <glyph glyph-name="Uhungarumlaut" unicode="&#x170;" horiz-adv-x="594" 
d="M119 179c0 -91 66 -137 143 -137c88 0 165 51 192 176l103 482h55l-103 -482c-31 -143 -106 -228 -254 -228c-103 0 -192 69 -192 182c0 38 4 44 108 528h55c-104 -481 -107 -486 -107 -521zM363 854h81l-118 -109h-53zM527 854h81l-118 -109h-53z" />
    <glyph glyph-name="Umacron" unicode="&#x16a;" horiz-adv-x="594" 
d="M119 179c0 -91 66 -137 143 -137c88 0 165 51 192 176l103 482h55l-103 -482c-31 -143 -106 -228 -254 -228c-103 0 -192 69 -192 182c0 38 4 44 108 528h55c-104 -481 -107 -486 -107 -521zM552 774h-289l9 47h289z" />
    <glyph glyph-name="Uogonek" unicode="&#x172;" horiz-adv-x="594" 
d="M119 179c0 -91 66 -137 143 -137c88 0 165 51 192 176l103 482h55l-103 -482c-20 -93 -57 -160 -126 -199c-37 -21 -136 -61 -136 -125c0 -23 13 -32 32 -32c15 0 31 5 46 12l-11 -50c-16 -9 -34 -13 -50 -13c-47 0 -73 32 -73 71c0 53 36 86 83 109c-7 -1 -12 -1 -19 -1
c-103 0 -192 69 -192 182c0 38 4 44 108 528h55c-104 -481 -107 -486 -107 -521z" />
    <glyph glyph-name="Uring" unicode="&#x16e;" horiz-adv-x="594" 
d="M119 179c0 -91 66 -137 143 -137c88 0 165 51 192 176l103 482h55l-103 -482c-31 -143 -106 -228 -254 -228c-103 0 -192 69 -192 182c0 38 4 44 108 528h55c-104 -481 -107 -486 -107 -521zM329 799c0 41 33 75 74 75s75 -34 75 -75s-34 -74 -75 -74s-74 33 -74 74z
M374 799c0 -16 13 -29 29 -29s30 13 30 29s-14 30 -30 30s-29 -14 -29 -30z" />
    <glyph glyph-name="Utilde" unicode="&#x168;" horiz-adv-x="594" 
d="M119 179c0 -91 66 -137 143 -137c88 0 165 51 192 176l103 482h55l-103 -482c-31 -143 -106 -228 -254 -228c-103 0 -192 69 -192 182c0 38 4 44 108 528h55c-104 -481 -107 -486 -107 -521zM361 845c15 0 29 -3 45 -12l33 -17c11 -5 20 -10 29 -10c18 0 33 12 44 37h56
c-24 -77 -69 -88 -102 -88c-15 0 -29 3 -45 12l-33 17c-11 5 -20 10 -29 10c-18 0 -33 -12 -44 -37h-56c24 77 69 88 102 88z" />
    <glyph glyph-name="uni1EE4" unicode="&#x1ee4;" horiz-adv-x="594" 
d="M119 179c0 -91 66 -137 143 -137c88 0 165 51 192 176l103 482h55l-103 -482c-31 -143 -106 -228 -254 -228c-103 0 -192 69 -192 182c0 38 4 44 108 528h55c-104 -481 -107 -486 -107 -521zM259 -49l-19 -87h-55l19 87h55z" />
    <glyph glyph-name="Wacute" unicode="&#x1e82;" horiz-adv-x="715" 
d="M447 0l-36 509l-252 -509h-53l20 700h53l-17 -579l237 479h57l33 -485l232 585h57l-278 -700h-53zM499 854h86l-128 -109h-58z" />
    <glyph glyph-name="Wcircumflex" unicode="&#x174;" horiz-adv-x="715" 
d="M447 0l-36 509l-252 -509h-53l20 700h53l-17 -579l237 479h57l33 -485l232 585h57l-278 -700h-53zM510 854l102 -109h-67l-66 63l-92 -63h-77l148 109h52z" />
    <glyph glyph-name="Wdieresis" unicode="&#x1e84;" horiz-adv-x="715" 
d="M447 0l-36 509l-252 -509h-53l20 700h53l-17 -579l237 479h57l33 -485l232 585h57l-278 -700h-53zM405 843l-19 -87h-55l19 87h55zM616 843l-19 -87h-55l19 87h55z" />
    <glyph glyph-name="Wgrave" unicode="&#x1e80;" horiz-adv-x="715" 
d="M447 0l-36 509l-252 -509h-53l20 700h53l-17 -579l237 479h57l33 -485l232 585h57l-278 -700h-53zM348 854h81l77 -109h-53z" />
    <glyph glyph-name="Ycircumflex" unicode="&#x176;" horiz-adv-x="543" 
d="M629 700l-323 -409l-62 -291h-55l62 291l-149 409h56l129 -350l275 350h67zM423 854l102 -109h-67l-66 63l-92 -63h-77l148 109h52z" />
    <glyph glyph-name="Ydieresis" unicode="&#x178;" horiz-adv-x="543" 
d="M629 700l-323 -409l-62 -291h-55l62 291l-149 409h56l129 -350l275 350h67zM318 843l-19 -87h-55l19 87h55zM529 843l-19 -87h-55l19 87h55z" />
    <glyph glyph-name="Ygrave" unicode="&#x1ef2;" horiz-adv-x="543" 
d="M629 700l-323 -409l-62 -291h-55l62 291l-149 409h56l129 -350l275 350h67zM261 854h81l77 -109h-53z" />
    <glyph glyph-name="uni0232" unicode="&#x232;" horiz-adv-x="543" 
d="M629 700l-323 -409l-62 -291h-55l62 291l-149 409h56l129 -350l275 350h67zM526 774h-289l9 47h289z" />
    <glyph glyph-name="Zacute" unicode="&#x179;" horiz-adv-x="537" 
d="M437 0h-446l11 52l500 596h-369l11 52h437l-11 -52l-500 -596h378zM409 854h86l-128 -109h-58z" />
    <glyph glyph-name="Zcaron" unicode="&#x17d;" horiz-adv-x="537" 
d="M437 0h-446l11 52l500 596h-369l11 52h437l-11 -52l-500 -596h378zM345 745l-102 109h67l66 -63l92 63h77l-148 -109h-52z" />
    <glyph glyph-name="Zdotaccent" unicode="&#x17b;" horiz-adv-x="537" 
d="M437 0h-446l11 52l500 596h-369l11 52h437l-11 -52l-500 -596h378zM421 843l-19 -87h-55l19 87h55z" />
    <glyph glyph-name="abreve" unicode="&#x103;" horiz-adv-x="527" 
d="M134 360h-53c35 121 117 170 224 170c76 0 168 -44 168 -156c0 -30 -2 -33 -34 -187l-40 -187h-53l15 66c-32 -45 -87 -76 -167 -76c-99 0 -163 63 -163 139c0 88 44 138 125 161c68 19 167 24 258 29c7 27 7 36 7 49c0 69 -42 112 -125 112c-72 0 -135 -44 -162 -120z
M387 192l17 79c-117 -5 -201 -15 -244 -30c-53 -19 -76 -61 -76 -108c0 -49 36 -93 121 -93c92 0 163 61 182 152zM325 620h23c32 0 85 35 93 80h54c-16 -72 -84 -129 -156 -129h-24c-63 0 -105 44 -105 103c0 8 1 17 3 26h46c-1 -7 -2 -13 -2 -18c0 -36 24 -62 68 -62z" />
    <glyph glyph-name="amacron" unicode="&#x101;" horiz-adv-x="527" 
d="M134 360h-53c35 121 117 170 224 170c76 0 168 -44 168 -156c0 -30 -2 -33 -34 -187l-40 -187h-53l15 66c-32 -45 -87 -76 -167 -76c-99 0 -163 63 -163 139c0 88 44 138 125 161c68 19 167 24 258 29c7 27 7 36 7 49c0 69 -42 112 -125 112c-72 0 -135 -44 -162 -120z
M387 192l17 79c-117 -5 -201 -15 -244 -30c-53 -19 -76 -61 -76 -108c0 -49 36 -93 121 -93c92 0 163 61 182 152zM481 613h-289l9 45h289z" />
    <glyph glyph-name="aogonek" unicode="&#x105;" horiz-adv-x="527" 
d="M134 360h-53c35 121 117 170 224 170c76 0 168 -44 168 -156c0 -30 -2 -33 -34 -187l-40 -187h-53l15 66c-32 -45 -87 -76 -167 -76c-99 0 -163 63 -163 139c0 88 44 138 125 161c68 19 167 24 258 29c7 27 7 36 7 49c0 69 -42 112 -125 112c-72 0 -135 -44 -162 -120z
M387 192l17 79c-117 -5 -201 -15 -244 -30c-53 -19 -76 -61 -76 -108c0 -49 36 -93 121 -93c92 0 163 61 182 152zM346 0h53c-38 -22 -105 -61 -105 -106c0 -23 16 -34 36 -34c13 0 28 5 41 12l-10 -48c-16 -9 -34 -13 -50 -13c-47 0 -72 34 -72 73c0 56 50 96 107 116z" />
    <glyph glyph-name="cacute" unicode="&#x107;" horiz-adv-x="516" 
d="M481 374v-14h-52v8c0 69 -42 112 -125 112c-80 0 -149 -54 -169 -147c-32 -150 -35 -157 -35 -181c0 -69 42 -112 125 -112c72 0 135 44 162 120h53c-35 -121 -117 -170 -224 -170c-76 0 -168 44 -168 156c0 30 2 33 34 187c29 140 116 197 231 197
c76 0 168 -44 168 -156zM359 700h84l-118 -129h-51z" />
    <glyph glyph-name="ccaron" unicode="&#x10d;" horiz-adv-x="516" 
d="M481 374v-14h-52v8c0 69 -42 112 -125 112c-80 0 -149 -54 -169 -147c-32 -150 -35 -157 -35 -181c0 -69 42 -112 125 -112c72 0 135 44 162 120h53c-35 -121 -117 -170 -224 -170c-76 0 -168 44 -168 156c0 30 2 33 34 187c29 140 116 197 231 197
c76 0 168 -44 168 -156zM265 700l70 -83l104 83h69l-152 -129h-52l-98 129h59z" />
    <glyph glyph-name="ccircumflex" unicode="&#x109;" horiz-adv-x="516" 
d="M481 374v-14h-52v8c0 69 -42 112 -125 112c-80 0 -149 -54 -169 -147c-32 -150 -35 -157 -35 -181c0 -69 42 -112 125 -112c72 0 135 44 162 120h53c-35 -121 -117 -170 -224 -170c-76 0 -168 44 -168 156c0 30 2 33 34 187c29 140 116 197 231 197
c76 0 168 -44 168 -156zM422 571l-70 83l-104 -83h-69l152 129h52l98 -129h-59z" />
    <glyph glyph-name="cdotaccent" unicode="&#x10b;" horiz-adv-x="516" 
d="M481 374v-14h-52v8c0 69 -42 112 -125 112c-80 0 -149 -54 -169 -147c-32 -150 -35 -157 -35 -181c0 -69 42 -112 125 -112c72 0 135 44 162 120h53c-35 -121 -117 -170 -224 -170c-76 0 -168 44 -168 156c0 30 2 33 34 187c29 140 116 197 231 197
c76 0 168 -44 168 -156zM380 679l-19 -87h-53l19 87h53z" />
    <glyph glyph-name="dcaron" unicode="&#x10f;" horiz-adv-x="542" 
d="M692 700l-94 -158h-46l61 158h79zM225 40c80 0 149 54 169 147c32 150 35 157 35 181c0 69 -42 112 -125 112c-80 0 -149 -54 -169 -147c-32 -150 -35 -157 -35 -181c0 -69 42 -112 125 -112zM354 0l14 63c-27 -40 -79 -73 -152 -73c-76 0 -168 44 -168 156
c0 30 2 33 34 187c29 140 116 197 231 197c77 0 123 -47 137 -83l53 253h53l-149 -700h-53z" />
    <glyph glyph-name="dslash" unicode="&#x111;" horiz-adv-x="542" 
d="M354 0l14 63c-27 -40 -79 -73 -152 -73c-76 0 -168 44 -168 156c0 30 2 33 34 187c29 140 116 197 231 197c77 0 123 -47 137 -83l30 144h-146l9 43h146l14 66h53l-14 -66h69l-9 -43h-69l-126 -591h-53zM225 40c80 0 149 54 169 147c32 150 35 157 35 181
c0 69 -42 112 -125 112c-80 0 -149 -54 -169 -147c-32 -150 -35 -157 -35 -181c0 -69 42 -112 125 -112z" />
    <glyph glyph-name="ebreve" unicode="&#x115;" horiz-adv-x="523" 
d="M461 253h-343c-16 -72 -18 -82 -18 -101c0 -69 42 -112 125 -112c72 0 134 44 161 120h54c-35 -121 -117 -170 -224 -170c-76 0 -168 44 -168 156c0 30 2 33 34 187c29 140 116 197 231 197c76 0 168 -44 168 -156c0 -24 -1 -31 -20 -121zM129 303h290c8 41 10 49 10 65
c0 69 -42 112 -125 112c-93 0 -162 -68 -175 -177zM329 620h23c32 0 85 35 93 80h54c-16 -72 -84 -129 -156 -129h-24c-63 0 -105 44 -105 103c0 8 1 17 3 26h46c-1 -7 -2 -13 -2 -18c0 -36 24 -62 68 -62z" />
    <glyph glyph-name="ecaron" unicode="&#x11b;" horiz-adv-x="523" 
d="M461 253h-343c-16 -72 -18 -82 -18 -101c0 -69 42 -112 125 -112c72 0 134 44 161 120h54c-35 -121 -117 -170 -224 -170c-76 0 -168 44 -168 156c0 30 2 33 34 187c29 140 116 197 231 197c76 0 168 -44 168 -156c0 -24 -1 -31 -20 -121zM129 303h290c8 41 10 49 10 65
c0 69 -42 112 -125 112c-93 0 -162 -68 -175 -177zM266 700l70 -83l104 83h69l-152 -129h-52l-98 129h59z" />
    <glyph glyph-name="emacron" unicode="&#x113;" horiz-adv-x="523" 
d="M461 253h-343c-16 -72 -18 -82 -18 -101c0 -69 42 -112 125 -112c72 0 134 44 161 120h54c-35 -121 -117 -170 -224 -170c-76 0 -168 44 -168 156c0 30 2 33 34 187c29 140 116 197 231 197c76 0 168 -44 168 -156c0 -24 -1 -31 -20 -121zM129 303h290c8 41 10 49 10 65
c0 69 -42 112 -125 112c-93 0 -162 -68 -175 -177zM485 613h-289l9 45h289z" />
    <glyph glyph-name="eogonek" unicode="&#x119;" horiz-adv-x="523" 
d="M336 18c-37 -21 -134 -68 -134 -124c0 -23 16 -34 36 -34c13 0 28 5 41 12l-10 -48c-16 -9 -34 -13 -50 -13c-47 0 -72 34 -72 73c0 49 37 84 84 107c-9 -1 -12 -1 -15 -1c-76 0 -168 44 -168 156c0 30 2 33 34 187c29 140 116 197 231 197c76 0 168 -44 168 -156
c0 -24 -1 -31 -20 -121h-343c-16 -72 -18 -82 -18 -101c0 -69 42 -112 125 -112c72 0 134 44 161 120h54c-21 -71 -55 -114 -104 -142zM129 303h290c8 41 10 49 10 65c0 69 -42 112 -125 112c-93 0 -162 -68 -175 -177z" />
    <glyph glyph-name="edotaccent" unicode="&#x117;" horiz-adv-x="523" 
d="M461 253h-343c-16 -72 -18 -82 -18 -101c0 -69 42 -112 125 -112c72 0 134 44 161 120h54c-35 -121 -117 -170 -224 -170c-76 0 -168 44 -168 156c0 30 2 33 34 187c29 140 116 197 231 197c76 0 168 -44 168 -156c0 -24 -1 -31 -20 -121zM129 303h290c8 41 10 49 10 65
c0 69 -42 112 -125 112c-93 0 -162 -68 -175 -177zM381 679l-19 -87h-53l19 87h53z" />
    <glyph glyph-name="gbreve" unicode="&#x11f;" horiz-adv-x="541" 
d="M60 -24v-8c0 -69 42 -112 125 -112c80 0 149 54 169 147l16 74c-27 -40 -79 -73 -152 -73c-76 0 -168 44 -168 156c0 27 7 55 31 173c29 140 116 197 231 197c77 0 123 -47 137 -83l14 69h53l-109 -513c-31 -140 -116 -197 -231 -197c-76 0 -168 44 -168 156v14h52z
M227 54c80 0 146 54 169 147c27 113 32 153 32 167c0 69 -42 112 -125 112c-80 0 -149 -54 -169 -147c-21 -101 -32 -143 -32 -167c0 -69 42 -112 125 -112zM329 620h23c32 0 85 35 93 80h54c-16 -72 -84 -129 -156 -129h-24c-63 0 -105 44 -105 103c0 8 1 17 3 26h46
c-1 -7 -2 -13 -2 -18c0 -36 24 -62 68 -62z" />
    <glyph glyph-name="gcircumflex" unicode="&#x11d;" horiz-adv-x="541" 
d="M60 -24v-8c0 -69 42 -112 125 -112c80 0 149 54 169 147l16 74c-27 -40 -79 -73 -152 -73c-76 0 -168 44 -168 156c0 27 7 55 31 173c29 140 116 197 231 197c77 0 123 -47 137 -83l14 69h53l-109 -513c-31 -140 -116 -197 -231 -197c-76 0 -168 44 -168 156v14h52z
M227 54c80 0 146 54 169 147c27 113 32 153 32 167c0 69 -42 112 -125 112c-80 0 -149 -54 -169 -147c-21 -101 -32 -143 -32 -167c0 -69 42 -112 125 -112zM422 571l-70 83l-104 -83h-69l152 129h52l98 -129h-59z" />
    <glyph glyph-name="uni0123" unicode="&#x123;" horiz-adv-x="541" 
d="M60 -24v-8c0 -69 42 -112 125 -112c80 0 149 54 169 147l16 74c-27 -40 -79 -73 -152 -73c-76 0 -168 44 -168 156c0 27 7 55 31 173c29 140 116 197 231 197c77 0 123 -47 137 -83l14 69h53l-109 -513c-31 -140 -116 -197 -231 -197c-76 0 -168 44 -168 156v14h52z
M227 54c80 0 146 54 169 147c27 113 32 153 32 167c0 69 -42 112 -125 112c-80 0 -149 -54 -169 -147c-21 -101 -32 -143 -32 -167c0 -69 42 -112 125 -112zM382 645l-15 -74h-74l15 74l37 74h49l-37 -74h25z" />
    <glyph glyph-name="gdotaccent" unicode="&#x121;" horiz-adv-x="541" 
d="M60 -24v-8c0 -69 42 -112 125 -112c80 0 149 54 169 147l16 74c-27 -40 -79 -73 -152 -73c-76 0 -168 44 -168 156c0 27 7 55 31 173c29 140 116 197 231 197c77 0 123 -47 137 -83l14 69h53l-109 -513c-31 -140 -116 -197 -231 -197c-76 0 -168 44 -168 156v14h52z
M227 54c80 0 146 54 169 147c27 113 32 153 32 167c0 69 -42 112 -125 112c-80 0 -149 -54 -169 -147c-21 -101 -32 -143 -32 -167c0 -69 42 -112 125 -112zM380 679l-19 -87h-53l19 87h53z" />
    <glyph glyph-name="hbar" unicode="&#x127;" horiz-adv-x="549" 
d="M327 530c76 0 168 -44 168 -156c0 -30 -2 -33 -34 -187l-40 -187h-53l40 187c32 150 35 157 35 181c0 69 -42 112 -125 112c-80 0 -149 -54 -169 -147l-71 -333h-53l126 591h-70l9 43h70l14 66h53l-14 -66h145l-9 -43h-146l-28 -134c27 40 79 73 152 73z" />
    <glyph glyph-name="hcircumflex" unicode="&#x125;" horiz-adv-x="549" 
d="M327 530c76 0 168 -44 168 -156c0 -30 -2 -33 -34 -187l-40 -187h-53l40 187c32 150 35 157 35 181c0 69 -42 112 -125 112c-80 0 -149 -54 -169 -147l-71 -333h-53l149 700h53l-52 -243c27 40 79 73 152 73zM474 745l-70 83l-104 -83h-69l152 129h52l98 -129h-59z" />
    <glyph glyph-name="dotlessi" unicode="&#x131;" horiz-adv-x="213" 
d="M135 516h53l-109 -516h-53z" />
    <glyph glyph-name="ibreve" unicode="&#x12d;" horiz-adv-x="213" 
d="M135 516h53l-109 -516h-53zM172 620h23c32 0 85 35 93 80h54c-16 -72 -84 -129 -156 -129h-24c-63 0 -105 44 -105 103c0 8 1 17 3 26h46c-1 -7 -2 -13 -2 -18c0 -36 24 -62 68 -62z" />
    <glyph glyph-name="imacron" unicode="&#x12b;" horiz-adv-x="213" 
d="M135 516h53l-109 -516h-53zM328 613h-289l9 45h289z" />
    <glyph glyph-name="iogonek" unicode="&#x12f;" horiz-adv-x="213" 
d="M135 516h53l-110 -516h-53zM227 700l-19 -87h-53l19 87h53zM26 0h53c-38 -22 -105 -61 -105 -106c0 -23 16 -34 36 -34c13 0 28 5 41 12l-10 -48c-16 -9 -34 -13 -50 -13c-47 0 -72 34 -72 73c0 56 50 96 107 116z" />
    <glyph glyph-name="itilde" unicode="&#x129;" horiz-adv-x="213" 
d="M135 516h53l-109 -516h-53zM293 679h49c-24 -77 -69 -88 -102 -88c-15 0 -29 3 -45 12l-33 19c-7 4 -18 10 -33 10s-32 -8 -47 -39h-49c24 77 69 88 102 88c15 0 29 -3 45 -12l33 -19c7 -4 18 -10 33 -10s32 8 47 39z" />
    <glyph glyph-name="uni1ECB" unicode="&#x1ecb;" horiz-adv-x="213" 
d="M135 516h53l-110 -516h-53zM227 700l-19 -87h-53l19 87h53zM68 -49l-19 -87h-53l19 87h53z" />
    <glyph glyph-name="uni0237" unicode="&#x237;" horiz-adv-x="213" 
d="M188 516l-127 -597c-13 -66 -28 -103 -129 -103h-9l11 51h9c43 0 57 15 65 52l127 597h53z" />
    <glyph glyph-name="jcircumflex" unicode="&#x135;" horiz-adv-x="213" 
d="M8 -81l127 597h53l-127 -597c-13 -65 -42 -103 -127 -103h-10l10 51h10c45 0 57 15 64 52zM265 571l-70 83l-104 -83h-69l152 129h52l98 -129h-59z" />
    <glyph glyph-name="uni0137" unicode="&#x137;" horiz-adv-x="489" 
d="M227 700l-95 -448l299 264h73l-231 -204l146 -312h-56l-130 277l-118 -104l-37 -173h-53l149 700h53zM146 -124l15 74h74l-15 -74l-37 -74h-49l37 74h-25z" />
    <glyph glyph-name="lacute" unicode="&#x13a;" horiz-adv-x="242" 
d="M173 700h53c-120 -560 -130 -605 -130 -622c0 -20 15 -28 36 -28h20l-11 -50h-6c-63 0 -91 29 -91 76c0 29 21 116 129 624zM238 874h84l-118 -129h-51z" />
    <glyph glyph-name="lcaron" unicode="&#x13e;" horiz-adv-x="242" 
d="M362 700l-94 -158h-46l61 158h79zM173 700h53c-120 -560 -130 -605 -130 -622c0 -20 15 -28 36 -28h20l-11 -50h-6c-63 0 -91 29 -91 76c0 29 21 116 129 624z" />
    <glyph glyph-name="uni013C" unicode="&#x13c;" horiz-adv-x="242" 
d="M173 700h53c-120 -560 -130 -605 -130 -622c0 -20 15 -28 36 -28h20l-11 -50h-6c-63 0 -91 29 -91 76c0 29 21 116 129 624zM20 -124l15 74h74l-15 -74l-37 -74h-49l37 74h-25z" />
    <glyph glyph-name="ldot" unicode="&#x140;" horiz-adv-x="264" 
d="M173 700h53c-120 -560 -130 -605 -130 -622c0 -20 15 -28 36 -28h20l-11 -50h-6c-63 0 -91 29 -91 76c0 29 21 116 129 624zM299 420l-19 -87h-53l19 87h53z" />
    <glyph glyph-name="lslash" unicode="&#x142;" horiz-adv-x="262" 
d="M183 700h53l-62 -289l71 35l-10 -53l-72 -36c-51 -237 -57 -268 -57 -279c0 -20 15 -28 36 -28h20l-11 -50h-6c-63 0 -91 29 -91 76c0 19 10 65 50 252l-71 -35l10 53l72 36z" />
    <glyph glyph-name="eng" unicode="&#x14b;" horiz-adv-x="549" 
d="M188 516l-13 -59c27 40 79 73 152 73c76 0 168 -44 168 -156c0 -30 -2 -33 -34 -187l-57 -268c-13 -66 -28 -103 -129 -103h-10l11 50h10c43 0 57 16 65 53l57 268c32 150 35 157 35 181c0 69 -42 112 -125 112c-80 0 -149 -54 -169 -147l-71 -333h-53l110 516h53z" />
    <glyph glyph-name="nacute" unicode="&#x144;" horiz-adv-x="549" 
d="M327 530c76 0 168 -44 168 -156c0 -30 -2 -33 -34 -187l-40 -187h-53l40 187c32 150 35 157 35 181c0 69 -42 112 -125 112c-80 0 -149 -54 -169 -147l-71 -333h-53l110 516h53l-13 -59c27 40 79 73 152 73zM373 700h84l-118 -129h-51z" />
    <glyph glyph-name="ncaron" unicode="&#x148;" horiz-adv-x="549" 
d="M327 530c76 0 168 -44 168 -156c0 -30 -2 -33 -34 -187l-40 -187h-53l40 187c32 150 35 157 35 181c0 69 -42 112 -125 112c-80 0 -149 -54 -169 -147l-71 -333h-53l110 516h53l-13 -59c27 40 79 73 152 73zM280 700l70 -83l104 83h69l-152 -129h-52l-98 129h59z" />
    <glyph glyph-name="uni0146" unicode="&#x146;" horiz-adv-x="549" 
d="M327 530c76 0 168 -44 168 -156c0 -30 -2 -33 -34 -187l-40 -187h-53l40 187c32 150 35 157 35 181c0 69 -42 112 -125 112c-80 0 -149 -54 -169 -147l-71 -333h-53l110 516h53l-13 -59c27 40 79 73 152 73zM161 -124l15 74h74l-15 -74l-37 -74h-49l37 74h-25z" />
    <glyph glyph-name="oe" unicode="&#x153;" horiz-adv-x="866" 
d="M559 -10c-68 0 -131 27 -156 98c-45 -65 -108 -98 -187 -98c-76 0 -168 44 -168 156c0 30 2 33 34 187c29 140 116 197 231 197c68 0 131 -27 156 -98c45 65 108 98 187 98c76 0 168 -44 168 -156c0 -24 -1 -31 -20 -121h-343c-16 -72 -18 -82 -18 -101
c0 -69 42 -112 125 -112c72 0 134 44 161 120h54c-35 -121 -117 -170 -224 -170zM135 333c-32 -150 -35 -157 -35 -181c0 -69 42 -112 125 -112c80 0 149 54 169 147c32 150 35 157 35 181c0 69 -42 112 -125 112c-80 0 -149 -54 -169 -147zM472 303h290c8 41 10 49 10 65
c0 69 -42 112 -125 112c-93 0 -162 -68 -175 -177z" />
    <glyph glyph-name="obreve" unicode="&#x14f;" horiz-adv-x="529" 
d="M135 333c-32 -150 -35 -157 -35 -181c0 -69 42 -112 125 -112c80 0 149 54 169 147c32 150 35 157 35 181c0 69 -42 112 -125 112c-80 0 -149 -54 -169 -147zM447 187c-31 -140 -116 -197 -231 -197c-76 0 -168 44 -168 156c0 30 2 33 34 187c29 140 116 197 231 197
c76 0 168 -44 168 -156c0 -30 -2 -33 -34 -187zM329 620h23c32 0 85 35 93 80h54c-16 -72 -84 -129 -156 -129h-24c-63 0 -105 44 -105 103c0 8 1 17 3 26h46c-1 -7 -2 -13 -2 -18c0 -36 24 -62 68 -62z" />
    <glyph glyph-name="ohungarumlaut" unicode="&#x151;" horiz-adv-x="529" 
d="M135 333c-32 -150 -35 -157 -35 -181c0 -69 42 -112 125 -112c80 0 149 54 169 147c32 150 35 157 35 181c0 69 -42 112 -125 112c-80 0 -149 -54 -169 -147zM447 187c-31 -140 -116 -197 -231 -197c-76 0 -168 44 -168 156c0 30 2 33 34 187c29 140 116 197 231 197
c76 0 168 -44 168 -156c0 -30 -2 -33 -34 -187zM286 700h79l-108 -129h-46zM450 700h79l-108 -129h-46z" />
    <glyph glyph-name="omacron" unicode="&#x14d;" horiz-adv-x="529" 
d="M135 333c-32 -150 -35 -157 -35 -181c0 -69 42 -112 125 -112c80 0 149 54 169 147c32 150 35 157 35 181c0 69 -42 112 -125 112c-80 0 -149 -54 -169 -147zM447 187c-31 -140 -116 -197 -231 -197c-76 0 -168 44 -168 156c0 30 2 33 34 187c29 140 116 197 231 197
c76 0 168 -44 168 -156c0 -30 -2 -33 -34 -187zM485 613h-289l9 45h289z" />
    <glyph glyph-name="uni1ECD" unicode="&#x1ecd;" horiz-adv-x="529" 
d="M135 333c-32 -150 -35 -157 -35 -181c0 -69 42 -112 125 -112c80 0 149 54 169 147c32 150 35 157 35 181c0 69 -42 112 -125 112c-80 0 -149 -54 -169 -147zM447 187c-31 -140 -116 -197 -231 -197c-76 0 -168 44 -168 156c0 30 2 33 34 187c29 140 116 197 231 197
c76 0 168 -44 168 -156c0 -30 -2 -33 -34 -187zM226 -49l-19 -87h-53l19 87h53z" />
    <glyph glyph-name="racute" unicode="&#x155;" horiz-adv-x="315" 
d="M339 475h-22c-80 0 -149 -54 -169 -147l-70 -328h-53l110 516h53l-14 -64c27 40 79 73 152 73h24zM281 700h84l-118 -129h-51z" />
    <glyph glyph-name="rcaron" unicode="&#x159;" horiz-adv-x="315" 
d="M339 475h-22c-80 0 -149 -54 -169 -147l-70 -328h-53l110 516h53l-14 -64c27 40 79 73 152 73h24zM189 700l70 -83l104 83h69l-152 -129h-52l-98 129h59z" />
    <glyph glyph-name="uni0157" unicode="&#x157;" horiz-adv-x="315" 
d="M339 475h-22c-80 0 -149 -54 -169 -147l-70 -328h-53l110 516h53l-14 -64c27 40 79 73 152 73h24zM-10 -124l15 74h74l-15 -74l-37 -74h-49l37 74h-25z" />
    <glyph glyph-name="sacute" unicode="&#x15b;" horiz-adv-x="484" 
d="M444 368h-52v8c0 72 -65 104 -130 104c-64 0 -129 -33 -129 -93c0 -48 24 -69 80 -86l93 -28c64 -19 106 -62 106 -125c0 -108 -79 -158 -199 -158c-96 0 -189 50 -189 158v13h52v-11c0 -76 66 -110 146 -110c68 0 138 32 138 101c0 47 -32 72 -75 84l-100 30
c-61 15 -104 63 -104 126c0 99 90 149 180 149c89 0 183 -48 183 -149v-13zM336 700h84l-118 -129h-51z" />
    <glyph glyph-name="scaron" unicode="&#x161;" horiz-adv-x="484" 
d="M444 368h-52v8c0 72 -65 104 -130 104c-64 0 -129 -33 -129 -93c0 -48 24 -69 80 -86l93 -28c64 -19 106 -62 106 -125c0 -108 -79 -158 -199 -158c-96 0 -189 50 -189 158v13h52v-11c0 -76 66 -110 146 -110c68 0 138 32 138 101c0 47 -32 72 -75 84l-100 30
c-61 15 -104 63 -104 126c0 99 90 149 180 149c89 0 183 -48 183 -149v-13zM242 700l70 -83l104 83h69l-152 -129h-52l-98 129h59z" />
    <glyph glyph-name="scedilla" unicode="&#x15f;" horiz-adv-x="484" 
d="M444 368h-52v8c0 72 -65 104 -130 104c-64 0 -129 -33 -129 -93c0 -48 24 -69 80 -86l93 -28c64 -19 106 -62 106 -125c0 -108 -79 -158 -199 -158c-96 0 -189 50 -189 158v13h52v-11c0 -76 66 -110 146 -110c68 0 138 32 138 101c0 47 -32 72 -75 84l-100 30
c-61 15 -104 63 -104 126c0 99 90 149 180 149c89 0 183 -48 183 -149v-13zM138 -158l58 158h49l-38 -158h-69z" />
    <glyph glyph-name="scircumflex" unicode="&#x15d;" horiz-adv-x="484" 
d="M444 368h-52v8c0 72 -65 104 -130 104c-64 0 -129 -33 -129 -93c0 -48 24 -69 80 -86l93 -28c64 -19 106 -62 106 -125c0 -108 -79 -158 -199 -158c-96 0 -189 50 -189 158v13h52v-11c0 -76 66 -110 146 -110c68 0 138 32 138 101c0 47 -32 72 -75 84l-100 30
c-61 15 -104 63 -104 126c0 99 90 149 180 149c89 0 183 -48 183 -149v-13zM399 571l-70 83l-104 -83h-69l152 129h52l98 -129h-59z" />
    <glyph glyph-name="uni0219" unicode="&#x219;" horiz-adv-x="484" 
d="M444 368h-52v8c0 72 -65 104 -130 104c-64 0 -129 -33 -129 -93c0 -48 24 -69 80 -86l93 -28c64 -19 106 -62 106 -125c0 -108 -79 -158 -199 -158c-96 0 -189 50 -189 158v13h52v-11c0 -76 66 -110 146 -110c68 0 138 32 138 101c0 47 -32 72 -75 84l-100 30
c-61 15 -104 63 -104 126c0 99 90 149 180 149c89 0 183 -48 183 -149v-13zM143 -124l15 74h74l-15 -74l-37 -74h-49l37 74h-25z" />
    <glyph glyph-name="tbar" unicode="&#x167;" horiz-adv-x="329" 
d="M149 466h-73l11 50h73l25 117h53l-25 -117h127l-11 -50h-127l-32 -149h127l-9 -43h-128c-35 -163 -38 -186 -38 -196c0 -20 15 -28 36 -28h83l-11 -50h-69c-63 0 -91 29 -91 76c0 16 9 57 38 198h-73l9 43h73z" />
    <glyph glyph-name="tcaron" unicode="&#x165;" horiz-adv-x="329" 
d="M404 700l-80 -129h-46l47 129h79zM149 466h-73l11 50h73l25 117h53l-25 -117h127l-11 -50h-127c-72 -341 -80 -374 -80 -388c0 -20 15 -28 36 -28h83l-11 -50h-69c-63 0 -91 29 -91 76c0 24 15 88 79 390z" />
    <glyph glyph-name="uni0163" unicode="&#x163;" horiz-adv-x="329" 
d="M149 466h-73l11 50h73l25 117h53l-25 -117h127l-11 -50h-127c-72 -341 -80 -374 -80 -388c0 -20 15 -28 36 -28h83l-11 -50h-69c-63 0 -91 29 -91 76c0 24 15 88 79 390zM78 -124l15 74h74l-15 -74l-37 -74h-49l37 74h-25z" />
    <glyph glyph-name="uni021B" unicode="&#x21b;" horiz-adv-x="329" 
d="M149 466h-73l11 50h73l25 117h53l-25 -117h127l-11 -50h-127c-72 -341 -80 -374 -80 -388c0 -20 15 -28 36 -28h83l-11 -50h-69c-63 0 -91 29 -91 76c0 24 15 88 79 390zM78 -124l15 74h74l-15 -74l-37 -74h-49l37 74h-25z" />
    <glyph glyph-name="ubreve" unicode="&#x16d;" horiz-adv-x="542" 
d="M223 -10c-76 0 -168 47 -168 156c0 26 4 46 33 183l40 187h53l-40 -187c-29 -128 -34 -154 -34 -177c0 -68 42 -112 122 -112c76 0 144 54 165 147l70 329h53l-110 -516h-53l14 63c-21 -35 -78 -73 -145 -73zM332 620h23c32 0 85 35 93 80h54c-16 -72 -84 -129 -156 -129
h-24c-63 0 -105 44 -105 103c0 8 1 17 3 26h46c-1 -7 -2 -13 -2 -18c0 -36 24 -62 68 -62z" />
    <glyph glyph-name="uhungarumlaut" unicode="&#x171;" horiz-adv-x="542" 
d="M223 -10c-76 0 -168 47 -168 156c0 26 4 46 33 183l40 187h53l-40 -187c-29 -128 -34 -154 -34 -177c0 -68 42 -112 122 -112c76 0 144 54 165 147l70 329h53l-110 -516h-53l14 63c-21 -35 -78 -73 -145 -73zM286 700h79l-108 -129h-46zM450 700h79l-108 -129h-46z" />
    <glyph glyph-name="umacron" unicode="&#x16b;" horiz-adv-x="542" 
d="M223 -10c-76 0 -168 47 -168 156c0 26 4 46 33 183l40 187h53l-40 -187c-29 -128 -34 -154 -34 -177c0 -68 42 -112 122 -112c76 0 144 54 165 147l70 329h53l-110 -516h-53l14 63c-21 -35 -78 -73 -145 -73zM488 613h-289l9 45h289z" />
    <glyph glyph-name="uogonek" unicode="&#x173;" horiz-adv-x="542" 
d="M223 -10c-76 0 -168 47 -168 156c0 26 4 46 33 183l40 187h53l-40 -187c-29 -128 -34 -154 -34 -177c0 -68 42 -112 122 -112c76 0 144 54 165 147l70 329h53l-110 -516h-53l14 63c-21 -35 -78 -73 -145 -73zM354 0h53c-38 -22 -105 -61 -105 -106c0 -23 16 -34 36 -34
c13 0 28 5 41 12l-10 -48c-16 -9 -34 -13 -50 -13c-47 0 -72 34 -72 73c0 56 50 96 107 116z" />
    <glyph glyph-name="uring" unicode="&#x16f;" horiz-adv-x="542" 
d="M223 -10c-76 0 -168 47 -168 156c0 26 4 46 33 183l40 187h53l-40 -187c-29 -128 -34 -154 -34 -177c0 -68 42 -112 122 -112c76 0 144 54 165 147l70 329h53l-110 -516h-53l14 63c-21 -35 -78 -73 -145 -73zM263 635c0 41 33 75 74 75s75 -34 75 -75s-34 -74 -75 -74
s-74 33 -74 74zM306 635c0 -17 14 -31 31 -31s32 14 32 31s-15 32 -32 32s-31 -15 -31 -32z" />
    <glyph glyph-name="utilde" unicode="&#x169;" horiz-adv-x="542" 
d="M223 -10c-76 0 -168 47 -168 156c0 26 4 46 33 183l40 187h53l-40 -187c-29 -128 -34 -154 -34 -177c0 -68 42 -112 122 -112c76 0 144 54 165 147l70 329h53l-110 -516h-53l14 63c-21 -35 -78 -73 -145 -73zM453 679h49c-24 -77 -69 -88 -102 -88c-15 0 -29 3 -45 12
l-33 19c-7 4 -18 10 -33 10s-32 -8 -47 -39h-49c24 77 69 88 102 88c15 0 29 -3 45 -12l33 -19c7 -4 18 -10 33 -10s32 8 47 39z" />
    <glyph glyph-name="uni1EE5" unicode="&#x1ee5;" horiz-adv-x="542" 
d="M223 -10c-76 0 -168 47 -168 156c0 26 4 46 33 183l40 187h53l-40 -187c-29 -128 -34 -154 -34 -177c0 -68 42 -112 122 -112c76 0 144 54 165 147l70 329h53l-110 -516h-53l14 63c-21 -35 -78 -73 -145 -73zM229 -49l-19 -87h-53l19 87h53z" />
    <glyph glyph-name="wacute" unicode="&#x1e83;" horiz-adv-x="676" 
d="M357 516h69l24 -441l206 441h57l-245 -516h-63l-25 447l-217 -447h-63l-27 516h52l20 -440zM433 700h84l-118 -129h-51z" />
    <glyph glyph-name="wcircumflex" unicode="&#x175;" horiz-adv-x="676" 
d="M357 516h69l24 -441l206 441h57l-245 -516h-63l-25 447l-217 -447h-63l-27 516h52l20 -440zM496 571l-70 83l-104 -83h-69l152 129h52l98 -129h-59z" />
    <glyph glyph-name="wdieresis" unicode="&#x1e85;" horiz-adv-x="676" 
d="M357 516h69l24 -441l206 441h57l-245 -516h-63l-25 447l-217 -447h-63l-27 516h52l20 -440zM348 679l-19 -87h-53l19 87h53zM561 679l-19 -87h-53l19 87h53z" />
    <glyph glyph-name="wgrave" unicode="&#x1e81;" horiz-adv-x="676" 
d="M357 516h69l24 -441l206 441h57l-245 -516h-63l-25 447l-217 -447h-63l-27 516h52l20 -440zM305 700h79l58 -129h-46z" />
    <glyph glyph-name="ycircumflex" unicode="&#x177;" horiz-adv-x="452" 
d="M143 -1l-77 517h52l66 -444l252 444h60l-342 -597c-31 -58 -58 -103 -132 -103h-26l11 50h27c35 0 48 26 67 59zM385 571l-70 83l-104 -83h-69l152 129h52l98 -129h-59z" />
    <glyph glyph-name="ygrave" unicode="&#x1ef3;" horiz-adv-x="452" 
d="M143 -1l-77 517h52l66 -444l252 444h60l-342 -597c-31 -58 -58 -103 -132 -103h-26l11 50h27c35 0 48 26 67 59zM195 700h79l58 -129h-46z" />
    <glyph glyph-name="uni0233" unicode="&#x233;" horiz-adv-x="452" 
d="M143 -1l-77 517h52l66 -444l252 444h60l-342 -597c-31 -58 -58 -103 -132 -103h-26l11 50h27c35 0 48 26 67 59zM446 613h-289l9 45h289z" />
    <glyph glyph-name="zacute" unicode="&#x17a;" horiz-adv-x="477" 
d="M470 466l-400 -416h320l-11 -50h-389l11 50l400 416h-307l11 50h376zM333 700h84l-118 -129h-51z" />
    <glyph glyph-name="zcaron" unicode="&#x17e;" horiz-adv-x="477" 
d="M470 466l-400 -416h320l-11 -50h-389l11 50l400 416h-307l11 50h376zM240 700l70 -83l104 83h69l-152 -129h-52l-98 129h59z" />
    <glyph glyph-name="zdotaccent" unicode="&#x17c;" horiz-adv-x="477" 
d="M470 466l-400 -416h320l-11 -50h-389l11 50l400 416h-307l11 50h376zM355 679l-19 -87h-53l19 87h53z" />
    <glyph glyph-name="ellipsis" unicode="&#x2026;" horiz-adv-x="750" 
d="M39 0l17 84h84l-17 -84h-84zM289 0l17 84h84l-17 -84h-84zM539 0l17 84h84l-17 -84h-84z" />
    <glyph glyph-name="endash" unicode="&#x2013;" horiz-adv-x="516" 
d="M457 258h-396l9 45h396z" />
    <glyph glyph-name="emdash" unicode="&#x2014;" horiz-adv-x="819" 
d="M760 258h-699l9 45h699z" />
    <glyph glyph-name="guilsinglleft" unicode="&#x2039;" horiz-adv-x="294" 
d="M188 103l-131 143l11 54l193 143l-14 -65l-148 -110l101 -110z" />
    <glyph glyph-name="guilsinglright" unicode="&#x203a;" horiz-adv-x="294" 
d="M106 443l131 -143l-11 -54l-193 -143l14 65l148 110l-101 110z" />
    <glyph glyph-name="quoteleft" unicode="&#x2018;" horiz-adv-x="230" 
d="M233 616l-18 -84h-84l18 84l48 84h49l-49 -84h36z" />
    <glyph glyph-name="quoteright" unicode="&#x2019;" horiz-adv-x="230" 
d="M150 616l17 84h84l-17 -84l-49 -84h-49l48 84h-34z" />
    <glyph glyph-name="quotedblleft" unicode="&#x201c;" horiz-adv-x="377" 
d="M380 616l-18 -84h-84l18 84l48 84h49l-49 -84h36zM233 616l-18 -84h-84l18 84l48 84h49l-49 -84h36z" />
    <glyph glyph-name="quotedblright" unicode="&#x201d;" horiz-adv-x="377" 
d="M297 616l17 84h84l-17 -84l-49 -84h-49l48 84h-34zM150 616l17 84h84l-17 -84l-49 -84h-49l48 84h-34z" />
    <glyph glyph-name="quotesinglbase" unicode="&#x201a;" horiz-adv-x="230" 
d="M19 0l17 84h84l-17 -84l-49 -84h-49l48 84h-34z" />
    <glyph glyph-name="quotedblbase" unicode="&#x201e;" horiz-adv-x="377" 
d="M166 0l17 84h84l-17 -84l-49 -84h-49l48 84h-34zM19 0l17 84h84l-17 -84l-49 -84h-49l48 84h-34z" />
    <glyph glyph-name="bullet" unicode="&#x2022;" horiz-adv-x="800" 
d="M251 298c0 93 75 168 168 168s168 -75 168 -168s-75 -168 -168 -168s-168 75 -168 168z" />
    <glyph glyph-name="dagger" unicode="&#x2020;" horiz-adv-x="585" 
d="M536 473h-176l-119 -560h-43l119 560h-176l9 43h176l39 184h43l-39 -184h176z" />
    <glyph glyph-name="daggerdbl" unicode="&#x2021;" horiz-adv-x="585" 
d="M456 97h-176l-39 -184h-43l39 184h-176l9 43h176l71 333h-176l9 43h176l39 184h43l-39 -184h176l-9 -43h-176l-71 -333h176z" />
    <glyph glyph-name="perthousand" unicode="&#x2030;" horiz-adv-x="1101" 
d="M871 35c39 0 72 25 83 73c8 42 41 179 41 203c0 36 -23 60 -66 60c-39 0 -72 -25 -83 -73c-8 -41 -41 -179 -41 -203c0 -36 23 -60 66 -60zM864 -6c-69 0 -100 50 -100 95c0 28 28 157 39 208c19 80 61 115 133 115c69 0 100 -50 100 -95c0 -29 -28 -157 -39 -208
c-19 -80 -61 -115 -133 -115zM640 700h48l-481 -700h-48zM212 329c39 0 72 25 83 73c8 42 41 179 41 203c0 36 -23 60 -66 60c-39 0 -72 -25 -83 -73c-8 -41 -41 -179 -41 -203c0 -36 23 -60 66 -60zM205 288c-69 0 -100 50 -100 95c0 28 28 157 39 208
c19 80 61 115 133 115c69 0 100 -50 100 -95c0 -29 -28 -157 -39 -208c-19 -80 -61 -115 -133 -115zM577 35c39 0 72 25 83 73c8 42 41 179 41 203c0 36 -23 60 -66 60c-39 0 -72 -25 -83 -73c-8 -41 -41 -179 -41 -203c0 -36 23 -60 66 -60zM570 -6c-69 0 -100 50 -100 95
c0 28 28 157 39 208c19 80 61 115 133 115c69 0 100 -50 100 -95c0 -29 -28 -157 -39 -208c-19 -80 -61 -115 -133 -115z" />
    <glyph glyph-name="uni2117" unicode="&#x2117;" horiz-adv-x="820" 
d="M69 350c0 200 160 360 360 360s360 -160 360 -360s-160 -360 -360 -360s-360 160 -360 360zM112 350c0 -175 141 -318 317 -318s317 143 317 318s-141 318 -317 318s-317 -143 -317 -318zM313 131v437h141c91 0 136 -51 136 -131s-45 -131 -136 -131h-98v-175h-43z
M356 348h98c61 0 92 36 92 89c0 52 -31 88 -92 88h-98v-177z" />
    <glyph glyph-name="trademark" unicode="&#x2122;" horiz-adv-x="706" 
d="M186 294v364h-109v42h261v-42h-109v-364h-43zM400 294v406h43l118 -248l118 248h43v-406h-43v315l-98 -206h-41l-98 206v-315h-42z" />
    <glyph glyph-name="lozenge" unicode="&#x25ca;" horiz-adv-x="548" 
d="M119 350l174 -300l174 300l-174 300zM272 0l-203 350l203 350h42l203 -350l-203 -350h-42z" />
    <glyph glyph-name="uni2113" unicode="&#x2113;" horiz-adv-x="317" 
d="M81 260l66 307c21 101 51 143 126 143c48 0 73 -37 73 -96c0 -131 -107 -282 -214 -362c-32 -152 -33 -154 -33 -173c0 -33 16 -46 49 -46c23 0 48 5 74 15l3 -31c-44 -23 -69 -27 -97 -27c-56 0 -82 30 -82 82c0 16 0 25 24 137l-51 -36l-19 31zM202 578l-58 -272
c85 71 168 195 168 305c0 32 -10 55 -39 55c-31 0 -56 -20 -71 -88z" />
    <glyph glyph-name="uni2116" unicode="&#x2116;" horiz-adv-x="860" 
d="M834 320h-234l10 45h234zM743 436c47 0 78 25 89 76c8 35 20 87 20 105c0 35 -30 51 -62 51c-45 0 -78 -25 -89 -76c-8 -35 -20 -87 -20 -105c0 -36 31 -51 62 -51zM738 395c-53 0 -100 30 -100 86c0 20 12 70 20 110c19 87 65 117 138 117c51 0 100 -30 100 -85
c0 -21 -12 -70 -21 -111c-19 -85 -64 -117 -137 -117zM621 700l-149 -700h-55l-204 605l-128 -605h-55l149 700h55l204 -605l128 605h55z" />
    <glyph glyph-name="apple" horiz-adv-x="639" 
d="M188 0v26c-37 8 -49 31 -49 78v256c-18 0 -30 8 -37 24c-16 7 -24 19 -24 37c0 11 4 21 11 28c-24 11 -36 31 -36 59c0 25 13 48 36 59c-7 7 -11 17 -11 28c0 20 13 37 32 40c8 27 32 48 63 48c16 0 31 -6 44 -17c9 25 33 44 61 44c23 0 43 -12 55 -31c9 5 19 7 29 7
c25 0 48 -14 59 -37c8 8 17 12 28 12c17 0 30 -8 37 -24c29 -7 51 -33 51 -64c0 -25 -14 -46 -34 -57v-38h4c63 0 80 -23 80 -80v-215c0 -57 -17 -80 -80 -80h-4c0 -47 -12 -69 -49 -77v-26h-266zM454 104v406c-11 3 -21 8 -29 17h-83c-13 -13 -28 -19 -46 -19
c-23 0 -40 9 -53 27c-5 -2 -11 -3 -16 -3c-12 0 -22 4 -29 11c-3 -5 -6 -10 -10 -15v-424c0 -25 8 -34 32 -34h202c24 0 32 9 32 34zM118 462v-19c-13 0 -21 -11 -21 -22c0 -12 9 -21 21 -21c0 -12 9 -21 21 -21v147c25 0 44 18 47 42v4h19c0 -13 10 -21 22 -21s21 9 21 21
h19c0 -10 -3 -19 -9 -26c9 -13 21 -19 38 -19c27 0 47 19 47 46h82c0 -27 19 -46 46 -46s47 19 47 46s-20 47 -47 47c0 12 -10 22 -22 22c-11 0 -21 -7 -21 -22h-19c0 27 -20 47 -47 47c-20 0 -36 -13 -43 -30c16 -5 28 -19 28 -38h-19c0 12 -10 21 -22 21s-21 -9 -21 -21
h-19c0 20 14 36 33 39c4 13 10 23 19 30c-8 15 -24 23 -40 23c-25 0 -45 -20 -46 -45c5 -11 7 -20 7 -29h-19c0 27 -20 47 -47 47c-21 0 -36 -10 -43 -30c17 -5 29 -20 29 -39h-19c0 12 -10 22 -22 22s-21 -10 -21 -22c0 -13 6 -20 17 -21h4v-19h-4c-24 -3 -42 -22 -42 -47
s18 -45 42 -46h4zM538 183v215c0 25 -8 34 -31 34h-4v-283h4c23 0 31 9 31 34zM229 103v375h15v-375h-15zM397 103v375h15v-375h-15zM341 103v375h15v-375h-15zM285 103v375h15v-375h-15z" />
    <glyph glyph-name="estimated" unicode="&#x212e;" horiz-adv-x="824" 
d="M194 290v-173c0 -10 4 -18 12 -25c23 -19 49 -35 78 -46c43 -16 89 -22 140 -22s97 6 140 22c38 15 71 37 98 64h50c-36 -43 -80 -75 -131 -95c-48 -19 -101 -25 -157 -25s-109 6 -157 25c-117 48 -205 157 -205 302s88 254 205 302c48 19 101 25 157 25s109 -6 157 -25
c117 -48 205 -157 205 -302v-17h-582c-7 0 -10 -3 -10 -10zM654 344v173c0 10 -4 18 -12 25c-23 19 -49 35 -78 46c-43 16 -89 22 -140 22s-97 -6 -140 -22c-29 -11 -55 -27 -78 -46c-8 -7 -12 -15 -12 -25v-173c0 -7 3 -10 10 -10h440c7 0 10 3 10 10z" />
    <glyph glyph-name="minus" unicode="&#x2212;" 
d="M482 258h-396v45h396v-45z" />
    <glyph glyph-name="lessequal" unicode="&#x2264;" 
d="M482 119l-396 180v44l396 180v-48l-338 -154l338 -154v-48zM482 0h-396v45h396v-45z" />
    <glyph glyph-name="greaterequal" unicode="&#x2265;" 
d="M482 299l-396 -180v48l338 154l-338 154v48l396 -180v-44zM482 0h-396v45h396v-45z" />
    <glyph glyph-name="notequal" unicode="&#x2260;" 
d="M133 155h-47v45h92l150 150h-242v45h287l79 79l30 -31l-48 -48h48v-45h-93l-150 -150h243v-45h-288l-78 -78l-30 31z" />
    <glyph glyph-name="approxequal" unicode="&#x2248;" 
d="M116 327l-30 33c31 35 79 58 118 58c61 0 115 -46 160 -46c19 0 52 11 88 46l30 -33c-31 -35 -79 -58 -118 -58c-61 0 -115 46 -160 46c-19 0 -52 -11 -88 -46zM116 133l-30 33c31 35 79 58 118 58c61 0 115 -46 160 -46c19 0 52 11 88 46l30 -33
c-31 -35 -79 -58 -118 -58c-61 0 -115 46 -160 46c-19 0 -52 -11 -88 -46z" />
    <glyph glyph-name="partialdiff" unicode="&#x2202;" horiz-adv-x="578" 
d="M490 552c0 67 -37 113 -128 113c-86 0 -167 -60 -183 -157l-1 -8h-45l1 8c27 149 139 202 238 202c79 0 163 -40 163 -149c0 -16 -1 -34 -5 -53l-61 -316c-27 -149 -139 -202 -238 -202c-79 0 -163 40 -163 149c0 28 7 58 12 89c27 149 138 202 237 202
c67 0 120 -32 139 -75c0 3 7 42 15 79l14 74c3 17 5 29 5 44zM241 35c86 0 167 60 183 157c5 28 12 53 12 80c0 67 -38 113 -129 113c-87 0 -166 -60 -182 -157c-5 -28 -12 -53 -12 -80c0 -67 37 -113 128 -113z" />
    <glyph glyph-name="product" unicode="&#x220f;" horiz-adv-x="612" 
d="M104 0v700h442v-700h-55v647h-333v-647h-54z" />
    <glyph glyph-name="radical" unicode="&#x221a;" horiz-adv-x="516" 
d="M245 47l193 653h46l-207 -700h-64l-77 258h-68v42h102z" />
    <glyph glyph-name="summation" unicode="&#x2211;" horiz-adv-x="702" 
d="M90 -142l321 400l-321 400v42h512v-42h-454l321 -400l-321 -400h454v-42h-512v42z" />
    <glyph glyph-name="integral" unicode="&#x222b;" horiz-adv-x="301" 
d="M191 597v-678c0 -66 -21 -103 -107 -103v42c53 0 64 20 64 61v678c0 66 21 103 107 103v-42c-53 0 -64 -20 -64 -61z" />
    <glyph glyph-name="infinity" unicode="&#x221e;" 
d="M67 336c0 69 55 126 125 126c43 0 81 -22 104 -55c23 33 60 55 104 55c69 0 126 -57 126 -126c0 -70 -57 -125 -126 -125c-44 0 -81 21 -104 54c-23 -33 -61 -54 -104 -54c-70 0 -125 55 -125 125zM318 339v-3c0 -47 35 -83 82 -83s83 36 83 83s-35 84 -83 84
c-47 0 -81 -36 -82 -81zM110 336c0 -47 35 -83 82 -83s83 36 83 83v3c-3 45 -36 81 -83 81s-82 -37 -82 -84z" />
    <glyph glyph-name="uni0394" unicode="&#x394;" horiz-adv-x="564" 
d="M525 0h-526l238 700h50zM450 54l-188 555l-189 -555h377z" />
    <glyph glyph-name="uni0394" unicode="&#x2206;" horiz-adv-x="564" 
d="M525 0h-526l238 700h50zM450 54l-188 555l-189 -555h377z" />
    <glyph glyph-name="uni03A9" unicode="&#x3a9;" horiz-adv-x="562" 
d="M496 521c0 91 -66 137 -143 137c-88 0 -165 -51 -192 -176c-21 -97 -39 -173 -39 -208c0 -63 33 -108 84 -125l-32 -149h-151l11 52h96l15 67c-47 31 -78 84 -78 148c0 39 15 100 39 215c29 141 106 228 254 228c103 0 191 -69 191 -182c0 -39 -16 -107 -39 -215
c-24 -113 -74 -183 -162 -212l-10 -49h96l-11 -52h-151l30 142c72 15 130 67 153 171c21 101 39 173 39 208z" />
    <glyph glyph-name="uni03A9" unicode="&#x2126;" horiz-adv-x="562" 
d="M496 521c0 91 -66 137 -143 137c-88 0 -165 -51 -192 -176c-21 -97 -39 -173 -39 -208c0 -63 33 -108 84 -125l-32 -149h-151l11 52h96l15 67c-47 31 -78 84 -78 148c0 39 15 100 39 215c29 141 106 228 254 228c103 0 191 -69 191 -182c0 -39 -16 -107 -39 -215
c-24 -113 -74 -183 -162 -212l-10 -49h96l-11 -52h-151l30 142c72 15 130 67 153 171c21 101 39 173 39 208z" />
    <glyph glyph-name="pi" unicode="&#x3c0;" horiz-adv-x="608" 
d="M150 466h-73l11 50h542l-11 -50h-73l-98 -466h-53l98 466h-290l-98 -466h-53z" />
    <glyph glyph-name="Euro" unicode="&#x20ac;" horiz-adv-x="577" 
d="M292 -10c-105 0 -185 78 -185 187c0 21 1 41 14 98h-77l23 43h63l14 65h-76l22 43h64l10 47c32 154 105 237 264 237c67 0 126 -27 159 -74l-44 -31c-25 37 -67 55 -126 55c-104 0 -173 -59 -200 -187l-10 -47h302l-22 -43h-290l-14 -65h271l-23 -43h-257
c-16 -68 -15 -75 -15 -95c0 -88 59 -140 134 -140c51 0 97 20 137 60l36 -36c-51 -48 -91 -74 -174 -74z" />
    <glyph glyph-name="fi" unicode="&#xfb01;" horiz-adv-x="518" 
d="M77 466l11 50h73l17 81c13 66 28 103 129 103h73l-11 -50h-73c-43 0 -57 -16 -65 -53l-17 -81h127l-11 -50h-127l-99 -466h-53l99 466h-73zM440 516h53l-110 -516h-53zM532 700l-19 -87h-53l19 87h53z" />
    <glyph glyph-name="fl" unicode="&#xfb02;" horiz-adv-x="547" 
d="M77 466l11 50h73l17 81c13 66 28 103 129 103h73l-11 -50h-73c-43 0 -57 -16 -65 -53l-17 -81h127l-11 -50h-127l-99 -466h-53l99 466h-73zM478 700h53c-120 -560 -130 -605 -130 -622c0 -20 15 -28 36 -28h20l-11 -50h-6c-63 0 -91 29 -91 76c0 29 21 116 129 624z" />
    <glyph glyph-name="f_f" unicode="&#xfb00;" horiz-adv-x="610" 
d="M77 466l11 50h73l17 81c13 66 28 103 129 103h73l-11 -50h-73c-43 0 -57 -16 -65 -53l-17 -81h127l-11 -50h-127l-99 -466h-53l99 466h-73zM382 466l11 50h73l17 81c13 66 28 103 129 103h73l-11 -50h-73c-43 0 -57 -16 -65 -53l-17 -81h127l-11 -50h-127l-99 -466h-53
l99 466h-73z" />
    <glyph glyph-name="f_f_i" unicode="&#xfb03;" horiz-adv-x="823" 
d="M77 466l11 50h73l17 81c13 66 28 103 129 103h73l-11 -50h-73c-43 0 -57 -16 -65 -53l-17 -81h127l-11 -50h-127l-99 -466h-53l99 466h-73zM382 466l11 50h73l17 81c13 66 28 103 129 103h73l-11 -50h-73c-43 0 -57 -16 -65 -53l-17 -81h127l-11 -50h-127l-99 -466h-53
l99 466h-73zM745 516h53l-110 -516h-53zM837 700l-19 -87h-53l19 87h53z" />
    <glyph glyph-name="f_f_l" unicode="&#xfb04;" horiz-adv-x="852" 
d="M77 466l11 50h73l17 81c13 66 28 103 129 103h73l-11 -50h-73c-43 0 -57 -16 -65 -53l-17 -81h127l-11 -50h-127l-99 -466h-53l99 466h-73zM382 466l11 50h73l17 81c13 66 28 103 129 103h73l-11 -50h-73c-43 0 -57 -16 -65 -53l-17 -81h127l-11 -50h-127l-99 -466h-53
l99 466h-73zM783 700h53c-120 -560 -130 -605 -130 -622c0 -20 15 -28 36 -28h20l-11 -50h-6c-63 0 -91 29 -91 76c0 29 21 116 129 624z" />
    <glyph glyph-name="breve" unicode="&#x2d8;" horiz-adv-x="390" 
d="M259 620h23c32 0 85 35 93 80h54c-16 -72 -84 -129 -156 -129h-24c-63 0 -105 44 -105 103c0 8 1 17 3 26h46c-1 -7 -2 -13 -2 -18c0 -36 24 -62 68 -62z" />
    <glyph glyph-name="caron" unicode="&#x2c7;" horiz-adv-x="428" 
d="M215 700l70 -83l104 83h69l-152 -129h-52l-98 129h59z" />
    <glyph glyph-name="circumflex" unicode="&#x2c6;" horiz-adv-x="428" 
d="M372 571l-70 83l-104 -83h-69l152 129h52l98 -129h-59z" />
    <glyph glyph-name="dotaccent" unicode="&#x2d9;" horiz-adv-x="171" 
d="M201 679l-19 -87h-53l19 87h53z" />
    <glyph glyph-name="hungarumlaut" unicode="&#x2dd;" horiz-adv-x="447" 
d="M226 700h79l-108 -129h-46zM390 700h79l-108 -129h-46z" />
    <glyph glyph-name="commaaccent" horiz-adv-x="254" 
d="M5 -124l15 74h74l-15 -74l-37 -74h-49l37 74h-25z" />
    <glyph glyph-name="ogonek" unicode="&#x2db;" horiz-adv-x="230" 
d="M67 0h53c-38 -22 -105 -61 -105 -106c0 -23 16 -34 36 -34c13 0 28 5 41 12l-10 -48c-16 -9 -34 -13 -50 -13c-47 0 -72 34 -72 73c0 56 50 96 107 116z" />
    <glyph glyph-name="ring" unicode="&#x2da;" horiz-adv-x="255" 
d="M133 635c0 41 33 75 74 75s75 -34 75 -75s-34 -74 -75 -74s-74 33 -74 74zM176 635c0 -17 14 -31 31 -31s32 14 32 31s-15 32 -32 32s-31 -15 -31 -32z" />
    <glyph glyph-name="tilde" unicode="&#x2dc;" horiz-adv-x="441" 
d="M406 679h49c-24 -77 -69 -88 -102 -88c-15 0 -29 3 -45 12l-33 19c-7 4 -18 10 -33 10s-32 -8 -47 -39h-49c24 77 69 88 102 88c15 0 29 -3 45 -12l33 -19c7 -4 18 -10 33 -10s32 8 47 39z" />
    <glyph glyph-name="uni032C" unicode="&#x32c;" horiz-adv-x="428" 
d="M69 1l70 -83l104 83h69l-152 -129h-52l-98 129h59z" />
    <glyph glyph-name="zero.slashed" horiz-adv-x="534" 
d="M449 187c-32 -144 -117 -197 -226 -197c-75 0 -170 43 -170 155c0 56 38 214 70 368c32 144 117 197 226 197c75 0 170 -43 170 -155c0 -56 -38 -214 -70 -368zM396 187c21 100 44 202 59 275l-349 -287c-1 -9 -1 -16 -1 -21c0 -80 50 -114 127 -114c79 0 144 54 164 147
zM176 513c-21 -99 -44 -200 -59 -273l349 288c1 7 1 13 1 18c0 80 -50 114 -127 114c-79 0 -144 -54 -164 -147z" />
    <glyph glyph-name="one.tlf" 
d="M231 50l122 577l-158 -114l15 72l159 115h53l-138 -650h171l-11 -50h-396l11 50h172z" />
    <glyph glyph-name="two.tlf" 
d="M181 495h-53c16 117 83 215 230 215c75 0 170 -43 170 -155c0 -91 -51 -164 -120 -228l-302 -277h322l-11 -50h-395l11 51l337 310c51 48 106 111 106 185c0 80 -50 114 -127 114c-91 0 -157 -73 -168 -165z" />
    <glyph glyph-name="three.tlf" 
d="M180 500h-53c27 152 115 210 229 210c75 0 170 -43 170 -155c0 -104 -57 -177 -134 -208c47 -31 65 -81 65 -125c0 -147 -98 -232 -233 -232c-77 0 -166 47 -166 155c0 11 1 30 5 55h52c-3 -20 -5 -35 -5 -46c0 -80 51 -114 123 -114c91 0 172 67 172 175
c0 59 -36 114 -111 114h-49l11 50h51c97 0 167 76 167 167c0 80 -50 114 -127 114c-95 0 -151 -72 -167 -160z" />
    <glyph glyph-name="four.tlf" 
d="M461 700h53l-97 -452h73l-9 -48h-73l-43 -200h-53l43 200h-328l9 48zM105 248h259l77 358z" />
    <glyph glyph-name="five.tlf" 
d="M239 650l-57 -268c23 27 76 55 136 55c75 0 170 -43 170 -155c0 -20 -7 -67 -13 -95c-32 -144 -117 -197 -226 -197c-75 0 -170 43 -170 155c0 13 2 32 6 55h51c-3 -20 -5 -35 -5 -46c0 -80 50 -114 127 -114c79 0 144 54 164 147c7 27 14 65 14 86
c0 80 -50 114 -127 114c-55 0 -102 -25 -133 -72h-61l82 385h360l-11 -50h-307z" />
    <glyph glyph-name="six.tlf" 
d="M190 513l-32 -146c28 35 82 63 146 63c75 0 170 -43 170 -155c0 -29 -6 -67 -11 -88c-33 -144 -113 -197 -226 -197c-75 0 -170 43 -170 155c0 56 38 214 70 368c32 144 117 197 226 197c75 0 170 -43 170 -155c0 -14 -2 -32 -6 -55h-51c3 20 5 35 5 46
c0 80 -50 114 -127 114c-79 0 -144 -54 -164 -147zM131 233c-7 -36 -12 -63 -12 -79c0 -80 50 -114 127 -114c80 0 144 55 164 147c3 15 12 55 12 79c0 80 -50 114 -127 114s-145 -54 -164 -147z" />
    <glyph glyph-name="seven.tlf" 
d="M168 700h390l-11 -50l-375 -650h-60l375 650h-330z" />
    <glyph glyph-name="eight.tlf" 
d="M527 552c0 -92 -44 -172 -131 -207c37 -25 64 -64 64 -120c0 -119 -67 -235 -224 -235c-78 0 -174 50 -174 155c0 90 40 184 132 218c-33 27 -57 65 -57 124c0 119 77 223 224 223c77 0 166 -47 166 -158zM408 212c0 68 -44 117 -127 117c-93 0 -167 -71 -167 -171
c0 -68 44 -118 127 -118c93 0 167 71 167 172zM189 500c0 -92 58 -121 119 -121c87 0 167 64 167 160c0 92 -58 121 -119 121c-87 0 -167 -64 -167 -160z" />
    <glyph glyph-name="nine.tlf" 
d="M407 187l32 146c-28 -35 -82 -63 -146 -63c-75 0 -170 43 -170 155c0 29 6 67 11 88c33 144 113 197 226 197c75 0 170 -43 170 -155c0 -56 -38 -214 -70 -368c-32 -144 -117 -197 -226 -197c-75 0 -170 43 -170 155c0 13 2 32 6 55h51c-3 -20 -5 -35 -5 -46
c0 -80 50 -114 127 -114c79 0 144 54 164 147zM466 467c7 36 12 63 12 79c0 80 -50 114 -127 114c-80 0 -144 -55 -164 -147c-3 -15 -12 -55 -12 -79c0 -80 50 -114 127 -114s145 54 164 147z" />
    <glyph glyph-name="zero.tlf" 
d="M188 513c-32 -149 -71 -312 -71 -359c0 -80 50 -114 127 -114c79 0 144 54 164 147c32 150 71 311 71 359c0 80 -50 114 -127 114c-79 0 -144 -54 -164 -147zM461 187c-32 -144 -117 -197 -226 -197c-75 0 -170 43 -170 155c0 56 38 214 70 368c32 144 117 197 226 197
c75 0 170 -43 170 -155c0 -56 -38 -214 -70 -368z" />
    <glyph glyph-name="zero.slashed.tlf" 
d="M461 187c-32 -144 -117 -197 -226 -197c-75 0 -170 43 -170 155c0 56 38 214 70 368c32 144 117 197 226 197c75 0 170 -43 170 -155c0 -56 -38 -214 -70 -368zM408 187c21 100 44 202 59 275l-349 -287c-1 -9 -1 -16 -1 -21c0 -80 50 -114 127 -114c79 0 144 54 164 147
zM188 513c-21 -99 -44 -200 -59 -273l349 288c1 7 1 13 1 18c0 80 -50 114 -127 114c-79 0 -144 -54 -164 -147z" />
    <glyph glyph-name="one.case" horiz-adv-x="342" 
d="M137 0l132 623l-158 -114l16 76l159 115h55l-149 -700h-55z" />
    <glyph glyph-name="two.case" horiz-adv-x="517" 
d="M1 0l11 53l334 306c50 48 107 111 107 185c0 77 -49 114 -125 114c-91 0 -154 -71 -167 -164h-55c19 123 86 216 231 216c79 0 170 -49 170 -156c0 -96 -51 -167 -122 -232l-297 -270h320l-12 -52h-395z" />
    <glyph glyph-name="three.case" horiz-adv-x="519" 
d="M208 -10c-83 0 -167 54 -167 156c0 11 1 31 5 54h54c-3 -19 -5 -35 -5 -44c0 -77 50 -114 122 -114c89 0 169 70 169 173c0 58 -36 113 -110 113h-49l12 52h50c96 0 166 75 166 164c0 77 -49 114 -125 114c-93 0 -150 -71 -166 -159h-55c28 152 114 211 230 211
c79 0 170 -49 170 -156c0 -104 -57 -177 -133 -208c47 -29 64 -79 64 -124c0 -144 -96 -232 -232 -232z" />
    <glyph glyph-name="four.case" horiz-adv-x="520" 
d="M299 0l42 198h-327l10 50l424 452h55l-97 -452h73l-10 -50h-73l-42 -198h-55zM95 248h256l76 353z" />
    <glyph glyph-name="five.case" horiz-adv-x="524" 
d="M231 -10c-79 0 -170 49 -170 156c0 14 2 32 6 54h52c-3 -19 -5 -35 -5 -44c0 -77 50 -114 126 -114c77 0 143 54 163 146c7 31 13 66 13 86c0 76 -48 112 -125 112c-55 0 -101 -27 -132 -74h-63l82 388h361l-11 -52h-306l-56 -264c23 27 74 54 134 54
c79 0 170 -49 170 -156c0 -20 -6 -62 -13 -95c-32 -144 -114 -197 -226 -197z" />
    <glyph glyph-name="six.case" horiz-adv-x="532" 
d="M228 -10c-79 0 -170 49 -170 156c0 56 37 222 69 367c31 143 115 197 227 197c79 0 170 -49 170 -156c0 -13 -2 -31 -6 -54h-53c3 19 5 35 5 44c0 77 -49 114 -125 114c-77 0 -143 -53 -163 -145c0 -5 -31 -135 -31 -143c27 35 80 61 144 61c79 0 170 -49 170 -156
c0 -27 -4 -64 -11 -88c-32 -143 -113 -197 -226 -197zM237 42c79 0 142 53 162 145c3 20 12 57 12 80c0 76 -48 112 -125 112s-143 -53 -162 -145c-7 -36 -12 -63 -12 -78c0 -77 49 -114 125 -114z" />
    <glyph glyph-name="seven.case" horiz-adv-x="452" 
d="M66 0l373 648h-329l11 52h391l-11 -52l-373 -648h-62z" />
    <glyph glyph-name="eight.case" horiz-adv-x="508" 
d="M213 -10c-84 0 -175 57 -175 157c0 94 41 181 132 216c-35 27 -57 67 -57 123c0 120 77 224 224 224c81 0 166 -52 166 -158c0 -92 -45 -172 -130 -207c37 -27 64 -66 64 -121c0 -121 -68 -234 -224 -234zM218 42c91 0 165 70 165 169c0 68 -44 117 -127 117
c-91 0 -164 -70 -164 -168c0 -68 45 -118 126 -118zM285 379c86 0 164 67 164 160c0 88 -56 119 -117 119c-87 0 -165 -67 -165 -160c0 -87 56 -119 118 -119z" />
    <glyph glyph-name="nine.case" horiz-adv-x="532" 
d="M343 710c79 0 170 -49 170 -156c0 -56 -37 -222 -69 -367c-31 -143 -115 -197 -227 -197c-79 0 -170 49 -170 156c0 13 2 31 6 54h53c-3 -19 -5 -35 -5 -44c0 -77 49 -114 125 -114c77 0 143 53 163 145c0 5 31 135 31 143c-27 -35 -80 -61 -144 -61
c-79 0 -170 49 -170 156c0 27 4 64 11 88c32 143 111 197 226 197zM334 658c-79 0 -142 -53 -162 -145c-5 -19 -12 -60 -12 -80c0 -76 48 -112 125 -112s143 53 162 145c7 36 12 63 12 78c0 77 -49 114 -125 114z" />
    <glyph glyph-name="zero.case" horiz-adv-x="543" 
d="M399 187c29 138 70 312 70 357c0 77 -49 114 -125 114c-77 0 -142 -53 -162 -145c-29 -138 -70 -312 -70 -357c0 -77 49 -114 125 -114c77 0 142 53 162 145zM454 187c-32 -144 -114 -197 -226 -197c-79 0 -170 49 -170 156c0 56 37 222 69 367c32 144 114 197 226 197
c79 0 170 -49 170 -156c0 -56 -37 -222 -69 -367z" />
    <glyph glyph-name="zero.slashed.case" horiz-adv-x="543" 
d="M454 187c-32 -144 -114 -197 -226 -197c-79 0 -170 49 -170 156c0 56 37 222 69 367c32 144 114 197 226 197c79 0 170 -49 170 -156c0 -56 -37 -222 -69 -367zM399 187c20 92 43 196 58 272l-344 -284c-1 -8 -1 -14 -1 -19c0 -77 49 -114 125 -114c77 0 142 53 162 145z
M182 513c-20 -92 -43 -194 -58 -270l344 283c0 7 1 13 1 18c0 77 -49 114 -125 114c-77 0 -142 -53 -162 -145z" />
    <glyph glyph-name="uni21B2" unicode="&#x21b2;" horiz-adv-x="800" 
d="M127 253l234 -233l-30 -30l-286 285l286 285l30 -30l-234 -233h584v403h44v-447h-628z" />
    <glyph glyph-name="uni21B3" unicode="&#x21b3;" horiz-adv-x="800" 
d="M439 20l234 233h-628v447h44v-403h584l-234 233l30 30l286 -285l-286 -285z" />
    <glyph glyph-name="uni21B0" unicode="&#x21b0;" horiz-adv-x="800" 
d="M127 253l234 -233l-30 -30l-286 285l286 285l30 -30l-234 -233h628v-481h-44v437h-584z" />
    <glyph glyph-name="uni21B1" unicode="&#x21b1;" horiz-adv-x="800" 
d="M89 253v-437h-44v481h628l-234 233l30 30l286 -285l-286 -285l-30 30l234 233h-584z" />
    <glyph glyph-name="arrowleft" unicode="&#x2190;" horiz-adv-x="800" 
d="M127 253l234 -233l-30 -30l-286 285l286 285l30 -30l-234 -233h628v-44h-628z" />
    <glyph glyph-name="arrowup" unicode="&#x2191;" horiz-adv-x="800" 
d="M655 394l-233 234v-628h-44v628l-233 -234l-30 30l285 286l285 -286z" />
    <glyph glyph-name="arrowright" unicode="&#x2192;" horiz-adv-x="800" 
d="M439 20l234 233h-628v44h628l-234 233l30 30l286 -285l-286 -285z" />
    <glyph glyph-name="arrowdown" unicode="&#x2193;" horiz-adv-x="800" 
d="M422 72l233 234l30 -30l-285 -286l-285 286l30 30l233 -234v628h44v-628z" />
    <glyph glyph-name="uni2196" unicode="&#x2196;" horiz-adv-x="800" 
d="M536 529h-330l503 -503l-31 -31l-504 503v-330h-43v404h405v-43z" />
    <glyph glyph-name="uni2197" unicode="&#x2197;" horiz-adv-x="800" 
d="M594 529h-330v43h405v-404h-43v330l-504 -503l-31 31z" />
    <glyph glyph-name="uni2198" unicode="&#x2198;" horiz-adv-x="800" 
d="M264 43h330l-503 503l31 31l504 -503v330h43v-404h-405v43z" />
    <glyph glyph-name="uni2199" unicode="&#x2199;" horiz-adv-x="800" 
d="M206 43h330v-43h-405v404h43v-330l504 503l31 -31z" />
    <glyph glyph-name="filledbox" unicode="&#x25a0;" horiz-adv-x="800" 
d="M142 0v516h516v-516h-516z" />
    <glyph glyph-name="H22073" unicode="&#x25a1;" horiz-adv-x="800" 
d="M142 0v516h516v-516h-516zM186 472v-428h428v428h-428z" />
    <glyph glyph-name="circle" unicode="&#x25cb;" horiz-adv-x="800" 
d="M130 260c0 149 121 270 270 270s270 -121 270 -270s-121 -270 -270 -270s-270 121 -270 270zM173 260c0 -125 102 -227 227 -227s227 102 227 227s-102 227 -227 227s-227 -102 -227 -227z" />
    <glyph glyph-name="H18533" unicode="&#x25cf;" horiz-adv-x="800" 
d="M130 260c0 149 121 270 270 270s270 -121 270 -270s-121 -270 -270 -270s-270 121 -270 270z" />
    <glyph glyph-name="onethird" unicode="&#x2153;" horiz-adv-x="713" 
d="M156 294l75 347l-93 -67l12 59l93 67h43l-87 -406h-43zM564 700h48l-481 -700h-48zM493 -6c-69 0 -100 50 -100 95c0 5 0 19 3 27h41c-2 -9 -3 -16 -3 -21c0 -36 24 -60 65 -60c50 0 86 45 86 90c0 32 -21 59 -60 59h-29l9 41h29c51 0 90 43 90 86c0 36 -23 60 -66 60
s-78 -31 -86 -87h-43c17 89 59 128 136 128c69 0 100 -50 100 -95c0 -60 -33 -99 -74 -118c24 -15 36 -39 36 -70c0 -75 -45 -135 -134 -135z" />
    <glyph glyph-name="uni2155" unicode="&#x2155;" horiz-adv-x="714" 
d="M156 294l75 347l-93 -67l12 59l93 67h43l-87 -406h-43zM564 700h48l-481 -700h-48zM504 -6c-69 0 -101 50 -101 95c0 5 0 19 3 27h41c-3 -9 -2 -16 -2 -21c0 -36 22 -60 65 -60c39 0 74 26 85 77c7 27 7 42 7 49c0 31 -20 56 -65 56c-28 0 -56 -14 -72 -45h-44l50 234
h213l-9 -41h-170l-29 -136c13 17 40 28 69 28c69 0 100 -50 100 -95c0 -8 -1 -18 -9 -53c-17 -80 -60 -115 -132 -115z" />
    <glyph glyph-name="uni2159" unicode="&#x2159;" horiz-adv-x="710" 
d="M156 294l75 347l-93 -67l12 59l93 67h43l-87 -406h-43zM564 700h48l-481 -700h-48zM496 -6c-69 0 -100 50 -100 95c0 28 28 157 39 208c19 80 61 115 133 115c69 0 100 -50 100 -95c0 -6 -1 -15 -3 -27h-41c2 9 3 16 3 21c0 36 -23 60 -66 60c-39 0 -72 -25 -83 -73
l-16 -75c15 17 44 30 73 30c69 0 100 -50 100 -95c0 -8 -1 -26 -6 -49c-17 -80 -61 -115 -133 -115zM503 35c39 0 72 25 83 73c7 27 6 42 6 49c0 31 -20 56 -64 56c-39 0 -73 -26 -84 -74c-4 -19 -7 -37 -7 -44c0 -36 23 -60 66 -60z" />
    <glyph glyph-name="oneeighth" unicode="&#x215b;" horiz-adv-x="681" 
d="M156 294l75 347l-93 -67l12 59l93 67h43l-87 -406h-43zM564 700h48l-481 -700h-48zM483 -6c-75 0 -106 56 -106 100c0 56 22 101 69 120c-17 18 -25 39 -25 63c0 76 43 135 130 135c60 0 95 -50 95 -94c0 -55 -23 -99 -67 -120c21 -20 31 -47 31 -71
c0 -77 -40 -133 -127 -133zM489 35c43 0 80 33 80 85c0 36 -24 65 -71 65c-43 0 -80 -34 -80 -86c0 -36 24 -64 71 -64zM523 225c47 0 82 40 82 87c0 37 -26 59 -61 59c-47 0 -82 -40 -82 -87c0 -37 26 -59 61 -59z" />
    <glyph glyph-name="twothirds" unicode="&#x2154;" horiz-adv-x="774" 
d="M59 294l9 41l178 160c29 27 67 65 67 110c0 36 -22 60 -65 60s-79 -31 -86 -87h-43c17 88 59 128 135 128c69 0 101 -50 101 -95c0 -69 -38 -109 -81 -146l-144 -130h171l-8 -41h-234zM625 700h48l-481 -700h-48zM554 -6c-69 0 -100 50 -100 95c0 5 0 19 3 27h41
c-2 -9 -3 -16 -3 -21c0 -36 24 -60 65 -60c50 0 86 45 86 90c0 32 -21 59 -60 59h-29l9 41h29c51 0 90 43 90 86c0 36 -23 60 -66 60s-78 -31 -86 -87h-43c17 89 59 128 136 128c69 0 100 -50 100 -95c0 -60 -33 -99 -74 -118c24 -15 36 -39 36 -70
c0 -75 -45 -135 -134 -135z" />
    <glyph glyph-name="uni2156" unicode="&#x2156;" horiz-adv-x="774" 
d="M59 294l9 41l178 160c29 27 67 65 67 110c0 36 -22 60 -65 60s-79 -31 -86 -87h-43c17 88 59 128 135 128c69 0 101 -50 101 -95c0 -69 -38 -109 -81 -146l-144 -130h171l-8 -41h-234zM625 700h48l-481 -700h-48zM565 -6c-69 0 -101 50 -101 95c0 5 0 19 3 27h41
c-3 -9 -2 -16 -2 -21c0 -36 22 -60 65 -60c39 0 74 26 85 77c7 27 7 42 7 49c0 31 -20 56 -65 56c-28 0 -56 -14 -72 -45h-44l50 234h213l-9 -41h-170l-29 -136c13 17 40 28 69 28c69 0 100 -50 100 -95c0 -8 -1 -18 -9 -53c-17 -80 -60 -115 -132 -115z" />
    <glyph glyph-name="uni2157" unicode="&#x2157;" horiz-adv-x="770" 
d="M184 288c-69 0 -100 50 -100 95c0 5 0 19 3 27h41c-2 -9 -3 -16 -3 -21c0 -36 24 -60 65 -60c50 0 86 45 86 90c0 32 -21 59 -60 59h-29l9 41h29c51 0 90 43 90 86c0 36 -23 60 -66 60s-78 -31 -86 -87h-43c17 89 59 128 136 128c69 0 100 -50 100 -95
c0 -60 -33 -99 -74 -118c24 -15 36 -39 36 -70c0 -75 -45 -135 -134 -135zM620 700h48l-481 -700h-48zM561 -6c-69 0 -101 50 -101 95c0 5 0 19 3 27h41c-3 -9 -2 -16 -2 -21c0 -36 22 -60 65 -60c39 0 74 26 85 77c7 27 7 42 7 49c0 31 -20 56 -65 56
c-28 0 -56 -14 -72 -45h-44l50 234h213l-9 -41h-170l-29 -136c13 17 40 28 69 28c69 0 100 -50 100 -95c0 -8 -1 -18 -9 -53c-17 -80 -60 -115 -132 -115z" />
    <glyph glyph-name="threeeighths" unicode="&#x215c;" horiz-adv-x="737" 
d="M184 288c-69 0 -100 50 -100 95c0 5 0 19 3 27h41c-2 -9 -3 -16 -3 -21c0 -36 24 -60 65 -60c50 0 86 45 86 90c0 32 -21 59 -60 59h-29l9 41h29c51 0 90 43 90 86c0 36 -23 60 -66 60s-78 -31 -86 -87h-43c17 89 59 128 136 128c69 0 100 -50 100 -95
c0 -60 -33 -99 -74 -118c24 -15 36 -39 36 -70c0 -75 -45 -135 -134 -135zM620 700h48l-481 -700h-48zM540 -6c-75 0 -106 56 -106 100c0 56 22 101 69 120c-17 18 -25 39 -25 63c0 76 43 135 130 135c60 0 95 -50 95 -94c0 -55 -23 -99 -67 -120c21 -20 31 -47 31 -71
c0 -77 -40 -133 -127 -133zM546 35c43 0 80 33 80 85c0 36 -24 65 -71 65c-43 0 -80 -34 -80 -86c0 -36 24 -64 71 -64zM580 225c47 0 82 40 82 87c0 37 -26 59 -61 59c-47 0 -82 -40 -82 -87c0 -37 26 -59 61 -59z" />
    <glyph glyph-name="uni2158" unicode="&#x2158;" horiz-adv-x="737" 
d="M190 294l23 110h-185l8 39l241 257h43l-55 -257h42l-8 -39h-43l-23 -110h-43zM90 443h132l39 183zM588 700h48l-481 -700h-48zM528 -6c-69 0 -101 50 -101 95c0 5 0 19 3 27h41c-3 -9 -2 -16 -2 -21c0 -36 22 -60 65 -60c39 0 74 26 85 77c7 27 7 42 7 49
c0 31 -20 56 -65 56c-28 0 -56 -14 -72 -45h-44l50 234h213l-9 -41h-170l-29 -136c13 17 40 28 69 28c69 0 100 -50 100 -95c0 -8 -1 -18 -9 -53c-17 -80 -60 -115 -132 -115z" />
    <glyph glyph-name="uni215A" unicode="&#x215a;" horiz-adv-x="767" 
d="M194 288c-69 0 -101 50 -101 95c0 5 0 19 3 27h41c-3 -9 -2 -16 -2 -21c0 -36 22 -60 65 -60c39 0 74 26 85 77c7 27 7 42 7 49c0 31 -20 56 -65 56c-28 0 -56 -14 -72 -45h-44l50 234h213l-9 -41h-170l-29 -136c13 17 40 28 69 28c69 0 100 -50 100 -95
c0 -8 -1 -18 -9 -53c-17 -80 -60 -115 -132 -115zM621 700h48l-481 -700h-48zM553 -6c-69 0 -100 50 -100 95c0 28 28 157 39 208c19 80 61 115 133 115c69 0 100 -50 100 -95c0 -6 -1 -15 -3 -27h-41c2 9 3 16 3 21c0 36 -23 60 -66 60c-39 0 -72 -25 -83 -73l-16 -75
c15 17 44 30 73 30c69 0 100 -50 100 -95c0 -8 -1 -26 -6 -49c-17 -80 -61 -115 -133 -115zM560 35c39 0 72 25 83 73c7 27 6 42 6 49c0 31 -20 56 -64 56c-39 0 -73 -26 -84 -74c-4 -19 -7 -37 -7 -44c0 -36 23 -60 66 -60z" />
    <glyph glyph-name="fiveeighths" unicode="&#x215d;" horiz-adv-x="737" 
d="M194 288c-69 0 -101 50 -101 95c0 5 0 19 3 27h41c-3 -9 -2 -16 -2 -21c0 -36 22 -60 65 -60c39 0 74 26 85 77c7 27 7 42 7 49c0 31 -20 56 -65 56c-28 0 -56 -14 -72 -45h-44l50 234h213l-9 -41h-170l-29 -136c13 17 40 28 69 28c69 0 100 -50 100 -95
c0 -8 -1 -18 -9 -53c-17 -80 -60 -115 -132 -115zM621 700h48l-481 -700h-48zM540 -6c-75 0 -106 56 -106 100c0 56 22 101 69 120c-17 18 -25 39 -25 63c0 76 43 135 130 135c60 0 95 -50 95 -94c0 -55 -23 -99 -67 -120c21 -20 31 -47 31 -71c0 -77 -40 -133 -127 -133z
M546 35c43 0 80 33 80 85c0 36 -24 65 -71 65c-43 0 -80 -34 -80 -86c0 -36 24 -64 71 -64zM580 225c47 0 82 40 82 87c0 37 -26 59 -61 59c-47 0 -82 -40 -82 -87c0 -37 26 -59 61 -59z" />
    <glyph glyph-name="seveneighths" unicode="&#x215e;" horiz-adv-x="668" 
d="M96 294l206 365h-183l9 41h230l-8 -41l-207 -365h-47zM552 700h48l-481 -700h-48zM471 -6c-75 0 -106 56 -106 100c0 56 22 101 69 120c-17 18 -25 39 -25 63c0 76 43 135 130 135c60 0 95 -50 95 -94c0 -55 -23 -99 -67 -120c21 -20 31 -47 31 -71
c0 -77 -40 -133 -127 -133zM477 35c43 0 80 33 80 85c0 36 -24 65 -71 65c-43 0 -80 -34 -80 -86c0 -36 24 -64 71 -64zM511 225c47 0 82 40 82 87c0 37 -26 59 -61 59c-47 0 -82 -40 -82 -87c0 -37 26 -59 61 -59z" />
    <glyph glyph-name="uni215F" unicode="&#x215f;" horiz-adv-x="373" 
d="M156 294l75 347l-93 -67l12 59l93 67h43l-87 -406h-43zM564 700h48l-481 -700h-48z" />
    <glyph glyph-name="fraction" unicode="&#x2044;" horiz-adv-x="89" 
d="M281 700h48l-481 -700h-48z" />
    <glyph glyph-name="a.superior" horiz-adv-x="312" 
d="M185 436c47 0 84 25 95 76l8 36c-67 -4 -97 -7 -129 -20c-23 -9 -36 -22 -36 -49c0 -24 19 -43 62 -43zM176 395c-63 0 -96 40 -96 80c0 52 20 78 77 95c36 11 88 14 139 17c3 12 4 22 4 30c0 35 -31 51 -62 51c-42 0 -70 -20 -85 -59h-43c20 72 65 99 133 99
c52 0 100 -30 100 -85c0 -21 -12 -70 -20 -111l-12 -56c-7 -28 -12 -56 -12 -55h-43l7 32c-16 -23 -48 -38 -87 -38z" />
    <glyph glyph-name="b.superior" horiz-adv-x="320" 
d="M203 436c45 0 78 25 89 76c8 35 19 86 19 105c0 35 -30 51 -62 51c-45 0 -78 -25 -89 -76c-8 -34 -19 -88 -19 -105c0 -36 30 -51 62 -51zM201 395c-35 0 -61 18 -73 43l-8 -37h-43l86 406h43l-29 -136c15 19 42 37 82 37c46 0 96 -30 96 -85c0 -21 -12 -70 -20 -111
c-19 -85 -66 -117 -134 -117z" />
    <glyph glyph-name="c.superior" horiz-adv-x="305" 
d="M189 395c-53 0 -100 30 -100 86c0 20 12 70 20 110c19 87 65 117 138 117c51 0 100 -30 100 -85c0 -5 -1 -10 -2 -17h-43c1 3 1 6 1 11c0 35 -30 51 -62 51c-45 0 -78 -25 -89 -76c-8 -35 -20 -87 -20 -105c0 -36 31 -51 62 -51c41 0 73 21 86 62h43
c-20 -76 -65 -103 -134 -103z" />
    <glyph glyph-name="d.superior" horiz-adv-x="319" 
d="M194 436c47 0 78 25 89 76c8 35 20 86 20 105c0 35 -30 51 -62 51c-45 0 -78 -25 -89 -76c-8 -35 -20 -87 -20 -105c0 -36 31 -51 62 -51zM185 395c-47 0 -96 30 -96 86c0 20 12 70 20 110c19 87 66 117 134 117c35 0 61 -16 73 -43l30 142h43l-86 -406h-43l7 32
c-15 -20 -42 -38 -82 -38z" />
    <glyph glyph-name="e.superior" horiz-adv-x="308" 
d="M189 395c-53 0 -100 30 -100 86c0 20 12 70 20 110c19 87 65 117 138 117c51 0 100 -30 100 -85c0 -16 -7 -49 -14 -82h-192c-5 -23 -9 -43 -9 -54c0 -36 31 -51 62 -51c42 0 70 20 85 59h43c-20 -72 -65 -100 -133 -100zM150 580h148c3 16 5 29 5 37c0 35 -30 51 -62 51
c-51 0 -84 -33 -91 -88z" />
    <glyph glyph-name="f.superior" horiz-adv-x="190" 
d="M92 401l55 259h-42l9 40h42l8 36c11 51 22 71 86 71h45l-8 -41h-46c-21 0 -30 -7 -34 -27l-8 -39h74l-9 -40h-74l-55 -259h-43z" />
    <glyph glyph-name="g.superior" horiz-adv-x="319" 
d="M196 447c45 0 78 25 89 76c7 35 18 75 18 94c0 35 -31 51 -62 51c-47 0 -78 -25 -89 -76c-7 -35 -18 -75 -18 -94c0 -35 31 -51 62 -51zM166 288c-53 0 -100 30 -100 86c0 4 0 10 1 17h43c-1 -3 -1 -6 -1 -11c0 -35 31 -51 62 -51c45 0 78 25 89 76l8 40
c-13 -20 -41 -38 -81 -38c-47 0 -96 30 -96 85c0 21 9 58 18 99c19 87 65 117 133 117c35 0 61 -16 73 -43l8 35h43l-63 -294c-19 -87 -64 -118 -137 -118z" />
    <glyph glyph-name="h.superior" horiz-adv-x="323" 
d="M77 401l86 406h43l-29 -136c15 19 42 37 82 37c46 0 96 -30 96 -85c0 -20 -11 -70 -20 -111l-24 -111h-43l24 111c8 35 19 86 19 105c0 35 -30 51 -62 51c-45 0 -78 -25 -89 -76l-40 -191h-43z" />
    <glyph glyph-name="i.superior" horiz-adv-x="136" 
d="M77 401l64 299h43l-64 -299h-43zM151 751l12 56h43l-12 -56h-43z" />
    <glyph glyph-name="j.superior" horiz-adv-x="136" 
d="M18 294l9 41h8c21 0 30 8 34 27l72 338h43l-72 -335c-11 -51 -22 -71 -85 -71h-9zM151 751l12 56h43l-12 -56h-43z" />
    <glyph glyph-name="k.superior" horiz-adv-x="299" 
d="M206 807l-52 -245l157 138h57l-133 -117l85 -182h-46l-72 154l-61 -55l-21 -99h-43l86 406h43z" />
    <glyph glyph-name="l.superior" horiz-adv-x="153" 
d="M156 401h-9c-39 0 -58 19 -58 50c0 21 9 60 73 356h43c-72 -339 -74 -345 -74 -350c0 -10 8 -15 24 -15h9z" />
    <glyph glyph-name="m.superior" horiz-adv-x="497" 
d="M77 401l64 299h43l-7 -29c15 23 42 37 74 37c36 0 64 -14 83 -42c23 32 59 42 98 42c47 0 96 -30 96 -85c0 -20 -11 -70 -20 -111l-24 -111h-43l24 111c8 35 20 87 20 105c0 35 -29 51 -60 51c-39 0 -71 -29 -82 -76l-41 -191h-43l24 111c8 35 20 87 20 105
c0 35 -29 51 -60 51c-39 0 -72 -29 -83 -76l-40 -191h-43z" />
    <glyph glyph-name="uni207F" unicode="&#x207f;" horiz-adv-x="323" 
d="M77 401l64 299h43l-7 -29c15 19 42 37 82 37c46 0 96 -30 96 -85c0 -20 -11 -70 -20 -111l-24 -111h-43l24 111c8 35 19 86 19 105c0 35 -30 51 -62 51c-45 0 -78 -25 -89 -76l-40 -191h-43z" />
    <glyph glyph-name="o.superior" horiz-adv-x="312" 
d="M194 436c47 0 78 25 89 76c8 35 20 87 20 105c0 35 -30 51 -62 51c-45 0 -78 -25 -89 -76c-8 -35 -20 -87 -20 -105c0 -36 31 -51 62 -51zM189 395c-53 0 -100 30 -100 86c0 20 12 70 20 110c19 87 65 117 138 117c51 0 100 -30 100 -85c0 -21 -12 -70 -21 -111
c-19 -85 -64 -117 -137 -117z" />
    <glyph glyph-name="p.superior" horiz-adv-x="320" 
d="M203 436c45 0 78 25 89 76c8 35 19 86 19 105c0 35 -30 51 -62 51c-45 0 -78 -25 -89 -76c-8 -34 -19 -88 -19 -105c0 -36 30 -51 62 -51zM54 294l87 406h43l-7 -29c15 19 42 37 82 37c46 0 96 -30 96 -85c0 -21 -12 -70 -20 -111c-19 -85 -66 -117 -134 -117
c-35 0 -61 18 -73 43l-31 -144h-43z" />
    <glyph glyph-name="q.superior" horiz-adv-x="319" 
d="M194 436c47 0 78 25 89 76c8 35 20 87 20 105c0 35 -30 51 -62 51c-45 0 -78 -25 -89 -76c-8 -35 -20 -87 -20 -105c0 -36 31 -51 62 -51zM237 294l30 139c-15 -20 -42 -38 -82 -38c-47 0 -96 30 -96 86c0 20 12 70 20 110c19 87 66 117 134 117c35 0 61 -16 73 -43l8 35
h43l-87 -406h-43z" />
    <glyph glyph-name="r.superior" horiz-adv-x="195" 
d="M120 401h-43l64 299h43l-7 -32c13 19 41 38 81 38h19l-9 -41h-19c-45 0 -78 -25 -89 -76z" />
    <glyph glyph-name="s.superior" horiz-adv-x="279" 
d="M187 395c-55 0 -111 30 -111 92c0 5 0 8 1 10h43v-6c0 -39 34 -55 73 -55c27 0 63 12 63 48c0 19 -9 36 -40 45l-39 12c-39 12 -63 35 -63 75c0 55 36 92 107 92c59 0 99 -34 99 -85v-10h-43v4c0 35 -30 51 -59 51c-31 0 -61 -15 -61 -46c0 -19 7 -35 34 -43l40 -11
c40 -12 68 -36 68 -75c0 -60 -36 -98 -112 -98z" />
    <glyph glyph-name="t.superior" horiz-adv-x="204" 
d="M208 401h-46c-39 0 -58 19 -58 50c0 17 7 44 42 209h-43l9 40h42l15 68h43l-15 -68h74l-8 -40h-74c-40 -194 -43 -198 -43 -203c0 -10 8 -15 24 -15h47z" />
    <glyph glyph-name="u.superior" horiz-adv-x="320" 
d="M188 395c-45 0 -95 30 -95 86c0 20 12 70 20 110l23 109h43l-23 -108c-8 -34 -19 -88 -19 -105c0 -35 29 -51 60 -51c44 0 76 25 87 76l40 188h43l-64 -299h-43l7 32c-13 -19 -42 -38 -79 -38z" />
    <glyph glyph-name="v.superior" horiz-adv-x="277" 
d="M145 401l-45 299h42l36 -248l140 248h46l-171 -299h-48z" />
    <glyph glyph-name="w.superior" horiz-adv-x="403" 
d="M120 401l-15 299h41l10 -228l113 228h48l15 -234l110 234h44l-142 -299h-45l-15 239l-119 -239h-45z" />
    <glyph glyph-name="x.superior" horiz-adv-x="281" 
d="M42 401l134 152l-66 147h45l52 -114l99 114h51l-131 -148l68 -151h-44l-53 119l-103 -119h-52z" />
    <glyph glyph-name="y.superior" horiz-adv-x="277" 
d="M60 294l9 41h22c19 0 24 8 31 19l24 41l-46 305h42l36 -248l139 248h47l-214 -374c-13 -23 -34 -31 -73 -32h-17z" />
    <glyph glyph-name="z.superior" horiz-adv-x="277" 
d="M333 660l-211 -218h169l-8 -41h-225l8 41l211 218h-161l8 40h218z" />
    <glyph glyph-name="uni2074" unicode="&#x2074;" horiz-adv-x="302" 
d="M227 401l23 110h-185l8 39l241 257h43l-55 -257h42l-8 -39h-43l-23 -110h-43zM127 550h132l39 183z" />
    <glyph glyph-name="uni2075" unicode="&#x2075;" horiz-adv-x="303" 
d="M196 395c-69 0 -101 50 -101 95c0 5 0 19 3 27h41c-3 -9 -2 -16 -2 -21c0 -36 22 -60 65 -60c39 0 74 26 85 77c7 27 7 42 7 49c0 31 -20 56 -65 56c-28 0 -56 -14 -72 -45h-44l50 234h213l-9 -41h-170l-29 -136c13 17 40 28 69 28c69 0 100 -50 100 -95
c0 -8 -1 -18 -9 -53c-17 -80 -60 -115 -132 -115z" />
    <glyph glyph-name="uni2076" unicode="&#x2076;" horiz-adv-x="307" 
d="M194 395c-69 0 -100 50 -100 95c0 28 28 157 39 208c19 80 61 115 133 115c69 0 100 -50 100 -95c0 -6 -1 -15 -3 -27h-41c2 9 3 16 3 21c0 36 -23 60 -66 60c-39 0 -72 -25 -83 -73l-16 -75c15 17 44 30 73 30c69 0 100 -50 100 -95c0 -8 -1 -26 -6 -49
c-17 -80 -61 -115 -133 -115zM201 436c39 0 72 25 83 73c7 27 6 42 6 49c0 31 -20 56 -64 56c-39 0 -73 -26 -84 -74c-4 -19 -7 -37 -7 -44c0 -36 23 -60 66 -60z" />
    <glyph glyph-name="uni2077" unicode="&#x2077;" horiz-adv-x="261" 
d="M98 401l206 365h-183l9 41h230l-8 -41l-207 -365h-47z" />
    <glyph glyph-name="uni2078" unicode="&#x2078;" horiz-adv-x="298" 
d="M191 395c-75 0 -106 56 -106 100c0 56 22 101 69 120c-17 18 -25 39 -25 63c0 76 43 135 130 135c60 0 95 -50 95 -94c0 -55 -23 -99 -67 -120c21 -20 31 -47 31 -71c0 -77 -40 -133 -127 -133zM197 436c43 0 80 33 80 85c0 36 -24 65 -71 65c-43 0 -80 -34 -80 -86
c0 -36 24 -64 71 -64zM231 626c47 0 82 40 82 87c0 37 -26 59 -61 59c-47 0 -82 -40 -82 -87c0 -37 26 -59 61 -59z" />
    <glyph glyph-name="uni2079" unicode="&#x2079;" horiz-adv-x="307" 
d="M187 395c-69 0 -100 50 -100 95c0 6 1 15 3 27h41c-2 -9 -3 -16 -3 -21c0 -36 23 -60 66 -60c39 0 72 25 83 73l16 75c-15 -17 -44 -30 -73 -30c-69 0 -100 50 -100 95c0 8 1 26 6 49c19 80 61 115 133 115c69 0 100 -50 100 -95c0 -29 -28 -157 -39 -208
c-19 -80 -61 -115 -133 -115zM227 594c39 0 73 26 84 74c4 19 7 37 7 44c0 36 -23 60 -66 60c-39 0 -72 -25 -83 -73c-7 -27 -6 -42 -6 -49c0 -31 20 -56 64 -56z" />
    <glyph glyph-name="uni2070" unicode="&#x2070;" horiz-adv-x="314" 
d="M201 436c39 0 72 25 83 73c8 42 41 179 41 203c0 36 -23 60 -66 60c-39 0 -72 -25 -83 -73c-8 -41 -41 -179 -41 -203c0 -36 23 -60 66 -60zM194 395c-69 0 -100 50 -100 95c0 28 28 157 39 208c19 80 61 115 133 115c69 0 100 -50 100 -95c0 -29 -28 -157 -39 -208
c-19 -80 -61 -115 -133 -115z" />
    <glyph glyph-name="zero.slashed.superior" horiz-adv-x="314" 
d="M194 395c-69 0 -100 50 -100 95c0 28 28 157 39 208c19 80 61 115 133 115c69 0 100 -50 100 -95c0 -29 -28 -157 -39 -208c-19 -80 -61 -115 -133 -115zM201 436c39 0 72 25 83 73c5 27 20 94 31 145l-179 -148c-1 -4 -1 -7 -1 -10c0 -36 23 -60 66 -60zM176 699
c-5 -27 -21 -95 -32 -146l180 150c1 3 1 6 1 9c0 36 -23 60 -66 60c-39 0 -72 -25 -83 -73z" />
    <glyph glyph-name="period.superior" horiz-adv-x="165" 
d="M83 401l13 60h60l-13 -60h-60z" />
    <glyph glyph-name="hyphen.superior" horiz-adv-x="238" 
d="M96 545l7 37h169l-8 -37h-168z" />
    <glyph glyph-name="comma.superior" horiz-adv-x="165" 
d="M83 401l13 60h60l-13 -60l-32 -54h-37l32 54h-23z" />
    <glyph glyph-name="uni207C" unicode="&#x207c;" horiz-adv-x="330" 
d="M113 483v37h234v-37h-234zM113 601v37h234v-37h-234z" />
    <glyph glyph-name="uni207A" unicode="&#x207a;" horiz-adv-x="330" 
d="M113 545v37h99v98h38v-98h97v-37h-97v-99h-38v99h-99z" />
    <glyph glyph-name="uni207B" unicode="&#x207b;" horiz-adv-x="330" 
d="M113 545v37h234v-37h-234z" />
    <glyph glyph-name="uni207D" unicode="&#x207d;" horiz-adv-x="165" 
d="M155 335h-9c-39 0 -58 22 -58 54c0 14 12 61 73 349c11 56 25 69 85 69h9l-8 -36h-12c-24 0 -32 -8 -36 -28c-62 -286 -74 -343 -74 -351c0 -14 9 -21 26 -21h12z" />
    <glyph glyph-name="uni207E" unicode="&#x207e;" horiz-adv-x="165" 
d="M142 807h9c39 0 58 -22 58 -54c0 -14 -12 -61 -73 -349c-13 -56 -23 -69 -85 -69h-9l8 36h12c24 0 32 8 36 28c61 285 74 343 74 351c0 14 -9 21 -26 21h-12z" />
    <glyph glyph-name="a.inferior" horiz-adv-x="312" 
d="M80 -61c47 0 84 25 95 76l8 36c-67 -4 -97 -7 -129 -20c-23 -9 -36 -22 -36 -49c0 -24 19 -43 62 -43zM71 -102c-63 0 -96 40 -96 80c0 52 20 78 77 95c36 11 88 14 139 17c3 12 4 22 4 30c0 35 -31 51 -62 51c-42 0 -70 -20 -85 -59h-43c20 72 65 99 133 99
c52 0 100 -30 100 -85c0 -21 -12 -70 -20 -111l-12 -56c-7 -28 -12 -56 -12 -55h-43l7 32c-16 -23 -48 -38 -87 -38z" />
    <glyph glyph-name="b.inferior" horiz-adv-x="320" 
d="M98 -61c45 0 78 25 89 76c8 35 19 86 19 105c0 35 -30 51 -62 51c-45 0 -78 -25 -89 -76c-8 -34 -19 -88 -19 -105c0 -36 30 -51 62 -51zM96 -102c-35 0 -61 18 -73 43l-8 -37h-43l86 406h43l-29 -136c15 19 42 37 82 37c46 0 96 -30 96 -85c0 -21 -12 -70 -20 -111
c-19 -85 -66 -117 -134 -117z" />
    <glyph glyph-name="c.inferior" horiz-adv-x="305" 
d="M84 -102c-53 0 -100 30 -100 86c0 20 12 70 20 110c19 87 65 117 138 117c51 0 100 -30 100 -85c0 -5 -1 -10 -2 -17h-43c1 3 1 6 1 11c0 35 -30 51 -62 51c-45 0 -78 -25 -89 -76c-8 -35 -20 -87 -20 -105c0 -36 31 -51 62 -51c41 0 73 21 86 62h43
c-20 -76 -65 -103 -134 -103z" />
    <glyph glyph-name="d.inferior" horiz-adv-x="319" 
d="M89 -61c47 0 78 25 89 76c8 35 20 86 20 105c0 35 -30 51 -62 51c-45 0 -78 -25 -89 -76c-8 -35 -20 -87 -20 -105c0 -36 31 -51 62 -51zM80 -102c-47 0 -96 30 -96 86c0 20 12 70 20 110c19 87 66 117 134 117c35 0 61 -16 73 -43l30 142h43l-86 -406h-43l7 32
c-15 -20 -42 -38 -82 -38z" />
    <glyph glyph-name="e.inferior" horiz-adv-x="308" 
d="M84 -102c-53 0 -100 30 -100 86c0 20 12 70 20 110c19 87 65 117 138 117c51 0 100 -30 100 -85c0 -16 -7 -49 -14 -82h-192c-5 -23 -9 -43 -9 -54c0 -36 31 -51 62 -51c42 0 70 20 85 59h43c-20 -72 -65 -100 -133 -100zM45 83h148c3 16 5 29 5 37c0 35 -30 51 -62 51
c-51 0 -84 -33 -91 -88z" />
    <glyph glyph-name="f.inferior" horiz-adv-x="190" 
d="M-13 -96l55 259h-42l9 40h42l8 36c11 51 22 71 86 71h45l-8 -41h-46c-21 0 -30 -7 -34 -27l-8 -39h74l-9 -40h-74l-55 -259h-43z" />
    <glyph glyph-name="g.inferior" horiz-adv-x="319" 
d="M91 -50c45 0 78 25 89 76c7 35 18 75 18 94c0 35 -31 51 -62 51c-47 0 -78 -25 -89 -76c-7 -35 -18 -75 -18 -94c0 -35 31 -51 62 -51zM61 -209c-53 0 -100 30 -100 86c0 4 0 10 1 17h43c-1 -3 -1 -6 -1 -11c0 -35 31 -51 62 -51c45 0 78 25 89 76l8 40
c-13 -20 -41 -38 -81 -38c-47 0 -96 30 -96 85c0 21 9 58 18 99c19 87 65 117 133 117c35 0 61 -16 73 -43l8 35h43l-63 -294c-19 -87 -64 -118 -137 -118z" />
    <glyph glyph-name="h.inferior" horiz-adv-x="323" 
d="M-28 -96l86 406h43l-29 -136c15 19 42 37 82 37c46 0 96 -30 96 -85c0 -20 -11 -70 -20 -111l-24 -111h-43l24 111c8 35 19 86 19 105c0 35 -30 51 -62 51c-45 0 -78 -25 -89 -76l-40 -191h-43z" />
    <glyph glyph-name="i.inferior" horiz-adv-x="136" 
d="M-28 -96l64 299h43l-64 -299h-43zM46 254l12 56h43l-12 -56h-43z" />
    <glyph glyph-name="j.inferior" horiz-adv-x="136" 
d="M-87 -203l9 41h8c21 0 30 8 34 27l72 338h43l-72 -335c-11 -51 -22 -71 -85 -71h-9zM46 254l12 56h43l-12 -56h-43z" />
    <glyph glyph-name="k.inferior" horiz-adv-x="299" 
d="M101 310l-52 -245l157 138h57l-133 -117l85 -182h-46l-72 154l-61 -55l-21 -99h-43l86 406h43z" />
    <glyph glyph-name="l.inferior" horiz-adv-x="153" 
d="M51 -96h-9c-39 0 -58 19 -58 50c0 21 9 60 73 356h43c-72 -339 -74 -345 -74 -350c0 -10 8 -15 24 -15h9z" />
    <glyph glyph-name="m.inferior" horiz-adv-x="497" 
d="M-28 -96l64 299h43l-7 -29c15 23 42 37 74 37c36 0 64 -14 83 -42c23 32 59 42 98 42c47 0 96 -30 96 -85c0 -20 -11 -70 -20 -111l-24 -111h-43l24 111c8 35 20 87 20 105c0 35 -29 51 -60 51c-39 0 -71 -29 -82 -76l-41 -191h-43l24 111c8 35 20 87 20 105
c0 35 -29 51 -60 51c-39 0 -72 -29 -83 -76l-40 -191h-43z" />
    <glyph glyph-name="n.inferior" horiz-adv-x="323" 
d="M-28 -96l64 299h43l-7 -29c15 19 42 37 82 37c46 0 96 -30 96 -85c0 -20 -11 -70 -20 -111l-24 -111h-43l24 111c8 35 19 86 19 105c0 35 -30 51 -62 51c-45 0 -78 -25 -89 -76l-40 -191h-43z" />
    <glyph glyph-name="o.inferior" horiz-adv-x="312" 
d="M89 -61c47 0 78 25 89 76c8 35 20 87 20 105c0 35 -30 51 -62 51c-45 0 -78 -25 -89 -76c-8 -35 -20 -87 -20 -105c0 -36 31 -51 62 -51zM84 -102c-53 0 -100 30 -100 86c0 20 12 70 20 110c19 87 65 117 138 117c51 0 100 -30 100 -85c0 -21 -12 -70 -21 -111
c-19 -85 -64 -117 -137 -117z" />
    <glyph glyph-name="p.inferior" horiz-adv-x="320" 
d="M98 -61c45 0 78 25 89 76c8 35 19 86 19 105c0 35 -30 51 -62 51c-45 0 -78 -25 -89 -76c-8 -34 -19 -88 -19 -105c0 -36 30 -51 62 -51zM-51 -203l87 406h43l-7 -29c15 19 42 37 82 37c46 0 96 -30 96 -85c0 -21 -12 -70 -20 -111c-19 -85 -66 -117 -134 -117
c-35 0 -61 18 -73 43l-31 -144h-43z" />
    <glyph glyph-name="q.inferior" horiz-adv-x="319" 
d="M89 -61c47 0 78 25 89 76c8 35 20 87 20 105c0 35 -30 51 -62 51c-45 0 -78 -25 -89 -76c-8 -35 -20 -87 -20 -105c0 -36 31 -51 62 -51zM132 -203l30 139c-15 -20 -42 -38 -82 -38c-47 0 -96 30 -96 86c0 20 12 70 20 110c19 87 66 117 134 117c35 0 61 -16 73 -43l8 35
h43l-87 -406h-43z" />
    <glyph glyph-name="r.inferior" horiz-adv-x="195" 
d="M15 -96h-43l64 299h43l-7 -32c13 19 41 38 81 38h19l-9 -41h-19c-45 0 -78 -25 -89 -76z" />
    <glyph glyph-name="s.inferior" horiz-adv-x="279" 
d="M82 -102c-55 0 -111 30 -111 92c0 5 0 8 1 10h43v-6c0 -39 34 -55 73 -55c27 0 63 12 63 48c0 19 -9 36 -40 45l-39 12c-39 12 -63 35 -63 75c0 55 36 92 107 92c59 0 99 -34 99 -85v-10h-43v4c0 35 -30 51 -59 51c-31 0 -61 -15 -61 -46c0 -19 7 -35 34 -43l40 -11
c40 -12 68 -36 68 -75c0 -60 -36 -98 -112 -98z" />
    <glyph glyph-name="t.inferior" horiz-adv-x="204" 
d="M103 -96h-46c-39 0 -58 19 -58 50c0 17 7 44 42 209h-43l9 40h42l15 68h43l-15 -68h74l-8 -40h-74c-40 -194 -43 -198 -43 -203c0 -10 8 -15 24 -15h47z" />
    <glyph glyph-name="u.inferior" horiz-adv-x="320" 
d="M83 -102c-45 0 -95 30 -95 86c0 20 12 70 20 110l23 109h43l-23 -108c-8 -34 -19 -88 -19 -105c0 -35 29 -51 60 -51c44 0 76 25 87 76l40 188h43l-64 -299h-43l7 32c-13 -19 -42 -38 -79 -38z" />
    <glyph glyph-name="v.inferior" horiz-adv-x="277" 
d="M40 -96l-45 299h42l36 -248l140 248h46l-171 -299h-48z" />
    <glyph glyph-name="w.inferior" horiz-adv-x="403" 
d="M15 -96l-15 299h41l10 -228l113 228h48l15 -234l110 234h44l-142 -299h-45l-15 239l-119 -239h-45z" />
    <glyph glyph-name="x.inferior" horiz-adv-x="281" 
d="M-63 -96l134 152l-66 147h45l52 -114l99 114h51l-131 -148l68 -151h-44l-53 119l-103 -119h-52z" />
    <glyph glyph-name="y.inferior" horiz-adv-x="277" 
d="M-45 -203l9 41h22c19 0 24 8 31 19l24 41l-46 305h42l36 -248l139 248h47l-214 -374c-13 -23 -34 -31 -73 -32h-17z" />
    <glyph glyph-name="z.inferior" horiz-adv-x="277" 
d="M228 163l-211 -218h169l-8 -41h-225l8 41l211 218h-161l8 40h218z" />
    <glyph glyph-name="uni2081" unicode="&#x2081;" horiz-adv-x="204" 
d="M33 -96l75 347l-93 -67l12 59l93 67h43l-87 -406h-43z" />
    <glyph glyph-name="uni2082" unicode="&#x2082;" horiz-adv-x="299" 
d="M-44 -96l9 41l178 160c29 27 67 65 67 110c0 36 -22 60 -65 60s-79 -31 -86 -87h-43c17 88 59 128 135 128c69 0 101 -50 101 -95c0 -69 -38 -109 -81 -146l-144 -130h171l-8 -41h-234z" />
    <glyph glyph-name="uni2083" unicode="&#x2083;" horiz-adv-x="300" 
d="M81 -102c-69 0 -100 50 -100 95c0 5 0 19 3 27h41c-2 -9 -3 -16 -3 -21c0 -36 24 -60 65 -60c50 0 86 45 86 90c0 32 -21 59 -60 59h-29l9 41h29c51 0 90 43 90 86c0 36 -23 60 -66 60s-78 -31 -86 -87h-43c17 89 59 128 136 128c69 0 100 -50 100 -95
c0 -60 -33 -99 -74 -118c24 -15 36 -39 36 -70c0 -75 -45 -135 -134 -135z" />
    <glyph glyph-name="uni2084" unicode="&#x2084;" horiz-adv-x="302" 
d="M122 -96l23 110h-185l8 39l241 257h43l-55 -257h42l-8 -39h-43l-23 -110h-43zM22 53h132l39 183z" />
    <glyph glyph-name="uni2085" unicode="&#x2085;" horiz-adv-x="303" 
d="M91 -102c-69 0 -101 50 -101 95c0 5 0 19 3 27h41c-3 -9 -2 -16 -2 -21c0 -36 22 -60 65 -60c39 0 74 26 85 77c7 27 7 42 7 49c0 31 -20 56 -65 56c-28 0 -56 -14 -72 -45h-44l50 234h213l-9 -41h-170l-29 -136c13 17 40 28 69 28c69 0 100 -50 100 -95
c0 -8 -1 -18 -9 -53c-17 -80 -60 -115 -132 -115z" />
    <glyph glyph-name="uni2086" unicode="&#x2086;" horiz-adv-x="307" 
d="M89 -102c-69 0 -100 50 -100 95c0 28 28 157 39 208c19 80 61 115 133 115c69 0 100 -50 100 -95c0 -6 -1 -15 -3 -27h-41c2 9 3 16 3 21c0 36 -23 60 -66 60c-39 0 -72 -25 -83 -73l-16 -75c15 17 44 30 73 30c69 0 100 -50 100 -95c0 -8 -1 -26 -6 -49
c-17 -80 -61 -115 -133 -115zM96 -61c39 0 72 25 83 73c7 27 6 42 6 49c0 31 -20 56 -64 56c-39 0 -73 -26 -84 -74c-4 -19 -7 -37 -7 -44c0 -36 23 -60 66 -60z" />
    <glyph glyph-name="uni2087" unicode="&#x2087;" horiz-adv-x="261" 
d="M-7 -96l206 365h-183l9 41h230l-8 -41l-207 -365h-47z" />
    <glyph glyph-name="uni2088" unicode="&#x2088;" horiz-adv-x="298" 
d="M86 -102c-75 0 -106 56 -106 100c0 56 22 101 69 120c-17 18 -25 39 -25 63c0 76 43 135 130 135c60 0 95 -50 95 -94c0 -55 -23 -99 -67 -120c21 -20 31 -47 31 -71c0 -77 -40 -133 -127 -133zM92 -61c43 0 80 33 80 85c0 36 -24 65 -71 65c-43 0 -80 -34 -80 -86
c0 -36 24 -64 71 -64zM126 129c47 0 82 40 82 87c0 37 -26 59 -61 59c-47 0 -82 -40 -82 -87c0 -37 26 -59 61 -59z" />
    <glyph glyph-name="uni2089" unicode="&#x2089;" horiz-adv-x="307" 
d="M82 -102c-69 0 -100 50 -100 95c0 6 1 15 3 27h41c-2 -9 -3 -16 -3 -21c0 -36 23 -60 66 -60c39 0 72 25 83 73l16 75c-15 -17 -44 -30 -73 -30c-69 0 -100 50 -100 95c0 8 1 26 6 49c19 80 61 115 133 115c69 0 100 -50 100 -95c0 -29 -28 -157 -39 -208
c-19 -80 -61 -115 -133 -115zM122 97c39 0 73 26 84 74c4 19 7 37 7 44c0 36 -23 60 -66 60c-39 0 -72 -25 -83 -73c-7 -27 -6 -42 -6 -49c0 -31 20 -56 64 -56z" />
    <glyph glyph-name="uni2080" unicode="&#x2080;" horiz-adv-x="314" 
d="M96 -61c39 0 72 25 83 73c8 42 41 179 41 203c0 36 -23 60 -66 60c-39 0 -72 -25 -83 -73c-8 -41 -41 -179 -41 -203c0 -36 23 -60 66 -60zM89 -102c-69 0 -100 50 -100 95c0 28 28 157 39 208c19 80 61 115 133 115c69 0 100 -50 100 -95c0 -29 -28 -157 -39 -208
c-19 -80 -61 -115 -133 -115z" />
    <glyph glyph-name="zero.slashed.inferior" horiz-adv-x="314" 
d="M88 -103c-69 0 -100 50 -100 95c0 28 28 157 39 208c19 80 61 115 133 115c69 0 100 -50 100 -95c0 -29 -28 -157 -39 -208c-19 -80 -61 -115 -133 -115zM95 -62c39 0 72 25 83 73c5 27 20 94 31 145l-179 -148c-1 -4 -1 -7 -1 -10c0 -36 23 -60 66 -60zM70 201
c-5 -27 -21 -95 -32 -146l180 150c1 3 1 6 1 9c0 36 -23 60 -66 60c-39 0 -72 -25 -83 -73z" />
    <glyph glyph-name="period.inferior" horiz-adv-x="165" 
d="M-22 -96l13 60h60l-13 -60h-60z" />
    <glyph glyph-name="hyphen.inferior" horiz-adv-x="238" 
d="M-9 48l7 37h169l-8 -37h-168z" />
    <glyph glyph-name="comma.inferior" horiz-adv-x="165" 
d="M-22 -96l13 60h60l-13 -60l-32 -54h-37l32 54h-23z" />
    <glyph glyph-name="equal.inferior" horiz-adv-x="330" 
d="M8 -14v37h234v-37h-234zM8 104v37h234v-37h-234z" />
    <glyph glyph-name="plus.inferior" horiz-adv-x="330" 
d="M8 48v37h99v98h38v-98h97v-37h-97v-99h-38v99h-99z" />
    <glyph glyph-name="minus.inferior" horiz-adv-x="330" 
d="M8 48v37h234v-37h-234z" />
    <glyph glyph-name="uni208D" unicode="&#x208d;" horiz-adv-x="165" 
d="M50 -162h-9c-39 0 -58 22 -58 54c0 14 12 61 73 349c11 56 25 69 85 69h9l-8 -36h-12c-24 0 -32 -8 -36 -28c-62 -286 -74 -343 -74 -351c0 -14 9 -21 26 -21h12z" />
    <glyph glyph-name="uni208E" unicode="&#x208e;" horiz-adv-x="165" 
d="M37 310h9c39 0 58 -22 58 -54c0 -14 -12 -61 -73 -349c-13 -56 -23 -69 -85 -69h-9l8 36h12c24 0 32 8 36 28c61 285 74 343 74 351c0 14 -9 21 -26 21h-12z" />
    <glyph glyph-name="one.numerator" horiz-adv-x="284" 
d="M156 294l75 347l-93 -67l12 59l93 67h43l-87 -406h-43z" />
    <glyph glyph-name="two.numerator" horiz-adv-x="344" 
d="M59 294l9 41l178 160c29 27 67 65 67 110c0 36 -22 60 -65 60s-79 -31 -86 -87h-43c17 88 59 128 135 128c69 0 101 -50 101 -95c0 -69 -38 -109 -81 -146l-144 -130h171l-8 -41h-234z" />
    <glyph glyph-name="three.numerator" horiz-adv-x="340" 
d="M184 288c-69 0 -100 50 -100 95c0 5 0 19 3 27h41c-2 -9 -3 -16 -3 -21c0 -36 24 -60 65 -60c50 0 86 45 86 90c0 32 -21 59 -60 59h-29l9 41h29c51 0 90 43 90 86c0 36 -23 60 -66 60s-78 -31 -86 -87h-43c17 89 59 128 136 128c69 0 100 -50 100 -95
c0 -60 -33 -99 -74 -118c24 -15 36 -39 36 -70c0 -75 -45 -135 -134 -135z" />
    <glyph glyph-name="four.numerator" horiz-adv-x="307" 
d="M190 294l23 110h-185l8 39l241 257h43l-55 -257h42l-8 -39h-43l-23 -110h-43zM90 443h132l39 183z" />
    <glyph glyph-name="five.numerator" horiz-adv-x="341" 
d="M194 288c-69 0 -101 50 -101 95c0 5 0 19 3 27h41c-3 -9 -2 -16 -2 -21c0 -36 22 -60 65 -60c39 0 74 26 85 77c7 27 7 42 7 49c0 31 -20 56 -65 56c-28 0 -56 -14 -72 -45h-44l50 234h213l-9 -41h-170l-29 -136c13 17 40 28 69 28c69 0 100 -50 100 -95
c0 -8 -1 -18 -9 -53c-17 -80 -60 -115 -132 -115z" />
    <glyph glyph-name="six.numerator" horiz-adv-x="337" 
d="M187 288c-69 0 -100 50 -100 95c0 28 28 157 39 208c19 80 61 115 133 115c69 0 100 -50 100 -95c0 -6 -1 -15 -3 -27h-41c2 9 3 16 3 21c0 36 -23 60 -66 60c-39 0 -72 -25 -83 -73l-16 -75c15 17 44 30 73 30c69 0 100 -50 100 -95c0 -8 -1 -26 -6 -49
c-17 -80 -61 -115 -133 -115zM194 329c39 0 72 25 83 73c7 27 6 42 6 49c0 31 -20 56 -64 56c-39 0 -73 -26 -84 -74c-4 -19 -7 -37 -7 -44c0 -36 23 -60 66 -60z" />
    <glyph glyph-name="seven.numerator" horiz-adv-x="271" 
d="M96 294l206 365h-183l9 41h230l-8 -41l-207 -365h-47z" />
    <glyph glyph-name="eight.numerator" horiz-adv-x="308" 
d="M174 288c-75 0 -106 56 -106 100c0 56 22 101 69 120c-17 18 -25 39 -25 63c0 76 43 135 130 135c60 0 95 -50 95 -94c0 -55 -23 -99 -67 -120c21 -20 31 -47 31 -71c0 -77 -40 -133 -127 -133zM180 329c43 0 80 33 80 85c0 36 -24 65 -71 65c-43 0 -80 -34 -80 -86
c0 -36 24 -64 71 -64zM214 519c47 0 82 40 82 87c0 37 -26 59 -61 59c-47 0 -82 -40 -82 -87c0 -37 26 -59 61 -59z" />
    <glyph glyph-name="nine.numerator" horiz-adv-x="336" 
d="M180 288c-69 0 -100 50 -100 95c0 6 1 15 3 27h41c-2 -9 -3 -16 -3 -21c0 -36 23 -60 66 -60c39 0 72 25 83 73l16 75c-15 -17 -44 -30 -73 -30c-69 0 -100 50 -100 95c0 8 1 26 6 49c19 80 61 115 133 115c69 0 100 -50 100 -95c0 -29 -28 -157 -39 -208
c-19 -80 -61 -115 -133 -115zM220 487c39 0 73 26 84 74c4 19 7 37 7 44c0 36 -23 60 -66 60c-39 0 -72 -25 -83 -73c-7 -27 -6 -42 -6 -49c0 -31 20 -56 64 -56z" />
    <glyph glyph-name="zero.numerator" horiz-adv-x="343" 
d="M194 329c39 0 72 25 83 73c8 42 41 179 41 203c0 36 -23 60 -66 60c-39 0 -72 -25 -83 -73c-8 -41 -41 -179 -41 -203c0 -36 23 -60 66 -60zM187 288c-69 0 -100 50 -100 95c0 28 28 157 39 208c19 80 61 115 133 115c69 0 100 -50 100 -95c0 -29 -28 -157 -39 -208
c-19 -80 -61 -115 -133 -115z" />
    <glyph glyph-name="zero.slashed.numerator" horiz-adv-x="344" 
d="M187 288c-69 0 -100 50 -100 95c0 28 28 157 39 208c19 80 61 115 133 115c69 0 100 -50 100 -95c0 -29 -28 -157 -39 -208c-19 -80 -61 -115 -133 -115zM194 329c39 0 72 25 83 73c5 27 20 94 31 145l-179 -148c-1 -4 -1 -7 -1 -10c0 -36 23 -60 66 -60zM169 592
c-5 -27 -21 -95 -32 -146l180 150c1 3 1 6 1 9c0 36 -23 60 -66 60c-39 0 -72 -25 -83 -73z" />
    <glyph glyph-name="one.denominator" horiz-adv-x="284" 
d="M93 0l75 347l-93 -67l12 59l93 67h43l-87 -406h-43z" />
    <glyph glyph-name="two.denominator" horiz-adv-x="344" 
d="M-4 0l9 41l178 160c29 27 67 65 67 110c0 36 -22 60 -65 60s-79 -31 -86 -87h-43c17 88 59 128 135 128c69 0 101 -50 101 -95c0 -69 -38 -109 -81 -146l-144 -130h171l-8 -41h-234z" />
    <glyph glyph-name="three.denominator" horiz-adv-x="340" 
d="M121 -6c-69 0 -100 50 -100 95c0 5 0 19 3 27h41c-2 -9 -3 -16 -3 -21c0 -36 24 -60 65 -60c50 0 86 45 86 90c0 32 -21 59 -60 59h-29l9 41h29c51 0 90 43 90 86c0 36 -23 60 -66 60s-78 -31 -86 -87h-43c17 89 59 128 136 128c69 0 100 -50 100 -95
c0 -60 -33 -99 -74 -118c24 -15 36 -39 36 -70c0 -75 -45 -135 -134 -135z" />
    <glyph glyph-name="four.denominator" horiz-adv-x="307" 
d="M128 0l23 110h-185l8 39l241 257h43l-55 -257h42l-8 -39h-43l-23 -110h-43zM28 149h132l39 183z" />
    <glyph glyph-name="five.denominator" horiz-adv-x="341" 
d="M132 -6c-69 0 -101 50 -101 95c0 5 0 19 3 27h41c-3 -9 -2 -16 -2 -21c0 -36 22 -60 65 -60c39 0 74 26 85 77c7 27 7 42 7 49c0 31 -20 56 -65 56c-28 0 -56 -14 -72 -45h-44l50 234h213l-9 -41h-170l-29 -136c13 17 40 28 69 28c69 0 100 -50 100 -95
c0 -8 -1 -18 -9 -53c-17 -80 -60 -115 -132 -115z" />
    <glyph glyph-name="six.denominator" horiz-adv-x="337" 
d="M124 -6c-69 0 -100 50 -100 95c0 28 28 157 39 208c19 80 61 115 133 115c69 0 100 -50 100 -95c0 -6 -1 -15 -3 -27h-41c2 9 3 16 3 21c0 36 -23 60 -66 60c-39 0 -72 -25 -83 -73l-16 -75c15 17 44 30 73 30c69 0 100 -50 100 -95c0 -8 -1 -26 -6 -49
c-17 -80 -61 -115 -133 -115zM131 35c39 0 72 25 83 73c7 27 6 42 6 49c0 31 -20 56 -64 56c-39 0 -73 -26 -84 -74c-4 -19 -7 -37 -7 -44c0 -36 23 -60 66 -60z" />
    <glyph glyph-name="seven.denominator" horiz-adv-x="271" 
d="M34 0l206 365h-183l9 41h230l-8 -41l-207 -365h-47z" />
    <glyph glyph-name="eight.denominator" horiz-adv-x="308" 
d="M111 -6c-75 0 -106 56 -106 100c0 56 22 101 69 120c-17 18 -25 39 -25 63c0 76 43 135 130 135c60 0 95 -50 95 -94c0 -55 -23 -99 -67 -120c21 -20 31 -47 31 -71c0 -77 -40 -133 -127 -133zM117 35c43 0 80 33 80 85c0 36 -24 65 -71 65c-43 0 -80 -34 -80 -86
c0 -36 24 -64 71 -64zM151 225c47 0 82 40 82 87c0 37 -26 59 -61 59c-47 0 -82 -40 -82 -87c0 -37 26 -59 61 -59z" />
    <glyph glyph-name="nine.denominator" horiz-adv-x="336" 
d="M117 -6c-69 0 -100 50 -100 95c0 6 1 15 3 27h41c-2 -9 -3 -16 -3 -21c0 -36 23 -60 66 -60c39 0 72 25 83 73l16 75c-15 -17 -44 -30 -73 -30c-69 0 -100 50 -100 95c0 8 1 26 6 49c19 80 61 115 133 115c69 0 100 -50 100 -95c0 -29 -28 -157 -39 -208
c-19 -80 -61 -115 -133 -115zM157 193c39 0 73 26 84 74c4 19 7 37 7 44c0 36 -23 60 -66 60c-39 0 -72 -25 -83 -73c-7 -27 -6 -42 -6 -49c0 -31 20 -56 64 -56z" />
    <glyph glyph-name="zero.denominator" horiz-adv-x="343" 
d="M131 35c39 0 72 25 83 73c8 42 41 179 41 203c0 36 -23 60 -66 60c-39 0 -72 -25 -83 -73c-8 -41 -41 -179 -41 -203c0 -36 23 -60 66 -60zM124 -6c-69 0 -100 50 -100 95c0 28 28 157 39 208c19 80 61 115 133 115c69 0 100 -50 100 -95c0 -29 -28 -157 -39 -208
c-19 -80 -61 -115 -133 -115z" />
    <glyph glyph-name="zero.slashed.denominator" horiz-adv-x="343" 
d="M124 -6c-69 0 -100 50 -100 95c0 28 28 157 39 208c19 80 61 115 133 115c69 0 100 -50 100 -95c0 -29 -28 -157 -39 -208c-19 -80 -61 -115 -133 -115zM131 35c39 0 72 25 83 73c5 27 20 94 31 145l-179 -148c-1 -4 -1 -7 -1 -10c0 -36 23 -60 66 -60zM106 298
c-5 -27 -21 -95 -32 -146l180 150c1 3 1 6 1 9c0 36 -23 60 -66 60c-39 0 -72 -25 -83 -73z" />
    <glyph glyph-name="ampersand.case" horiz-adv-x="605" 
d="M405 0h-203c-101 0 -158 75 -158 168c0 89 38 162 134 198c-43 27 -66 79 -66 130c0 148 102 204 231 204h156l-11 -52h-153c-96 0 -169 -49 -169 -142c0 -64 40 -127 113 -127h152l17 81h55l-18 -81h128l-11 -51h-128zM213 52h149l58 276h-148c-98 0 -174 -46 -174 -152
c0 -60 30 -124 115 -124z" />
    <glyph glyph-name="hyphen.case" horiz-adv-x="420" 
d="M368 315h-290l9 45h290z" />
    <glyph glyph-name="endash.case" horiz-adv-x="526" 
d="M474 315h-396l9 45h396z" />
    <glyph glyph-name="emdash.case" horiz-adv-x="829" 
d="M777 315h-699l9 45h699z" />
    <glyph glyph-name="question.case" horiz-adv-x="515" 
d="M163 500h-55c27 152 116 210 229 210c75 0 170 -43 170 -155c0 -80 -48 -150 -113 -201l-71 -55c-36 -28 -45 -42 -50 -67l-4 -22h-55l4 22c8 37 27 74 76 111l72 55c48 36 87 83 87 148c0 80 -48 112 -125 112c-95 0 -152 -73 -165 -158zM152 0l18 84h84l-18 -84h-84z
" />
    <glyph glyph-name="questiondown.case" horiz-adv-x="515" 
d="M373 200h55c-29 -152 -114 -210 -229 -210c-75 0 -170 43 -170 155c0 80 48 150 113 201l71 55c36 28 45 42 50 67l4 22h55l-4 -22c-8 -37 -27 -74 -76 -111l-72 -55c-48 -36 -87 -83 -87 -148c0 -80 48 -112 125 -112c95 0 152 73 165 158zM384 700l-18 -84h-84l18 84
h84z" />
    <glyph glyph-name="exclam.case" horiz-adv-x="275" 
d="M203 700h55l-104 -490h-55zM40 0l18 84h84l-18 -84h-84z" />
    <glyph glyph-name="exclamdown.case" horiz-adv-x="275" 
d="M110 0h-55l104 490h55zM273 700l-18 -84h-84l18 84h84z" />
    <glyph glyph-name="guilsinglleft.case" horiz-adv-x="304" 
d="M207 160l-131 143l11 54l193 143l-14 -65l-148 -110l101 -110z" />
    <glyph glyph-name="guilsinglright.case" horiz-adv-x="304" 
d="M126 500l131 -143l-11 -54l-193 -143l14 65l148 110l-101 110z" />
    <glyph glyph-name="guillemotleft.case" horiz-adv-x="471" 
d="M207 160l-131 143l11 54l193 143l-14 -65l-148 -110l101 -110zM374 160l-131 143l11 54l193 143l-14 -65l-148 -110l101 -110z" />
    <glyph glyph-name="guillemotright.case" horiz-adv-x="471" 
d="M126 500l131 -143l-11 -54l-193 -143l14 65l148 110l-101 110zM293 500l131 -143l-11 -54l-193 -143l14 65l148 110l-101 110z" />
    <glyph glyph-name="parenleft.case" horiz-adv-x="273" 
d="M179 597c19 85 44 103 129 103h10l-9 -41h-10c-53 0 -66 -14 -77 -62c-88 -413 -108 -501 -108 -521c0 -25 10 -35 54 -35h10l-9 -41h-10c-64 0 -88 31 -88 78c0 17 20 108 108 519z" />
    <glyph glyph-name="parenright.case" horiz-adv-x="272" 
d="M133 103c-19 -85 -44 -103 -129 -103h-10l9 41h10c53 0 66 14 77 62c88 414 108 500 108 521c0 25 -10 35 -54 35h-10l9 41h10c64 0 88 -31 88 -78c0 -17 -20 -108 -108 -519z" />
    <glyph glyph-name="bracketleft.case" horiz-adv-x="272" 
d="M51 0l149 700h117l-9 -41h-74l-131 -618h74l-9 -41h-117z" />
    <glyph glyph-name="bracketright.case" horiz-adv-x="272" 
d="M260 700l-149 -700h-116l9 41h73l131 618h-74l9 41h117z" />
    <glyph glyph-name="braceleft.case" horiz-adv-x="314" 
d="M149 299c0 24 -13 36 -54 36h-10l9 42h10c53 0 68 20 77 61l34 159c19 85 44 103 129 103h10l-9 -41h-10c-53 0 -66 -14 -77 -62l-34 -159c-11 -45 -23 -73 -51 -88c11 -11 19 -27 19 -50c0 -32 -42 -192 -42 -224c0 -25 10 -35 54 -35h10l-9 -41h-10
c-64 0 -88 31 -88 78c0 29 42 193 42 221z" />
    <glyph glyph-name="braceright.case" horiz-adv-x="314" 
d="M204 401c0 -24 13 -36 54 -36h10l-9 -42h-10c-53 0 -68 -20 -77 -61l-34 -159c-19 -85 -44 -103 -129 -103h-10l9 41h10c53 0 66 14 77 62l34 159c11 45 23 73 51 88c-11 11 -19 27 -19 50c0 32 42 192 42 224c0 25 -10 35 -54 35h-10l9 41h10c64 0 88 -31 88 -78
c0 -29 -42 -193 -42 -221z" />
    <glyph glyph-name="bar.case" horiz-adv-x="223" 
d="M109 0v700h43v-700h-43z" />
    <glyph glyph-name="brokenbar.case" horiz-adv-x="223" 
d="M109 0v289h43v-289h-43zM109 411v289h43v-289h-43z" />
    <glyph glyph-name="periodcentered.case" horiz-adv-x="284" 
d="M111 305l17 84h84l-17 -84h-84z" />
    <glyph glyph-name="at.case" horiz-adv-x="872" 
d="M600 411v9c0 93 -61 151 -145 151c-75 0 -130 -44 -142 -119h-54c13 125 110 170 196 170c92 0 198 -53 198 -202v-232c0 -31 15 -63 58 -63c41 0 57 32 57 63v295c0 120 -90 277 -313 277s-313 -157 -313 -277v-266c0 -120 90 -277 313 -277c87 0 152 24 201 59l25 -36
c-56 -39 -130 -65 -226 -65c-256 0 -356 182 -356 319v266c0 137 100 319 356 319s356 -182 356 -319v-287c0 -79 -38 -114 -102 -114s-98 37 -109 73c-33 -48 -93 -73 -172 -73c-112 0 -172 69 -172 152c0 68 32 124 112 148c60 19 144 24 232 29zM600 284v80
c-116 -7 -187 -13 -226 -32c-49 -23 -65 -53 -65 -94c0 -56 35 -105 131 -105c92 0 160 60 160 151z" />
    <glyph glyph-name="plus.case" 
d="M274 139v176h-176v45h176v175h45v-175h175v-45h-175v-176h-45z" />
    <glyph glyph-name="minus.case" 
d="M494 315h-396v45h396v-45z" />
    <glyph glyph-name="divide.case" 
d="M255 536c0 23 19 42 42 42s42 -19 42 -42s-19 -42 -42 -42s-42 19 -42 42zM255 139c0 23 19 42 42 42s42 -19 42 -42s-19 -42 -42 -42s-42 19 -42 42zM494 315h-396v45h396v-45z" />
    <glyph glyph-name="multiply.case" 
d="M498 507l-171 -170l171 -169l-32 -32l-171 169l-170 -169l-32 32l170 169l-170 170l32 32l170 -170l171 170z" />
    <glyph glyph-name="equal.case" 
d="M98 452h396v-45h-396v45zM494 212h-396v45h396v-45z" />
    <glyph glyph-name="plusminus.case" 
d="M274 374h-176v45h176v154h45v-154h175v-45h-175v-154h-45v154zM494 57h-396v45h396v-45z" />
    <glyph glyph-name="less.case" 
d="M141 316l353 -213v-51l-396 239v50l396 239v-51z" />
    <glyph glyph-name="greater.case" 
d="M98 103l353 213l-353 213v51l396 -239v-50l-396 -239v51z" />
    <glyph glyph-name="lessequal.case" 
d="M494 176l-396 180v44l396 180v-48l-338 -154l338 -154v-48zM494 57h-396v45h396v-45z" />
    <glyph glyph-name="greaterequal.case" 
d="M494 356l-396 -180v48l338 154l-338 154v48l396 -180v-44zM494 57h-396v45h396v-45z" />
    <glyph glyph-name="notequal.case" 
d="M145 212h-47v45h92l150 150h-242v45h287l79 79l30 -31l-48 -48h48v-45h-93l-150 -150h243v-45h-288l-78 -78l-30 31z" />
    <glyph glyph-name="acute.case" horiz-adv-x="315" 
d="M286 854h86l-128 -109h-58z" />
    <glyph glyph-name="breve.case" horiz-adv-x="390" 
d="M277 796h55c31 0 69 29 74 58h56c-13 -60 -71 -109 -132 -109h-64c-52 0 -89 37 -89 86c0 7 1 15 3 23h48c-1 -3 -1 -7 -1 -12c0 -27 19 -46 50 -46z" />
    <glyph glyph-name="caron.case" horiz-adv-x="428" 
d="M291 745l-102 109h67l66 -63l92 63h77l-148 -109h-52z" />
    <glyph glyph-name="cedilla.case" horiz-adv-x="251" 
d="M-25 -158l53 158h56l-38 -158h-71z" />
    <glyph glyph-name="circumflex.case" horiz-adv-x="428" 
d="M356 854l102 -109h-67l-66 63l-92 -63h-77l148 109h52z" />
    <glyph glyph-name="dieresis.case" horiz-adv-x="410" 
d="M251 843l-19 -87h-55l19 87h55zM462 843l-19 -87h-55l19 87h55z" />
    <glyph glyph-name="dotaccent.case" horiz-adv-x="173" 
d="M238 843l-19 -87h-55l19 87h55z" />
    <glyph glyph-name="grave.case" horiz-adv-x="315" 
d="M187 854h81l77 -109h-53z" />
    <glyph glyph-name="hungarumlaut.case" horiz-adv-x="464" 
d="M276 854h81l-118 -109h-53zM440 854h81l-118 -109h-53z" />
    <glyph glyph-name="macron.case" horiz-adv-x="427" 
d="M468 774h-289l9 47h289z" />
    <glyph glyph-name="ogonek.case" horiz-adv-x="232" 
d="M67 0h55c-35 -21 -105 -55 -105 -106c0 -23 13 -32 32 -32c15 0 31 5 46 12l-11 -50c-16 -9 -34 -13 -50 -13c-47 0 -73 32 -73 71c0 61 47 95 106 118z" />
    <glyph glyph-name="ring.case" horiz-adv-x="255" 
d="M168 799c0 41 33 75 74 75s75 -34 75 -75s-34 -74 -75 -74s-74 33 -74 74zM213 799c0 -16 13 -29 29 -29s30 13 30 29s-14 30 -30 30s-29 -14 -29 -30z" />
    <glyph glyph-name="tilde.case" horiz-adv-x="441" 
d="M283 845c15 0 29 -3 45 -12l33 -17c11 -5 20 -10 29 -10c18 0 33 12 44 37h56c-24 -77 -69 -88 -102 -88c-15 0 -29 3 -45 12l-33 17c-11 5 -20 10 -29 10c-18 0 -33 -12 -44 -37h-56c24 77 69 88 102 88z" />
    <glyph glyph-name="at.case.ss01" horiz-adv-x="872" 
d="M647 608v-420c0 -31 18 -63 61 -63s60 32 60 63v295c0 120 -90 277 -313 277s-313 -157 -313 -277v-266c0 -120 90 -277 313 -277c87 0 152 24 201 59l25 -36c-56 -39 -130 -65 -226 -65c-256 0 -356 182 -356 319v266c0 137 100 319 356 319s356 -182 356 -319v-287
c0 -79 -41 -114 -105 -114s-101 37 -112 73c-31 -48 -88 -73 -145 -73c-92 0 -198 53 -198 202v136c0 149 106 202 198 202c57 0 114 -25 145 -73v59h53zM594 284v136c0 93 -61 151 -145 151c-85 0 -145 -58 -145 -151v-136c0 -93 60 -151 145 -151c84 0 145 58 145 151z
" />
    <glyph glyph-name="a.ss01" horiz-adv-x="542" 
d="M225 40c80 0 149 54 169 147c32 150 35 157 35 181c0 69 -42 112 -125 112c-80 0 -149 -54 -169 -147c-32 -150 -35 -157 -35 -181c0 -69 42 -112 125 -112zM354 0l14 63c-27 -40 -79 -73 -152 -73c-76 0 -168 44 -168 156c0 30 2 33 34 187c29 140 116 197 231 197
c77 0 123 -47 137 -83l14 69h53l-110 -516h-53z" />
    <glyph glyph-name="aacute.ss01" horiz-adv-x="542" 
d="M225 40c80 0 149 54 169 147c32 150 35 157 35 181c0 69 -42 112 -125 112c-80 0 -149 -54 -169 -147c-32 -150 -35 -157 -35 -181c0 -69 42 -112 125 -112zM354 0l14 63c-27 -40 -79 -73 -152 -73c-76 0 -168 44 -168 156c0 30 2 33 34 187c29 140 116 197 231 197
c77 0 123 -47 137 -83l14 69h53l-110 -516h-53zM360 700h84l-118 -129h-51z" />
    <glyph glyph-name="abreve.ss01" horiz-adv-x="542" 
d="M225 40c80 0 149 54 169 147c32 150 35 157 35 181c0 69 -42 112 -125 112c-80 0 -149 -54 -169 -147c-32 -150 -35 -157 -35 -181c0 -69 42 -112 125 -112zM354 0l14 63c-27 -40 -79 -73 -152 -73c-76 0 -168 44 -168 156c0 30 2 33 34 187c29 140 116 197 231 197
c77 0 123 -47 137 -83l14 69h53l-110 -516h-53zM339 620h23c32 0 85 35 93 80h54c-16 -72 -84 -129 -156 -129h-24c-63 0 -105 44 -105 103c0 8 1 17 3 26h46c-1 -7 -2 -13 -2 -18c0 -36 24 -62 68 -62z" />
    <glyph glyph-name="acircumflex.ss01" horiz-adv-x="542" 
d="M225 40c80 0 149 54 169 147c32 150 35 157 35 181c0 69 -42 112 -125 112c-80 0 -149 -54 -169 -147c-32 -150 -35 -157 -35 -181c0 -69 42 -112 125 -112zM354 0l14 63c-27 -40 -79 -73 -152 -73c-76 0 -168 44 -168 156c0 30 2 33 34 187c29 140 116 197 231 197
c77 0 123 -47 137 -83l14 69h53l-110 -516h-53zM423 571l-70 83l-104 -83h-69l152 129h52l98 -129h-59z" />
    <glyph glyph-name="adieresis.ss01" horiz-adv-x="542" 
d="M225 40c80 0 149 54 169 147c32 150 35 157 35 181c0 69 -42 112 -125 112c-80 0 -149 -54 -169 -147c-32 -150 -35 -157 -35 -181c0 -69 42 -112 125 -112zM354 0l14 63c-27 -40 -79 -73 -152 -73c-76 0 -168 44 -168 156c0 30 2 33 34 187c29 140 116 197 231 197
c77 0 123 -47 137 -83l14 69h53l-110 -516h-53zM274 679l-19 -87h-53l19 87h53zM487 679l-19 -87h-53l19 87h53z" />
    <glyph glyph-name="agrave.ss01" horiz-adv-x="542" 
d="M225 40c80 0 149 54 169 147c32 150 35 157 35 181c0 69 -42 112 -125 112c-80 0 -149 -54 -169 -147c-32 -150 -35 -157 -35 -181c0 -69 42 -112 125 -112zM354 0l14 63c-27 -40 -79 -73 -152 -73c-76 0 -168 44 -168 156c0 30 2 33 34 187c29 140 116 197 231 197
c77 0 123 -47 137 -83l14 69h53l-110 -516h-53zM233 700h79l58 -129h-46z" />
    <glyph glyph-name="amacron.ss01" horiz-adv-x="542" 
d="M225 40c80 0 149 54 169 147c32 150 35 157 35 181c0 69 -42 112 -125 112c-80 0 -149 -54 -169 -147c-32 -150 -35 -157 -35 -181c0 -69 42 -112 125 -112zM354 0l14 63c-27 -40 -79 -73 -152 -73c-76 0 -168 44 -168 156c0 30 2 33 34 187c29 140 116 197 231 197
c77 0 123 -47 137 -83l14 69h53l-110 -516h-53zM495 613h-289l9 45h289z" />
    <glyph glyph-name="aogonek.ss01" horiz-adv-x="542" 
d="M225 40c80 0 149 54 169 147c32 150 35 157 35 181c0 69 -42 112 -125 112c-80 0 -149 -54 -169 -147c-32 -150 -35 -157 -35 -181c0 -69 42 -112 125 -112zM354 0l14 63c-27 -40 -79 -73 -152 -73c-76 0 -168 44 -168 156c0 30 2 33 34 187c29 140 116 197 231 197
c77 0 123 -47 137 -83l14 69h53l-110 -516h-53zM354 0h53c-38 -22 -105 -61 -105 -106c0 -23 16 -34 36 -34c13 0 28 5 41 12l-10 -48c-16 -9 -34 -13 -50 -13c-47 0 -72 34 -72 73c0 56 50 96 107 116z" />
    <glyph glyph-name="aring.ss01" horiz-adv-x="542" 
d="M225 40c80 0 149 54 169 147c32 150 35 157 35 181c0 69 -42 112 -125 112c-80 0 -149 -54 -169 -147c-32 -150 -35 -157 -35 -181c0 -69 42 -112 125 -112zM354 0l14 63c-27 -40 -79 -73 -152 -73c-76 0 -168 44 -168 156c0 30 2 33 34 187c29 140 116 197 231 197
c77 0 123 -47 137 -83l14 69h53l-110 -516h-53zM270 635c0 41 33 75 74 75s75 -34 75 -75s-34 -74 -75 -74s-74 33 -74 74zM313 635c0 -17 14 -31 31 -31s32 14 32 31s-15 32 -32 32s-31 -15 -31 -32z" />
    <glyph glyph-name="atilde.ss01" horiz-adv-x="542" 
d="M225 40c80 0 149 54 169 147c32 150 35 157 35 181c0 69 -42 112 -125 112c-80 0 -149 -54 -169 -147c-32 -150 -35 -157 -35 -181c0 -69 42 -112 125 -112zM354 0l14 63c-27 -40 -79 -73 -152 -73c-76 0 -168 44 -168 156c0 30 2 33 34 187c29 140 116 197 231 197
c77 0 123 -47 137 -83l14 69h53l-110 -516h-53zM451 679h49c-24 -77 -69 -88 -102 -88c-15 0 -29 3 -45 12l-33 19c-7 4 -18 10 -33 10s-32 -8 -47 -39h-49c24 77 69 88 102 88c15 0 29 -3 45 -12l33 -19c7 -4 18 -10 33 -10s32 8 47 39z" />
    <glyph glyph-name="at.ss01" horiz-adv-x="862" 
d="M623 516v-420c0 -31 18 -63 61 -63s60 32 60 63v295c0 120 -90 277 -313 277s-313 -157 -313 -277v-266c0 -120 90 -277 313 -277c87 0 152 24 201 59l25 -36c-56 -39 -130 -65 -226 -65c-256 0 -356 182 -356 319v266c0 137 100 319 356 319s356 -182 356 -319v-287
c0 -79 -41 -114 -105 -114s-101 37 -112 73c-31 -48 -88 -73 -145 -73c-92 0 -198 53 -198 202v136c0 149 106 202 198 202c57 0 114 -25 145 -73v59h53zM570 192v136c0 93 -61 151 -145 151c-85 0 -145 -58 -145 -151v-136c0 -93 60 -151 145 -151c84 0 145 58 145 151z
" />
    <glyph glyph-name="l.ss02" horiz-adv-x="213" 
d="M227 700l-149 -700h-53l149 700h53z" />
    <glyph glyph-name="lacute.ss02" horiz-adv-x="213" 
d="M227 700l-149 -700h-53l149 700h53zM239 874h84l-118 -129h-51z" />
    <glyph glyph-name="lcaron.ss02" horiz-adv-x="213" 
d="M363 700l-94 -158h-46l61 158h79zM227 700l-149 -700h-53l149 700h53z" />
    <glyph glyph-name="lcommaaccent.ss02" horiz-adv-x="213" 
d="M227 700l-149 -700h-53l149 700h53zM-10 -124l15 74h74l-15 -74l-37 -74h-49l37 74h-25z" />
    <glyph glyph-name="ldot.ss02" horiz-adv-x="266" 
d="M227 700l-149 -700h-53l149 700h53zM295 394l-19 -87h-53l19 87h53z" />
    <glyph glyph-name="lslash.ss02" horiz-adv-x="229" 
d="M235 700l-62 -289l71 35l-10 -53l-72 -36l-76 -357h-53l70 328l-71 -35l10 53l72 36l68 318h53z" />
    <glyph glyph-name="fl.ss02" horiz-adv-x="518" 
d="M77 466l11 50h73l17 81c13 66 28 103 129 103h73l-11 -50h-73c-43 0 -57 -16 -65 -53l-17 -81h127l-11 -50h-127l-99 -466h-53l99 466h-73zM532 700l-149 -700h-53l149 700h53z" />
    <glyph glyph-name="uniFB04.ss02" horiz-adv-x="823" 
d="M77 466l11 50h73l17 81c13 66 28 103 129 103h73l-11 -50h-73c-43 0 -57 -16 -65 -53l-17 -81h127l-11 -50h-127l-99 -466h-53l99 466h-73zM382 466l11 50h73l17 81c13 66 28 103 129 103h73l-11 -50h-73c-43 0 -57 -16 -65 -53l-17 -81h127l-11 -50h-127l-99 -466h-53
l99 466h-73zM837 700l-149 -700h-53l149 700h53z" />
    </font>
</defs>
</svg>
